<?xml version="1.0" encoding="utf-8"?>
<!-- Generator: Adobe Illustrator 24.0.1, SVG Export Plug-In . SVG Version: 6.00 Build 0)  -->
<svg version="1.1" id="Layer_1" xmlns="http://www.w3.org/2000/svg" xmlns:xlink="http://www.w3.org/1999/xlink" x="0px" y="0px"
	 viewBox="0 0 100 100" style="enable-background:new 0 0 100 100;" xml:space="preserve">
<style type="text/css">
	.st0{fill:#CE0E2D;}
	.st1{fill:#FFFFFF;}
</style>
<g>
	<path class="st0" d="M16.1,42.1c0-0.5,0-1.1,0-1.6c0-0.4,0-0.7,0.1-1.1c0-0.1,0-0.2,0-0.3c0-1.3,0-2.6,0.1-3.9c0-0.1,0-0.2,0-0.2
		c0.1-0.4,0.1-0.8,0.1-1.2c0-0.7,0-1.3,0-2c0,0,0-0.1,0-0.1c0.2-0.5,0.1-1,0.1-1.5c0-0.6,0.1-1.2,0.1-1.8c0-0.6,0-1.2,0.1-1.8
		c0-0.1,0-0.2,0-0.2c0.2-0.5,0.1-1.1,0.1-1.6c0-0.3,0-0.6,0.1-0.9c0-0.2,0-0.5,0.1-0.7c0-0.7,0.1-1.3,0.1-2c0-0.2,0-0.3,0-0.5
		c0-0.4,0-0.9,0.1-1.3c0-0.1,0-0.2,0-0.3c0.1-1.3,0.2-2.6,0.3-3.9c0.1-1.2,0.2-2.3,0.3-3.5c0-0.4,0.1-0.9,0.1-1.3
		c0-0.4,0.1-0.6,0.6-0.7c1.7-0.5,3.4-1,5.1-1.3C24.4,8,25.2,7.8,26,7.7c1.2-0.2,2.5-0.5,3.7-0.7c0.2,0,0.4-0.1,0.6-0.1
		c0.6-0.2,1.2-0.2,1.8-0.3c0.6-0.1,1.2-0.2,1.8-0.3c0.8-0.1,1.5-0.2,2.3-0.3C37,6,37.7,5.9,38.4,5.8c0.2,0,0.4,0,0.6-0.1
		c0.8-0.1,1.7-0.2,2.5-0.2c0.2,0,0.4,0,0.6-0.1c0.3,0,0.6-0.1,0.9-0.1c0.6,0,1.2,0,1.7,0c0.1,0,0.1,0,0.2,0c0.4-0.1,0.8-0.1,1.3-0.1
		c1.9,0,3.8,0,5.7,0c0.5,0,0.9,0,1.4,0c0.4,0,0.8,0,1.1,0.1c0.5,0.1,1.1,0.1,1.6,0.1c0.5,0,0.9,0,1.4,0.1c0.4,0.1,0.8,0,1.2,0.1
		c0.3,0,0.6,0.1,0.9,0.1c0.4,0,0.9,0,1.3,0.1c0.1,0,0.2,0,0.4,0.1c0.1,0,0.2,0.1,0.4,0.1c1.3,0.1,2.6,0.2,3.9,0.4
		c0.6,0.1,1.3,0.2,1.9,0.3c0.9,0.2,1.9,0.3,2.8,0.5c1.6,0.3,3.1,0.6,4.7,0.9c2.1,0.5,4.1,1,6.1,1.6c0.3,0.1,0.4,0.2,0.5,0.5
		c0,0.3,0,0.6,0.1,0.8c0,0.4,0.1,0.8,0.1,1.3c0,0.1,0,0.3,0,0.4c0,0.5,0,1,0.1,1.4c0.1,0.4,0,0.7,0.1,1.1c0,0.2,0.1,0.5,0.1,0.7
		c0,0.1,0,0.3,0,0.4c0,0.5,0,1,0.1,1.5c0,0.2,0,0.3,0,0.5c0.1,1,0.1,2.1,0.2,3.1c0.1,0.8,0.1,1.6,0.2,2.4c0.1,0.8,0.1,1.6,0.2,2.4
		c0,0.1,0,0.3,0.1,0.4c0,0.2,0.1,0.5,0.1,0.7c0,0.7,0.1,1.4,0.1,2.1c0.1,0.6,0,1.3,0.1,1.9c0,0.3,0.1,0.5,0.1,0.8c0,0.1,0,0.2,0,0.3
		c0,0.9,0,1.7,0.1,2.6c0,0.1,0,0.1,0,0.2c0.1,0.3,0.1,0.5,0.1,0.8c0,2.2,0.1,4.3,0.1,6.5c0,0.6,0,1.1-0.1,1.7c0,0.6,0,1.1,0,1.7
		c0,0.6,0,1.2-0.1,1.8C83,48.4,83,49.1,83,49.8c-0.1,1-0.2,1.9-0.3,2.9c-0.1,1-0.2,2-0.4,3c-0.3,1.6-0.5,3.1-0.9,4.7
		C81,62,80.5,63.7,80,65.3c-1,2.8-2.2,5.4-3.6,8c-0.3,0.5-0.6,1-0.9,1.5c-1,1.6-2,3.1-3.2,4.6c-2.2,2.7-4.8,5.2-7.5,7.4
		c-3.3,2.6-6.8,4.8-10.6,6.6c-1.4,0.7-2.8,1.3-4.2,1.9c-0.2,0.1-0.3,0.1-0.4,0c-0.2-0.1-0.4-0.2-0.6-0.3c-3-1.2-5.9-2.7-8.6-4.3
		c-2.9-1.7-5.5-3.7-8-5.9c-0.7-0.6-1.3-1.3-1.9-1.9c-1.3-1.2-2.5-2.6-3.5-4c-1.6-2-3-4.1-4.1-6.4c-0.8-1.6-1.7-3.2-2.3-5
		c-0.4-1.2-0.9-2.4-1.2-3.6c-0.5-1.6-0.9-3.2-1.3-4.8c-0.3-1.7-0.7-3.4-0.8-5.1c-0.1-0.8-0.2-1.6-0.3-2.4c0-0.3,0-0.6-0.1-0.9
		c-0.1-1.5-0.2-3-0.3-4.6c0-0.2,0-0.5,0-0.7c0-0.2,0-0.4-0.1-0.6c0-0.2-0.1-0.5-0.1-0.7C16.1,43.4,16.1,42.7,16.1,42.1z M17.6,42.7
		c0,1,0,2.3,0.1,3.6c0.1,0.7,0.1,1.5,0.1,2.2c0,0.5,0,0.9,0.1,1.4c0.1,0.8,0.2,1.7,0.3,2.5c0.1,0.8,0.1,1.6,0.2,2.4
		c0.3,2.1,0.7,4.3,1.2,6.4c0.6,2.3,1.4,4.6,2.3,6.9c1.3,3,2.8,5.8,4.7,8.5c2.4,3.3,5.2,6.2,8.3,8.8c2.6,2.1,5.5,3.9,8.5,5.5
		c1.9,1.1,4,1.9,6,2.8c0.2,0.1,0.4,0.1,0.7,0c1.2-0.5,2.3-1,3.5-1.6c4-1.9,7.8-4.2,11.2-7c2.4-2,4.7-4.2,6.7-6.7
		c3.5-4.5,6.1-9.5,7.7-15c0.8-2.5,1.3-5.1,1.7-7.7c0.2-1.8,0.5-3.6,0.6-5.4c0.1-1.1,0.1-2.3,0.2-3.4c0-0.6,0.1-1.2,0.1-1.9
		c0-1.2,0-2.5,0-3.7c0-0.3,0-0.6,0-0.9c0-0.5-0.1-0.9-0.1-1.4c0-0.7,0-1.5,0-2.2c0-0.3,0-0.6,0-0.8c-0.1-1.5-0.2-2.9-0.2-4.4
		c-0.1-1.2-0.1-2.4-0.2-3.6c0-0.8-0.1-1.6-0.2-2.4c-0.1-1.2-0.2-2.4-0.3-3.7c-0.1-1.2-0.2-2.3-0.2-3.5c-0.1-1.2-0.2-2.3-0.3-3.5
		c-0.1-1.1-0.2-2.3-0.3-3.4c0-0.4-0.2-0.5-0.5-0.6c0,0-0.1,0-0.1,0c-1.6-0.4-3.1-0.9-4.7-1.3c-1.2-0.3-2.3-0.6-3.5-0.8
		c-1.5-0.3-3-0.5-4.6-0.8c-0.5-0.1-1-0.2-1.5-0.2c-0.6-0.1-1.2-0.1-1.8-0.2c-0.7-0.1-1.4-0.2-2-0.2c-0.6-0.1-1.2-0.1-1.7-0.2
		C58.9,7,58.3,7,57.6,6.9c-0.6,0-1.3-0.1-1.9-0.1c-1.1-0.1-2.3-0.2-3.4-0.2c-1.9,0-3.7,0-5.6,0.1c-1.5,0-3,0.1-4.5,0.2
		c-0.4,0-0.7,0-1.1,0.1c-0.9,0.1-1.8,0.2-2.8,0.3c-0.5,0-1,0.1-1.5,0.1c-1.1,0.1-2.2,0.3-3.3,0.4c-0.9,0.1-1.8,0.2-2.7,0.4
		C29,8.6,27.1,9,25.2,9.4c-1.2,0.3-2.4,0.6-3.5,0.9c-0.6,0.2-1.2,0.4-1.8,0.5c-0.3,0.1-0.4,0.3-0.4,0.5c0,0.4-0.1,0.9-0.1,1.3
		c-0.1,0.8-0.1,1.7-0.2,2.5c-0.1,1-0.2,2.1-0.3,3.1c-0.1,0.9-0.1,1.7-0.2,2.6c-0.1,1.3-0.2,2.6-0.3,3.9c-0.1,1.2-0.1,2.4-0.2,3.6
		c0,0.1,0,0.3,0,0.4c0,0.7-0.1,1.4-0.1,2.1c0,0.3,0,0.6-0.1,0.9c0,0.2,0,0.5,0,0.7c0,0.7,0,1.3-0.1,2c-0.1,1.2-0.1,2.4-0.1,3.7
		c0,0.3,0,0.6,0,0.8c0,0.6-0.1,1.2-0.1,1.8C17.6,41.3,17.6,41.9,17.6,42.7z"/>
	<path class="st1" d="M17.6,42.7c0-0.8,0-1.4,0-1.9c0-0.6,0-1.2,0.1-1.8c0-0.3,0-0.6,0-0.8c0-1.2,0-2.4,0.1-3.7c0.1-0.7,0-1.3,0.1-2
		c0-0.2,0-0.5,0-0.7c0-0.3,0-0.6,0.1-0.9c0-0.7,0.1-1.4,0.1-2.1c0-0.1,0-0.3,0-0.4c0.1-1.2,0.1-2.4,0.2-3.6c0.1-1.3,0.2-2.6,0.3-3.9
		c0.1-0.9,0.1-1.7,0.2-2.6c0.1-1,0.2-2.1,0.3-3.1c0.1-0.8,0.1-1.7,0.2-2.5c0-0.4,0.1-0.9,0.1-1.3c0-0.3,0.1-0.4,0.4-0.5
		c0.6-0.2,1.2-0.4,1.8-0.5c1.2-0.3,2.4-0.7,3.5-0.9C27.1,9,29,8.6,30.9,8.3c0.9-0.2,1.8-0.3,2.7-0.4c1.1-0.2,2.2-0.3,3.3-0.4
		c0.5-0.1,1-0.1,1.5-0.1c0.9-0.1,1.8-0.2,2.8-0.3c0.4,0,0.7,0,1.1-0.1c1.5-0.1,3-0.2,4.5-0.2c1.9-0.1,3.7-0.1,5.6-0.1
		c1.1,0,2.3,0.1,3.4,0.2c0.6,0,1.3,0.1,1.9,0.1c0.6,0,1.2,0.1,1.8,0.2c0.6,0.1,1.2,0.1,1.7,0.2c0.7,0.1,1.4,0.2,2,0.2
		c0.6,0.1,1.2,0.1,1.8,0.2c0.5,0.1,1,0.2,1.5,0.2c1.5,0.3,3.1,0.5,4.6,0.8c1.2,0.2,2.3,0.5,3.5,0.8c1.6,0.4,3.2,0.9,4.7,1.3
		c0,0,0.1,0,0.1,0c0.3,0.1,0.5,0.2,0.5,0.6c0.1,1.1,0.2,2.3,0.3,3.4c0.1,1.2,0.2,2.3,0.3,3.5c0.1,1.2,0.2,2.3,0.2,3.5
		c0.1,1.2,0.2,2.4,0.3,3.7c0.1,0.8,0.1,1.6,0.2,2.4c0.1,1.2,0.1,2.4,0.2,3.6c0.1,1.5,0.2,2.9,0.2,4.4c0,0.3,0,0.6,0,0.8
		c0,0.7,0,1.5,0,2.2c0,0.5,0.1,0.9,0.1,1.4c0,0.3,0,0.6,0,0.9c0,1.2,0,2.5,0,3.7c0,0.6-0.1,1.2-0.1,1.9c-0.1,1.1-0.2,2.3-0.2,3.4
		c-0.1,1.8-0.4,3.6-0.6,5.4c-0.4,2.6-0.9,5.2-1.7,7.7c-1.6,5.5-4.2,10.5-7.7,15c-2,2.5-4.2,4.7-6.7,6.7c-3.4,2.8-7.2,5.2-11.2,7
		c-1.2,0.5-2.3,1-3.5,1.6c-0.2,0.1-0.4,0.1-0.7,0c-2-0.9-4-1.7-6-2.8c-3-1.6-5.8-3.4-8.5-5.5c-3.1-2.6-6-5.4-8.3-8.8
		C24.8,73.8,23.2,71,22,68c-0.9-2.2-1.7-4.5-2.3-6.9c-0.5-2.1-0.9-4.2-1.2-6.4c-0.1-0.8-0.2-1.6-0.2-2.4c-0.1-0.8-0.2-1.7-0.3-2.5
		c0-0.5-0.1-0.9-0.1-1.4c0-0.7-0.1-1.5-0.1-2.2C17.6,45,17.6,43.7,17.6,42.7z M18.9,40.2C18.9,40.2,18.9,40.2,18.9,40.2
		c0,0.3,0,0.6,0,0.9c0,1.3,0,2.6,0,3.8c0,1.1,0.1,2.3,0.2,3.4c0.1,1.2,0.2,2.5,0.3,3.7c0.1,0.7,0.2,1.3,0.3,2
		c0.1,0.7,0.2,1.4,0.3,2.1c0.3,1.8,0.7,3.7,1.2,5.5c0.9,3.4,2.2,6.6,3.9,9.7c2.5,4.5,5.6,8.5,9.5,11.8c3.4,2.9,7.1,5.4,11.2,7.3
		c1.1,0.5,2.3,1,3.4,1.6c0.4,0.2,0.8,0.2,1.3,0c2.1-0.9,4.1-1.9,6.1-3c4.1-2.3,7.9-5,11.2-8.3c2.5-2.6,4.7-5.4,6.5-8.6
		c2.3-3.9,3.8-8.2,4.8-12.6c0.5-2.2,0.9-4.4,1.1-6.6c0.2-1.5,0.3-3,0.4-4.6c0-0.7,0.1-1.3,0.1-2c0-0.3,0-0.6,0-0.9
		c0-1.1,0-2.1,0-3.2c0-0.8,0-1.5,0-2.3c0-1.2-0.1-2.5-0.1-3.7c0-0.8,0-1.6-0.1-2.4c-0.1-1.3-0.1-2.6-0.2-3.9c0-0.4,0-0.9-0.1-1.3
		c-0.1-1.2-0.2-2.3-0.3-3.5c-0.1-1.3-0.2-2.6-0.2-3.9c-0.1-1.4-0.2-2.7-0.3-4.1c-0.1-1.6-0.3-3.3-0.4-4.9c0-0.5,0-0.5-0.5-0.6
		c-2-0.6-4.1-1.1-6.2-1.5c-1.4-0.3-2.9-0.6-4.4-0.8c-1.2-0.2-2.4-0.4-3.7-0.6c-0.7-0.1-1.4-0.1-2-0.2c-1.3-0.2-2.5-0.3-3.8-0.4
		c-1.2-0.1-2.4-0.1-3.6-0.2c-0.9,0-1.7-0.1-2.6-0.1c-0.6,0-1.1,0-1.7,0c-1.4,0-2.8,0-4.1,0c-0.6,0-1.2,0.1-1.8,0.1
		c-0.7,0-1.4,0.1-2.1,0.1c-1.2,0.1-2.5,0.2-3.7,0.3c-0.4,0-0.7,0-1.1,0.1c-0.8,0.1-1.5,0.2-2.3,0.3c-1.5,0.2-3,0.4-4.5,0.7
		c-1.7,0.3-3.4,0.7-5.2,1c-1.6,0.4-3.2,0.8-4.8,1.2c-0.2,0.1-0.3,0.2-0.4,0.4c0,0.5-0.1,1-0.1,1.5c-0.1,1.1-0.2,2.3-0.3,3.4
		c0,0.5-0.1,1-0.1,1.5c-0.1,0.7-0.1,1.5-0.1,2.2c-0.1,1.5-0.2,3-0.3,4.5c-0.1,0.8-0.1,1.6-0.1,2.3c-0.1,1.4-0.2,2.8-0.3,4.2
		c-0.1,1.4-0.1,2.8-0.2,4.2c0,0.4,0,0.8,0,1.2C19,38.4,18.9,39.3,18.9,40.2z"/>
	<path class="st0" d="M18.9,40.2c0-0.9,0.1-1.8,0.1-2.7c0-0.4,0-0.8,0-1.2c0.1-1.4,0.1-2.8,0.2-4.2c0.1-1.4,0.2-2.8,0.3-4.2
		c0-0.8,0.1-1.6,0.1-2.3c0.1-1.5,0.2-3,0.3-4.5c0.1-0.7,0.1-1.5,0.1-2.2c0-0.5,0.1-1,0.1-1.5c0.1-1.1,0.2-2.3,0.3-3.4
		c0-0.5,0.1-1,0.1-1.5c0-0.2,0.1-0.4,0.4-0.4c1.6-0.4,3.2-0.9,4.8-1.2c1.7-0.4,3.4-0.7,5.2-1c1.5-0.3,3-0.5,4.5-0.7
		c0.8-0.1,1.5-0.2,2.3-0.3c0.4,0,0.7-0.1,1.1-0.1c1.2-0.1,2.5-0.2,3.7-0.3c0.7-0.1,1.4-0.1,2.1-0.1C45.1,8,45.7,8,46.3,8
		c1.4,0,2.8,0,4.1,0c0.6,0,1.1,0,1.7,0C53,7.9,53.9,8,54.7,8c1.2,0.1,2.4,0.1,3.6,0.2c1.3,0.1,2.5,0.2,3.8,0.4
		c0.7,0.1,1.4,0.1,2,0.2c1.2,0.2,2.4,0.4,3.7,0.6c1.5,0.2,2.9,0.5,4.4,0.8c2.1,0.5,4.2,0.9,6.2,1.5c0.5,0.1,0.5,0.1,0.5,0.6
		c0.1,1.6,0.3,3.3,0.4,4.9c0.1,1.4,0.2,2.7,0.3,4.1c0.1,1.3,0.2,2.6,0.2,3.9c0.1,1.2,0.2,2.3,0.3,3.5c0,0.4,0,0.9,0.1,1.3
		c0.1,1.3,0.1,2.6,0.2,3.9c0.1,0.8,0.1,1.6,0.1,2.4c0,1.2,0.1,2.5,0.1,3.7c0,0.8,0,1.5,0,2.3c0,1.1,0,2.1,0,3.2c0,0.3,0,0.6,0,0.9
		c0,0.7-0.1,1.3-0.1,2c-0.1,1.5-0.2,3-0.4,4.6c-0.2,2.2-0.6,4.4-1.1,6.6c-1,4.4-2.6,8.6-4.8,12.6c-1.8,3.1-3.9,6-6.5,8.6
		c-3.3,3.3-7.1,6.1-11.2,8.3c-2,1.1-4,2.1-6.1,3c-0.4,0.2-0.8,0.2-1.3,0c-1.1-0.5-2.3-1-3.4-1.6c-4.1-1.9-7.8-4.4-11.2-7.3
		c-3.9-3.3-7.1-7.3-9.5-11.8c-1.7-3.1-2.9-6.3-3.9-9.7c-0.5-1.8-0.9-3.6-1.2-5.5c-0.1-0.7-0.2-1.4-0.3-2.1c-0.1-0.7-0.2-1.3-0.3-2
		c-0.1-1.2-0.2-2.5-0.3-3.7c-0.1-1.1-0.2-2.3-0.2-3.4c0-1.3,0-2.6,0-3.8C18.9,40.8,18.9,40.5,18.9,40.2
		C18.9,40.2,18.9,40.2,18.9,40.2z M70.3,44.5c0-2.4-0.1-4.7-0.2-7.1c-0.1-1.3-0.2-2.6-0.2-3.9c-0.1-1.4-0.2-2.7-0.3-4.1
		c-0.1-1.5-0.2-2.9-0.3-4.4c0-0.4-0.1-0.5-0.5-0.6c-2-0.6-4-1.1-6.1-1.5c-0.8-0.2-1.7-0.3-2.5-0.4c-0.5-0.1-1-0.2-1.5-0.2
		c-1-0.1-1.9-0.2-2.9-0.3c-1.4-0.1-2.8-0.2-4.1-0.2c-0.3,0-0.7,0-1,0c-0.5,0-1,0-1.4,0c-0.3,0-0.6,0-0.9,0.1c-1,0-2,0.1-3,0.1
		c-0.4,0-0.8,0.1-1.2,0.1c-0.9,0.1-1.8,0.1-2.7,0.2c-0.7,0.1-1.3,0.1-2,0.2c-1.4,0.3-2.9,0.5-4.3,0.8c-1.5,0.3-3,0.7-4.5,1.2
		c-0.2,0.1-0.3,0.2-0.4,0.4c-0.1,0.7-0.1,1.4-0.2,2.2c-0.1,1.1-0.2,2.2-0.2,3.3c0,0.6,0,1.1-0.1,1.7c-0.1,1.2-0.2,2.4-0.3,3.6
		c-0.1,1.2-0.2,2.5-0.2,3.7c-0.1,1.4-0.1,2.8-0.2,4.2c-0.1,1.8,0,3.7,0.1,5.5c0.1,1,0.2,2.1,0.3,3.1c0.1,1,0.2,2,0.4,3.1
		c0.5,2.7,1.4,5.2,2.5,7.6c1.7,3.5,4,6.4,6.9,9c2.9,2.5,6.3,4.4,9.8,5.9c0.3,0.1,0.6,0.1,0.9,0c1.5-0.6,2.8-1.3,4.2-2.1
		c2.8-1.5,5.3-3.3,7.4-5.6c3.1-3.2,5.4-7,6.7-11.3c0.9-2.8,1.5-5.7,1.6-8.6c0-0.4,0.1-0.8,0.1-1.2c0-0.5,0.1-1,0.1-1.5
		C70.3,46.6,70.3,45.6,70.3,44.5z M34,15c0-0.1-0.1-0.1-0.1-0.2c-0.1-0.6-0.2-1.1-0.3-1.7c-0.1-0.4-0.1-0.9-0.2-1.3
		c0-0.3-0.1-0.3-0.4-0.3c0,0-0.1,0-0.1,0c-0.5,0.1-1,0.2-1.5,0.3c-0.2,0-0.3,0.1-0.3,0.4c0,0.3,0.1,0.5,0.1,0.8
		c0.4,2.2,0.7,4.4,1.1,6.7c0.1,0.4,0.1,0.9,0.2,1.3c0,0.2,0.1,0.3,0.3,0.2c0.1,0,0.3,0,0.4-0.1c0.4-0.1,0.8-0.1,1.2-0.2
		c0.3,0,0.3-0.1,0.3-0.4c0,0,0-0.1,0-0.1c-0.2-1.1-0.3-2.1-0.5-3.2c0-0.1,0-0.1,0-0.2c0.1,0,0.2-0.1,0.3-0.1c0.5-0.1,1-0.2,1.5-0.2
		c0.4-0.1,0.8-0.1,1.2-0.2c0.3,0,0.4,0,0.4,0.3c0,0.3,0.1,0.6,0.1,0.9c0.1,0.8,0.2,1.5,0.4,2.3c0,0.3,0.1,0.3,0.3,0.3
		c0.5-0.1,1.1-0.2,1.6-0.3c0.3-0.1,0.3-0.2,0.3-0.5c-0.2-1-0.3-1.9-0.5-2.9c-0.3-1.6-0.5-3.3-0.8-4.9c-0.1-0.4-0.1-0.7-0.2-1.1
		c-0.2,0-0.4,0-0.6,0.1c-0.4,0.1-0.9,0.1-1.3,0.2c-0.3,0-0.3,0.1-0.3,0.4c0,0,0,0.1,0,0.1c0.1,0.4,0.2,0.9,0.2,1.3
		c0.1,0.4,0.1,0.8,0.2,1.3c0.1,0.5,0,0.5-0.5,0.6c-0.2,0-0.5,0.1-0.7,0.1C35.3,14.8,34.7,14.9,34,15z M48.1,13.7
		C48.1,13.7,48.1,13.7,48.1,13.7c0.1,0.6,0.1,1.2,0.1,1.8c0,0.5,0,0.9-0.2,1.4c-0.3,1-1.7,1.4-2.5,0.5c-0.3-0.3-0.4-0.7-0.5-1.1
		C45,15.7,45,15,44.9,14.3c0-1.1-0.1-2.2-0.1-3.3c0-0.2,0-0.3-0.1-0.5c0-0.2-0.1-0.3-0.3-0.3c-0.6,0-1.1,0-1.7,0.1
		c-0.2,0-0.2,0.1-0.3,0.2c0,0.2,0,0.4,0,0.6c0.1,1.1,0.1,2.1,0.1,3.2c0,0.5,0,1,0.1,1.5c0,0.5,0.1,1.1,0.3,1.6
		c0.4,1.3,1.3,2.1,2.6,2.3c0.7,0.1,1.5,0.1,2.2-0.1c1.4-0.4,2.3-1.3,2.6-2.7c0.1-0.6,0.2-1.1,0.1-1.7c0-1.3-0.1-2.7-0.1-4
		c0-0.3,0-0.6,0-0.9c0-0.3-0.1-0.4-0.4-0.4c-0.5,0-0.9,0-1.4,0.1c-0.1,0-0.2,0-0.3,0c-0.2,0-0.3,0.1-0.3,0.3c0,0.1,0,0.2,0,0.4
		c0,0.4,0.1,0.7,0.1,1.1C48.1,12.5,48.1,13.1,48.1,13.7z M56,10.2c-0.6,0-1.2-0.1-1.9-0.1c-0.3,0-0.3,0-0.4,0.3
		c-0.1,1.4-0.2,2.9-0.3,4.3c-0.1,1.3-0.2,2.7-0.3,4c0,0.2,0,0.3,0,0.5c0,0.2,0.1,0.2,0.2,0.3c0.2,0,0.3,0,0.5,0.1
		c1.6,0.1,3.3,0.2,4.9,0.3c0.3,0,0.3,0,0.4-0.3c0-0.4,0.1-0.9,0.1-1.3c0-0.3,0-0.3-0.3-0.3c-0.8-0.1-1.7-0.1-2.5-0.2
		c-0.2,0-0.4,0-0.6-0.1c-0.1,0-0.2-0.1-0.2-0.2c0-0.1,0-0.2,0-0.3c0.1-0.8,0.1-1.7,0.2-2.5c0.1-1,0.2-2.1,0.2-3.1
		C56,11.2,56,10.7,56,10.2z M66.6,21.2c0.2,0,0.2,0,0.3-0.2c0-0.1,0-0.2,0.1-0.3c0.1-0.4,0.1-0.7,0.2-1.1c0-0.2,0-0.3-0.2-0.3
		c0,0-0.1,0-0.1,0c-0.6-0.1-1.2-0.2-1.8-0.3c-0.4-0.1-0.7-0.1-1.1-0.2c-0.3-0.1-0.3-0.2-0.3-0.5c0-0.2,0.1-0.3,0.1-0.4
		c0.3-1.5,0.5-3.1,0.8-4.6c0.1-0.6,0.2-1.1,0.3-1.7c0-0.2,0-0.3-0.2-0.4c-0.1,0-0.1,0-0.2,0C63.9,11.1,63.4,11,63,11
		c-0.5-0.1-0.5,0-0.6,0.5c-0.2,1.2-0.4,2.3-0.6,3.5c-0.2,1.4-0.5,2.8-0.7,4.2c0,0.3-0.1,0.6-0.1,0.8c0,0.2,0,0.3,0.2,0.3
		c0,0,0.1,0,0.1,0c1.4,0.2,2.8,0.5,4.2,0.7C65.9,21.1,66.2,21.1,66.6,21.2z M46.5,84.4c-0.1-0.3-0.1-0.6-0.2-0.8
		c-0.1-0.8-0.1-1.6-0.2-2.4c0-0.2-0.1-0.4-0.3-0.5c-0.3-0.1-0.5-0.3-0.8-0.4c-0.2-0.1-0.3-0.1-0.4,0.1c0,0-0.1,0.1-0.1,0.2
		c-0.7,1.3-1.4,2.7-2.1,4c-0.1,0.2-0.2,0.3-0.2,0.5c-0.1,0.2-0.1,0.3,0.1,0.4c0.2,0.1,0.4,0.2,0.6,0.3c0.4,0.2,0.4,0.2,0.7-0.2
		c0.4-0.7,0.7-1.4,1.1-2.1c0-0.1,0.1-0.2,0.2-0.3c0,0.1,0.1,0.2,0.1,0.3c0,0.5,0.1,0.9,0.1,1.4c0,0.6,0.1,1.3,0.2,1.9
		c0,0.2,0.1,0.4,0.3,0.4c0.2,0.1,0.5,0.2,0.7,0.4c0.2,0.1,0.3,0.1,0.4-0.1c0.2-0.3,0.3-0.6,0.5-0.9c0.6-1.2,1.3-2.5,1.9-3.7
		c0.1-0.3,0.1-0.3-0.1-0.5c-0.2-0.1-0.5-0.2-0.8-0.4c-0.2-0.1-0.3-0.1-0.4,0.1c-0.2,0.4-0.5,0.9-0.7,1.3
		C46.9,83.6,46.7,84,46.5,84.4z M26.4,61.4c0-0.1,0.1-0.1,0.1-0.2c0.2-0.2,0.3-0.4,0.5-0.5c0.5-0.6,1-1.1,1.5-1.6
		c0.2-0.2,0.3-0.4,0.2-0.7c-0.1-0.3-0.2-0.5-0.3-0.8c0-0.1-0.1-0.1-0.1-0.2c-0.2,0-0.3,0.1-0.4,0.1c-1.6,0.4-3.2,0.9-4.9,1.3
		c0,0-0.1,0-0.1,0c-0.1,0-0.2,0.1-0.1,0.2c0.1,0.3,0.2,0.7,0.3,1c0,0.1,0.1,0.2,0.3,0.1c0.1,0,0.1,0,0.2-0.1
		c0.8-0.2,1.5-0.4,2.3-0.6c0.1,0,0.2,0,0.4-0.1c0,0.1-0.1,0.2-0.1,0.2c-0.2,0.2-0.4,0.5-0.6,0.7c-0.5,0.5-1,1.1-1.5,1.6
		c-0.2,0.2-0.2,0.4-0.1,0.7c0.1,0.1,0.1,0.3,0.1,0.4c0.1,0.5,0.2,0.5,0.7,0.4c1.3-0.4,2.7-0.8,4-1.1c0.3-0.1,0.5-0.1,0.8-0.2
		c0.2-0.1,0.3-0.1,0.2-0.3c-0.1-0.3-0.2-0.7-0.3-1c0-0.1-0.1-0.1-0.2-0.1c-0.1,0-0.2,0.1-0.3,0.1c-0.7,0.2-1.4,0.4-2.1,0.6
		C26.6,61.4,26.5,61.5,26.4,61.4z M73.3,62.1c0-0.2-0.1-0.3-0.1-0.5c-0.2-0.7-0.6-1-1.3-1.2c-0.6-0.1-1.1,0-1.5,0.5
		c-0.3,0.3-0.5,0.7-0.6,1.1c-0.2,0.5-0.4,0.9-0.5,1.4c-0.1,0.3-0.2,0.6-0.3,0.9c-0.1,0.2,0,0.3,0.2,0.4c0,0,0.1,0,0.1,0.1
		c1.4,0.5,2.8,1.1,4.2,1.6c0.2,0.1,0.3,0.1,0.5,0.2c0.3,0.1,0.4,0.1,0.5-0.2c0.1-0.2,0.2-0.5,0.3-0.7c0.1-0.3,0.1-0.4-0.2-0.5
		c-0.5-0.2-1.1-0.4-1.6-0.6c-0.1,0-0.1-0.1-0.2-0.1c0-0.1,0.1-0.3,0.1-0.4c0-0.2,0.2-0.3,0.4-0.3c0.7-0.1,1.4-0.3,2.1-0.4
		c0.2,0,0.3-0.1,0.4-0.3c0.1-0.3,0.2-0.6,0.3-0.9c0-0.1,0-0.2,0-0.3c-0.2,0-0.3,0-0.4,0c-0.5,0.1-1,0.2-1.5,0.2
		C73.8,62,73.6,62.1,73.3,62.1z M61.3,82.4c-0.9-0.5-1.7-0.9-2.6-1.3c0.1-0.1,0.1-0.2,0.2-0.3c0.1-0.2,0.2-0.4,0.2-0.6
		c0.1-0.7-0.2-1.2-0.7-1.6c-0.4-0.3-0.8-0.4-1.2-0.2c-0.4,0.1-0.8,0.3-1.1,0.5c-0.7,0.4-1.4,0.9-2,1.3c-0.3,0.2-0.3,0.2-0.1,0.5
		c0.9,1.4,1.8,2.9,2.8,4.3c0.1,0.1,0.1,0.2,0.2,0.3c0.4-0.2,0.7-0.4,1-0.6c0.2-0.1,0.2-0.2,0.1-0.4c-0.1-0.2-0.3-0.5-0.5-0.7
		c-0.2-0.3-0.4-0.6-0.6-1c0.4-0.4,0.6-0.4,1-0.2c0,0,0.1,0,0.1,0.1c0.5,0.3,1,0.5,1.5,0.8c0.2,0.1,0.5,0.1,0.7,0
		c0.2-0.1,0.4-0.2,0.5-0.3C61,82.6,61.1,82.5,61.3,82.4z M65.5,77.7c-0.1-0.3-0.1-0.6-0.2-0.8c-0.3-0.9-0.8-1.5-1.6-1.9
		c-0.6-0.3-1.2-0.4-1.9-0.3C59.9,75,59,77,59.6,78.6c0.5,1.3,1.7,2.1,3,2.1C64.2,80.7,65.5,79.3,65.5,77.7z M40,83.4
		c0.2,0,0.3,0,0.5-0.1c1.2-0.3,2-1.1,2.4-2.3c0.2-0.6,0.2-1.3-0.1-1.9c-0.4-0.9-1.1-1.5-2.1-1.8c-0.4-0.1-0.8-0.1-1.2,0
		c-1.3,0.3-2.3,1.5-2.5,2.8c0,0.3,0,0.7,0,1C37.4,82.4,38.6,83.4,40,83.4z M28.1,67.6c-0.3,0.3-0.5,0.3-0.8,0c0,0-0.1-0.1-0.1-0.1
		c-0.5-0.6-0.5-1.3,0.2-1.8c0.4-0.3,0.9-0.5,1.4-0.6c0.4-0.1,0.8,0.1,1,0.4c0.2,0.3,0.4,0.6,0.3,1c0,0.2-0.1,0.4-0.1,0.6
		c-0.1,0.2,0,0.3,0.2,0.4c0.3,0.1,0.5,0.2,0.8,0.3c0.1,0.1,0.2,0,0.3-0.1c0.2-0.4,0.4-0.9,0.3-1.4c-0.1-0.8-0.4-1.5-1-2
		c-0.4-0.4-0.8-0.6-1.3-0.7c-0.2,0-0.4,0-0.7,0c-1.1,0-1.9,0.5-2.6,1.2c-0.5,0.5-0.7,1.1-0.6,1.8c0.1,1.3,0.8,2.3,2.1,2.8
		c0.2,0.1,0.3,0.1,0.5,0c0.5-0.2,1.1-0.5,1.6-0.7c0.2-0.1,0.2-0.2,0.1-0.4c-0.2-0.5-0.5-1-0.7-1.5c-0.1-0.1-0.1-0.3-0.2-0.4
		c-0.1-0.2-0.2-0.2-0.4-0.1c-0.2,0.1-0.3,0.2-0.5,0.2c-0.3,0.1-0.3,0.2-0.2,0.5C27.8,67.2,28,67.4,28.1,67.6z M31,74.7
		c0.2-0.1,0.5-0.1,0.7-0.2c0.5-0.2,0.9-0.6,1-1.1c0.1-0.3,0.1-0.6,0-0.9c-0.1-0.5-0.3-1-0.5-1.6c-0.1-0.2-0.1-0.4-0.2-0.6
		c0-0.1,0-0.3,0.1-0.3c0.1-0.1,0.2-0.1,0.3,0c0.1,0.1,0.2,0.1,0.3,0.2c0.4,0.5,0.7,1,0.5,1.6c0,0.1,0,0.1,0,0.2c0,0.2,0,0.3,0.2,0.3
		c0.2,0.1,0.5,0.1,0.8,0.2c0.2,0,0.3,0,0.3-0.2c0-0.2,0.1-0.4,0.1-0.5c0.1-0.2,0-0.4,0-0.6c-0.2-0.9-0.7-1.6-1.4-2.2
		c-0.7-0.5-1.5-0.5-2.2,0c-0.3,0.2-0.5,0.5-0.5,0.9c0,0.3,0,0.5,0,0.8c0.1,0.4,0.3,0.8,0.4,1.3c0.1,0.2,0.2,0.5,0.3,0.7
		c0.1,0.2,0,0.3-0.1,0.5c-0.1,0.1-0.3,0.1-0.5,0c-0.1-0.1-0.3-0.3-0.4-0.4c-0.4-0.5-0.5-1-0.3-1.6c0-0.1,0.1-0.2,0.1-0.3
		c0-0.2,0-0.3-0.2-0.3c-0.2-0.1-0.5-0.1-0.7-0.2c-0.2,0-0.3,0-0.3,0.1c-0.3,0.4-0.4,0.9-0.3,1.4c0.2,1,0.8,1.9,1.7,2.5
		C30.2,74.6,30.6,74.7,31,74.7z M71,57.5c0,0.1,0,0.2,0,0.3c0.1,0.9,0.6,1.6,1.6,1.7c0.5,0.1,1-0.1,1.3-0.5c0.1-0.2,0.3-0.4,0.4-0.6
		c0.2-0.4,0.4-0.8,0.6-1.2c0.1-0.1,0.1-0.3,0.2-0.4c0.2-0.2,0.4-0.2,0.6,0c0.1,0.1,0.2,0.3,0.2,0.5c0,0.7-0.3,1.3-0.9,1.7
		c-0.1,0.1-0.2,0.1-0.3,0.1c-0.2,0.1-0.2,0.1-0.1,0.4c0.1,0.2,0.2,0.4,0.3,0.6c0.2,0.3,0.2,0.3,0.5,0.2c0.6-0.2,1-0.6,1.3-1.1
		c0.5-0.9,0.6-1.8,0.4-2.8c-0.2-0.7-0.7-1.1-1.4-1.3C75,55,74.4,55.2,74,55.7c-0.1,0.1-0.2,0.3-0.2,0.4c-0.2,0.4-0.5,0.9-0.7,1.3
		c-0.1,0.2-0.2,0.3-0.3,0.4c-0.1,0.2-0.3,0.1-0.4,0c-0.2-0.2-0.2-0.3-0.2-0.6c0.1-0.6,0.4-1.2,1-1.5c0,0,0.1,0,0.1,0
		c0.2-0.1,0.2-0.2,0.1-0.4c-0.1-0.2-0.2-0.4-0.3-0.6c-0.1-0.2-0.2-0.3-0.5-0.1c-0.5,0.3-1,0.7-1.2,1.3C71.1,56.5,71,57,71,57.5z
		 M24.4,50.7c-0.3,0.2-0.5,0.4-0.8,0.5c-0.5,0.3-1,0.7-1.5,1c-0.1,0.1-0.2,0.1-0.2,0.3c0,0.5,0.1,1,0.2,1.5c0.2-0.1,0.3-0.2,0.4-0.3
		c0.9-0.6,1.9-1.3,2.8-1.9c0.4-0.2,0.3-0.3,0.7,0c0.5,0.4,1,0.8,1.4,1.1c0.1,0.1,0.2,0.1,0.3,0.1c0.1,0,0.1-0.2,0.1-0.2
		c0-0.3,0-0.6-0.1-0.9c0-0.3-0.2-0.6-0.4-0.7c-0.6-0.4-1.2-0.9-1.7-1.3c-0.1-0.1-0.2-0.1-0.3-0.2c0.1,0,0.1-0.1,0.2-0.1
		c0.3,0,0.5,0,0.8-0.1c0.3,0,0.6-0.1,0.9-0.1c0.2,0,0.3-0.1,0.3-0.3c0-0.3-0.1-0.6-0.1-0.9c0-0.1-0.1-0.2-0.2-0.2
		c-0.2,0-0.3,0-0.5,0c-1.2,0.1-2.3,0.2-3.5,0.3c-0.4,0-0.8,0.1-1.3,0.1c-0.3,0-0.3,0.1-0.3,0.4c0,0.3,0.1,0.6,0.1,0.9
		c0,0.3,0.1,0.3,0.4,0.3c0.3,0,0.6-0.1,0.9-0.1c0.2,0,0.4,0,0.5,0.1C23.7,50.1,24.1,50.4,24.4,50.7z M71.6,71.4
		c0.1-0.2,0.2-0.3,0.3-0.4c0.4-0.7,0.8-1.4,1.2-2.1c0.1-0.2,0.2-0.4,0.4-0.6c0.1-0.2,0.1-0.3-0.1-0.3c-0.2-0.1-0.4-0.2-0.6-0.2
		c-0.3-0.1-0.4,0-0.5,0.2c-0.2,0.4-0.5,0.8-0.7,1.3c-0.1,0.1-0.1,0.2-0.2,0.3c-0.2-0.1-0.4-0.2-0.5-0.3c-0.5-0.3-0.5-0.2-0.2-0.7
		c0.2-0.3,0.4-0.7,0.6-1.1c0.1-0.2,0.1-0.3-0.1-0.4c-0.1-0.1-0.3-0.2-0.4-0.3c-0.3-0.2-0.4-0.2-0.6,0.2c-0.2,0.3-0.4,0.6-0.6,1
		c-0.1,0.1-0.2,0.3-0.3,0.4c-0.3-0.2-0.5-0.3-0.8-0.4c0.1-0.1,0.1-0.3,0.2-0.4c0.2-0.4,0.5-0.8,0.7-1.2c0.2-0.3,0.2-0.3-0.1-0.5
		c-0.1-0.1-0.2-0.2-0.3-0.3c-0.3-0.2-0.4-0.2-0.6,0.1c0,0,0,0,0,0c-0.5,0.9-1,1.8-1.5,2.6c0,0-0.1,0.1-0.1,0.2
		c-0.1,0.1,0,0.2,0.1,0.3c0.1,0.1,0.2,0.2,0.3,0.2c1.4,0.8,2.8,1.6,4.2,2.4C71.4,71.2,71.5,71.3,71.6,71.4z M67.5,73.5
		c-0.2,0-0.3,0-0.3-0.1c-0.4-0.1-0.9-0.3-1.3-0.4c-0.6-0.2-1.2-0.4-1.9-0.6c-0.4-0.1-0.4-0.1-0.7,0.2c-0.1,0.2-0.3,0.3-0.4,0.5
		c-0.1,0.1-0.1,0.2-0.2,0.3c-0.1,0.1-0.1,0.2,0.1,0.3c0,0,0.1,0,0.1,0c0.9,0.3,1.9,0.5,2.8,0.8c0.8,0.2,1.7,0.5,2.5,0.8
		c0.3,0.1,0.4,0.1,0.6-0.2c0.2-0.2,0.3-0.4,0.4-0.6c0.2-0.2,0.2-0.4,0-0.6c-0.9-1.6-1.8-3.1-2.7-4.7c-0.1-0.1-0.2-0.2-0.3-0.3
		c-0.1,0.1-0.2,0.2-0.2,0.2c-0.2,0.2-0.3,0.4-0.5,0.6c-0.3,0.3-0.3,0.4-0.1,0.7c0.6,0.9,1.1,1.8,1.7,2.8
		C67.4,73.3,67.5,73.4,67.5,73.5z M35.8,74.6c-0.1,0.1-0.2,0.2-0.2,0.3c-0.9,0.9-1.7,1.7-2.6,2.6c-0.1,0.1-0.1,0.1-0.2,0.2
		c-0.1,0.1-0.1,0.2,0,0.4c0.2,0.3,0.5,0.5,0.8,0.8c0.1,0.1,0.2,0.1,0.3,0c0.1,0,0.1-0.1,0.2-0.2c0.9-0.9,1.7-1.7,2.6-2.5
		c0.1-0.1,0.2-0.2,0.3-0.3c0.1,0.1,0.2,0.2,0.3,0.3c0.3,0.3,0.6,0.6,0.8,0.9c0.1,0.1,0.2,0.2,0.3,0.1c0.3-0.3,0.5-0.6,0.8-0.9
		c-0.1-0.1-0.2-0.3-0.3-0.4c-1-1.1-2.1-2.1-3.1-3.2c0,0-0.1-0.1-0.1-0.1c-0.2-0.2-0.2-0.2-0.4,0c-0.1,0.1-0.3,0.3-0.4,0.4
		c-0.3,0.3-0.3,0.3,0,0.7C35.1,73.9,35.4,74.2,35.8,74.6z M27.9,54.4c-0.1,0-0.3,0-0.4,0c-1.1,0.2-2.1,0.3-3.2,0.5
		c-0.6,0.1-1.2,0.2-1.8,0.3c-0.2,0-0.3,0.1-0.3,0.3c0.1,0.3,0.1,0.7,0.2,1c0,0.2,0.1,0.2,0.3,0.2c0.3,0,0.6-0.1,0.9-0.1
		c1.1-0.2,2.2-0.4,3.4-0.6c0.3-0.1,0.6-0.1,1-0.2c0.2,0,0.2-0.1,0.2-0.3C28.2,55.2,28.1,54.8,27.9,54.4z"/>
	<path class="st1" d="M70.3,44.5c0,1,0,2.1,0,3.1c0,0.5-0.1,1-0.1,1.5c0,0.4-0.1,0.8-0.1,1.2c-0.1,2.9-0.7,5.8-1.6,8.6
		c-1.3,4.3-3.5,8-6.7,11.3c-2.2,2.2-4.7,4.1-7.4,5.6c-1.4,0.7-2.7,1.5-4.2,2.1c-0.3,0.1-0.6,0.1-0.9,0c-3.6-1.5-6.9-3.4-9.8-5.9
		c-2.9-2.5-5.3-5.5-6.9-9c-1.2-2.4-2-5-2.5-7.6c-0.2-1-0.3-2-0.4-3.1c-0.1-1-0.2-2.1-0.3-3.1c-0.1-1.8-0.2-3.7-0.1-5.5
		c0.1-1.4,0.1-2.8,0.2-4.2c0.1-1.2,0.1-2.5,0.2-3.7c0.1-1.2,0.2-2.4,0.3-3.6c0-0.6,0-1.1,0.1-1.7c0.1-1.1,0.2-2.2,0.2-3.3
		c0.1-0.7,0.1-1.4,0.2-2.2c0-0.2,0.1-0.4,0.4-0.4c1.5-0.5,3-0.8,4.5-1.2c1.4-0.3,2.9-0.5,4.3-0.8c0.6-0.1,1.3-0.1,2-0.2
		c0.9-0.1,1.8-0.1,2.7-0.2c0.4,0,0.8-0.1,1.2-0.1c1,0,2-0.1,3-0.1c0.3,0,0.6,0,0.9-0.1c0.5,0,1,0,1.4,0c0.3,0,0.7,0,1,0
		c1.4,0,2.8,0.1,4.1,0.2c1,0.1,1.9,0.2,2.9,0.3c0.5,0.1,1,0.2,1.5,0.2c0.8,0.1,1.7,0.2,2.5,0.4c2.1,0.4,4.1,0.9,6.1,1.5
		c0.4,0.1,0.4,0.2,0.5,0.6c0.1,1.5,0.2,2.9,0.3,4.4c0.1,1.4,0.2,2.7,0.3,4.1c0.1,1.3,0.1,2.6,0.2,3.9C70.2,39.8,70.3,42.2,70.3,44.5
		z M30.3,44.8C30.3,44.8,30.3,44.8,30.3,44.8c0,0.3,0,0.6,0,0.8c0,0.9,0.1,1.8,0.1,2.6c0,1.4,0.2,2.9,0.4,4.3
		c0.3,2.4,0.9,4.8,1.7,7.1c1.5,4.2,3.9,7.8,7.2,10.9c2.9,2.6,6.2,4.5,9.7,6c0.2,0.1,0.4,0.1,0.6,0c0.6-0.3,1.3-0.6,1.9-0.9
		c3.3-1.5,6.3-3.6,8.8-6.2c2.5-2.5,4.4-5.4,5.7-8.7c1-2.5,1.7-5.1,2-7.8c0.1-0.8,0.2-1.7,0.2-2.5c0.1-1.3,0.2-2.7,0.3-4
		c0-0.7,0-1.4,0-2.2C69,43.5,69,42.6,69,41.8c0-0.6,0-1.3,0-1.9c0-0.9-0.1-1.8-0.2-2.7c-0.1-1.1-0.1-2.3-0.2-3.4
		c-0.1-1.5-0.2-3-0.3-4.5C68.2,28.1,68.1,27,68,26c0-0.2-0.1-0.3-0.3-0.4c-0.8-0.2-1.6-0.5-2.4-0.7c-1.3-0.3-2.7-0.5-4-0.8
		c-1.1-0.2-2.3-0.4-3.4-0.5c-0.8-0.1-1.6-0.2-2.5-0.3c-0.7-0.1-1.4-0.1-2-0.1c-0.5,0-1,0-1.6-0.1c-0.9,0-1.8-0.1-2.6-0.1
		c-0.9,0-1.7,0.1-2.6,0.1c-1.3,0.1-2.6,0.1-3.9,0.3c-1.8,0.2-3.5,0.4-5.3,0.8c-1.9,0.3-3.7,0.8-5.6,1.3c-0.3,0.1-0.3,0.1-0.3,0.4
		c-0.1,1.4-0.2,2.8-0.3,4.1c-0.1,1.5-0.2,3-0.3,4.5c-0.1,2.1-0.2,4.2-0.3,6.2c0,0.6,0,1.1-0.1,1.7C30.4,43.3,30.4,44.1,30.3,44.8z"
		/>
	<path class="st1" d="M34,15c0.7-0.1,1.3-0.2,2-0.3c0.2,0,0.5-0.1,0.7-0.1c0.5-0.1,0.5-0.1,0.5-0.6c-0.1-0.4-0.1-0.9-0.2-1.3
		c-0.1-0.4-0.2-0.9-0.2-1.3c0,0,0-0.1,0-0.1c0-0.3,0-0.4,0.3-0.4c0.4-0.1,0.9-0.1,1.3-0.2c0.2,0,0.4,0,0.6-0.1
		c0.1,0.4,0.1,0.7,0.2,1.1c0.3,1.6,0.5,3.3,0.8,4.9c0.2,1,0.3,1.9,0.5,2.9c0,0.3,0,0.4-0.3,0.5c-0.5,0.1-1.1,0.2-1.6,0.3
		c-0.2,0-0.3,0-0.3-0.3c-0.1-0.8-0.3-1.5-0.4-2.3c0-0.3-0.1-0.6-0.1-0.9c0-0.3-0.1-0.4-0.4-0.3c-0.4,0-0.8,0.1-1.2,0.2
		c-0.5,0.1-1,0.2-1.5,0.2c-0.1,0-0.2,0-0.3,0.1c0,0.1,0,0.1,0,0.2c0.2,1.1,0.3,2.1,0.5,3.2c0,0,0,0.1,0,0.1c0,0.3,0,0.3-0.3,0.4
		c-0.4,0.1-0.8,0.1-1.2,0.2c-0.1,0-0.3,0-0.4,0.1c-0.2,0-0.3,0-0.3-0.2c-0.1-0.4-0.1-0.9-0.2-1.3c-0.4-2.2-0.7-4.4-1.1-6.7
		c0-0.3-0.1-0.5-0.1-0.8c0-0.2,0-0.3,0.3-0.4c0.5-0.1,1-0.2,1.5-0.3c0,0,0.1,0,0.1,0c0.3,0,0.3,0,0.4,0.3c0.1,0.4,0.1,0.9,0.2,1.3
		c0.1,0.6,0.2,1.1,0.3,1.7C34,14.8,34,14.9,34,15z"/>
	<path class="st1" d="M48.1,13.7c0-0.6,0-1.3,0-1.9c0-0.4-0.1-0.7-0.1-1.1c0-0.1,0-0.2,0-0.4c0-0.2,0.1-0.3,0.3-0.3
		c0.1,0,0.2,0,0.3,0c0.5,0,0.9-0.1,1.4-0.1c0.3,0,0.4,0.1,0.4,0.4c0,0.3,0,0.6,0,0.9c0,1.3,0.1,2.7,0.1,4c0,0.6,0,1.1-0.1,1.7
		c-0.3,1.4-1.2,2.3-2.6,2.7c-0.7,0.2-1.5,0.2-2.2,0.1c-1.3-0.2-2.2-1-2.6-2.3c-0.2-0.5-0.2-1-0.3-1.6c0-0.5-0.1-1-0.1-1.5
		c0-1.1-0.1-2.1-0.1-3.2c0-0.2,0-0.4,0-0.6c0-0.2,0.1-0.2,0.3-0.2c0.6,0,1.1,0,1.7-0.1c0.2,0,0.3,0.1,0.3,0.3c0,0.2,0.1,0.3,0.1,0.5
		c0,1.1,0,2.2,0.1,3.3c0,0.7,0.1,1.4,0.2,2.1c0,0.4,0.2,0.8,0.5,1.1c0.7,0.8,2.2,0.5,2.5-0.5c0.1-0.5,0.2-0.9,0.2-1.4
		C48.2,14.9,48.2,14.3,48.1,13.7C48.1,13.7,48.1,13.7,48.1,13.7z"/>
	<path class="st1" d="M56,10.2c0,0.5,0,0.9,0,1.4c-0.1,1-0.1,2.1-0.2,3.1c-0.1,0.8-0.1,1.7-0.2,2.5c0,0.1,0,0.2,0,0.3
		c0,0.1,0.1,0.2,0.2,0.2c0.2,0,0.4,0,0.6,0.1c0.8,0.1,1.7,0.1,2.5,0.2c0.3,0,0.3,0.1,0.3,0.3c0,0.4,0,0.9-0.1,1.3
		c0,0.3-0.1,0.3-0.4,0.3c-1.6-0.1-3.3-0.2-4.9-0.3c-0.2,0-0.3,0-0.5-0.1c-0.2,0-0.2-0.1-0.2-0.3c0-0.2,0-0.3,0-0.5
		c0.1-1.3,0.2-2.7,0.3-4c0.1-1.4,0.2-2.9,0.3-4.3c0-0.3,0.1-0.4,0.4-0.3C54.8,10.2,55.4,10.2,56,10.2z"/>
	<path class="st1" d="M66.6,21.2c-0.4-0.1-0.7-0.1-1.1-0.2c-1.4-0.2-2.8-0.5-4.2-0.7c0,0-0.1,0-0.1,0C61,20.2,61,20.2,61,20
		c0-0.3,0.1-0.6,0.1-0.8c0.2-1.4,0.5-2.8,0.7-4.2c0.2-1.2,0.4-2.3,0.6-3.5c0.1-0.5,0.1-0.5,0.6-0.5c0.4,0.1,0.9,0.1,1.3,0.2
		c0.1,0,0.1,0,0.2,0c0.2,0.1,0.3,0.1,0.2,0.4c-0.1,0.6-0.2,1.1-0.3,1.7c-0.3,1.5-0.5,3.1-0.8,4.6c0,0.2-0.1,0.3-0.1,0.4
		c-0.1,0.3,0,0.4,0.3,0.5c0.4,0.1,0.7,0.1,1.1,0.2c0.6,0.1,1.2,0.2,1.8,0.3c0,0,0.1,0,0.1,0c0.2,0.1,0.3,0.1,0.2,0.3
		C67.1,20,67,20.3,67,20.7c0,0.1,0,0.2-0.1,0.3C66.8,21.2,66.8,21.2,66.6,21.2z"/>
	<path class="st1" d="M46.5,84.4c0.2-0.4,0.4-0.7,0.6-1.1c0.2-0.4,0.5-0.9,0.7-1.3c0.1-0.2,0.2-0.2,0.4-0.1c0.3,0.1,0.5,0.2,0.8,0.4
		c0.3,0.1,0.3,0.2,0.1,0.5c-0.6,1.2-1.3,2.5-1.9,3.7c-0.2,0.3-0.3,0.6-0.5,0.9c-0.1,0.2-0.2,0.2-0.4,0.1c-0.2-0.1-0.5-0.2-0.7-0.4
		c-0.2-0.1-0.3-0.2-0.3-0.4c0-0.6-0.1-1.3-0.2-1.9c0-0.5-0.1-0.9-0.1-1.4c0-0.1,0-0.1-0.1-0.3c-0.1,0.1-0.2,0.2-0.2,0.3
		c-0.4,0.7-0.7,1.4-1.1,2.1c-0.2,0.4-0.3,0.4-0.7,0.2c-0.2-0.1-0.4-0.2-0.6-0.3c-0.2-0.1-0.2-0.2-0.1-0.4c0.1-0.2,0.2-0.3,0.2-0.5
		c0.7-1.3,1.4-2.7,2.1-4c0-0.1,0.1-0.1,0.1-0.2c0.1-0.2,0.2-0.2,0.4-0.1c0.3,0.1,0.5,0.3,0.8,0.4c0.2,0.1,0.3,0.3,0.3,0.5
		c0.1,0.8,0.1,1.6,0.2,2.4C46.4,83.8,46.4,84.1,46.5,84.4z"/>
	<path class="st1" d="M26.4,61.4c0.1,0.1,0.2,0,0.3,0c0.7-0.2,1.4-0.4,2.1-0.6c0.1,0,0.2-0.1,0.3-0.1c0.1,0,0.2,0,0.2,0.1
		c0.1,0.3,0.2,0.7,0.3,1c0,0.2,0,0.2-0.2,0.3c-0.3,0.1-0.5,0.1-0.8,0.2c-1.3,0.4-2.7,0.8-4,1.1c-0.5,0.1-0.6,0.1-0.7-0.4
		c0-0.1-0.1-0.3-0.1-0.4c-0.1-0.3,0-0.5,0.1-0.7c0.5-0.5,1-1.1,1.5-1.6c0.2-0.2,0.4-0.5,0.6-0.7c0.1-0.1,0.1-0.1,0.1-0.2
		c-0.1,0-0.3,0-0.4,0.1c-0.8,0.2-1.5,0.4-2.3,0.6c-0.1,0-0.1,0-0.2,0.1c-0.1,0-0.2,0-0.3-0.1c-0.1-0.3-0.2-0.7-0.3-1
		c0-0.1,0-0.2,0.1-0.2c0,0,0.1,0,0.1,0c1.6-0.4,3.2-0.9,4.9-1.3c0.1,0,0.3-0.1,0.4-0.1c0,0.1,0.1,0.1,0.1,0.2
		c0.1,0.3,0.2,0.5,0.3,0.8c0.1,0.3,0,0.5-0.2,0.7c-0.5,0.5-1,1.1-1.5,1.6c-0.2,0.2-0.3,0.4-0.5,0.5C26.5,61.3,26.5,61.3,26.4,61.4z"
		/>
	<path class="st1" d="M73.3,62.1c0.3,0.1,0.6,0,0.9-0.1c0.5-0.1,1-0.2,1.5-0.2c0.1,0,0.3,0,0.4,0c0,0.1,0,0.2,0,0.3
		c-0.1,0.3-0.2,0.6-0.3,0.9c-0.1,0.2-0.2,0.3-0.4,0.3c-0.7,0.1-1.4,0.3-2.1,0.4c-0.2,0-0.3,0.1-0.4,0.3c0,0.1-0.1,0.3-0.1,0.4
		c0.1,0,0.1,0.1,0.2,0.1c0.5,0.2,1.1,0.4,1.6,0.6c0.3,0.1,0.4,0.2,0.2,0.5c-0.1,0.2-0.2,0.5-0.3,0.7c-0.1,0.3-0.2,0.3-0.5,0.2
		c-0.2-0.1-0.3-0.1-0.5-0.2c-1.4-0.5-2.8-1.1-4.2-1.6c0,0-0.1,0-0.1-0.1c-0.2-0.1-0.3-0.2-0.2-0.4c0.1-0.3,0.2-0.6,0.3-0.9
		c0.2-0.5,0.4-0.9,0.5-1.4c0.1-0.4,0.3-0.7,0.6-1.1c0.4-0.5,0.9-0.7,1.5-0.5c0.6,0.1,1.1,0.5,1.3,1.2C73.2,61.7,73.2,61.9,73.3,62.1
		z M71.4,63.9c0.2-0.5,0.4-0.9,0.5-1.4c0-0.3,0-0.4-0.2-0.5c-0.2-0.1-0.4-0.1-0.6,0.1c-0.1,0.1-0.1,0.2-0.2,0.2
		c-0.1,0.3-0.3,0.7-0.4,1c-0.1,0.2,0,0.2,0.1,0.3C70.9,63.7,71.2,63.8,71.4,63.9z"/>
	<path class="st1" d="M61.3,82.4c-0.2,0.1-0.3,0.3-0.5,0.4c-0.2,0.1-0.4,0.2-0.5,0.3c-0.2,0.2-0.4,0.2-0.7,0c-0.5-0.3-1-0.5-1.5-0.8
		c0,0-0.1,0-0.1-0.1c-0.4-0.2-0.7-0.2-1,0.2c0.2,0.3,0.4,0.6,0.6,1c0.2,0.2,0.3,0.5,0.5,0.7c0.1,0.2,0.1,0.3-0.1,0.4
		c-0.3,0.2-0.7,0.4-1,0.6c-0.1-0.1-0.2-0.2-0.2-0.3c-0.9-1.4-1.9-2.9-2.8-4.3c-0.2-0.3-0.2-0.3,0.1-0.5c0.7-0.4,1.4-0.9,2-1.3
		c0.4-0.2,0.7-0.4,1.1-0.5c0.5-0.1,0.9,0,1.2,0.2c0.5,0.4,0.8,0.9,0.7,1.6c0,0.2-0.1,0.4-0.2,0.6c0,0.1-0.1,0.2-0.2,0.3
		C59.6,81.5,60.4,81.9,61.3,82.4z M56.3,81.4c0.3-0.2,0.5-0.3,0.8-0.5c0.1-0.1,0.2-0.1,0.3-0.2c0.1-0.1,0.1-0.1,0.2-0.2
		c0.2-0.2,0.2-0.4,0-0.5c-0.1-0.2-0.4-0.3-0.6-0.2c-0.4,0.2-0.8,0.4-1.2,0.7c-0.1,0.1-0.1,0.1-0.1,0.2
		C55.9,80.9,56.1,81.2,56.3,81.4z"/>
	<path class="st1" d="M65.5,77.7c0,1.6-1.3,3-2.9,3c-1.3,0-2.4-0.9-3-2.1C59,77,59.9,75,61.8,74.6c0.7-0.1,1.3,0,1.9,0.3
		c0.8,0.4,1.4,1.1,1.6,1.9C65.4,77.1,65.4,77.4,65.5,77.7z M64,78c0-0.5-0.3-1-0.6-1.4c-0.3-0.3-0.7-0.5-1.1-0.6
		c-0.7-0.1-1.4,0.5-1.4,1.2c0,0.9,0.8,1.8,1.7,2C63.3,79.3,64,78.7,64,78z"/>
	<path class="st1" d="M40,83.4c-1.3,0-2.5-0.9-2.9-2.2c-0.1-0.3-0.1-0.7,0-1c0.2-1.3,1.2-2.5,2.5-2.8c0.4-0.1,0.8-0.1,1.2,0
		c1,0.3,1.7,0.8,2.1,1.8c0.3,0.6,0.3,1.3,0.1,1.9c-0.4,1.2-1.2,2-2.4,2.3C40.3,83.4,40.1,83.4,40,83.4z M41.5,80c0-1-1-1.5-1.8-1.1
		c-0.6,0.4-1.1,0.9-1.2,1.6c-0.1,0.8,0.6,1.5,1.4,1.4C40.7,81.8,41.5,80.9,41.5,80z"/>
	<path class="st1" d="M28.1,67.6c-0.1-0.2-0.2-0.5-0.3-0.7c-0.1-0.3-0.1-0.3,0.2-0.5c0.2-0.1,0.3-0.2,0.5-0.2
		c0.2-0.1,0.3-0.1,0.4,0.1c0.1,0.1,0.1,0.3,0.2,0.4c0.2,0.5,0.5,1,0.7,1.5c0.1,0.2,0.1,0.3-0.1,0.4c-0.5,0.2-1.1,0.5-1.6,0.7
		c-0.2,0.1-0.3,0.1-0.5,0c-1.3-0.5-1.9-1.5-2.1-2.8c-0.1-0.7,0.2-1.3,0.6-1.8c0.7-0.8,1.6-1.2,2.6-1.2c0.2,0,0.4,0,0.7,0
		c0.5,0.1,0.9,0.3,1.3,0.7c0.5,0.6,0.9,1.3,1,2c0.1,0.5-0.1,1-0.3,1.4c-0.1,0.1-0.2,0.2-0.3,0.1c-0.3-0.1-0.5-0.2-0.8-0.3
		C30,67.5,30,67.4,30,67.2c0.1-0.2,0.1-0.4,0.1-0.6c0-0.4-0.1-0.7-0.3-1c-0.3-0.3-0.6-0.5-1-0.4c-0.5,0.1-1,0.3-1.4,0.6
		c-0.7,0.5-0.6,1.2-0.2,1.8c0,0,0.1,0.1,0.1,0.1C27.6,67.9,27.7,67.9,28.1,67.6z"/>
	<path class="st1" d="M31,74.7c-0.4,0-0.8-0.1-1.1-0.4c-0.9-0.6-1.4-1.5-1.7-2.5c-0.1-0.5,0-1,0.3-1.4c0.1-0.1,0.2-0.2,0.3-0.1
		c0.2,0.1,0.5,0.1,0.7,0.2c0.2,0.1,0.2,0.1,0.2,0.3c0,0.1-0.1,0.2-0.1,0.3c-0.2,0.6-0.1,1.1,0.3,1.6c0.1,0.1,0.3,0.3,0.4,0.4
		c0.2,0.1,0.4,0.1,0.5,0c0.2-0.1,0.2-0.3,0.1-0.5c-0.1-0.2-0.2-0.5-0.3-0.7c-0.1-0.4-0.3-0.8-0.4-1.3c-0.1-0.2-0.1-0.5,0-0.8
		c0-0.4,0.2-0.7,0.5-0.9c0.7-0.6,1.5-0.6,2.2,0c0.7,0.6,1.2,1.3,1.4,2.2c0.1,0.2,0.1,0.4,0,0.6c0,0.2-0.1,0.4-0.1,0.5
		c-0.1,0.2-0.1,0.3-0.3,0.2c-0.3,0-0.5-0.1-0.8-0.2c-0.2,0-0.2-0.1-0.2-0.3c0-0.1,0-0.1,0-0.2c0.2-0.6-0.1-1.2-0.5-1.6
		c-0.1-0.1-0.2-0.1-0.3-0.2c-0.1-0.1-0.2-0.1-0.3,0c-0.1,0.1-0.2,0.2-0.1,0.3c0.1,0.2,0.1,0.4,0.2,0.6c0.2,0.5,0.4,1,0.5,1.6
		c0.1,0.3,0.1,0.6,0,0.9c-0.1,0.5-0.5,0.9-1,1.1C31.5,74.7,31.2,74.7,31,74.7z"/>
	<path class="st1" d="M71,57.5c0-0.5,0.1-1,0.3-1.4c0.2-0.6,0.7-1,1.2-1.3c0.2-0.1,0.4-0.1,0.5,0.1c0.1,0.2,0.2,0.4,0.3,0.6
		c0.1,0.2,0.1,0.2-0.1,0.4c0,0-0.1,0-0.1,0c-0.6,0.3-0.8,0.9-1,1.5c0,0.2,0,0.4,0.2,0.6c0.1,0.1,0.3,0.2,0.4,0
		c0.1-0.1,0.2-0.3,0.3-0.4c0.2-0.4,0.5-0.9,0.7-1.3c0.1-0.1,0.2-0.3,0.2-0.4c0.4-0.5,1-0.8,1.6-0.6c0.7,0.2,1.2,0.6,1.4,1.3
		c0.2,1,0.1,1.9-0.4,2.8c-0.3,0.5-0.7,0.9-1.3,1.1c-0.3,0.1-0.4,0.1-0.5-0.2c-0.1-0.2-0.2-0.4-0.3-0.6c-0.1-0.2-0.1-0.3,0.1-0.4
		c0.1,0,0.2-0.1,0.3-0.1c0.6-0.4,0.9-1,0.9-1.7c0-0.2-0.1-0.3-0.2-0.5c-0.1-0.2-0.4-0.2-0.6,0C75,56.9,75,57,74.9,57.2
		c-0.2,0.4-0.4,0.8-0.6,1.2c-0.1,0.2-0.2,0.4-0.4,0.6c-0.3,0.4-0.8,0.6-1.3,0.5c-0.9-0.1-1.5-0.8-1.6-1.7C71,57.7,71,57.6,71,57.5z"
		/>
	<path class="st1" d="M24.4,50.7c-0.3-0.3-0.7-0.5-1-0.8c-0.1-0.1-0.3-0.1-0.5-0.1c-0.3,0-0.6,0.1-0.9,0.1c-0.3,0-0.3,0-0.4-0.3
		c0-0.3-0.1-0.6-0.1-0.9c0-0.3,0.1-0.4,0.3-0.4c0.4,0,0.8-0.1,1.3-0.1c1.2-0.1,2.3-0.2,3.5-0.3c0.2,0,0.3,0,0.5,0
		c0.1,0,0.2,0.1,0.2,0.2c0,0.3,0.1,0.6,0.1,0.9c0,0.2,0,0.3-0.3,0.3c-0.3,0-0.6,0.1-0.9,0.1c-0.3,0-0.5,0-0.8,0.1
		c-0.1,0-0.1,0-0.2,0.1c0.1,0.1,0.2,0.2,0.3,0.2c0.6,0.4,1.2,0.9,1.7,1.3c0.3,0.2,0.4,0.4,0.4,0.7c0,0.3,0,0.6,0.1,0.9
		c0,0.1,0,0.2-0.1,0.2c-0.1,0-0.2,0-0.3-0.1c-0.5-0.4-1-0.8-1.4-1.1c-0.4-0.3-0.3-0.3-0.7,0c-0.9,0.6-1.9,1.3-2.8,1.9
		c-0.1,0.1-0.3,0.2-0.4,0.3c-0.1-0.5-0.2-1-0.2-1.5c0-0.2,0.1-0.2,0.2-0.3c0.5-0.3,1-0.7,1.5-1C23.9,51,24.1,50.9,24.4,50.7z"/>
	<path class="st1" d="M71.6,71.4c-0.1-0.1-0.2-0.1-0.3-0.2c-1.4-0.8-2.8-1.6-4.2-2.4c-0.1-0.1-0.2-0.1-0.3-0.2
		c-0.1-0.1-0.1-0.2-0.1-0.3c0,0,0.1-0.1,0.1-0.2c0.5-0.9,1-1.8,1.5-2.6c0,0,0,0,0,0c0.2-0.3,0.3-0.4,0.6-0.1
		c0.1,0.1,0.2,0.2,0.3,0.3c0.2,0.2,0.2,0.3,0.1,0.5c-0.2,0.4-0.5,0.8-0.7,1.2c-0.1,0.1-0.1,0.2-0.2,0.4c0.3,0.1,0.5,0.3,0.8,0.4
		c0.1-0.1,0.2-0.3,0.3-0.4c0.2-0.3,0.4-0.6,0.6-1c0.2-0.3,0.2-0.3,0.6-0.2c0.1,0.1,0.3,0.2,0.4,0.3c0.2,0.1,0.2,0.2,0.1,0.4
		c-0.2,0.4-0.4,0.7-0.6,1.1c-0.3,0.5-0.3,0.4,0.2,0.7c0.2,0.1,0.3,0.2,0.5,0.3c0.1-0.1,0.2-0.2,0.2-0.3c0.2-0.4,0.5-0.8,0.7-1.3
		c0.2-0.3,0.2-0.3,0.5-0.2c0.2,0.1,0.4,0.1,0.6,0.2c0.2,0.1,0.2,0.1,0.1,0.3c-0.1,0.2-0.2,0.4-0.4,0.6c-0.4,0.7-0.8,1.4-1.2,2.1
		C71.8,71.1,71.7,71.2,71.6,71.4z"/>
	<path class="st1" d="M67.5,73.5c-0.1-0.1-0.1-0.2-0.2-0.3c-0.6-0.9-1.1-1.8-1.7-2.8c-0.2-0.4-0.2-0.4,0.1-0.7
		c0.2-0.2,0.3-0.4,0.5-0.6c0.1-0.1,0.1-0.1,0.2-0.2c0.1,0.1,0.2,0.2,0.3,0.3c0.9,1.6,1.8,3.2,2.7,4.7c0.1,0.2,0.1,0.4,0,0.6
		c-0.2,0.2-0.3,0.4-0.4,0.6c-0.2,0.3-0.3,0.3-0.6,0.2c-0.8-0.3-1.7-0.5-2.5-0.8c-0.9-0.3-1.8-0.5-2.8-0.8c0,0-0.1,0-0.1,0
		c-0.1-0.1-0.2-0.1-0.1-0.3c0.1-0.1,0.1-0.2,0.2-0.3c0.1-0.2,0.3-0.3,0.4-0.5c0.2-0.3,0.3-0.3,0.7-0.2c0.6,0.2,1.2,0.4,1.9,0.6
		c0.4,0.1,0.9,0.3,1.3,0.4C67.3,73.5,67.4,73.5,67.5,73.5z"/>
	<path class="st1" d="M35.8,74.6c-0.3-0.4-0.7-0.7-1-1c-0.3-0.3-0.3-0.3,0-0.7c0.1-0.1,0.3-0.3,0.4-0.4c0.2-0.2,0.2-0.2,0.4,0
		c0,0,0.1,0.1,0.1,0.1c1,1.1,2.1,2.1,3.1,3.2c0.1,0.1,0.2,0.2,0.3,0.4c-0.3,0.3-0.5,0.6-0.8,0.9c-0.1,0.1-0.2,0-0.3-0.1
		c-0.3-0.3-0.6-0.6-0.8-0.9c-0.1-0.1-0.2-0.2-0.3-0.3c-0.1,0.1-0.2,0.2-0.3,0.3c-0.9,0.8-1.7,1.7-2.6,2.5c-0.1,0.1-0.1,0.1-0.2,0.2
		c-0.1,0.1-0.2,0.1-0.3,0c-0.3-0.3-0.5-0.5-0.8-0.8c-0.1-0.1-0.1-0.2,0-0.4c0-0.1,0.1-0.1,0.2-0.2c0.9-0.9,1.7-1.7,2.6-2.6
		C35.6,74.8,35.7,74.7,35.8,74.6z"/>
	<path class="st1" d="M27.9,54.4c0.1,0.4,0.2,0.8,0.2,1.2c0,0.2-0.1,0.3-0.2,0.3c-0.3,0.1-0.6,0.1-1,0.2c-1.1,0.2-2.2,0.4-3.4,0.6
		c-0.3,0-0.6,0.1-0.9,0.1c-0.2,0-0.3,0-0.3-0.2c-0.1-0.3-0.1-0.7-0.2-1c0-0.2,0-0.3,0.3-0.3c0.6-0.1,1.2-0.2,1.8-0.3
		c1.1-0.2,2.1-0.3,3.2-0.5C27.6,54.4,27.8,54.4,27.9,54.4z"/>
	<path class="st0" d="M30.3,44.8c0-0.8,0.1-1.5,0.1-2.3c0-0.6,0-1.1,0.1-1.7c0.1-2.1,0.2-4.2,0.3-6.2c0.1-1.5,0.2-3,0.3-4.5
		c0.1-1.4,0.2-2.8,0.3-4.1c0-0.3,0-0.3,0.3-0.4c1.8-0.5,3.7-0.9,5.6-1.3c1.8-0.3,3.5-0.6,5.3-0.8c1.3-0.2,2.6-0.2,3.9-0.3
		c0.9,0,1.7-0.1,2.6-0.1c0.9,0,1.8,0,2.6,0.1c0.5,0,1.1,0,1.6,0.1c0.7,0,1.4,0.1,2,0.1c0.8,0.1,1.6,0.2,2.5,0.3
		c1.1,0.1,2.3,0.3,3.4,0.5c1.3,0.3,2.7,0.5,4,0.8c0.8,0.2,1.6,0.4,2.4,0.7c0.2,0.1,0.3,0.2,0.3,0.4c0.1,1.1,0.1,2.1,0.2,3.2
		c0.1,1.5,0.2,3,0.3,4.5c0.1,1.1,0.1,2.3,0.2,3.4c0.1,0.9,0.1,1.8,0.2,2.7c0,0.6,0,1.3,0,1.9c0,0.8,0,1.7,0.1,2.5
		c0.1,0.7,0.1,1.5,0,2.2c-0.1,1.3-0.2,2.7-0.3,4c-0.1,0.8-0.1,1.7-0.2,2.5c-0.4,2.7-1,5.3-2,7.8c-1.3,3.3-3.2,6.2-5.7,8.7
		c-2.6,2.6-5.5,4.6-8.8,6.2c-0.6,0.3-1.3,0.6-1.9,0.9c-0.2,0.1-0.4,0.1-0.6,0c-3.6-1.5-6.8-3.4-9.7-6c-3.3-3-5.8-6.6-7.2-10.9
		c-0.8-2.3-1.4-4.7-1.7-7.1c-0.2-1.4-0.4-2.9-0.4-4.3c0-0.9-0.1-1.8-0.1-2.6C30.3,45.4,30.3,45.1,30.3,44.8
		C30.3,44.8,30.3,44.8,30.3,44.8z M61.3,43.6c-0.1,0-0.1,0-0.2-0.1c-0.4-0.3-0.9-0.5-1.5-0.6c-0.1,0-0.1,0-0.2,0
		c-0.1,0-0.2,0.1-0.1,0.2c0,0.1,0.1,0.2,0.1,0.3c0.2,0.4,0.3,0.8,0.3,1.2c0,0.4-0.2,0.7-0.6,0.9c-0.4,0.2-0.9,0.3-1.4,0
		c-0.3-0.2-0.6-0.4-0.8-0.7c-0.2-0.3-0.3-0.6-0.5-0.9c-0.1-0.3-0.2-0.3-0.4-0.1c-0.5,0.3-0.9,0.6-1.4,0.8c-0.6,0.3-1.3,0.5-2,0.4
		c-1.1-0.1-1.6-0.6-1.8-1.4c-0.2-0.8,0.1-1.5,0.8-2c0.5-0.3,1-0.5,1.5-0.5c0.1,0,0.2,0,0.2-0.1c0-0.2-0.1-0.3-0.3-0.3
		c-0.8-0.4-1.7-0.7-2.6-0.2c-0.1-0.7-0.4-1.3-0.6-1.9c-0.1-0.2-0.2-0.3-0.4-0.4c-0.2,0.3-0.4,0.7-0.5,1.1c-0.1,0.4-0.2,0.8-0.4,1.2
		c-0.2-0.1-0.3-0.1-0.5-0.1c-0.8-0.1-1.5,0.1-2.1,0.5c-0.1,0.1-0.2,0.1-0.2,0.3c0.2,0,0.3,0.1,0.5,0.1c0.4,0.1,0.8,0.2,1.2,0.5
		c1,0.6,1.1,1.5,0.7,2.4c-0.2,0.5-0.6,0.8-1.1,1c-0.4,0.1-0.8,0.1-1.2,0c-1-0.2-1.8-0.6-2.6-1.1c-0.4-0.3-0.4-0.3-0.6,0.2
		c-0.2,0.4-0.3,0.7-0.6,1c-0.7,0.7-1.2,0.6-1.9,0.4c-0.3-0.1-0.5-0.3-0.6-0.6c-0.1-0.3-0.1-0.6,0-0.9c0.1-0.3,0.2-0.5,0.3-0.7
		c0-0.1,0.1-0.3,0-0.4c-0.7,0.1-1.3,0.3-1.9,0.8c-0.3-0.4-0.6-0.8-1.1-0.9c-0.5-0.1-0.9-0.2-1.5-0.1c0.1,0.2,0.2,0.3,0.3,0.4
		c0.6,0.7,1.2,1.4,1.7,2.1c1,1.3,1.9,2.7,2.6,4.2c0.2,0.4,0.4,0.6,0.8,0.7c0-0.1,0-0.1,0-0.2c0-0.3,0.2-0.5,0.4-0.6
		c0.1,0,0.2-0.1,0.3-0.1c1.1-0.4,2.2-0.6,3.3-0.7c0.7-0.1,1.3-0.1,2-0.2c0.7,0,1.4-0.1,2-0.1c1.3,0,2.5,0,3.8,0.1
		c0.9,0.1,1.8,0.2,2.8,0.3c0.7,0.1,1.4,0.3,2.1,0.5c0.4,0.1,0.7,0.3,0.7,0.8c0,0,0,0,0.1,0.1c0.1,0,0.1,0,0.2-0.1
		c0.2-0.1,0.4-0.3,0.5-0.5c0.3-0.5,0.5-1,0.8-1.5c0.9-1.5,1.9-3,3.1-4.4c0.2-0.2,0.4-0.4,0.6-0.7c0.1-0.1,0.1-0.2,0.1-0.2
		c0-0.1-0.2-0.1-0.2-0.1c0,0-0.1,0-0.1,0c-0.2,0-0.4,0-0.6,0.1c-0.5,0-0.9,0.3-1.3,0.7C61.4,43.4,61.4,43.5,61.3,43.6z M58.4,36.3
		c0.4-0.1,0.7-0.3,0.8-0.7c0.1-0.2,0.2-0.4,0.3-0.6c1.2-2,2.4-4,4.1-5.7c0.1-0.1,0.2-0.2,0.3-0.4c-0.1,0-0.2-0.1-0.3-0.1
		c-0.8-0.1-1.4,0.1-2,0.7c-0.1,0.1-0.2,0.2-0.3,0.3c-0.5-0.2-1-0.4-1.5-0.6c-0.1,0-0.2-0.1-0.3-0.1c-0.1,0-0.2,0-0.2,0.1
		c0,0,0,0.1,0,0.2c0,0,0,0.1,0.1,0.1c0.2,0.5,0.4,0.9,0.3,1.4c0,0.4-0.2,0.6-0.5,0.8c-0.6,0.3-1.4,0.3-1.9-0.2
		c-0.3-0.3-0.6-0.7-0.8-1.1c-0.2-0.4-0.2-0.4-0.6-0.2c-0.4,0.3-0.9,0.6-1.4,0.8c-0.7,0.3-1.3,0.5-2.1,0.4c-0.8-0.1-1.5-0.6-1.7-1.4
		c-0.2-0.9,0.1-1.6,0.9-2c0.1,0,0.1-0.1,0.2-0.1c0.4-0.1,0.7-0.2,1.1-0.4c0.2,0,0.3-0.1,0.4-0.3c-0.4-0.2-0.8-0.4-1.3-0.5
		c-0.5-0.1-1.1,0-1.5,0.1c-0.1-0.4-0.2-0.8-0.4-1.2c-0.1-0.4-0.3-0.8-0.6-1.1c-0.5,0.7-0.7,1.5-0.9,2.3c-0.5-0.2-1-0.3-1.4-0.2
		c-0.5,0.1-0.9,0.3-1.4,0.6c0.1,0.2,0.2,0.2,0.4,0.3c0.5,0.1,0.9,0.3,1.4,0.5c0.6,0.4,0.9,0.9,0.8,1.6c0,0.9-0.6,1.5-1.4,1.7
		c-0.4,0.1-0.9,0.1-1.3,0c-0.7-0.1-1.4-0.4-2-0.8c-0.2-0.1-0.4-0.3-0.6-0.4c-0.2-0.1-0.3-0.1-0.4,0.1c-0.2,0.3-0.3,0.6-0.5,0.9
		c-0.5,0.7-1.2,0.9-2,0.7c-0.4-0.1-0.6-0.4-0.7-0.7c-0.1-0.3-0.1-0.6,0-0.9c0.1-0.3,0.2-0.6,0.3-0.9c0.1-0.2,0-0.3-0.2-0.3
		c-0.4,0.1-0.7,0.2-1,0.4c-0.2,0.1-0.4,0.2-0.7,0.3c-0.2-0.4-0.6-0.8-1-0.9c-0.5-0.1-0.9-0.2-1.4-0.1c0,0.2,0,0.3,0.2,0.4
		c1.7,1.8,3.1,3.9,4.3,6.1c0.1,0.1,0.1,0.2,0.1,0.3c0.1,0.3,0.4,0.5,0.6,0.6c0.1,0.1,0.2,0,0.2-0.1c0-0.3,0.3-0.5,0.5-0.6
		c0.4-0.2,0.9-0.4,1.4-0.4c0.7-0.1,1.4-0.3,2.1-0.4c1.1-0.1,2.1-0.2,3.2-0.2c1.9,0,3.8-0.1,5.7,0.2c0.8,0.1,1.7,0.2,2.5,0.4
		c0.6,0.1,1.2,0.3,1.7,0.6c0.2,0.1,0.4,0.2,0.4,0.5C58.3,36.2,58.4,36.3,58.4,36.3z M35.6,56.4c0.1,0.1,0.1,0.2,0.1,0.2
		c0.2,0.2,0.4,0.4,0.6,0.7c1.5,1.7,2.6,3.5,3.7,5.5c0,0.1,0.1,0.2,0.1,0.2c0.1,0.3,0.3,0.5,0.6,0.7c0.2,0.1,0.3,0.1,0.3-0.1
		c0-0.2,0.1-0.4,0.3-0.4c0.3-0.1,0.6-0.3,0.9-0.4c0.7-0.2,1.4-0.3,2.2-0.4c0.9-0.1,1.8-0.3,2.7-0.3c2.1-0.1,4.2,0,6.2,0.1
		c0.5,0,0.9,0.1,1.4,0.1c0.5,0.1,0.9,0.2,1.4,0.3c0.6,0.1,1.2,0.2,1.8,0.5c0.3,0.1,0.5,0.3,0.5,0.6c0,0.1,0.1,0.2,0.2,0.1
		c0.2-0.1,0.4-0.3,0.6-0.5c0.2-0.4,0.5-0.9,0.7-1.3c1.1-1.9,2.3-3.7,3.8-5.2c0.1-0.1,0.1-0.2,0.2-0.3c-1.1-0.1-2,0-2.6,1
		c-0.1-0.1-0.2-0.1-0.3-0.1c-0.3-0.2-0.7-0.3-1-0.5c-0.2-0.1-0.4-0.1-0.7-0.1c0,0.1,0.1,0.2,0.1,0.3c0.1,0.2,0.2,0.5,0.3,0.7
		c0.1,0.3,0.1,0.7,0,1c-0.1,0.3-0.2,0.5-0.5,0.6c-0.7,0.3-1.4,0.2-2-0.3c-0.1-0.1-0.3-0.3-0.4-0.5c-0.1-0.2-0.2-0.4-0.3-0.6
		c-0.2-0.3-0.2-0.3-0.5-0.1c-0.6,0.5-1.4,0.8-2.1,1.1c-0.6,0.2-1.1,0.2-1.7,0.1c-0.8-0.2-1.2-0.7-1.4-1.4c-0.2-0.8,0.1-1.4,0.8-1.9
		c0.4-0.3,0.8-0.4,1.3-0.5c0.2,0,0.4-0.1,0.6-0.2c-0.2-0.3-0.5-0.4-0.7-0.5c-0.7-0.3-1.4-0.4-2.1,0c-0.1-0.2-0.1-0.4-0.2-0.6
		c-0.1-0.4-0.3-0.8-0.4-1.2c-0.1-0.2-0.2-0.3-0.3-0.5c-0.1,0.1-0.1,0.1-0.1,0.2c-0.4,0.6-0.6,1.4-0.8,2.1c-0.5-0.1-1-0.3-1.5-0.1
		c-0.5,0.2-1,0.3-1.4,0.7c0.2,0.1,0.4,0.1,0.6,0.2c0.4,0.1,0.9,0.3,1.2,0.5c0.6,0.4,0.8,0.9,0.8,1.6c-0.1,0.9-0.6,1.5-1.4,1.7
		c-0.4,0.1-0.8,0.1-1.1,0c-0.9-0.2-1.8-0.6-2.6-1.2c-0.4-0.3-0.4-0.3-0.6,0.2c-0.2,0.4-0.4,0.7-0.7,1c-0.5,0.5-1.1,0.6-1.7,0.4
		c-0.6-0.2-0.8-0.6-0.7-1.2c0.1-0.4,0.2-0.8,0.3-1.2c0-0.1,0.1-0.2,0.1-0.3c-0.3-0.1-0.5,0-0.7,0.1c-0.4,0.1-0.7,0.3-1,0.5
		c-0.1,0-0.2,0.1-0.3,0.1c-0.3-0.4-0.6-0.8-1.1-0.9C36.5,56.2,36.1,56.2,35.6,56.4z M41.9,51.1c0-0.3,0.2-0.5,0.4-0.6
		c0.1,0,0.2-0.1,0.3-0.1c0.7-0.2,1.4-0.4,2.2-0.5c1.2-0.2,2.3-0.3,3.5-0.3c1.3,0,2.6,0,3.8,0c1.1,0,2.1,0.2,3.2,0.4
		c0.6,0.1,1.2,0.3,1.7,0.5c0.2,0.1,0.4,0.2,0.4,0.5c0,0.2,0.1,0.2,0.3,0.1c0.3-0.1,0.4-0.3,0.5-0.6c0-0.3-0.1-0.5-0.3-0.6
		c-0.3-0.1-0.5-0.3-0.8-0.4c-1.1-0.3-2.2-0.5-3.3-0.7c-0.7-0.1-1.3-0.1-2-0.1c-1.4-0.1-2.8-0.1-4.2,0c-1.3,0.1-2.6,0.2-3.9,0.5
		c-0.6,0.1-1.2,0.3-1.8,0.5c-0.3,0.1-0.5,0.2-0.6,0.5c-0.1,0.2-0.2,0.4,0,0.6C41.3,51,41.6,51.1,41.9,51.1z M57.5,37.5
		c0.2,0,0.4-0.1,0.5-0.2c0.3-0.3,0.3-0.7,0-1c-0.2-0.1-0.4-0.2-0.6-0.3c-0.5-0.2-1-0.3-1.6-0.4c-1.4-0.3-2.9-0.4-4.3-0.5
		C50.7,35,49.8,35,49,35c-0.8,0-1.6,0.1-2.5,0.1c-1.4,0.1-2.7,0.3-4,0.7c-0.4,0.1-0.8,0.3-1.1,0.5c-0.2,0.1-0.3,0.3-0.3,0.5
		c0,0.3,0.4,0.7,0.7,0.7c0,0,0,0,0.1,0c0-0.3,0.2-0.5,0.5-0.6c0.2-0.1,0.4-0.2,0.6-0.2c0.6-0.1,1.3-0.3,1.9-0.4
		c0.8-0.1,1.5-0.2,2.3-0.2c0.7-0.1,1.4-0.1,2.1-0.1c0.7,0,1.4,0.1,2,0.1c1.7,0,3.5,0.2,5.2,0.7c0.3,0.1,0.5,0.2,0.8,0.3
		C57.4,37,57.5,37.2,57.5,37.5z M41.9,64.9c0-0.4,0.2-0.5,0.5-0.7c0.1-0.1,0.3-0.1,0.4-0.2c0.9-0.2,1.7-0.4,2.6-0.6
		c0.9-0.1,1.9-0.2,2.8-0.2c1.4-0.1,2.7-0.1,4.1,0.1c1.1,0.1,2.2,0.2,3.2,0.4c0.5,0.1,1.1,0.2,1.6,0.5c0.2,0.1,0.4,0.3,0.4,0.5
		c0,0,0,0.1,0.1,0.1c0.1-0.1,0.2-0.1,0.4-0.2c0.4-0.3,0.4-0.8,0-1.1c-0.4-0.3-0.9-0.4-1.3-0.5c-0.9-0.2-1.8-0.4-2.7-0.5
		c-1.1-0.1-2.1-0.2-3.2-0.2c-1.1,0-2.2,0-3.3,0c-1.1,0-2.2,0.2-3.2,0.4c-0.7,0.1-1.5,0.3-2.2,0.5c-0.3,0.1-0.5,0.3-0.8,0.5
		c-0.2,0.2-0.2,0.4-0.1,0.6C41.3,64.7,41.5,64.8,41.9,64.9z M46.7,70.1c0.1-0.1,0.2-0.1,0.3-0.2c0.1-0.1,0.3-0.3,0.4-0.4
		c0.1-0.3,0.2-0.6,0.1-1c-0.1-0.3-0.2-0.5-0.5-0.7c-0.2-0.2-0.5-0.3-0.7-0.3c-0.6,0-1.1,0-1.7-0.1c-0.3,0-0.4,0.1-0.4,0.4
		c0,1.2,0,2.4,0,3.6c0,0.1,0,0.2,0,0.2c0,0.2,0.1,0.3,0.3,0.3c0.1,0,0.2,0,0.4,0c0.3,0,0.3-0.1,0.3-0.3c0-0.4,0-0.7,0-1.1
		c0-0.1,0-0.2,0-0.3c0.5-0.1,0.6-0.1,0.8,0.3c0.1,0.3,0.3,0.6,0.4,0.9c0.1,0.3,0.3,0.5,0.6,0.5c0.2,0,0.3,0,0.5,0
		c0.1,0,0.2-0.1,0.1-0.2c0-0.1-0.1-0.2-0.1-0.3C47.2,71,46.9,70.6,46.7,70.1z M52.6,69.7c0-0.1,0-0.3,0-0.5c0-0.2,0.1-0.4,0.2-0.6
		c0.1-0.2,0.3-0.3,0.5-0.3c0.3,0,0.6,0.1,0.7,0.4c0.1,0.1,0.1,0.2,0.3,0.2c0.2,0,0.3,0,0.4-0.1c0.3-0.1,0.3-0.2,0.2-0.4
		c-0.2-0.4-0.5-0.7-0.9-0.9c-0.8-0.3-2.1,0.1-2.3,1.2c-0.1,0.6-0.2,1.2-0.1,1.9c0.2,1,1,1.6,2,1.5c0.6-0.1,1.1-0.4,1.4-1
		c0.1-0.2,0-0.3-0.1-0.4c-0.4-0.2-0.6-0.2-0.9,0.2c-0.1,0.2-0.3,0.3-0.5,0.3c-0.4,0-0.7-0.3-0.8-0.8C52.6,70.2,52.6,70,52.6,69.7z
		 M48.3,69.8c0,0.1,0,0.2,0,0.3c0,0.5,0,1.1,0,1.6c0,0.4,0,0.4,0.4,0.4c0.1,0,0.2,0,0.2,0c0.3,0,0.4,0,0.4-0.4c0-0.4,0-0.8,0-1.2
		c0-0.3,0-0.3,0.3-0.3c0.2,0,0.4,0,0.6,0c0.5,0,0.5,0.1,0.5-0.5c0-0.2-0.1-0.3-0.3-0.3c-0.2,0-0.4,0-0.6,0c-0.6,0-0.6,0.1-0.6-0.6
		c0-0.3,0-0.3,0.3-0.3c0.4,0,0.8,0,1.2,0c0.3,0,0.4,0,0.4-0.4c0,0,0-0.1,0-0.1c0-0.3-0.1-0.4-0.4-0.4c-0.7,0-1.4,0-2.1,0
		c-0.3,0-0.4,0.1-0.4,0.4C48.3,68.5,48.3,69.1,48.3,69.8z"/>
	<path class="st0" d="M71.4,63.9c-0.3-0.1-0.5-0.2-0.8-0.3c-0.2-0.1-0.2-0.1-0.1-0.3c0.1-0.3,0.3-0.7,0.4-1c0-0.1,0.1-0.2,0.2-0.2
		c0.2-0.2,0.3-0.2,0.6-0.1c0.2,0.1,0.3,0.2,0.2,0.5C71.8,63,71.6,63.4,71.4,63.9z"/>
	<path class="st0" d="M56.3,81.4c-0.2-0.3-0.3-0.5-0.5-0.8c-0.1-0.1,0-0.2,0.1-0.2c0.4-0.2,0.8-0.5,1.2-0.7c0.2-0.1,0.4,0,0.6,0.2
		c0.1,0.2,0.1,0.3,0,0.5c-0.1,0.1-0.1,0.2-0.2,0.2c-0.1,0.1-0.2,0.2-0.3,0.2C56.8,81.1,56.5,81.2,56.3,81.4z"/>
	<path class="st0" d="M64,78c0,0.7-0.7,1.3-1.4,1.2c-0.9-0.2-1.7-1-1.7-2c0-0.7,0.7-1.3,1.4-1.2c0.4,0.1,0.8,0.3,1.1,0.6
		C63.7,77,64,77.6,64,78z"/>
	<path class="st0" d="M41.5,80c0,0.8-0.8,1.8-1.6,1.9c-0.8,0.2-1.5-0.6-1.4-1.4c0.1-0.7,0.5-1.3,1.2-1.6
		C40.6,78.5,41.5,79.1,41.5,80z"/>
	<path class="st1" d="M61.3,43.6c0.1-0.1,0.1-0.2,0.2-0.3c0.3-0.4,0.7-0.7,1.3-0.7c0.2,0,0.4,0,0.6-0.1c0,0,0.1,0,0.1,0
		c0.1,0,0.2,0.1,0.2,0.1c0,0.1,0,0.2-0.1,0.2c-0.2,0.2-0.4,0.5-0.6,0.7c-1.2,1.3-2.2,2.8-3.1,4.4c-0.3,0.5-0.5,1-0.8,1.5
		c-0.1,0.2-0.3,0.4-0.5,0.5c-0.1,0-0.1,0-0.2,0.1c0,0-0.1-0.1-0.1-0.1c-0.1-0.4-0.3-0.6-0.7-0.8c-0.7-0.3-1.4-0.4-2.1-0.5
		c-0.9-0.1-1.8-0.2-2.8-0.3c-1.3-0.1-2.5-0.1-3.8-0.1c-0.7,0-1.4,0-2,0.1c-0.7,0-1.3,0.1-2,0.2c-1.1,0.1-2.2,0.3-3.3,0.7
		c-0.1,0-0.2,0.1-0.3,0.1c-0.2,0.1-0.4,0.3-0.4,0.6c0,0.1,0,0.1,0,0.2c-0.4-0.1-0.7-0.4-0.8-0.7c-0.7-1.5-1.6-2.9-2.6-4.2
		c-0.5-0.7-1.2-1.4-1.7-2.1c-0.1-0.1-0.2-0.2-0.3-0.4c0.5-0.2,1-0.1,1.5,0.1c0.5,0.2,0.8,0.5,1.1,0.9c0.6-0.4,1.2-0.6,1.9-0.8
		c0.1,0.2,0,0.3,0,0.4c-0.1,0.3-0.2,0.5-0.3,0.7c-0.1,0.3-0.1,0.6,0,0.9c0.1,0.3,0.3,0.5,0.6,0.6c0.7,0.2,1.2,0.3,1.9-0.4
		c0.3-0.3,0.5-0.6,0.6-1c0.2-0.5,0.2-0.5,0.6-0.2c0.8,0.6,1.6,1,2.6,1.1c0.4,0.1,0.8,0,1.2,0c0.5-0.1,0.9-0.5,1.1-1
		c0.4-0.9,0.3-1.8-0.7-2.4c-0.4-0.2-0.8-0.4-1.2-0.5c-0.2,0-0.3-0.1-0.5-0.1c0-0.2,0.1-0.2,0.2-0.3c0.7-0.4,1.4-0.6,2.1-0.5
		c0.2,0,0.3,0.1,0.5,0.1c0.1-0.4,0.2-0.8,0.4-1.2c0.1-0.4,0.3-0.7,0.5-1.1c0.2,0.1,0.3,0.2,0.4,0.4c0.3,0.6,0.5,1.2,0.6,1.9
		c0.9-0.4,1.8-0.2,2.6,0.2c0.1,0.1,0.2,0.1,0.3,0.3c-0.1,0-0.2,0.1-0.2,0.1c-0.5,0.1-1,0.2-1.5,0.5c-0.7,0.4-1,1.1-0.8,2
		c0.2,0.8,0.7,1.4,1.8,1.4c0.7,0,1.4-0.1,2-0.4c0.5-0.3,0.9-0.6,1.4-0.8c0.2-0.2,0.3-0.1,0.4,0.1c0.2,0.3,0.3,0.6,0.5,0.9
		c0.2,0.3,0.5,0.5,0.8,0.7c0.5,0.2,0.9,0.2,1.4,0c0.4-0.2,0.6-0.5,0.6-0.9c0-0.4-0.1-0.9-0.3-1.2c-0.1-0.1-0.1-0.2-0.1-0.3
		c0-0.1,0-0.2,0.1-0.2c0.1,0,0.2,0,0.2,0c0.5,0.1,1,0.3,1.5,0.6C61.2,43.6,61.2,43.6,61.3,43.6z M57.6,48c0.4,0,0.7-0.3,0.7-0.6
		c0-0.3-0.3-0.6-0.7-0.6c-0.4,0-0.7,0.3-0.7,0.6C57,47.8,57.2,48,57.6,48z M50,46.6c0-0.4-0.3-0.7-0.6-0.7c-0.4,0-0.6,0.3-0.6,0.6
		c0,0.4,0.3,0.7,0.6,0.7C49.8,47.2,50,47,50,46.6z M42.2,47.5c0-0.3-0.3-0.6-0.7-0.6c-0.4,0-0.6,0.3-0.7,0.6c0,0.4,0.3,0.7,0.6,0.7
		C41.8,48.1,42.2,47.9,42.2,47.5z M45.2,46.7c-0.2,0-0.3,0.1-0.3,0.2c0,0.1,0.1,0.3,0.3,0.3c0.2,0,0.3-0.1,0.3-0.2
		C45.5,46.8,45.4,46.7,45.2,46.7z M53.7,47c0-0.1-0.2-0.3-0.3-0.3c-0.1,0-0.2,0.1-0.2,0.3c0,0.2,0.1,0.3,0.3,0.3
		C53.6,47.2,53.8,47.1,53.7,47z"/>
	<path class="st1" d="M58.4,36.3c0-0.1-0.1-0.1-0.1-0.2c0-0.3-0.2-0.4-0.4-0.5c-0.5-0.3-1.1-0.4-1.7-0.6c-0.8-0.2-1.6-0.3-2.5-0.4
		c-1.9-0.2-3.8-0.2-5.7-0.2c-1.1,0-2.1,0.1-3.2,0.2c-0.7,0.1-1.4,0.3-2.1,0.4c-0.5,0.1-0.9,0.2-1.4,0.4c-0.2,0.1-0.5,0.3-0.5,0.6
		c0,0.1-0.1,0.2-0.2,0.1c-0.3-0.1-0.5-0.3-0.6-0.6c0-0.1-0.1-0.2-0.1-0.3c-1.2-2.2-2.6-4.2-4.3-6.1c-0.1-0.2-0.1-0.2-0.2-0.4
		c0.5-0.1,0.9-0.1,1.4,0.1c0.5,0.1,0.8,0.5,1,0.9c0.2-0.1,0.5-0.2,0.7-0.3c0.3-0.1,0.7-0.3,1-0.4c0.2-0.1,0.3,0,0.2,0.3
		c-0.1,0.3-0.2,0.6-0.3,0.9c-0.1,0.3-0.1,0.6,0,0.9c0.1,0.4,0.4,0.6,0.7,0.7c0.8,0.2,1.5,0,2-0.7c0.2-0.3,0.3-0.6,0.5-0.9
		c0.1-0.2,0.2-0.3,0.4-0.1c0.2,0.1,0.4,0.3,0.6,0.4c0.6,0.4,1.2,0.7,2,0.8c0.4,0.1,0.9,0.1,1.3,0c0.9-0.2,1.4-0.9,1.4-1.7
		c0-0.7-0.3-1.2-0.8-1.6c-0.4-0.3-0.9-0.4-1.4-0.5c-0.2,0-0.3,0-0.4-0.3c0.4-0.3,0.9-0.5,1.4-0.6c0.5-0.1,1,0,1.4,0.2
		c0.2-0.8,0.4-1.6,0.9-2.3c0.3,0.3,0.5,0.7,0.6,1.1c0.1,0.4,0.2,0.8,0.4,1.2c0.5-0.2,1-0.3,1.5-0.1c0.4,0.1,0.9,0.3,1.3,0.5
		c-0.1,0.2-0.2,0.2-0.4,0.3c-0.4,0.1-0.7,0.2-1.1,0.4c-0.1,0-0.1,0.1-0.2,0.1c-0.8,0.4-1,1.1-0.9,2c0.2,0.8,0.8,1.3,1.7,1.4
		c0.7,0.1,1.4-0.1,2.1-0.4c0.5-0.2,1-0.5,1.4-0.8c0.4-0.3,0.4-0.2,0.6,0.2c0.2,0.4,0.4,0.8,0.8,1.1c0.5,0.5,1.4,0.5,1.9,0.2
		c0.3-0.2,0.5-0.5,0.5-0.8c0-0.5-0.1-1-0.3-1.4c0,0-0.1-0.1-0.1-0.1c0-0.1,0-0.2,0-0.2c0,0,0.1-0.1,0.2-0.1c0.1,0,0.2,0.1,0.3,0.1
		c0.5,0.2,1,0.4,1.5,0.6c0.1-0.1,0.2-0.2,0.3-0.3c0.5-0.6,1.2-0.7,2-0.7c0.1,0,0.2,0,0.3,0.1c-0.1,0.1-0.2,0.3-0.3,0.4
		C62,31,60.7,33,59.5,35.1c-0.1,0.2-0.2,0.4-0.3,0.6C59.1,36,58.8,36.2,58.4,36.3z M40.8,33.8c0,0.3,0.3,0.7,0.7,0.7
		c0.3,0,0.6-0.3,0.7-0.7c0-0.3-0.3-0.7-0.6-0.7C41.1,33.1,40.8,33.5,40.8,33.8z M49.4,33.5c0.4,0,0.6-0.3,0.6-0.7
		c0-0.4-0.3-0.6-0.6-0.6c-0.3,0-0.6,0.3-0.6,0.7C48.8,33.2,49.1,33.5,49.4,33.5z M57.6,34.4c0.4,0,0.7-0.3,0.7-0.6
		c0-0.3-0.3-0.6-0.7-0.6c-0.4,0-0.7,0.3-0.6,0.7C57,34.1,57.3,34.4,57.6,34.4z M45.2,33c-0.2,0-0.3,0.1-0.3,0.3
		c0,0.1,0.1,0.3,0.3,0.3c0.2,0,0.3-0.1,0.3-0.3C45.5,33.1,45.4,33,45.2,33z M53.8,33.3c0-0.1-0.2-0.3-0.3-0.3
		c-0.1,0-0.3,0.1-0.3,0.3c0,0.1,0.1,0.3,0.2,0.3C53.6,33.6,53.8,33.4,53.8,33.3z"/>
	<path class="st1" d="M35.6,56.4c0.5-0.2,1-0.1,1.4,0c0.5,0.1,0.8,0.5,1.1,0.9c0.1,0,0.2-0.1,0.3-0.1c0.3-0.2,0.7-0.3,1-0.5
		c0.2-0.1,0.4-0.2,0.7-0.1c0,0.1-0.1,0.2-0.1,0.3c-0.1,0.4-0.3,0.8-0.3,1.2c-0.1,0.6,0.2,1,0.7,1.2c0.7,0.2,1.2,0.1,1.7-0.4
		c0.3-0.3,0.5-0.6,0.7-1c0.2-0.4,0.2-0.4,0.6-0.2c0.8,0.6,1.6,1,2.6,1.2c0.4,0.1,0.8,0.1,1.1,0c0.9-0.2,1.4-0.8,1.4-1.7
		c0.1-0.7-0.2-1.2-0.8-1.6c-0.4-0.3-0.8-0.4-1.2-0.5c-0.2-0.1-0.4-0.1-0.6-0.2c0.4-0.4,0.9-0.5,1.4-0.7c0.5-0.2,1,0,1.5,0.1
		c0.3-0.7,0.4-1.5,0.8-2.1c0-0.1,0.1-0.1,0.1-0.2c0.2,0.1,0.3,0.3,0.3,0.5c0.2,0.4,0.3,0.8,0.4,1.2c0.1,0.2,0.1,0.4,0.2,0.6
		c0.7-0.3,1.4-0.2,2.1,0c0.3,0.1,0.5,0.2,0.7,0.5C53.3,55,53.1,55,52.9,55c-0.5,0.1-0.9,0.3-1.3,0.5c-0.7,0.4-0.9,1.1-0.8,1.9
		c0.2,0.7,0.6,1.2,1.4,1.4c0.6,0.1,1.1,0.1,1.7-0.1c0.8-0.3,1.5-0.6,2.1-1.1c0.3-0.2,0.3-0.2,0.5,0.1c0.1,0.2,0.2,0.4,0.3,0.6
		c0.1,0.2,0.2,0.3,0.4,0.5c0.6,0.6,1.3,0.7,2,0.3c0.3-0.1,0.4-0.3,0.5-0.6c0.1-0.3,0.1-0.7,0-1c-0.1-0.2-0.2-0.5-0.3-0.7
		c0-0.1-0.1-0.2-0.1-0.3c0.3-0.1,0.5,0,0.7,0.1c0.3,0.1,0.7,0.3,1,0.5c0.1,0,0.2,0.1,0.3,0.1c0.6-1,1.5-1.1,2.6-1
		c-0.1,0.1-0.1,0.2-0.2,0.3c-1.5,1.6-2.7,3.4-3.8,5.2c-0.3,0.4-0.5,0.9-0.7,1.3c-0.1,0.2-0.3,0.4-0.6,0.5c-0.1,0.1-0.2,0-0.2-0.1
		c0-0.3-0.2-0.5-0.5-0.6c-0.6-0.3-1.2-0.4-1.8-0.5c-0.5-0.1-0.9-0.2-1.4-0.3c-0.5-0.1-0.9-0.1-1.4-0.1c-2.1-0.1-4.2-0.2-6.2-0.1
		c-0.9,0-1.8,0.2-2.7,0.3c-0.7,0.1-1.5,0.2-2.2,0.4c-0.3,0.1-0.6,0.3-0.9,0.4c-0.2,0.1-0.3,0.2-0.3,0.4c0,0.2-0.1,0.2-0.3,0.1
		c-0.3-0.2-0.5-0.4-0.6-0.7c0-0.1-0.1-0.2-0.1-0.2c-1.1-1.9-2.3-3.8-3.7-5.5c-0.2-0.2-0.4-0.4-0.6-0.7
		C35.6,56.5,35.6,56.5,35.6,56.4z M57.6,61.8c0.3,0,0.7-0.3,0.7-0.6c0-0.3-0.3-0.7-0.6-0.7c-0.3,0-0.7,0.3-0.7,0.7
		C57,61.5,57.3,61.8,57.6,61.8z M42.2,61.2c0-0.4-0.3-0.6-0.7-0.6c-0.4,0-0.7,0.3-0.7,0.6c0,0.3,0.3,0.6,0.6,0.6
		C41.8,61.8,42.2,61.5,42.2,61.2z M49.4,59.6c-0.4,0-0.7,0.2-0.7,0.7c0,0.4,0.2,0.6,0.6,0.6c0.4,0,0.7-0.3,0.7-0.6
		C50,59.9,49.7,59.6,49.4,59.6z M45.2,60.4c-0.1,0-0.3,0.1-0.3,0.3c0,0.2,0.1,0.3,0.3,0.3c0.1,0,0.3-0.1,0.3-0.3
		C45.5,60.5,45.4,60.4,45.2,60.4z M53.2,60.7c0,0.2,0.1,0.3,0.3,0.3c0.1,0,0.3-0.2,0.3-0.3c0-0.1-0.1-0.3-0.3-0.2
		C53.3,60.4,53.2,60.5,53.2,60.7z"/>
	<path class="st1" d="M41.9,51.1c-0.3,0-0.5-0.1-0.7-0.3c-0.1-0.2-0.1-0.4,0-0.6c0.2-0.2,0.4-0.4,0.6-0.5c0.6-0.2,1.2-0.4,1.8-0.5
		c1.3-0.3,2.6-0.4,3.9-0.5c1.4-0.1,2.8-0.1,4.2,0c0.7,0.1,1.3,0.1,2,0.1c1.1,0.1,2.2,0.3,3.3,0.7c0.3,0.1,0.6,0.2,0.8,0.4
		c0.2,0.1,0.4,0.3,0.3,0.6c0,0.3-0.2,0.5-0.5,0.6c-0.2,0.1-0.2,0-0.3-0.1c0-0.3-0.2-0.4-0.4-0.5c-0.6-0.3-1.1-0.4-1.7-0.5
		c-1.1-0.2-2.1-0.3-3.2-0.4c-1.3,0-2.6,0-3.8,0c-1.2,0-2.4,0.1-3.5,0.3c-0.7,0.1-1.4,0.3-2.2,0.5c-0.1,0-0.2,0.1-0.3,0.1
		C42,50.6,41.9,50.8,41.9,51.1z"/>
	<path class="st1" d="M57.5,37.5c0-0.3-0.1-0.5-0.3-0.6c-0.3-0.1-0.5-0.3-0.8-0.3c-1.7-0.4-3.4-0.7-5.2-0.7c-0.7,0-1.4-0.1-2-0.1
		c-0.7,0-1.4,0.1-2.1,0.1c-0.8,0.1-1.5,0.1-2.3,0.2c-0.6,0.1-1.3,0.3-1.9,0.4c-0.2,0-0.4,0.1-0.6,0.2c-0.3,0.1-0.5,0.3-0.5,0.6
		c0,0-0.1,0-0.1,0c-0.3,0-0.7-0.4-0.7-0.7c0-0.2,0.1-0.4,0.3-0.5c0.3-0.2,0.7-0.4,1.1-0.5c1.3-0.3,2.7-0.6,4-0.7
		c0.8,0,1.6-0.1,2.5-0.1c0.8,0,1.7,0.1,2.5,0.1c1.5,0,2.9,0.2,4.3,0.5c0.5,0.1,1,0.3,1.6,0.4c0.2,0.1,0.4,0.2,0.6,0.3
		c0.4,0.3,0.4,0.7,0,1C57.9,37.4,57.7,37.5,57.5,37.5z"/>
	<path class="st1" d="M41.9,64.9c-0.4,0-0.6-0.2-0.7-0.5c-0.1-0.2-0.1-0.4,0.1-0.6c0.2-0.2,0.5-0.3,0.8-0.5c0.7-0.3,1.4-0.4,2.2-0.5
		c1.1-0.2,2.2-0.3,3.2-0.4c1.1,0,2.2,0,3.3,0c1.1,0,2.1,0.1,3.2,0.2c0.9,0.1,1.8,0.2,2.7,0.5c0.5,0.1,0.9,0.3,1.3,0.5
		c0.4,0.3,0.4,0.8,0,1.1c-0.1,0.1-0.2,0.1-0.4,0.2c0-0.1-0.1-0.1-0.1-0.1c0-0.3-0.2-0.4-0.4-0.5c-0.5-0.3-1-0.4-1.6-0.5
		c-1.1-0.2-2.1-0.3-3.2-0.4c-1.4-0.1-2.7-0.1-4.1-0.1c-0.9,0-1.9,0.1-2.8,0.2c-0.9,0.1-1.8,0.4-2.6,0.6c-0.1,0-0.3,0.1-0.4,0.2
		C42.1,64.3,41.8,64.5,41.9,64.9z"/>
	<path class="st1" d="M46.7,70.1c0.2,0.5,0.5,1,0.7,1.4c0,0.1,0.1,0.2,0.1,0.3c0.1,0.1,0,0.2-0.1,0.2c-0.2,0-0.3,0-0.5,0
		c-0.3,0-0.5-0.2-0.6-0.5c-0.1-0.3-0.3-0.6-0.4-0.9c-0.2-0.4-0.3-0.5-0.8-0.3c0,0.1,0,0.2,0,0.3c0,0.4,0,0.7,0,1.1
		c0,0.3,0,0.3-0.3,0.3c-0.1,0-0.2,0-0.4,0c-0.2,0-0.3-0.1-0.3-0.3c0-0.1,0-0.2,0-0.2c0-1.2,0-2.4,0-3.6c0-0.4,0.1-0.4,0.4-0.4
		c0.6,0,1.1,0,1.7,0.1c0.3,0,0.5,0.1,0.7,0.3c0.2,0.2,0.4,0.4,0.5,0.7c0.1,0.3,0,0.7-0.1,1c-0.1,0.2-0.2,0.3-0.4,0.4
		C46.9,70,46.8,70,46.7,70.1z M45.1,69.4c0.3,0,0.5,0,0.7,0c0.2,0,0.3-0.1,0.4-0.2c0.2-0.1,0.2-0.3,0.2-0.5c0-0.2-0.2-0.3-0.4-0.4
		c-0.2,0-0.5,0-0.7,0c-0.1,0-0.2,0.1-0.2,0.2C45.1,68.8,45.1,69.1,45.1,69.4z"/>
	<path class="st1" d="M52.6,69.7c0,0.3,0,0.5,0,0.7c0,0.5,0.4,0.8,0.8,0.8c0.2,0,0.4-0.1,0.5-0.3c0.3-0.4,0.5-0.4,0.9-0.2
		c0.1,0.1,0.2,0.2,0.1,0.4c-0.2,0.6-0.7,0.9-1.4,1c-1,0.1-1.8-0.5-2-1.5c-0.1-0.6-0.1-1.3,0.1-1.9c0.3-1.2,1.5-1.5,2.3-1.2
		c0.4,0.2,0.7,0.4,0.9,0.9c0.1,0.2,0,0.4-0.2,0.4c-0.1,0-0.3,0.1-0.4,0.1c-0.1,0-0.2-0.1-0.3-0.2c-0.1-0.3-0.4-0.4-0.7-0.4
		c-0.2,0-0.4,0.1-0.5,0.3c-0.1,0.2-0.1,0.4-0.2,0.6C52.6,69.4,52.6,69.6,52.6,69.7z"/>
	<path class="st1" d="M48.3,69.8c0-0.6,0-1.3,0-1.9c0-0.4,0.1-0.4,0.4-0.4c0.7,0,1.4,0,2.1,0c0.3,0,0.4,0,0.4,0.4c0,0,0,0.1,0,0.1
		c0,0.4-0.1,0.4-0.4,0.4c-0.4,0-0.8,0-1.2,0c-0.3,0-0.3,0-0.3,0.3c0,0.6-0.1,0.6,0.6,0.6c0.2,0,0.4,0,0.6,0c0.2,0,0.3,0.1,0.3,0.3
		c0,0.6-0.1,0.5-0.5,0.5c-0.2,0-0.4,0-0.6,0c-0.3,0-0.3,0-0.3,0.3c0,0.4,0,0.8,0,1.2c0,0.3,0,0.4-0.4,0.4c-0.1,0-0.2,0-0.2,0
		c-0.4,0-0.4,0-0.4-0.4c0-0.5,0-1.1,0-1.6C48.3,70,48.3,69.9,48.3,69.8z"/>
	<path class="st0" d="M57.6,48c-0.4,0-0.6-0.3-0.6-0.6c0-0.4,0.3-0.6,0.7-0.6c0.4,0,0.7,0.3,0.7,0.6C58.3,47.8,58,48,57.6,48z"/>
	<path class="st0" d="M50,46.6c0,0.4-0.3,0.6-0.6,0.6c-0.4,0-0.7-0.3-0.6-0.7c0-0.4,0.3-0.6,0.6-0.6C49.8,45.9,50,46.2,50,46.6z"/>
	<path class="st0" d="M42.2,47.5c0,0.3-0.3,0.6-0.7,0.6c-0.4,0-0.6-0.3-0.6-0.7c0-0.3,0.3-0.6,0.7-0.6
		C41.9,46.9,42.2,47.2,42.2,47.5z"/>
	<path class="st0" d="M45.2,46.7c0.2,0,0.3,0.1,0.3,0.3c0,0.1-0.1,0.2-0.3,0.2c-0.2,0-0.3-0.1-0.3-0.3C44.9,46.8,45,46.7,45.2,46.7z
		"/>
	<path class="st0" d="M53.7,47c0,0.1-0.1,0.3-0.3,0.3c-0.2,0-0.3-0.1-0.3-0.3c0-0.1,0.1-0.3,0.2-0.3C53.6,46.7,53.7,46.8,53.7,47z"
		/>
	<path class="st0" d="M40.8,33.8c0-0.4,0.3-0.7,0.7-0.7c0.3,0,0.6,0.4,0.6,0.7c0,0.3-0.4,0.7-0.7,0.7C41.1,34.5,40.8,34.2,40.8,33.8
		z"/>
	<path class="st0" d="M49.4,33.5c-0.3,0-0.7-0.3-0.7-0.7c0-0.4,0.3-0.7,0.6-0.7c0.3,0,0.6,0.3,0.6,0.6
		C50.1,33.2,49.8,33.5,49.4,33.5z"/>
	<path class="st0" d="M57.6,34.4c-0.4,0-0.6-0.3-0.7-0.6c0-0.4,0.3-0.7,0.6-0.7c0.3,0,0.7,0.3,0.7,0.6C58.3,34.1,58,34.4,57.6,34.4z
		"/>
	<path class="st0" d="M45.2,33c0.1,0,0.3,0.1,0.3,0.3c0,0.2-0.1,0.3-0.3,0.3c-0.1,0-0.3-0.1-0.3-0.3C44.9,33.1,45.1,33,45.2,33z"/>
	<path class="st0" d="M53.8,33.3c0,0.1-0.2,0.3-0.3,0.3c-0.1,0-0.2-0.1-0.2-0.3c0-0.2,0.1-0.3,0.3-0.3C53.6,33,53.8,33.2,53.8,33.3z
		"/>
	<path class="st0" d="M57.6,61.8c-0.4,0-0.7-0.3-0.7-0.7c0-0.3,0.4-0.7,0.7-0.7c0.3,0,0.6,0.4,0.6,0.7C58.3,61.5,58,61.8,57.6,61.8z
		"/>
	<path class="st0" d="M42.2,61.2c0,0.3-0.3,0.6-0.7,0.6c-0.4,0-0.6-0.3-0.6-0.6c0-0.4,0.3-0.6,0.7-0.6
		C41.9,60.6,42.2,60.9,42.2,61.2z"/>
	<path class="st0" d="M49.4,59.6c0.3,0,0.6,0.3,0.6,0.6c0,0.4-0.3,0.6-0.7,0.6c-0.4,0-0.6-0.2-0.6-0.6C48.8,59.9,49,59.6,49.4,59.6z
		"/>
	<path class="st0" d="M45.2,60.4c0.2,0,0.3,0.1,0.3,0.3c0,0.1-0.1,0.3-0.3,0.3c-0.1,0-0.3-0.1-0.3-0.3
		C44.9,60.5,45.1,60.4,45.2,60.4z"/>
	<path class="st0" d="M53.2,60.7c0-0.2,0.1-0.3,0.3-0.3c0.2,0,0.3,0.1,0.3,0.2c0,0.1-0.1,0.3-0.3,0.3C53.3,61,53.2,60.9,53.2,60.7z"
		/>
	<path class="st0" d="M45.1,69.4c0-0.3,0-0.6,0-0.9c0-0.1,0.1-0.2,0.2-0.2c0.2,0,0.5,0,0.7,0c0.2,0,0.3,0.1,0.4,0.4
		c0,0.2,0,0.4-0.2,0.5c-0.1,0.1-0.3,0.1-0.4,0.2C45.6,69.4,45.3,69.4,45.1,69.4z"/>
</g>
</svg>
