<?xml version="1.0" encoding="utf-8"?>
<!-- Generator: Adobe Illustrator 24.0.1, SVG Export Plug-In . SVG Version: 6.00 Build 0)  -->
<svg version="1.1" id="Layer_1" xmlns="http://www.w3.org/2000/svg" xmlns:xlink="http://www.w3.org/1999/xlink" x="0px" y="0px"
	 viewBox="0 0 750 400" style="enable-background:new 0 0 750 400;" xml:space="preserve">
<style type="text/css">
	.st0{fill:#518DCB;}
	.st1{fill:#FCFDFD;}
	.st2{fill:#232856;}
</style>
<g>
	<path class="st0" d="M252.8,95.6c3.8-0.3,7.7,0.5,11.1,2.3c3.9,2,7.1,5.3,9,9.3c2.4,4.9,2.7,10.7,1,15.8c-1.4,4.1-4.2,7.8-7.7,10.3
		c-1.9,1.3-4.1,2.4-6.3,3c-3,0.8-6.2,1-9.3,0.4c-4.4-0.8-8.5-3.1-11.5-6.4c-1.6-1.8-2.9-3.8-3.9-6.1c-1.9-4.7-2.1-10.1-0.4-14.9
		c1-2.8,2.6-5.4,4.7-7.5c2-2.1,4.4-3.7,7.1-4.8C248.5,96.2,250.7,95.7,252.8,95.6L252.8,95.6z"/>
	<path class="st1" d="M252.8,95.9c3.8-0.3,7.6,0.5,11,2.3c4,2.1,7.3,5.6,9.1,9.7c2.1,4.7,2.3,10.3,0.5,15.2
		c-1.5,4.2-4.4,7.8-8.2,10.2c-2,1.3-4.2,2.2-6.6,2.7c-3,0.6-6.1,0.6-9-0.1c-4.1-0.9-7.8-3.2-10.6-6.3c-1.8-2-3.2-4.4-4.1-7
		c-1.5-4.5-1.4-9.6,0.4-14.1c2-5,6.1-9.2,11.1-11.2C248.5,96.6,250.6,96.1,252.8,95.9L252.8,95.9z"/>
	<path class="st0" d="M253.6,96.4c3.7-0.1,7.5,0.8,10.8,2.7c3.9,2.3,7,6,8.6,10.2c1.8,4.8,1.6,10.3-0.5,15c-1.8,4-4.9,7.3-8.7,9.4
		c-2.4,1.3-5,2.1-7.7,2.3c-2.8,0.3-5.7-0.1-8.4-1c-4.2-1.5-7.9-4.4-10.2-8.2c-1.9-3.1-3-6.7-3-10.3c0-2.1,0.3-4.1,0.9-6.1
		c1-3.2,2.8-6.1,5.2-8.5c2.2-2.1,5-3.8,7.9-4.7C250.2,96.7,251.9,96.4,253.6,96.4L253.6,96.4z"/>
	<path class="st2" d="M252.7,96.8c3.3-0.3,6.7,0.3,9.8,1.7c3.9,1.8,7.1,4.9,9.1,8.7c2.4,4.6,2.9,10.2,1.2,15.1
		c-1.4,4.2-4.2,7.9-7.9,10.2c-2,1.3-4.1,2.2-6.4,2.7c-3,0.7-6.3,0.6-9.3-0.2c-4.1-1.1-7.8-3.6-10.4-7c-2.1-2.8-3.5-6.1-3.8-9.6
		c-0.2-2.2-0.1-4.4,0.4-6.5c0.6-2.8,1.9-5.4,3.7-7.6c2.1-2.7,4.9-4.8,8-6C248.8,97.4,250.8,96.9,252.7,96.8L252.7,96.8z"/>
	<path class="st0" d="M253,98c0.7,0,1.4,0,2.1,0c0,0.2,0,0.4,0,0.6c-0.5,0-1,0-1.4,0c0,0.2,0,0.5,0,0.7c0.5,0,0.9,0,1.4,0
		c0,0.2,0,0.4,0,0.6c-0.5,0-0.9,0-1.4,0c0,0.3,0,0.5,0,0.8c0.5,0,0.9,0,1.4,0c0,0.2,0,0.4,0,0.6c-0.7,0-1.4,0-2.1,0
		C253,100.2,253,99.1,253,98L253,98z"/>
	<path class="st0" d="M255.6,101.3c0.2-1.1,0.4-2.1,0.6-3.2c0.2,0,0.5,0.1,0.7,0.1c0.3,0.8,0.6,1.6,0.9,2.3c0.1-0.7,0.2-1.4,0.4-2.1
		c0.2,0,0.4,0.1,0.6,0.1c-0.2,1.1-0.4,2.2-0.6,3.2c-0.2,0-0.4-0.1-0.7-0.1c-0.3-0.8-0.6-1.6-1-2.4c-0.1,0.7-0.3,1.4-0.4,2.2
		C256,101.3,255.8,101.3,255.6,101.3L255.6,101.3z"/>
	<path class="st0" d="M249.7,98.6c0.4-0.1,0.8-0.2,1.3-0.2c0.3-0.1,0.7,0,0.9,0.3c0.3,0.3,0.2,0.8-0.1,1.1c0.6,0.1,0.8,0.8,0.5,1.3
		c-0.2,0.3-0.5,0.4-0.8,0.5c-0.4,0.1-0.8,0.2-1.2,0.2C250.1,100.7,249.9,99.6,249.7,98.6L249.7,98.6z"/>
	<path class="st0" d="M259.7,98.8c0.7,0.3,1.5,0.6,2.2,0.9c-0.1,0.2-0.1,0.4-0.2,0.6c-0.3-0.1-0.5-0.2-0.8-0.3
		c-0.3,0.8-0.6,1.7-1,2.5c-0.2-0.1-0.4-0.2-0.6-0.2c0.3-0.8,0.6-1.7,1-2.5c-0.3-0.1-0.5-0.2-0.8-0.3C259.5,99.1,259.6,99,259.7,98.8
		L259.7,98.8z"/>
	<path class="st2" d="M250.5,99c0.2,0,0.5-0.1,0.7-0.1c0.3,0,0.4,0.4,0.2,0.6s-0.5,0.2-0.7,0.2C250.6,99.5,250.5,99.2,250.5,99
		L250.5,99z"/>
	<path class="st0" d="M245.3,100.8c0.2-0.8,1.1-1.3,1.8-1.1c0.3,0.1,0.6,0.3,0.8,0.6c-0.2,0.1-0.4,0.2-0.6,0.3
		c-0.1-0.1-0.2-0.2-0.3-0.3c-0.4-0.2-0.8,0-1,0.4c-0.1,0.3-0.1,0.7,0.1,1c0.1,0.3,0.3,0.5,0.6,0.6c0.4,0.1,0.8-0.1,1-0.4
		c0.1-0.2,0.1-0.3,0.1-0.5c0.2-0.1,0.4-0.2,0.6-0.3c0.1,0.4,0,0.7-0.1,1c-0.3,0.6-1,0.9-1.6,0.8c-0.4-0.1-0.8-0.4-1-0.7
		C245.3,101.9,245.2,101.4,245.3,100.8L245.3,100.8z"/>
	<path class="st0" d="M262.7,100c0.2,0.1,0.4,0.2,0.6,0.3c-0.4,0.8-0.9,1.5-1.3,2.3c0.4,0.2,0.7,0.4,1.1,0.6
		c-0.1,0.2-0.2,0.4-0.3,0.5c-0.6-0.3-1.1-0.6-1.7-1C261.6,101.9,262.1,101,262.7,100L262.7,100z"/>
	<path class="st2" d="M250.7,100.3c0.2,0,0.5-0.1,0.7-0.1c0.3,0.1,0.4,0.5,0.2,0.7s-0.5,0.2-0.8,0.2
		C250.8,100.8,250.8,100.5,250.7,100.3L250.7,100.3z"/>
	<path class="st0" d="M242.5,102.3c0.5-0.4,1-0.8,1.5-1.2c0.1,0.2,0.3,0.3,0.4,0.5c-0.3,0.3-0.7,0.5-1,0.8c0.1,0.2,0.3,0.4,0.4,0.6
		c0.3-0.3,0.6-0.5,1-0.7c0.1,0.2,0.3,0.3,0.4,0.5c-0.3,0.3-0.6,0.5-1,0.7c0.3,0.4,0.6,0.7,0.8,1.1c-0.2,0.1-0.4,0.3-0.5,0.4
		C243.9,104,243.2,103.2,242.5,102.3L242.5,102.3z"/>
	<path class="st0" d="M263,104c0.7-0.8,1.4-1.7,2.1-2.5c0.5,0.4,1.1,0.9,1.6,1.3c-0.1,0.2-0.3,0.3-0.4,0.5c-0.4-0.3-0.7-0.6-1.1-0.9
		c-0.2,0.2-0.3,0.4-0.5,0.6c0.4,0.3,0.7,0.6,1.1,0.9c-0.1,0.2-0.3,0.3-0.4,0.5c-0.4-0.3-0.7-0.6-1.1-0.9c-0.2,0.2-0.3,0.4-0.5,0.6
		c0.4,0.3,0.7,0.6,1.1,0.9c-0.1,0.2-0.3,0.3-0.4,0.5C264.1,104.9,263.6,104.5,263,104L263,104z"/>
	<path class="st0" d="M253.2,102.3c2.2-0.2,4.3,0.2,6.3,1c2.5,1,4.6,2.8,6.2,5c1.2,1.8,2,3.8,2.3,6c0.4,2.7,0,5.5-1.3,8
		c-1,2.1-2.6,3.9-4.5,5.3c-1.8,1.3-4,2.2-6.3,2.5c-2.7,0.3-5.4-0.1-7.8-1.3c-3.5-1.7-6.2-4.8-7.3-8.6c-0.7-2.4-0.8-5.1-0.1-7.6
		c0.6-2.2,1.7-4.2,3.2-5.8C246.4,104.2,249.8,102.6,253.2,102.3L253.2,102.3z"/>
	<path class="st2" d="M252.9,102.8c2.1-0.2,4.3,0.1,6.3,0.9c2.5,1,4.7,2.8,6.3,5c1.4,2,2.2,4.5,2.3,7c0.1,2.4-0.4,4.8-1.6,7
		c-1.1,2-2.7,3.7-4.6,5c-2,1.3-4.3,2-6.7,2.1c-2.5,0.1-4.9-0.5-7.1-1.7c-2.1-1.2-3.9-2.9-5.1-5c-1.8-3.1-2.3-6.9-1.4-10.4
		c0.6-2.4,2-4.6,3.8-6.3C247.2,104.4,250,103.1,252.9,102.8L252.9,102.8z"/>
	<path class="st0" d="M253.1,103.2c2.2-0.2,4.5,0.2,6.6,1.1c2.3,1,4.3,2.8,5.6,4.9s2,4.6,2,7.1c0,2.7-0.9,5.4-2.6,7.6
		c-1.3,1.7-2.9,3.1-4.8,4c-2.4,1.2-5.1,1.5-7.8,1.1c-2.3-0.4-4.5-1.4-6.2-2.9c-2.3-1.9-3.9-4.6-4.4-7.5c-0.4-2.1-0.3-4.3,0.4-6.3
		c0.6-2,1.8-3.9,3.3-5.4C247.3,104.8,250.1,103.5,253.1,103.2L253.1,103.2z"/>
	<path class="st0" d="M267.2,103.3c0.2,0.2,0.4,0.4,0.5,0.6c-0.2,0.4-0.4,0.8-0.6,1.2c0.4-0.1,0.9-0.3,1.3-0.4
		c0.2,0.2,0.3,0.4,0.5,0.6c-0.7,0.2-1.3,0.4-2,0.5c-0.2,0-0.3,0.2-0.4,0.3c-0.2,0.2-0.4,0.4-0.7,0.6c-0.1-0.2-0.3-0.3-0.4-0.5
		c0.3-0.3,0.6-0.5,0.9-0.8c0.1-0.1,0.1-0.2,0.2-0.3C266.7,104.5,266.9,103.9,267.2,103.3L267.2,103.3z"/>
	<path class="st2" d="M252.8,103.7c2.3-0.3,4.7,0.1,6.9,1.1c2.4,1.1,4.4,3,5.6,5.3c1.2,2.1,1.7,4.6,1.5,7.1s-1.1,4.8-2.7,6.8
		c-1.4,1.7-3.2,3.1-5.2,3.9c-2.3,0.9-4.9,1.1-7.3,0.6c-2.2-0.5-4.3-1.6-6-3.1c-2.4-2.2-3.8-5.4-4-8.6c-0.1-2.1,0.4-4.3,1.3-6.2
		c0.9-1.8,2.2-3.3,3.8-4.5C248.6,104.8,250.7,103.9,252.8,103.7L252.8,103.7z"/>
	<path class="st0" d="M240.6,104.2c0.2-0.2,0.3-0.4,0.5-0.5c1.1,0.4,2.1,0.9,3.2,1.3c-0.2,0.2-0.3,0.4-0.5,0.6
		c-0.2-0.1-0.4-0.2-0.7-0.3c-0.3,0.3-0.5,0.6-0.8,0.9c0.1,0.2,0.2,0.4,0.4,0.6c-0.2,0.2-0.3,0.4-0.5,0.5
		C241.7,106.3,241.2,105.2,240.6,104.2L240.6,104.2z"/>
	<path class="st1" d="M253.7,103.8c0.4,0,0.8,0,1.2,0c0,0.2,0,0.4,0,0.6c0,0.1-0.1,0.1-0.2,0.1c0,3,0,6,0,8.9c-0.2,0-0.5,0-0.7,0
		c0-3,0-5.9,0-8.9c0,0-0.1,0-0.2,0C253.7,104.2,253.8,104,253.7,103.8L253.7,103.8z"/>
	<path class="st1" d="M250.6,104.3c0.4-0.1,0.7-0.2,1.1-0.3c0,0.2,0.3,0.6-0.1,0.7c0.7,2.9,1.5,5.8,2.3,8.7
		c-0.5,0.1-0.9,0.2-1.3,0.5c-0.1-0.1-0.1-0.2-0.2-0.3c-1.5-2.5-2.9-5-4.4-7.5c0,0-0.1,0.1-0.2,0.1c-0.2-0.1-0.2-0.3-0.4-0.5
		c0.3-0.2,0.7-0.4,1-0.6c0.1,0.2,0.2,0.3,0.3,0.5l-0.1,0.1c1.5,2.6,3,5.2,4.5,7.7c-0.7-2.9-1.5-5.8-2.2-8.7c0,0-0.1,0-0.2,0
		C250.7,104.7,250.6,104.5,250.6,104.3L250.6,104.3z"/>
	<path class="st1" d="M256.9,104c0.4,0.1,0.7,0.2,1.1,0.3c0,0.2-0.1,0.3-0.1,0.5c-0.1,0.1-0.2,0-0.3,0.1c-0.7,2.9-1.5,5.8-2.2,8.7
		c-0.2-0.1-0.4-0.1-0.7-0.2c0.7-2.9,1.5-5.8,2.2-8.7c-0.1,0-0.1-0.1-0.2-0.1C256.8,104.4,256.9,104.2,256.9,104L256.9,104z"/>
	<path class="st2" d="M241.4,104.5c0.4,0.2,0.8,0.4,1.2,0.5c-0.2,0.2-0.4,0.4-0.5,0.6C241.9,105.2,241.7,104.9,241.4,104.5
		L241.4,104.5z"/>
	<path class="st1" d="M259.8,105.6c0.1-0.2,0.2-0.3,0.3-0.4c0.3,0.2,0.7,0.4,1,0.6c-0.1,0.1-0.2,0.3-0.3,0.4s-0.2,0-0.3,0
		c-1.5,2.6-3,5.1-4.5,7.7c-0.2-0.1-0.4-0.3-0.6-0.4c1.5-2.6,3-5.1,4.5-7.7C259.9,105.8,259.8,105.7,259.8,105.6L259.8,105.6z"/>
	<path class="st1" d="M245.1,107.8c0.3-0.3,0.5-0.6,0.8-0.8c0.1,0.2,0.5,0.4,0.3,0.6c2,2,4,4,6.1,6c0.1,0.1,0.2,0.2,0.3,0.4
		c-0.4,0.2-0.7,0.6-0.9,1c-2.6-1.5-5.2-3-7.7-4.5l-0.1,0.1c-0.2,0-0.4-0.2-0.6-0.2c0.2-0.3,0.4-0.7,0.6-1c0.1,0.1,0.3,0.2,0.4,0.2
		c0.1,0.1,0,0.2,0,0.3c2.6,1.5,5.1,3,7.7,4.5c-2.1-2.1-4.2-4.2-6.3-6.2c-0.1,0-0.2,0.1-0.3,0.1C245.3,108.1,245.2,107.9,245.1,107.8
		L245.1,107.8z"/>
	<path class="st1" d="M262.7,107c0.3,0.3,0.6,0.5,0.8,0.8c-0.2,0.1-0.4,0.6-0.6,0.3c-2.1,2.1-4.2,4.2-6.4,6.3
		c-0.1-0.2-0.3-0.3-0.5-0.5c2.1-2.1,4.2-4.2,6.4-6.3c0-0.1-0.1-0.2,0-0.3C262.5,107.3,262.6,107.2,262.7,107L262.7,107z"/>
	<path class="st1" d="M264.2,109.7c0.1-0.1,0.3-0.2,0.5-0.3c0.2,0.3,0.4,0.7,0.6,1c-0.2,0.1-0.4,0.3-0.6,0.3l-0.1-0.1
		c-2.6,1.5-5.2,3-7.8,4.5c-0.1-0.2-0.2-0.4-0.4-0.6c2.6-1.5,5.2-3,7.7-4.5C264.3,109.9,264.3,109.8,264.2,109.7L264.2,109.7z"/>
	<path class="st1" d="M242.2,113.5c0.1-0.4,0.2-0.8,0.3-1.1c0.2,0,0.3,0.1,0.5,0.1c0.1,0,0.1,0.2,0.1,0.2c2.9,0.8,5.8,1.5,8.7,2.3
		c-0.1,0.2-0.2,0.4-0.2,0.7c-2.9-0.7-5.8-1.5-8.6-2.3c0,0.1-0.1,0.2-0.2,0.2C242.5,113.6,242.3,113.5,242.2,113.5L242.2,113.5z"/>
	<path class="st1" d="M265.6,112.6c0.2-0.1,0.4-0.1,0.5-0.1c0.1,0.4,0.2,0.7,0.3,1.1c-0.2,0-0.4,0.1-0.6,0.1c0,0,0-0.1-0.1-0.2
		c-2.9,0.8-5.8,1.5-8.7,2.3c0-0.2-0.1-0.5-0.2-0.7c2.9-0.8,5.8-1.5,8.7-2.3C265.6,112.7,265.5,112.6,265.6,112.6L265.6,112.6z"/>
	<path class="st1" d="M253.8,113.5c0.6-0.1,1.1,0,1.6,0.2c0.8,0.4,1.4,1.1,1.5,2c0.1,0.8-0.1,1.6-0.6,2.2c-0.6,0.7-1.5,1.1-2.5,0.9
		c-0.6-0.1-1.1-0.4-1.5-0.8c-0.7-0.7-0.9-1.7-0.7-2.6C251.9,114.5,252.8,113.7,253.8,113.5L253.8,113.5z"/>
	<path class="st2" d="M252.4,114.9c0.3-0.4,0.7-0.7,1.2-0.9c0.2-0.1,0.5-0.1,0.7,0.1c0.2-0.2,0.4-0.2,0.7-0.1
		c0.5,0.2,0.9,0.5,1.2,0.9c0.1,0.2,0.2,0.5,0.1,0.7c0.2,0.1,0.3,0.3,0.3,0.6c0,0.5-0.2,1-0.5,1.5c-0.1,0.2-0.4,0.3-0.6,0.2
		c0,0.2-0.2,0.4-0.4,0.5c-0.5,0.2-1.1,0.2-1.6,0c-0.2-0.1-0.3-0.3-0.4-0.5c-0.2,0.1-0.5-0.1-0.6-0.3c-0.3-0.5-0.5-1-0.4-1.6
		c0-0.2,0.2-0.3,0.3-0.4C252.3,115.3,252.3,115.1,252.4,114.9L252.4,114.9z"/>
	<path class="st1" d="M253.1,114.5c0.3-0.2,0.6-0.4,1-0.3c0.2,0.2,0.1,0.5,0.2,0.7c-0.2,0-0.5,0.2-0.6,0.4c-0.2,0-0.4,0.2-0.6,0.4
		c-0.2-0.1-0.6-0.1-0.7-0.4C252.5,114.9,252.8,114.7,253.1,114.5L253.1,114.5z"/>
	<path class="st1" d="M254.4,114.3c0.1-0.2,0.4-0.2,0.5-0.1c0.5,0.2,0.9,0.5,1.1,0.9c0.1,0.1,0,0.4-0.1,0.4
		c-0.2,0.1-0.3,0.1-0.5,0.2c-0.1-0.2-0.3-0.4-0.5-0.4c-0.1-0.2-0.3-0.3-0.6-0.4C254.4,114.7,254.3,114.5,254.4,114.3L254.4,114.3z"
		/>
	<path class="st2" d="M253.3,114.7c0.2-0.1,0.3-0.3,0.5-0.3c0.1,0,0.2,0.1,0.3,0.1c-0.1,0-0.2,0-0.3,0c-0.2,0.1-0.3,0.3-0.4,0.4
		c-0.1,0.1-0.3,0.1-0.4,0.3c-0.1,0.1-0.1,0.2-0.1,0.3c0-0.1-0.1-0.2,0-0.3C252.9,114.9,253.1,114.8,253.3,114.7L253.3,114.7z"/>
	<path class="st2" d="M254.5,114.5c0.1-0.1,0.2-0.2,0.3-0.1c0.3,0.1,0.4,0.3,0.7,0.5c0.2,0.1,0.5,0.3,0.4,0.6
		c-0.1-0.1-0.1-0.3-0.2-0.4c-0.2-0.1-0.4-0.2-0.6-0.4C255,114.5,254.8,114.4,254.5,114.5L254.5,114.5z"/>
	<path class="st1" d="M271.4,114.8c0.4-0.4,1.1-0.4,1.5,0c0.1,0.1,0.2,0.3,0.2,0.5c-0.2,0-0.4,0-0.6,0c-0.1-0.1-0.1-0.2-0.2-0.3
		c-0.1-0.1-0.4-0.1-0.5,0.1c-0.2,0.2-0.2,0.5-0.3,0.7c0.3-0.4,1-0.4,1.4,0c0.4,0.5,0.2,1.3-0.3,1.6c-0.4,0.2-1,0.1-1.3-0.2
		c-0.3-0.3-0.3-0.7-0.3-1.1C271,115.6,271.1,115.2,271.4,114.8L271.4,114.8z"/>
	<path class="st1" d="M236,114.7c0.4-0.2,1-0.2,1.3,0.1c0.4,0.3,0.4,1,0,1.3c-0.3,0.3-0.8,0.5-1.1,0.9c0.5,0,0.9,0,1.4,0
		c0,0.2,0,0.3,0,0.5c-0.7,0-1.4,0-2.1,0c0-0.5,0.3-0.9,0.7-1.1c0.3-0.2,0.7-0.4,0.8-0.8c0.1-0.3-0.2-0.6-0.6-0.5
		c-0.3,0.1-0.3,0.4-0.3,0.6c-0.2,0-0.4,0-0.6,0C235.5,115.3,235.7,114.9,236,114.7L236,114.7z"/>
	<path class="st1" d="M238.5,114.6c0.4-0.1,0.9,0,1.1,0.3c0.2,0.3,0.3,0.7,0.3,1.1s0,0.8-0.2,1.1c-0.3,0.6-1.4,0.6-1.7,0
		c-0.2-0.4-0.2-1-0.2-1.5C237.8,115.2,238,114.7,238.5,114.6L238.5,114.6z"/>
	<path class="st1" d="M269.8,114.5c0.2,0,0.3,0,0.5,0c0,1,0,1.9,0,2.9c-0.2,0-0.4,0-0.6,0c0-0.6,0-1.2,0-1.9c-0.2,0-0.5,0-0.7,0
		c0-0.2,0-0.3,0-0.5C269.3,115.1,269.7,114.9,269.8,114.5L269.8,114.5z"/>
	<path class="st2" d="M238.7,115.1c0.2-0.1,0.4,0,0.5,0.1c0.2,0.3,0.1,0.6,0.1,0.9s0,0.6-0.2,0.8c-0.2,0.2-0.5,0.1-0.6-0.1
		c-0.2-0.3-0.1-0.7-0.1-1S238.4,115.2,238.7,115.1L238.7,115.1z"/>
	<path class="st1" d="M253.8,115.3c0.1-0.3,0.5-0.4,0.8-0.2c0.1,0.1,0.3,0.1,0.3,0.3c0,0.1-0.1,0.1-0.2,0.2c-0.2-0.1-0.5-0.1-0.7,0
		C253.9,115.5,253.8,115.4,253.8,115.3L253.8,115.3z"/>
	<path class="st1" d="M253.3,116.4c-0.3-0.3-0.1-0.8,0.3-1c0.1,0.1,0.1,0.2,0.2,0.2c-0.2,0.2-0.2,0.4-0.2,0.7
		C253.5,116.3,253.4,116.4,253.3,116.4L253.3,116.4z"/>
	<path class="st1" d="M254.9,115.4c0.4,0.1,0.6,0.7,0.3,1c-0.1,0-0.2-0.1-0.3-0.1c0-0.2,0-0.5-0.2-0.7
		C254.8,115.6,254.9,115.5,254.9,115.4L254.9,115.4z"/>
	<path class="st1" d="M241.9,115.6c0.2,0,0.4,0,0.6,0c0,0,0,0.1,0,0.2c3,0,6,0,8.9,0c0,0.2,0,0.5,0,0.7c-0.3,0-0.6,0-0.9,0
		c-0.7,1.2-1.4,2.4-2.1,3.6c1,1.6,2,3.3,3,4.9c2,0,3.9,0,5.9,0c1-1.7,1.9-3.3,2.9-5c-0.7-1.1-1.3-2.2-2-3.2c0-0.1-0.1-0.2-0.2-0.1
		c-0.3,0-0.6,0-0.9,0c0-0.2,0-0.5,0-0.7c3,0,6,0,9,0c0-0.1,0-0.2,0.1-0.2c0.2,0,0.4,0,0.5,0c0,0.4,0,0.8,0,1.2c-0.2,0-0.4,0-0.6,0
		c0-0.1,0-0.1-0.1-0.2c-0.4,0-0.7,0-1,0c-0.1,0.6-0.2,1.2-0.2,1.8c0.5,0.3,1.1,0.6,1.6,0.9c-0.1,0.4-0.2,0.7-0.3,1.1
		c-0.6-0.3-1.2-0.7-1.8-1c-1,0.3-2.1,0.6-3.1,1c-0.4,0.7-0.8,1.4-1.2,2.1c-0.6,1.1-1.2,2.1-1.8,3.2c0.6,0.6,1.2,1.2,1.8,1.8
		c-0.4,0.2-0.7,0.4-1.1,0.5c-0.6-0.5-1.1-1.1-1.6-1.7c-1.2,0-2.3,0-3.5,0c-0.8,0-1.5,0-2.3,0c-0.5,0.6-1.1,1.1-1.6,1.7
		c-0.4-0.1-0.7-0.3-1.1-0.5c0.6-0.6,1.1-1.2,1.7-1.7c-1-1.7-2-3.5-3-5.2c-1-0.3-2.1-0.6-3.1-1c-0.6,0.3-1.2,0.6-1.8,1
		c-0.1-0.4-0.3-0.8-0.4-1.2c0.5-0.3,1.1-0.6,1.6-0.9c-0.1-0.6-0.2-1.2-0.2-1.8c-0.4,0-0.7,0-1.1,0c0,0.1,0,0.2-0.1,0.3
		c-0.2,0-0.4,0-0.6,0C241.9,116.3,241.8,116,241.9,115.6L241.9,115.6z"/>
	<path class="st1" d="M252.2,116.1c0-0.2,0.1-0.4,0.3-0.5c0.2,0,0.4,0.1,0.6,0.2c0,0.2,0,0.5,0.2,0.7c0,0.2,0.1,0.5,0.2,0.6
		c-0.1,0.2-0.2,0.4-0.4,0.5s-0.4-0.1-0.5-0.3C252.3,117,252.2,116.6,252.2,116.1L252.2,116.1z"/>
	<path class="st1" d="M254.1,115.7c0.3-0.2,0.8,0.1,0.8,0.5s-0.5,0.7-0.8,0.4C253.7,116.4,253.7,115.9,254.1,115.7L254.1,115.7z"/>
	<path class="st1" d="M255.5,115.8c0.2-0.1,0.4-0.1,0.5-0.2c0.2,0,0.3,0.2,0.3,0.4c0,0.5-0.1,0.9-0.4,1.3c-0.1,0.2-0.3,0.3-0.5,0.2
		c-0.2-0.1-0.2-0.3-0.4-0.5c0.2-0.2,0.3-0.4,0.2-0.6C255.5,116.3,255.6,116.1,255.5,115.8L255.5,115.8z"/>
	<path class="st2" d="M252.4,116.1c0-0.1,0.1-0.2,0.2-0.2C252.6,116,252.5,116,252.4,116.1c0.1,0.2,0.3,0.4,0.3,0.6s0,0.3,0.1,0.5
		c0,0.1,0.2,0.2,0.3,0.2c-0.1,0-0.3,0-0.4-0.1c-0.1-0.2-0.1-0.5-0.2-0.7C252.5,116.4,252.4,116.3,252.4,116.1L252.4,116.1z"/>
	<path class="st2" d="M256,115.9c0.3,0.1,0.2,0.4,0.1,0.7c-0.1,0.2-0.1,0.6-0.3,0.8c-0.1,0.1-0.2,0.1-0.3,0.1
		c0.1-0.1,0.2-0.1,0.3-0.2c0.1-0.2,0.1-0.3,0.1-0.5c0.1-0.2,0.2-0.4,0.2-0.6C256.1,116,256,116,256,115.9L256,115.9z"/>
	<path class="st2" d="M272,115.9c0.6-0.1,0.7,1,0.1,1C271.6,117,271.5,116.1,272,115.9L272,115.9z"/>
	<path class="st2" d="M244.6,116.5c1.5,0,3,0,4.6,0c-0.5,1-1.1,1.9-1.6,2.9c-0.9-0.4-1.8-0.7-2.8-1.1
		C244.7,117.6,244.7,117.1,244.6,116.5L244.6,116.5z"/>
	<path class="st1" d="M253.4,116.6c0-0.2,0.2-0.1,0.3-0.2c0.1,0.2,0.3,0.4,0.6,0.4c0,0.1,0,0.3-0.1,0.3
		C253.8,117.3,253.4,117,253.4,116.6L253.4,116.6z"/>
	<path class="st1" d="M254.9,116.4c0.1,0,0.2,0.1,0.3,0.1c0.1,0.4-0.4,0.8-0.7,0.6c-0.1,0-0.1-0.2-0.1-0.3
		C254.6,116.8,254.8,116.7,254.9,116.4L254.9,116.4z"/>
	<path class="st2" d="M259.5,116.5c1.5,0,3,0,4.6,0c0,0.6-0.1,1.2-0.2,1.8c-0.9,0.4-1.8,0.7-2.8,1.1
		C260.6,118.5,260,117.5,259.5,116.5L259.5,116.5z"/>
	<path class="st1" d="M253.3,117.7c0.1-0.2,0.2-0.3,0.3-0.5c0.2,0.1,0.5,0.1,0.7,0c0.2,0.1,0.5,0.1,0.7,0c0.1,0.2,0.4,0.4,0.3,0.7
		c-0.1,0.2-0.3,0.2-0.4,0.3c-0.4,0.1-0.9,0.1-1.3-0.1C253.4,118.1,253.2,117.9,253.3,117.7L253.3,117.7z"/>
	<path class="st2" d="M253.6,117.9c-0.1,0-0.1-0.2-0.1-0.3c0.1,0.1,0.1,0.2,0.3,0.2s0.4-0.1,0.6-0.1c0.1,0,0.3,0.1,0.4,0.1
		c0.1,0,0.2-0.1,0.3-0.2c0,0.1-0.1,0.2-0.2,0.3c-0.2,0.1-0.4,0-0.6,0C254.2,117.9,253.9,118.1,253.6,117.9L253.6,117.9z"/>
	<path class="st0" d="M267,125.7c0.2-0.2,0.6-0.2,0.8,0c-0.1,0.2-0.2,0.3-0.4,0.5c-0.3-0.2-0.6,0.1-0.5,0.4c0.1,0.1,0.2,0.1,0.2,0
		c0.3-0.2,0.5-0.5,0.8-0.6s0.6,0.1,0.7,0.4c0.1,0.2,0,0.4-0.1,0.6c-0.1,0.3-0.4,0.5-0.6,0.6s-0.5,0-0.7-0.1c0.1-0.2,0.2-0.3,0.4-0.5
		c0.3,0.2,0.8-0.3,0.4-0.6c-0.3,0.2-0.5,0.5-0.9,0.6c-0.3,0.1-0.7-0.1-0.8-0.5C266.4,126.3,266.7,125.9,267,125.7L267,125.7z"/>
	<path class="st0" d="M241,128.3c0.7-0.7,1.4-1.5,2.1-2.2c0.2,0.2,0.3,0.3,0.5,0.5c-0.2,0.8-0.3,1.5-0.5,2.3c0.5-0.5,0.9-1,1.4-1.4
		c0.2,0.1,0.3,0.3,0.4,0.4c-0.7,0.7-1.4,1.5-2.1,2.2c-0.1-0.1-0.3-0.3-0.5-0.4c0.2-0.8,0.4-1.5,0.5-2.3c-0.5,0.5-0.9,1-1.4,1.5
		C241.2,128.5,241.1,128.4,241,128.3L241,128.3z"/>
	<path class="st0" d="M265.5,127.5c0.1-0.1,0.3-0.3,0.4-0.4c0.5,0.5,1,1,1.4,1.5c-0.1,0.1-0.3,0.3-0.4,0.4c-0.1-0.1-0.1-0.1-0.2-0.2
		c0.1,0.4-0.3,0.8-0.7,0.9c-0.2,0-0.4-0.1-0.6-0.3c-0.3-0.3-0.6-0.7-0.9-1c0.1-0.1,0.3-0.3,0.4-0.4c0.3,0.3,0.6,0.7,1,1
		c0.3,0.2,0.7-0.2,0.5-0.5C266.1,128.1,265.8,127.8,265.5,127.5L265.5,127.5z"/>
	<path class="st0" d="M263.1,128.2c0.2-0.1,0.3-0.2,0.5-0.3c0.6,0.8,1.1,1.7,1.7,2.5c-0.2,0.1-0.3,0.2-0.5,0.3
		c-0.1-0.1-0.1-0.1-0.2-0.2c0,0.6-0.7,0.9-1.2,0.7c-0.6-0.2-0.9-0.8-0.8-1.4c0.1-0.5,0.6-0.8,1.1-0.7
		C263.5,128.9,263.3,128.6,263.1,128.2L263.1,128.2z"/>
	<path class="st0" d="M244.6,128.8c0.2,0.1,0.3,0.2,0.5,0.3c-0.2,0.4-0.5,0.7-0.8,1.1c-0.1,0.2,0.1,0.5,0.3,0.5s0.3-0.1,0.4-0.2
		c0.2-0.3,0.4-0.7,0.7-1c0.2,0.1,0.3,0.2,0.5,0.3c-0.4,0.6-0.8,1.2-1.2,1.7c-0.2-0.1-0.3-0.2-0.5-0.3c0-0.1,0.1-0.1,0.1-0.2
		c-0.3,0.1-0.7,0-0.9-0.3c-0.2-0.2-0.1-0.5,0-0.8C244.1,129.6,244.4,129.2,244.6,128.8L244.6,128.8z"/>
	<path class="st0" d="M247.1,129.3c0.2,0.1,0.4,0.2,0.5,0.3c-0.5,0.9-0.9,1.8-1.4,2.7c-0.2-0.1-0.4-0.2-0.5-0.3
		C246.2,131.1,246.6,130.2,247.1,129.3L247.1,129.3z"/>
	<path class="st2" d="M263.7,129.6c0.3-0.1,0.6,0.2,0.7,0.5c0.1,0.3-0.3,0.7-0.6,0.6c-0.3-0.1-0.5-0.4-0.5-0.7
		C263.3,129.8,263.5,129.7,263.7,129.6L263.7,129.6z"/>
	<path class="st0" d="M248,129.7c0.2,0.1,0.4,0.2,0.5,0.2c-0.4,0.9-0.8,1.9-1.2,2.8c-0.2-0.1-0.4-0.2-0.6-0.2
		C247.2,131.6,247.6,130.7,248,129.7L248,129.7z"/>
	<path class="st0" d="M249,130.2c0.2-0.1,0.5,0.1,0.5,0.3c0,0.3-0.3,0.4-0.6,0.3C248.7,130.7,248.8,130.3,249,130.2L249,130.2z"/>
	<path class="st0" d="M260.9,130.9c0.1-0.5,0.7-0.8,1.1-0.5c0.2,0.1,0.3,0.3,0.4,0.5c0.2,0.4,0.4,0.8,0.5,1.1
		c-0.2,0.1-0.4,0.2-0.5,0.3c-0.2-0.4-0.4-0.8-0.6-1.2c-0.1-0.2-0.5-0.2-0.6,0c-0.1,0.1,0,0.3,0,0.4c0.2,0.4,0.3,0.7,0.5,1.1
		c-0.2,0.1-0.4,0.2-0.5,0.3c-0.3-0.6-0.6-1.3-0.9-1.9c0.2-0.1,0.3-0.2,0.5-0.2C260.8,130.8,260.8,130.8,260.9,130.9L260.9,130.9z"/>
	<path class="st0" d="M251.3,130.9c0.4-0.1,0.9,0,1.2,0.2c0.2,0.2,0.3,0.5,0.3,0.8c-0.2,0-0.4-0.1-0.6-0.1c0-0.4-0.5-0.5-0.8-0.3
		c-0.2,0.1-0.2,0.4,0,0.5c0.4,0.3,0.9,0.4,1.1,0.8c0.3,0.5,0,1.1-0.5,1.3c-0.4,0.1-1,0-1.3-0.2s-0.3-0.5-0.3-0.9
		c0.2,0,0.4,0,0.6,0.1c-0.1,0.5,0.6,0.7,0.9,0.4c0.1-0.1,0.1-0.3,0-0.4c-0.3-0.3-0.9-0.4-1.2-0.8
		C250.5,131.8,250.8,131.1,251.3,130.9L251.3,130.9z"/>
	<path class="st0" d="M248.7,131c0.2,0.1,0.4,0.1,0.6,0.2c-0.2,0.7-0.5,1.3-0.7,2c-0.2-0.1-0.4-0.1-0.6-0.2
		C248.2,132.3,248.4,131.7,248.7,131L248.7,131z"/>
	<path class="st0" d="M259.2,131.3c0.2-0.1,0.4-0.1,0.6-0.2c0.2,0.7,0.4,1.3,0.6,2c-0.2,0.1-0.4,0.1-0.5,0.2c0-0.1,0-0.2-0.1-0.2
		c-0.1,0.4-0.6,0.6-1,0.5c-0.2-0.1-0.3-0.3-0.4-0.5c-0.1-0.4-0.3-0.9-0.4-1.3c0.2-0.1,0.4-0.1,0.6-0.2c0.1,0.4,0.2,0.8,0.4,1.3
		c0,0.2,0.3,0.3,0.4,0.2c0.2-0.1,0.3-0.3,0.2-0.5C259.4,132.1,259.3,131.7,259.2,131.3L259.2,131.3z"/>
	<path class="st0" d="M255.9,132.4c0.2-0.5,0.8-0.7,1.3-0.5c0.3,0.1,0.5,0.4,0.5,0.7c-0.2,0-0.4,0.1-0.6,0.1
		c-0.1-0.1-0.1-0.2-0.2-0.3c-0.2-0.1-0.5,0-0.5,0.2s0,0.5,0.1,0.7s0.3,0.3,0.5,0.2c0.2-0.1,0.2-0.2,0.2-0.4c0.2,0,0.4,0,0.6-0.1
		c0,0.3-0.2,0.7-0.5,0.8c-0.4,0.2-0.9,0.2-1.2-0.1C255.8,133.4,255.7,132.9,255.9,132.4L255.9,132.4z"/>
	<path class="st0" d="M253.4,132.5c0.4-0.6,1.4-0.6,1.8,0c0.1,0.2,0.2,0.5,0.2,0.8c-0.5,0-1,0-1.5,0c0,0.2,0.2,0.5,0.4,0.5
		s0.4-0.1,0.5-0.2c0.2,0,0.4,0,0.6,0c-0.2,0.7-1.2,0.8-1.7,0.4C253.2,133.7,253.1,133,253.4,132.5L253.4,132.5z"/>
	<path class="st2" d="M253.8,132.9c0.1-0.2,0.2-0.4,0.5-0.4c0.2,0,0.4,0.2,0.4,0.4C254.5,132.9,254.2,132.9,253.8,132.9L253.8,132.9
		z"/>
</g>
</svg>
