<?xml version="1.0" encoding="utf-8"?>
<!-- Generator: Adobe Illustrator 24.0.1, SVG Export Plug-In . SVG Version: 6.00 Build 0)  -->
<svg version="1.1" id="Layer_1" xmlns="http://www.w3.org/2000/svg" xmlns:xlink="http://www.w3.org/1999/xlink" x="0px" y="0px"
	 viewBox="0 0 750 400" style="enable-background:new 0 0 750 400;" xml:space="preserve">
<g>
	<g>
		<g>
			<g>
				<g>
					<g>
						<path d="M122.5,111.6h0.9v5.2h-0.9V111.6z"/>
						<path d="M126.1,111.6h0.8l2.3,3.5v-3.5h0.8v5.2h-0.7l-2.4-3.6v3.6h-0.8L126.1,111.6L126.1,111.6z"/>
						<path d="M132.6,111.6h1.6c1.5,0,2.5,1,2.5,2.6v0.1c0,1.5-1,2.6-2.5,2.6h-1.6V111.6z M133.5,112.4v3.6h0.7
							c0.9,0,1.6-0.7,1.6-1.8l0,0c0-1.1-0.6-1.8-1.6-1.8C134.2,112.4,133.5,112.4,133.5,112.4z"/>
						<path d="M138.9,114.2L138.9,114.2c0-1.6,1-2.7,2.3-2.7c1.4,0,2.3,1.1,2.3,2.6v0.1c0,1.5-1,2.7-2.3,2.7
							C139.8,116.9,138.9,115.8,138.9,114.2z M142.6,114.2L142.6,114.2c0-1.2-0.6-1.9-1.4-1.9c-0.8,0-1.4,0.7-1.4,1.9v0.1
							c0,1.1,0.6,1.9,1.4,1.9C142,116.1,142.6,115.3,142.6,114.2z"/>
						<path d="M145.3,111.6h0.9l1,3.8l1.1-3.8h0.7l1.1,3.8l1-3.8h0.9l-1.5,5.2h-0.8l-1.1-3.7l-1.1,3.7h-0.8L145.3,111.6z"/>
						<path d="M153.8,116.1l0.5-0.6c0.4,0.3,0.8,0.6,1.4,0.6c0.5,0,0.8-0.3,0.8-0.7l0,0c0-0.3-0.2-0.5-1-0.8c-1-0.4-1.5-0.7-1.5-1.6
							l0,0c0-0.9,0.7-1.5,1.6-1.5c0.6,0,1.2,0.2,1.6,0.6l-0.5,0.7c-0.4-0.3-0.7-0.5-1.2-0.5s-0.8,0.3-0.8,0.6l0,0
							c0,0.4,0.2,0.6,1.1,0.9c1,0.4,1.4,0.8,1.4,1.5l0,0c0,0.9-0.7,1.5-1.7,1.5C155,116.8,154.4,116.6,153.8,116.1z"/>
					</g>
					<g>
						<path d="M127.1,121.9L127.1,121.9c0-1.6,1-2.7,2.3-2.7c1.4,0,2.3,1.1,2.3,2.6v0.1c0,1.5-1,2.7-2.3,2.7
							C128,124.6,127.1,123.5,127.1,121.9z M130.8,121.9L130.8,121.9c0-1.2-0.6-1.9-1.4-1.9c-0.8,0-1.4,0.7-1.4,1.9v0.1
							c0,1.1,0.6,1.9,1.4,1.9C130.2,123.8,130.8,123,130.8,121.9z"/>
						<path d="M133.9,121.9L133.9,121.9c0-1.6,1-2.7,2.3-2.7c1.4,0,2.3,1.1,2.3,2.6v0.1c0,1.5-1,2.7-2.3,2.7
							C134.8,124.6,133.9,123.5,133.9,121.9z M137.6,121.9L137.6,121.9c0-1.2-0.6-1.9-1.4-1.9c-0.8,0-1.4,0.7-1.4,1.9v0.1
							c0,1.1,0.6,1.9,1.4,1.9C137,123.8,137.6,123,137.6,121.9z"/>
						<path d="M140.9,119.3h1.9c0.6,0,1.1,0.2,1.4,0.5c0.3,0.3,0.4,0.7,0.4,1.2l0,0c0,0.8-0.4,1.3-1.1,1.5l1.2,2h-1l-1.1-1.8h-0.9
							v1.8h-0.9v-5.2H140.9z M142.7,121.9c0.7,0,1-0.4,1-0.9l0,0c0-0.6-0.4-0.9-1-0.9h-0.9v1.8H142.7z"/>
						<path d="M146.7,123.8l0.5-0.6c0.4,0.3,0.8,0.6,1.4,0.6c0.5,0,0.8-0.3,0.8-0.7l0,0c0-0.3-0.2-0.5-1-0.8c-1-0.4-1.5-0.7-1.5-1.6
							l0,0c0-0.9,0.7-1.5,1.6-1.5c0.6,0,1.2,0.2,1.6,0.6l-0.5,0.7c-0.4-0.3-0.7-0.5-1.2-0.5s-0.8,0.3-0.8,0.6l0,0
							c0,0.4,0.2,0.6,1.1,0.9c1,0.4,1.4,0.8,1.4,1.5l0,0c0,0.9-0.7,1.5-1.7,1.5C147.9,124.5,147.2,124.3,146.7,123.8z"/>
					</g>
					<g>
						<path d="M112.3,107.2V104h0.9v3.2c0,0.8,0.4,1.3,1.1,1.3s1.1-0.4,1.1-1.2V104h0.9v3.2c0,1.4-0.8,2.1-1.9,2.1
							C113.1,109.3,112.3,108.6,112.3,107.2z"/>
						<path d="M118.4,108.5l0.5-0.6c0.4,0.3,0.8,0.6,1.4,0.6c0.5,0,0.8-0.3,0.8-0.7l0,0c0-0.3-0.2-0.5-1-0.8c-1-0.4-1.5-0.7-1.5-1.6
							l0,0c0-0.9,0.7-1.5,1.6-1.5c0.6,0,1.2,0.2,1.6,0.6l-0.5,0.7c-0.4-0.3-0.7-0.5-1.2-0.5s-0.8,0.3-0.8,0.6l0,0
							c0,0.4,0.2,0.6,1.1,0.9c1,0.4,1.4,0.8,1.4,1.5l0,0c0,0.9-0.7,1.5-1.7,1.5C119.6,109.2,118.9,109,118.4,108.5z"/>
						<path d="M125.2,104.8h-1.4V104h3.6v0.8H126v4.4h-0.9L125.2,104.8L125.2,104.8z"/>
						<path d="M129.3,106.6L129.3,106.6c0-1.6,1-2.7,2.3-2.7c1.4,0,2.3,1.1,2.3,2.6v0.1c0,1.5-1,2.7-2.3,2.7
							C130.3,109.3,129.3,108.2,129.3,106.6z M133,106.6L133,106.6c0-1.2-0.6-1.9-1.4-1.9c-0.8,0-1.4,0.7-1.4,1.9v0.1
							c0,1.1,0.6,1.9,1.4,1.9C132.4,108.5,133,107.7,133,106.6z"/>
						<path d="M136.3,104h0.9l1.3,2.4l1.3-2.4h0.9v5.2H140v-3.7l-1.4,2.4l0,0l-1.4-2.4v3.7h-0.8V104H136.3z"/>
					</g>
					<g>
						<g>
							<path d="M108.5,110.7h2.4l1.3,5.2l1.4-5.2h2l1.4,5.2l1.2-5.2h2.4l-2.5,9H116l-1.4-4.9l-1.4,4.9H111L108.5,110.7z"/>
							<path d="M118.2,119.9h-2.3l-1.3-4.6l-1.3,4.6H111l-2.6-9.3h2.7l1.2,4.8l1.3-4.8h2.2l1.3,4.8l1.1-4.8h2.7L118.2,119.9z
								 M116.1,119.6h1.9l2.4-8.7h-2.1l-1.2,5.1h-0.3l-1.4-5.1h-1.8l-1.4,5.1h-0.3l-1.2-5.1h-2.1l2.4,8.7h1.9l1.5-5.3L116.1,119.6z"
								/>
						</g>
					</g>
					<g>
						<g>
							<path d="M103,106.7v-0.2c0-2.7,1.8-4.6,4.2-4.6c1.4,0,2.4,0.6,3.1,1.4l-1.5,1.6c-0.4-0.5-0.9-0.9-1.6-0.9
								c-1,0-1.8,0.9-1.8,2.5v0.1c0,1.6,0.8,2.5,1.8,2.5c0.7,0,1.2-0.4,1.6-0.9l1.5,1.5c-0.7,0.9-1.7,1.6-3.2,1.6
								C104.8,111.3,103,109.5,103,106.7z"/>
							<path d="M107.1,111.4c-2.5,0-4.2-1.9-4.2-4.7v-0.2c0-2.8,1.8-4.7,4.3-4.7c1.3,0,2.4,0.5,3.2,1.5l0.1,0.1l-1.7,1.8l-0.1-0.1
								c-0.5-0.6-0.9-0.8-1.5-0.8c-1,0-1.7,0.9-1.7,2.3v0.1c0,1.4,0.7,2.3,1.7,2.3c0.7,0,1.1-0.3,1.5-0.8l0.1-0.1l1.7,1.7l-0.1,0.1
								C109.5,110.9,108.5,111.4,107.1,111.4z M107.2,102.1c-2.4,0-4,1.8-4,4.4v0.2c0,2.6,1.6,4.4,3.9,4.4c1.3,0,2.2-0.4,3.1-1.4
								l-1.3-1.3c-0.4,0.4-0.9,0.8-1.6,0.8c-1,0-1.9-0.8-1.9-2.6v-0.1c0-1.5,0.8-2.6,1.9-2.6c0.6,0,1.1,0.2,1.6,0.8l1.3-1.4
								C109.3,102.6,108.4,102.1,107.2,102.1z"/>
						</g>
					</g>
					<g>
						<g>
							<path d="M118.1,118.3h2.9c2.9,0,4.5,1.7,4.5,4.4v0.2c0,2.6-1.6,4.4-4.5,4.4h-2.9V118.3z M120.4,120.3v4.8h0.7
								c1.3,0,2.1-0.8,2.1-2.4v-0.1c0-1.6-0.9-2.4-2.1-2.4L120.4,120.3L120.4,120.3z"/>
							<path d="M121,127.3h-3v-9.2h3.1c2.9,0,4.6,1.7,4.6,4.5v0.2C125.7,125.6,123.9,127.3,121,127.3z M118.2,127.1h2.8
								c2.7,0,4.4-1.6,4.4-4.3v-0.2c0-2.7-1.6-4.2-4.4-4.2h-2.8V127.1z M121,125.3h-0.8v-5.1h0.8c1.4,0,2.3,0.9,2.3,2.5v0.1
								C123.3,124.4,122.5,125.3,121,125.3z M120.5,125h0.5c1.3,0,2-0.8,2-2.2v-0.1c0-1.4-0.7-2.2-2-2.2h-0.5V125z"/>
						</g>
					</g>
				</g>
			</g>
			<g>
				<path d="M127.7,132.6h-0.9v-0.1c0.1,0,0.2-0.1,0.3-0.1l1.6-2.6h0.1l0.5,2.6h0.1c0,0,0.1,0,0.1,0.1v0.1h-1v-0.1
					c0.1,0,0.2-0.1,0.4-0.1l-0.1-0.7h-0.9l-0.4,0.7c0.1,0,0.2,0,0.3,0.1L127.7,132.6z M127.9,131.4h0.8l-0.1-0.8v-0.3l0,0l-0.2,0.4
					L127.9,131.4z"/>
				<path d="M132.2,131.4c0-0.1,0-0.2,0-0.2c0-0.1,0-0.1,0-0.2c0-0.1,0-0.1,0-0.2l-0.1-0.1c-0.1,0-0.1,0-0.2,0.1
					c-0.1,0.1-0.1,0.1-0.2,0.2c-0.1,0.1-0.1,0.2-0.2,0.3c-0.1,0.1-0.1,0.2-0.1,0.2l-0.2,1h-0.3l0.4-1.8h-0.2v-0.1c0,0,0.1,0,0.1-0.1
					h0.1h0.1h0.1h0.1l-0.2,0.7l0,0c0.1-0.1,0.1-0.2,0.2-0.3c0.1-0.1,0.1-0.2,0.2-0.2c0.1-0.1,0.2-0.1,0.2-0.2c0.1,0,0.2-0.1,0.2-0.1
					c0.1,0,0.2,0,0.2,0.1c0.1,0.1,0.1,0.2,0.1,0.3s0,0.1,0,0.2c0,0.1,0,0.2,0,0.2l-0.2,1h0.3v0.1c-0.1,0-0.1,0.1-0.2,0.1
					c-0.1,0-0.2,0-0.2,0c-0.1,0-0.1,0-0.2,0v-0.1c0-0.1,0-0.1,0-0.2c0-0.1,0-0.1,0-0.2L132.2,131.4z"/>
				<path d="M134.2,131.8c0,0.1-0.1,0.2-0.1,0.3c-0.1,0.1-0.1,0.2-0.2,0.3c-0.1,0.1-0.1,0.1-0.2,0.2s-0.2,0.1-0.3,0.1
					c-0.3,0-0.4-0.2-0.4-0.6c0-0.2,0-0.4,0.1-0.5c0.1-0.2,0.1-0.3,0.2-0.5c0.1-0.1,0.2-0.2,0.4-0.3c0.1-0.1,0.3-0.1,0.5-0.1
					c0.1,0,0.1,0,0.2,0c0,0,0.1,0,0.1,0.1c0.1-0.1,0.2-0.1,0.3-0.1l-0.4,1.8h0.3v0.1c-0.1,0-0.1,0.1-0.2,0.1c-0.1,0-0.1,0-0.2,0
					c-0.1,0-0.1,0-0.2-0.1l-0.1-0.1c0,0,0-0.1,0-0.2C134.2,132.1,134.2,131.9,134.2,131.8L134.2,131.8z M133.6,132.4
					c0.1,0,0.1,0,0.2-0.1c0.1-0.1,0.1-0.1,0.2-0.2c0.1-0.1,0.1-0.2,0.2-0.3c0.1-0.1,0.1-0.2,0.1-0.3l0.1-0.7c0,0-0.1,0-0.1-0.1h-0.1
					c-0.1,0-0.2,0-0.3,0.1s-0.2,0.2-0.3,0.3s-0.1,0.3-0.2,0.4c0,0.1-0.1,0.3-0.1,0.4c0,0.1,0,0.2,0.1,0.3
					C133.4,132.3,133.5,132.4,133.6,132.4z"/>
				<path d="M137.5,131.4c0-0.1,0-0.1,0-0.2c0-0.1,0-0.1,0-0.2c0-0.1,0-0.1,0-0.2l-0.1-0.1c-0.1,0-0.1,0-0.2,0.1
					c-0.1,0.1-0.1,0.1-0.2,0.2c-0.1,0.1-0.1,0.2-0.2,0.3c0,0.1-0.1,0.2-0.1,0.3l-0.2,1h-0.3l0.3-1.1c0-0.1,0-0.2,0-0.2
					c0-0.1,0-0.2,0-0.2c0-0.1,0-0.1,0-0.1l-0.1-0.1c-0.1,0-0.1,0-0.2,0.1c-0.1,0.1-0.1,0.1-0.2,0.2c-0.1,0.1-0.1,0.2-0.2,0.3
					c-0.1,0.1-0.1,0.2-0.1,0.3l-0.2,1h-0.3l0.4-1.8h-0.2v-0.1c0.1,0,0.2-0.1,0.3-0.1s0.2,0,0.3,0h0.1l-0.2,0.7l0,0
					c0-0.1,0.1-0.2,0.1-0.2c0.1-0.1,0.1-0.2,0.2-0.2c0.1-0.1,0.2-0.1,0.2-0.2c0.1-0.1,0.2-0.1,0.3-0.1h0.1c0,0,0.1,0,0.1,0.1
					c0,0,0,0.1,0.1,0.1c0,0,0,0.1,0,0.2c0,0.1,0,0.1,0,0.2c0,0.1,0,0.1,0,0.2c0-0.1,0.1-0.2,0.2-0.3c0.1-0.1,0.1-0.2,0.2-0.2
					c0.1-0.1,0.1-0.1,0.2-0.2c0.1,0,0.2-0.1,0.2-0.1c0.1,0,0.2,0,0.2,0.1c0.1,0.1,0.1,0.2,0.1,0.3s0,0.2,0,0.2c0,0.1,0,0.2-0.1,0.2
					l-0.3,1h0.3v0.1c-0.1,0-0.1,0.1-0.2,0.1c-0.1,0-0.2,0-0.2,0c-0.1,0-0.1,0-0.2-0.1v-0.1c0-0.1,0-0.2,0.1-0.3L137.5,131.4z"/>
				<path d="M139.7,132.2c0,0.1-0.1,0.1-0.1,0.1s-0.1,0.1-0.2,0.1c-0.1,0-0.1,0.1-0.2,0.1c-0.1,0-0.2,0-0.2,0
					c-0.2,0-0.4-0.1-0.5-0.2c-0.1-0.1-0.2-0.3-0.2-0.5s0-0.4,0.1-0.5c0.1-0.2,0.1-0.3,0.2-0.4c0.1-0.1,0.2-0.2,0.3-0.3
					s0.3-0.1,0.5-0.1c0.1,0,0.2,0,0.3,0.1s0.1,0.2,0.1,0.3c0,0.2-0.1,0.3-0.3,0.4c-0.2,0.1-0.5,0.2-0.9,0.2v0.1v0.1
					c0,0.2,0,0.3,0.1,0.4s0.2,0.2,0.4,0.2c0.1,0,0.1,0,0.1,0s0.1,0,0.1-0.1c0,0,0.1,0,0.1-0.1C139.6,132.2,139.6,132.1,139.7,132.2
					L139.7,132.2z M139.3,130.7c-0.1,0-0.2,0.1-0.3,0.2c-0.1,0.1-0.2,0.3-0.3,0.5c0.3,0,0.5-0.1,0.6-0.1c0.1-0.1,0.2-0.2,0.2-0.3
					s0-0.1,0-0.2S139.4,130.7,139.3,130.7z"/>
				<path d="M141.3,130.8H141v-0.1c0,0,0,0,0.1,0h0.1h0.1h0.1c0.1,0,0.1,0,0.1,0s0,0.1,0.1,0.1l0.3,1.4v0.2l0,0l0.1-0.2
					c0-0.1,0.1-0.2,0.1-0.2s0.1-0.2,0.1-0.3s0.1-0.2,0.1-0.3s0.1-0.2,0.1-0.2v-0.1V131v-0.1v-0.1h0.1h0.1c0.1,0,0.2,0,0.2,0
					c-0.1,0.3-0.2,0.7-0.3,1s-0.3,0.7-0.5,1c-0.1,0.3-0.3,0.5-0.4,0.6c-0.1,0.1-0.3,0.2-0.5,0.2H141h-0.1v-0.1v-0.1
					c0,0,0-0.1,0.1-0.1l0.1-0.1l0.3,0.2c0,0,0,0,0.1-0.1l0.1-0.1c0,0,0.1-0.1,0.1-0.2c0-0.1,0.1-0.1,0.1-0.2L141.3,130.8z"/>
				<path d="M142.9,131.8c0-0.1,0-0.3,0.1-0.4c0-0.2,0.1-0.3,0.2-0.4c0.1-0.1,0.2-0.2,0.3-0.3s0.3-0.1,0.5-0.1s0.4,0.1,0.5,0.2
					c0.1,0.1,0.2,0.3,0.2,0.6c0,0.2,0,0.3-0.1,0.5s-0.1,0.3-0.2,0.4c-0.1,0.1-0.2,0.2-0.3,0.3s-0.3,0.1-0.4,0.1
					c-0.2,0-0.4-0.1-0.5-0.2C143,132.3,142.9,132.1,142.9,131.8z M143.9,130.7c-0.1,0-0.2,0-0.3,0.1s-0.1,0.2-0.2,0.3
					c0,0.1-0.1,0.3-0.1,0.4c0,0.1,0,0.3,0,0.4c0,0.2,0,0.3,0.1,0.4c0.1,0.1,0.2,0.1,0.3,0.1s0.2,0,0.2-0.1c0.1-0.1,0.1-0.2,0.2-0.3
					c0.1-0.1,0.1-0.2,0.1-0.4c0-0.1,0-0.3,0-0.4c0-0.2,0-0.3-0.1-0.4C144.1,130.7,144.1,130.7,143.9,130.7z"/>
				<path d="M146.8,132.3v0.1c-0.1,0-0.1,0.1-0.2,0.1c-0.1,0-0.2,0-0.2,0c-0.1,0-0.1,0-0.2,0v-0.1c0,0,0-0.1,0-0.2
					c0-0.1,0-0.3,0.1-0.4l0,0c0,0.1-0.1,0.2-0.1,0.3c-0.1,0.1-0.1,0.2-0.2,0.3c-0.1,0.1-0.2,0.2-0.2,0.2c-0.1,0.1-0.2,0.1-0.3,0.1
					s-0.2,0-0.2-0.1c-0.1-0.1-0.1-0.2-0.1-0.3s0-0.1,0-0.3c0-0.1,0-0.2,0.1-0.4c0-0.1,0.1-0.3,0.1-0.4c0-0.1,0.1-0.3,0.1-0.4h-0.2
					v-0.1h0.1h0.1h0.1h0.1h0.1c0,0.2-0.1,0.4-0.1,0.6c0,0.2-0.1,0.4-0.1,0.6c0,0.1,0,0.1,0,0.2c0,0.1,0,0.2,0,0.3s0,0.1,0,0.1
					l0.1,0.1c0.1,0,0.1,0,0.2-0.1c0.1,0,0.1-0.1,0.2-0.1c0.1-0.1,0.1-0.1,0.1-0.2c0-0.1,0.1-0.1,0.1-0.2c0-0.1,0.1-0.1,0.1-0.2
					c0-0.1,0-0.1,0.1-0.1l0.2-0.9h0.3l-0.3,1.8h0.1V132.3z"/>
				<path d="M149.5,132.2c0,0.1-0.1,0.1-0.1,0.1s-0.1,0.1-0.2,0.1c-0.1,0-0.1,0.1-0.2,0.1c-0.1,0-0.2,0-0.2,0
					c-0.2,0-0.4-0.1-0.5-0.2c-0.1-0.1-0.2-0.3-0.2-0.5s0-0.4,0.1-0.5c0.1-0.2,0.1-0.3,0.2-0.4c0.1-0.1,0.2-0.2,0.4-0.3
					c0.1-0.1,0.3-0.1,0.5-0.1c0.1,0,0.2,0,0.2,0c0.1,0,0.1,0,0.1,0.1v0.1v0.1c0,0,0,0.1-0.1,0.1c0,0,0,0-0.1,0.1l-0.3-0.3
					c-0.1,0-0.2,0-0.3,0.1s-0.2,0.1-0.2,0.2c-0.1,0.1-0.1,0.2-0.2,0.4s-0.1,0.3-0.1,0.5s0,0.3,0.1,0.4c0.1,0.1,0.2,0.1,0.3,0.1
					s0.1,0,0.2,0c0,0,0.1,0,0.1-0.1c0,0,0.1,0,0.1-0.1C149.3,132.2,149.4,132.1,149.5,132.2L149.5,132.2z"/>
				<path d="M151,131.8c0,0.1-0.1,0.2-0.1,0.3c-0.1,0.1-0.1,0.2-0.2,0.3c-0.1,0.1-0.1,0.1-0.2,0.2s-0.2,0.1-0.3,0.1
					c-0.3,0-0.4-0.2-0.4-0.6c0-0.2,0-0.4,0.1-0.5c0.1-0.2,0.1-0.3,0.2-0.5c0.1-0.1,0.2-0.2,0.4-0.3c0.1-0.1,0.3-0.1,0.5-0.1
					c0.1,0,0.1,0,0.2,0c0,0,0.1,0,0.1,0.1c0.1-0.1,0.2-0.1,0.3-0.1l-0.4,1.8h0.3v0.1c-0.1,0-0.1,0.1-0.2,0.1c-0.1,0-0.1,0-0.2,0
					c-0.1,0-0.1,0-0.2-0.1l-0.1-0.1c0,0,0-0.1,0-0.2C151,132.1,151,131.9,151,131.8L151,131.8z M150.4,132.4c0.1,0,0.1,0,0.2-0.1
					c0.1-0.1,0.1-0.1,0.2-0.2c0.1-0.1,0.1-0.2,0.2-0.3c0.1-0.1,0.1-0.2,0.1-0.3l0.1-0.7c0,0-0.1,0-0.1-0.1H151c-0.1,0-0.2,0-0.3,0.1
					s-0.2,0.2-0.3,0.3s-0.1,0.3-0.2,0.4c0,0.1-0.1,0.3-0.1,0.4c0,0.1,0,0.2,0.1,0.3C150.3,132.3,150.3,132.4,150.4,132.4z"/>
				<path d="M153.3,131.4c0-0.1,0-0.2,0-0.2c0-0.1,0-0.1,0-0.2c0-0.1,0-0.1,0-0.2l-0.1-0.1c-0.1,0-0.1,0-0.2,0.1
					c-0.1,0.1-0.1,0.1-0.2,0.2c-0.1,0.1-0.1,0.2-0.2,0.3c-0.1,0.1-0.1,0.2-0.1,0.2l-0.2,1H152l0.4-1.8h-0.2v-0.1c0,0,0.1,0,0.1-0.1
					h0.1h0.1h0.1h0.1l-0.2,0.7l0,0c0.1-0.1,0.1-0.2,0.2-0.3c0.1-0.1,0.1-0.2,0.2-0.2c0.1-0.1,0.2-0.1,0.2-0.2c0.1,0,0.2-0.1,0.2-0.1
					c0.1,0,0.2,0,0.2,0.1c0.1,0.1,0.1,0.2,0.1,0.3s0,0.1,0,0.2c0,0.1,0,0.2,0,0.2l-0.2,1h0.3v0.1c-0.1,0-0.1,0.1-0.2,0.1
					c-0.1,0-0.2,0-0.2,0c-0.1,0-0.1,0-0.2,0v-0.1c0-0.1,0-0.1,0-0.2c0-0.1,0-0.1,0-0.2L153.3,131.4z"/>
				<path d="M155.2,130.7c0.1,0,0.1-0.1,0.2-0.1c0.1,0,0.1,0,0.2-0.1l0.1-0.3l0.1-0.1c0,0,0.1,0,0.2-0.1h0.1l-0.1,0.4h0.5v0.1v0.1
					H156l-0.3,1.2c0,0.1,0,0.1,0,0.1v0.1c0,0.1,0,0.1,0.1,0.2h0.1c0.1,0,0.1,0,0.2,0c0.1,0,0.1-0.1,0.2-0.1v0.1l-0.1,0.1
					c0,0-0.1,0.1-0.2,0.1c-0.1,0-0.1,0.1-0.2,0.1c-0.1,0-0.1,0-0.2,0c-0.1,0-0.2,0-0.3-0.1s-0.1-0.1-0.1-0.2v-0.1V132l0.3-1.2
					L155.2,130.7L155.2,130.7z"/>
				<path d="M157.5,130.8c-0.1,0-0.1,0.1-0.2,0.2c-0.1,0.1-0.2,0.3-0.2,0.4l-0.2,1.1h-0.3l0.4-1.8h-0.2v-0.1c0.1,0,0.2-0.1,0.3-0.1
					s0.2,0,0.3,0h0.1l-0.1,0.5l0,0c0.1-0.2,0.2-0.3,0.3-0.4c0.1-0.1,0.2-0.2,0.4-0.2h0.1h0.1v0.1v0.1v0.1c0,0,0,0.1-0.1,0.1
					L157.5,130.8z"/>
				<path d="M159.8,132.3v0.1c-0.1,0-0.1,0.1-0.2,0.1c-0.1,0-0.2,0-0.2,0c-0.1,0-0.1,0-0.2,0v-0.1c0,0,0-0.1,0-0.2
					c0-0.1,0-0.3,0.1-0.4l0,0c0,0.1-0.1,0.2-0.1,0.3c-0.1,0.1-0.1,0.2-0.2,0.3c-0.1,0.1-0.2,0.2-0.2,0.2c-0.1,0.1-0.2,0.1-0.3,0.1
					s-0.2,0-0.2-0.1c-0.1-0.1-0.1-0.2-0.1-0.3s0-0.1,0-0.3c0-0.1,0-0.2,0.1-0.4c0-0.1,0.1-0.3,0.1-0.4s0.1-0.3,0.1-0.4h-0.2v-0.1
					h0.1h0.1h0.1h0.1h0.1c0,0.2-0.1,0.4-0.1,0.6c0,0.2-0.1,0.4-0.1,0.6c0,0.1,0,0.1,0,0.2c0,0.1,0,0.2,0,0.3s0,0.1,0,0.1l0.1,0.1
					c0.1,0,0.1,0,0.2-0.1c0.1,0,0.1-0.1,0.2-0.1c0.1-0.1,0.1-0.1,0.1-0.2c0-0.1,0.1-0.1,0.1-0.2c0-0.1,0.1-0.1,0.1-0.2
					c0-0.1,0-0.1,0.1-0.1l0.2-0.9h0.3l-0.3,1.8h0.1V132.3z"/>
				<path d="M161,132.1c0-0.1,0-0.1-0.1-0.2l-0.1-0.1c-0.1,0-0.1-0.1-0.2-0.1c-0.1,0-0.1-0.1-0.2-0.1c-0.1-0.1-0.1-0.1-0.1-0.2
					c0-0.1-0.1-0.1-0.1-0.2c0-0.1,0-0.2,0.1-0.3c0-0.1,0.1-0.1,0.2-0.2c0.1,0,0.1-0.1,0.2-0.1c0.1,0,0.2,0,0.3,0s0.1,0,0.2,0
					c0.1,0,0.2,0,0.2,0.1v0.1v0.1c0,0,0,0.1-0.1,0.1c0,0,0,0.1-0.1,0.1l-0.3-0.3c-0.1,0-0.1,0-0.2,0c0,0-0.1,0-0.1,0.1l-0.1,0.1v0.1
					c0,0.1,0,0.1,0.1,0.2l0.1,0.1c0.1,0,0.1,0.1,0.2,0.1c0.1,0,0.1,0.1,0.2,0.1c0.1,0.1,0.1,0.1,0.1,0.2c0,0.1,0.1,0.1,0.1,0.2
					c0,0.1,0,0.2-0.1,0.3c0,0.1-0.1,0.1-0.2,0.2c-0.1,0.1-0.2,0.1-0.3,0.1s-0.2,0-0.3,0s-0.2,0-0.3,0s-0.2-0.1-0.2-0.1
					c0-0.1,0-0.1,0-0.2c0-0.1,0.1-0.1,0.1-0.2l0.4,0.3c0.1,0,0.1,0,0.2,0c0.1,0,0.1,0,0.1-0.1l0.1-0.1
					C161,132.2,161,132.1,161,132.1z"/>
				<path d="M161.9,130.7c0.1,0,0.1-0.1,0.2-0.1c0.1,0,0.1,0,0.2-0.1l0.1-0.3l0.1-0.1c0,0,0.1,0,0.2-0.1h0.1l-0.1,0.4h0.5v0.1v0.1
					h-0.5l-0.3,1.2c0,0.1,0,0.1,0,0.1v0.1c0,0.1,0,0.1,0.1,0.2h0.1c0.1,0,0.1,0,0.2,0c0.1,0,0.1-0.1,0.2-0.1v0.1l-0.1,0.1
					c0,0-0.1,0.1-0.2,0.1c-0.1,0-0.1,0.1-0.2,0.1c-0.1,0-0.1,0-0.2,0c-0.1,0-0.2,0-0.3-0.1s-0.1-0.1-0.1-0.2v-0.1V132l0.3-1.2
					L161.9,130.7L161.9,130.7z"/>
			</g>
		</g>
	</g>
	<g>
		<g>
			<polygon points="160.7,125.4 160.1,125.4 160.1,106.2 162,106.2 151.2,100.1 143.1,104.9 142.8,104.4 151.2,99.4 164.2,106.8 
				160.7,106.8 			"/>
			<rect x="127.3" y="126.7" width="35.8" height="0.6"/>
			<polygon points="151.9,99.5 151.2,100.1 150.6,99.5 151.3,98.3 			"/>
			<rect x="145.1" y="103.2" transform="matrix(0.5963 -0.8028 0.8028 0.5963 -22.724 161.2643)" width="7.7" height="0.1"/>
			<polygon points="155.5,106.3 151.1,100.2 151.2,100.1 155.6,106.2 			"/>
			<rect x="142.9" y="106.2" width="17.6" height="0.1"/>
		</g>
	</g>
	<g>
		<g>
			<path d="M114.6,126.9c-0.5,0.4-1,0.6-1.6,0.6c-1.2,0-2.1-0.7-2.1-1.8l0,0c0-0.8,0.4-1.4,1.2-1.8c-0.3-0.5-0.4-0.8-0.4-1.3l0,0
				c0-0.9,0.7-1.6,1.8-1.6c1.1,0,1.7,0.7,1.7,1.6l0,0c0,0.8-0.5,1.3-1.1,1.7l0.6,0.8c0.2-0.3,0.3-0.6,0.5-0.9l1.1,0.5
				c-0.2,0.5-0.4,1-0.7,1.4l0.7,0.8l-1.1,0.8L114.6,126.9z M113.8,126l-1-1.1c-0.3,0.2-0.4,0.5-0.4,0.7l0,0c0,0.4,0.3,0.7,0.7,0.7
				C113.4,126.3,113.6,126.2,113.8,126z M113.8,122.6L113.8,122.6c0-0.3-0.2-0.5-0.4-0.5c-0.3,0-0.4,0.2-0.4,0.5l0,0
				c0,0.3,0.1,0.5,0.3,0.8C113.6,123.2,113.8,123,113.8,122.6z"/>
		</g>
	</g>
</g>
</svg>
