<?xml version="1.0" encoding="utf-8"?>
<!-- Generator: Adobe Illustrator 24.0.1, SVG Export Plug-In . SVG Version: 6.00 Build 0)  -->
<svg version="1.1" id="Layer_1" xmlns="http://www.w3.org/2000/svg" xmlns:xlink="http://www.w3.org/1999/xlink" x="0px" y="0px"
	 viewBox="0 0 100 100" style="enable-background:new 0 0 100 100;" xml:space="preserve">
<style type="text/css">
	.st0{fill:#518DCB;}
	.st1{fill:#FCFDFD;}
	.st2{fill:#232856;}
</style>
<g>
	<path class="st0" d="M46.4,5.2c8.3-0.6,16.8,1.1,24.2,5C79,14.6,86,21.7,90.2,30.3c5.2,10.5,6,23.2,2.2,34.3c-3,9-9,16.9-16.8,22.4
		c-4.1,2.9-8.8,5.1-13.7,6.5c-6.6,1.8-13.5,2.1-20.2,0.9c-9.6-1.7-18.5-6.7-25-13.9c-3.5-3.9-6.4-8.3-8.4-13.2
		C3.9,57.1,3.6,45.4,7.3,35c2.1-6.1,5.6-11.7,10.1-16.3c4.4-4.5,9.7-8.1,15.5-10.4C37.2,6.6,41.8,5.5,46.4,5.2L46.4,5.2z"/>
	<path class="st1" d="M46.4,6c8.2-0.6,16.6,1.1,23.8,4.9C78.9,15.5,86,23,90,32c4.6,10.3,5,22.4,1.2,33c-3.2,9.1-9.6,17-17.7,22.2
		c-4.3,2.8-9.2,4.8-14.2,5.9c-6.4,1.4-13.2,1.4-19.6-0.1c-8.8-2-16.9-6.9-22.9-13.6c-3.9-4.4-7-9.6-8.8-15.2
		c-3.3-9.9-3-20.9,0.9-30.5c4.2-11.1,13.1-20.1,24-24.5C37.2,7.4,41.8,6.4,46.4,6L46.4,6z"/>
	<path class="st0" d="M48.2,6.9c8.1-0.3,16.3,1.7,23.4,5.9c8.5,5,15.2,12.9,18.6,22.2c3.9,10.4,3.5,22.3-1,32.5
		c-3.8,8.6-10.5,15.9-18.8,20.4c-5.1,2.8-10.9,4.5-16.7,5.1c-6.1,0.6-12.4-0.2-18.2-2.3c-9.1-3.2-17.1-9.6-22.2-17.8
		C9,66.2,6.7,58.3,6.6,50.4c0-4.4,0.6-8.9,1.9-13.2c2.1-7,6.1-13.3,11.4-18.4c4.8-4.7,10.8-8.2,17.2-10.1
		C40.7,7.7,44.4,7.1,48.2,6.9L48.2,6.9z"/>
	<path class="st2" d="M46.3,7.8c7.2-0.6,14.6,0.7,21.2,3.8c8.4,3.9,15.5,10.6,19.8,18.9c5.3,10,6.2,22.2,2.6,32.9
		c-3,9.1-9.2,17.1-17.2,22.2c-4.2,2.7-9,4.7-13.9,5.8c-6.6,1.4-13.6,1.3-20.1-0.5c-9-2.4-17-7.9-22.6-15.3c-4.6-6-7.5-13.4-8.3-20.9
		C7.2,49.9,7.4,45,8.5,40.4c1.4-6,4.1-11.7,7.9-16.5c4.5-5.8,10.6-10.4,17.5-13.1C37.8,9.2,42,8.2,46.3,7.8L46.3,7.8z"/>
	<path class="st0" d="M46.8,10.5c1.5-0.1,3-0.1,4.6-0.1c0,0.4,0,0.9,0,1.3c-1,0-2.1,0.1-3.1,0c0,0.5,0,1.1,0,1.6c1-0.1,2,0,3-0.1
		c0,0.4,0,0.9,0.1,1.3c-1,0.1-2,0-3,0.1c0,0.5,0,1.1,0,1.6c1,0,2-0.1,3.1,0c0,0.4,0,0.9,0.1,1.3c-1.5,0-3,0.1-4.6,0.1
		C46.9,15.3,46.9,12.9,46.8,10.5L46.8,10.5z"/>
	<path class="st0" d="M52.4,17.6c0.4-2.3,0.8-4.7,1.2-7c0.5,0.1,1,0.2,1.5,0.3c0.7,1.7,1.3,3.4,2,5.1c0.3-1.5,0.5-3.1,0.8-4.6
		c0.5,0.1,0.9,0.2,1.4,0.2c-0.4,2.3-0.8,4.7-1.2,7c-0.5-0.1-1-0.2-1.4-0.2c-0.7-1.7-1.3-3.5-2.1-5.2c-0.3,1.6-0.6,3.1-0.8,4.7
		C53.3,17.7,52.9,17.7,52.4,17.6L52.4,17.6z"/>
	<path class="st0" d="M39.7,11.7c0.9-0.2,1.8-0.4,2.7-0.5c0.7-0.1,1.6,0,2,0.6c0.6,0.7,0.5,1.8-0.2,2.4c1.3,0.2,1.8,1.8,1.1,2.8
		c-0.4,0.6-1.1,0.9-1.8,1.1c-0.8,0.2-1.7,0.4-2.5,0.5C40.6,16.3,40.1,14,39.7,11.7L39.7,11.7z"/>
	<path class="st0" d="M61.4,12.2c1.6,0.6,3.2,1.2,4.8,1.9c-0.2,0.4-0.3,0.8-0.5,1.2c-0.6-0.2-1.2-0.4-1.7-0.7
		c-0.7,1.8-1.4,3.6-2.1,5.4c-0.4-0.2-0.9-0.3-1.3-0.5c0.7-1.8,1.4-3.6,2.1-5.5c-0.6-0.2-1.2-0.4-1.7-0.7
		C61.1,13,61.2,12.6,61.4,12.2L61.4,12.2z"/>
	<path class="st2" d="M41.4,12.6c0.5-0.1,1-0.3,1.5-0.2c0.6,0.1,0.8,1,0.4,1.3c-0.4,0.4-1,0.4-1.5,0.5
		C41.6,13.7,41.5,13.2,41.4,12.6L41.4,12.6z"/>
	<path class="st0" d="M30.1,16.7c0.4-1.7,2.3-2.8,4-2.4c0.7,0.2,1.2,0.7,1.7,1.2c-0.4,0.3-0.8,0.5-1.2,0.7c-0.2-0.2-0.4-0.4-0.7-0.6
		c-0.8-0.4-1.8,0.1-2.1,0.8c-0.3,0.7-0.1,1.5,0.2,2.2c0.3,0.6,0.7,1.2,1.4,1.4c0.8,0.3,1.8-0.1,2.1-0.9c0.1-0.3,0.1-0.7,0.1-1.1
		c0.4-0.2,0.9-0.4,1.4-0.6c0.1,0.8,0.1,1.6-0.3,2.3c-0.6,1.2-2.1,1.9-3.4,1.7c-1-0.1-1.8-0.8-2.3-1.6C30.2,19,29.8,17.8,30.1,16.7
		L30.1,16.7z"/>
	<path class="st0" d="M67.9,14.9c0.4,0.2,0.8,0.5,1.3,0.7c-0.9,1.7-1.9,3.3-2.9,5c0.8,0.4,1.5,0.9,2.3,1.3c-0.2,0.4-0.4,0.8-0.7,1.2
		c-1.2-0.7-2.4-1.4-3.6-2.1C65.5,19,66.7,17,67.9,14.9L67.9,14.9z"/>
	<path class="st2" d="M41.9,15.4c0.5-0.1,1.1-0.3,1.6-0.2c0.6,0.1,0.9,1,0.4,1.5c-0.5,0.4-1.1,0.4-1.6,0.5
		C42.1,16.6,42,16,41.9,15.4L41.9,15.4z"/>
	<path class="st0" d="M24.1,19.8c1.1-0.8,2.2-1.7,3.3-2.5c0.3,0.3,0.6,0.6,0.8,1c-0.7,0.6-1.4,1.1-2.1,1.7c0.3,0.4,0.6,0.8,1,1.2
		c0.7-0.5,1.4-1.1,2.1-1.6c0.3,0.3,0.5,0.7,0.8,1c-0.7,0.5-1.4,1.1-2.1,1.6c0.6,0.8,1.2,1.5,1.8,2.3c-0.4,0.3-0.8,0.6-1.1,0.9
		C27,23.6,25.6,21.7,24.1,19.8L24.1,19.8z"/>
	<path class="st0" d="M68.6,23.6c1.5-1.8,3-3.7,4.5-5.5c1.2,1,2.3,1.9,3.5,2.9c-0.3,0.3-0.5,0.7-0.8,1c-0.8-0.7-1.6-1.3-2.4-2
		c-0.3,0.4-0.7,0.8-1,1.2c0.8,0.6,1.6,1.3,2.3,1.9c-0.3,0.3-0.5,0.7-0.8,1c-0.8-0.6-1.6-1.3-2.3-1.9c-0.4,0.4-0.7,0.8-1,1.3
		c0.8,0.7,1.6,1.3,2.4,2c-0.3,0.3-0.5,0.7-0.8,1C71,25.6,69.8,24.6,68.6,23.6L68.6,23.6z"/>
	<path class="st0" d="M47.4,19.9c4.7-0.4,9.4,0.4,13.8,2.2c5.4,2.2,10.1,6,13.4,10.8c2.7,3.8,4.4,8.3,5,12.9
		c0.8,5.9-0.1,12-2.7,17.3c-2.2,4.5-5.6,8.5-9.7,11.4c-4,2.9-8.7,4.7-13.6,5.3c-5.8,0.7-11.8-0.2-17-2.8
		C29,73.5,23.1,66.6,20.8,58.6c-1.6-5.3-1.6-11.1-0.2-16.4c1.2-4.7,3.7-9.1,7-12.6C32.6,24,39.9,20.5,47.4,19.9L47.4,19.9z"/>
	<path class="st2" d="M46.7,20.9c4.6-0.5,9.3,0.1,13.7,1.8c5.5,2.1,10.3,6,13.6,10.9c3,4.4,4.8,9.7,5,15.1c0.2,5.2-1,10.5-3.5,15.1
		c-2.4,4.4-5.8,8.1-10,10.8c-4.3,2.8-9.4,4.4-14.5,4.6c-5.3,0.2-10.7-1-15.4-3.7c-4.5-2.5-8.4-6.3-11-10.8c-4-6.7-5.1-15-3-22.5
		c1.4-5.2,4.3-10,8.2-13.6C34.3,24.3,40.4,21.5,46.7,20.9L46.7,20.9z"/>
	<path class="st0" d="M47.1,21.9c4.8-0.5,9.8,0.4,14.2,2.4c5,2.3,9.3,6,12.3,10.7c2.9,4.6,4.4,10,4.3,15.4c0,5.9-2.1,11.7-5.6,16.4
		c-2.7,3.7-6.3,6.6-10.4,8.6C56.7,78,50.7,78.8,45,77.8c-5-0.8-9.7-3-13.5-6.3c-4.9-4.1-8.4-10-9.6-16.3c-0.9-4.5-0.6-9.3,0.8-13.7
		s3.8-8.4,7.1-11.6C34.5,25.4,40.7,22.4,47.1,21.9L47.1,21.9z"/>
	<path class="st0" d="M77.7,22c0.4,0.4,0.8,0.8,1.1,1.3c-0.4,0.9-0.8,1.7-1.3,2.6c0.9-0.3,1.9-0.6,2.8-0.9c0.4,0.4,0.7,0.8,1.1,1.2
		c-1.4,0.4-2.9,0.8-4.3,1.2c-0.4,0.1-0.6,0.4-0.9,0.7c-0.5,0.4-1,0.9-1.5,1.3c-0.3-0.4-0.6-0.7-0.9-1.1c0.7-0.6,1.3-1.1,2-1.7
		c0.2-0.2,0.3-0.4,0.4-0.6C76.6,24.6,77.1,23.3,77.7,22L77.7,22z"/>
	<path class="st2" d="M46.5,22.8c5.1-0.6,10.3,0.3,14.9,2.5c5.1,2.4,9.5,6.5,12.2,11.5c2.6,4.6,3.7,10.1,3.3,15.3
		c-0.4,5.3-2.5,10.5-5.8,14.7c-3,3.8-6.9,6.7-11.4,8.5c-5,2-10.6,2.5-15.8,1.3c-4.8-1-9.4-3.4-13-6.8c-5.1-4.8-8.3-11.6-8.6-18.7
		c-0.2-4.7,0.8-9.4,2.9-13.5c1.9-3.9,4.8-7.2,8.3-9.8C37.4,25.2,41.9,23.4,46.5,22.8L46.5,22.8z"/>
	<path class="st0" d="M20,24c0.3-0.4,0.7-0.8,1-1.1c2.3,1,4.6,1.9,7,2.9c-0.3,0.4-0.7,0.8-1.1,1.2c-0.5-0.2-1-0.4-1.4-0.6
		c-0.6,0.6-1.1,1.3-1.7,1.9c0.3,0.4,0.5,0.9,0.8,1.3c-0.3,0.4-0.7,0.8-1.1,1.2C22.3,28.4,21.2,26.2,20,24L20,24z"/>
	<path class="st1" d="M48.5,23c0.8,0,1.7,0,2.5,0c0,0.4,0,0.8,0,1.2c0,0.2-0.3,0.2-0.5,0.3c0,6.5,0,12.9,0,19.4c-0.5,0-1,0-1.5,0
		c0-6.5,0-12.9,0-19.4c-0.1,0-0.3-0.1-0.4-0.1C48.4,23.9,48.5,23.4,48.5,23L48.5,23z"/>
	<path class="st1" d="M41.6,24.2c0.8-0.3,1.6-0.5,2.4-0.6c0,0.5,0.6,1.3-0.2,1.4c1.6,6.3,3.3,12.6,4.9,18.9c-1,0.2-1.9,0.5-2.8,1.1
		c-0.1-0.2-0.3-0.4-0.4-0.6C42.3,39,39.1,33.6,36,28.2c-0.1,0-0.3,0.1-0.4,0.2c-0.4-0.3-0.5-0.7-0.8-1.1c0.7-0.4,1.4-0.9,2.2-1.3
		c0.2,0.4,0.5,0.7,0.6,1.1c-0.1,0.1-0.2,0.2-0.3,0.3c3.3,5.6,6.6,11.2,9.9,16.8c-1.6-6.3-3.3-12.6-4.9-18.8c-0.1,0-0.3,0-0.4,0
		C41.8,25,41.7,24.6,41.6,24.2L41.6,24.2z"/>
	<path class="st1" d="M55.4,23.6c0.8,0.2,1.6,0.4,2.4,0.6c-0.1,0.4-0.2,0.8-0.3,1.1c-0.1,0.2-0.4,0.1-0.6,0.1
		C55.3,31.7,53.7,38,52,44.3c-0.5-0.2-1-0.3-1.5-0.4c1.6-6.3,3.2-12.5,4.9-18.8c-0.1-0.1-0.3-0.2-0.4-0.2
		C55.2,24.4,55.3,24,55.4,23.6L55.4,23.6z"/>
	<path class="st2" d="M21.8,24.6c0.9,0.4,1.7,0.8,2.6,1.1c-0.4,0.4-0.8,0.9-1.2,1.3C22.7,26.2,22.2,25.4,21.8,24.6L21.8,24.6z"/>
	<path class="st1" d="M61.7,27.1c0.2-0.3,0.4-0.6,0.6-1c0.7,0.4,1.5,0.8,2.2,1.3c-0.2,0.3-0.4,0.6-0.6,0.9c-0.1,0.3-0.4,0.1-0.6,0
		C60,33.9,56.7,39.5,53.5,45c-0.4-0.3-0.9-0.5-1.3-0.8c3.3-5.6,6.6-11.2,9.9-16.7C61.9,27.4,61.6,27.3,61.7,27.1L61.7,27.1z"/>
	<path class="st1" d="M29.7,31.8c0.6-0.6,1.2-1.2,1.8-1.8c0.3,0.4,1.1,0.8,0.7,1.3c4.4,4.3,8.8,8.6,13.2,12.9
		c0.3,0.2,0.5,0.5,0.7,0.8c-0.9,0.4-1.4,1.4-1.9,2.2c-5.6-3.3-11.2-6.5-16.8-9.7c0,0.1-0.1,0.2-0.2,0.3c-0.5,0.1-0.9-0.3-1.3-0.5
		c0.4-0.7,0.8-1.5,1.3-2.2c0.3,0.2,0.6,0.3,0.9,0.5c0.2,0.1,0.1,0.4,0,0.6c5.6,3.2,11.2,6.5,16.8,9.7c-4.6-4.5-9.2-9-13.7-13.6
		c-0.2,0.1-0.4,0.3-0.6,0.2C30.2,32.4,30,32.1,29.7,31.8L29.7,31.8z"/>
	<path class="st1" d="M68,30.1c0.6,0.6,1.2,1.2,1.8,1.8c-0.4,0.3-0.8,1.2-1.4,0.6c-4.6,4.5-9.2,9.1-13.8,13.6
		c-0.3-0.4-0.7-0.8-1.1-1.1c4.6-4.5,9.2-9.1,13.8-13.6c-0.1-0.2-0.3-0.4-0.1-0.6C67.4,30.6,67.7,30.4,68,30.1L68,30.1z"/>
	<path class="st1" d="M71.3,36c0.3-0.3,0.7-0.4,1.1-0.7c0.5,0.7,0.9,1.4,1.3,2.2c-0.4,0.2-0.8,0.6-1.3,0.6c0-0.1-0.1-0.2-0.2-0.3
		c-5.6,3.3-11.2,6.5-16.8,9.8c-0.2-0.5-0.5-0.9-0.8-1.3c5.6-3.3,11.2-6.5,16.8-9.8C71.4,36.3,71.3,36.1,71.3,36L71.3,36z"/>
	<path class="st1" d="M23.3,44.1c0.2-0.8,0.4-1.6,0.7-2.4c0.3,0.1,0.7,0.2,1,0.3c0.2,0,0.2,0.3,0.2,0.5c6.3,1.7,12.5,3.3,18.8,5
		c-0.2,0.5-0.3,1-0.4,1.4c-6.3-1.6-12.5-3.3-18.8-4.9c-0.1,0.1-0.1,0.5-0.4,0.4S23.7,44.2,23.3,44.1L23.3,44.1z"/>
	<path class="st1" d="M74.3,42.1c0.4-0.2,0.8-0.2,1.2-0.3c0.2,0.8,0.5,1.6,0.6,2.4c-0.4,0.1-0.9,0.3-1.3,0.2c0-0.1-0.1-0.3-0.1-0.4
		c-6.3,1.7-12.5,3.3-18.8,5c-0.1-0.5-0.2-1-0.4-1.5c6.3-1.7,12.6-3.3,18.8-5C74.2,42.4,74.1,42.2,74.3,42.1L74.3,42.1z"/>
	<path class="st1" d="M48.6,44.2c1.2-0.2,2.5-0.1,3.6,0.5c1.7,0.8,3,2.4,3.3,4.3c0.3,1.7-0.2,3.5-1.3,4.8c-1.3,1.5-3.4,2.3-5.3,2
		c-1.3-0.2-2.5-0.8-3.3-1.7c-1.4-1.4-2-3.6-1.4-5.6C44.6,46.3,46.4,44.6,48.6,44.2L48.6,44.2z"/>
	<path class="st2" d="M45.6,47.2c0.6-0.9,1.6-1.6,2.6-1.9c0.5-0.2,1.1-0.1,1.4,0.3c0.3-0.5,1-0.5,1.5-0.3c1,0.3,1.9,1,2.6,1.9
		c0.3,0.4,0.4,1,0.1,1.4c0.5,0.2,0.7,0.7,0.7,1.2c0,1.1-0.4,2.3-1.1,3.2c-0.3,0.4-0.8,0.6-1.3,0.5c0,0.5-0.4,0.9-0.8,1
		c-1.1,0.4-2.4,0.4-3.5,0c-0.4-0.2-0.7-0.6-0.8-1c-0.5,0.1-1-0.1-1.3-0.6c-0.7-1-1.1-2.2-0.9-3.4c0.1-0.4,0.3-0.7,0.7-0.8
		C45.3,48.2,45.4,47.6,45.6,47.2L45.6,47.2z"/>
	<path class="st1" d="M47,46.2c0.6-0.4,1.4-0.9,2.2-0.7c0.5,0.4,0.3,1.1,0.4,1.6c-0.5,0.1-1,0.3-1.2,0.8c-0.5,0.1-0.9,0.5-1.2,0.9
		c-0.5-0.2-1.3-0.2-1.4-0.9C45.8,47.3,46.5,46.7,47,46.2L47,46.2z"/>
	<path class="st1" d="M49.9,45.8c0.2-0.4,0.8-0.4,1.2-0.3c1,0.4,2,1.1,2.5,2c0.2,0.3,0.1,0.8-0.2,1s-0.7,0.3-1.1,0.4
		C52,48.5,51.7,48,51.1,48c-0.2-0.5-0.7-0.7-1.2-0.8C49.9,46.7,49.8,46.3,49.9,45.8L49.9,45.8z"/>
	<path class="st2" d="M47.5,46.7c0.3-0.3,0.6-0.6,1.1-0.7c0.2-0.1,0.4,0.1,0.6,0.2c-0.2,0-0.5-0.1-0.7,0.1c-0.4,0.2-0.6,0.6-1,0.9
		c-0.3,0.2-0.7,0.3-1,0.6c-0.2,0.2-0.1,0.4-0.2,0.7c-0.1-0.2-0.2-0.5-0.1-0.7C46.6,47.2,47.1,47,47.5,46.7L47.5,46.7z"/>
	<path class="st2" d="M50.2,46.2c0.2-0.1,0.4-0.3,0.7-0.2c0.6,0.2,0.9,0.8,1.5,1c0.5,0.2,1,0.7,0.8,1.3C53,48,53,47.7,52.7,47.5
		c-0.4-0.3-0.9-0.4-1.3-0.8C51.2,46.3,50.7,46,50.2,46.2L50.2,46.2z"/>
	<path class="st1" d="M86.8,47c0.8-1,2.5-1,3.3,0c0.3,0.3,0.4,0.7,0.5,1.1c-0.4,0-0.8,0-1.2,0c-0.1-0.2-0.2-0.5-0.4-0.6
		c-0.3-0.3-0.8-0.2-1.1,0.1c-0.4,0.4-0.5,1-0.5,1.5c0.7-0.9,2.3-0.8,2.9,0.1c0.8,1,0.4,2.8-0.7,3.4c-0.9,0.4-2.1,0.3-2.7-0.4
		c-0.6-0.6-0.7-1.6-0.7-2.4C86,48.8,86.2,47.7,86.8,47L86.8,47z"/>
	<path class="st1" d="M10,46.7c0.9-0.5,2.1-0.5,2.9,0.2c0.8,0.7,0.8,2.1,0.1,2.9c-0.7,0.7-1.7,1.1-2.3,1.9c1,0,2,0,2.9,0
		c0,0.4,0,0.7,0,1.1c-1.5,0-3.1,0-4.6,0c0-1,0.6-1.9,1.5-2.5c0.6-0.5,1.6-0.8,1.8-1.7c0.2-0.7-0.5-1.4-1.2-1.1
		c-0.6,0.2-0.6,0.9-0.7,1.4c-0.4,0-0.8,0-1.2,0C9,48.1,9.2,47.2,10,46.7L10,46.7z"/>
	<path class="st1" d="M15.4,46.5c0.8-0.2,1.9-0.1,2.4,0.6c0.5,0.7,0.6,1.6,0.7,2.5c0,0.8-0.1,1.7-0.5,2.4c-0.7,1.3-3,1.3-3.7-0.1
		c-0.5-1-0.5-2.1-0.4-3.2C14,47.8,14.4,46.7,15.4,46.5L15.4,46.5z"/>
	<path class="st1" d="M83.4,46.4c0.3,0,0.7,0,1,0c0,2.1,0,4.2,0,6.3c-0.4,0-0.9,0-1.3,0c0-1.3,0-2.7,0-4c-0.5,0-1,0-1.6,0
		c0-0.3,0-0.7,0-1C82.3,47.7,83.2,47.3,83.4,46.4L83.4,46.4z"/>
	<path class="st2" d="M15.8,47.5c0.4-0.2,0.8,0,1,0.3c0.4,0.6,0.3,1.3,0.3,2c0,0.6,0,1.3-0.5,1.8c-0.4,0.3-1,0.2-1.2-0.2
		c-0.4-0.7-0.3-1.5-0.3-2.3C15.2,48.6,15.2,47.8,15.8,47.5L15.8,47.5z"/>
	<path class="st1" d="M48.6,48.1c0.3-0.6,1.1-0.8,1.6-0.5c0.2,0.1,0.6,0.3,0.5,0.6c-0.1,0.2-0.2,0.3-0.3,0.5c-0.5-0.2-1-0.2-1.5,0
		C48.8,48.5,48.7,48.3,48.6,48.1L48.6,48.1z"/>
	<path class="st1" d="M47.6,50.4c-0.6-0.7-0.2-1.8,0.7-2.1c0.1,0.2,0.3,0.4,0.4,0.5c-0.4,0.4-0.5,0.9-0.5,1.4
		C48,50.3,47.8,50.4,47.6,50.4L47.6,50.4z"/>
	<path class="st1" d="M51.1,48.4c0.9,0.1,1.3,1.4,0.7,2.1c-0.2-0.1-0.4-0.1-0.6-0.2c0.1-0.5-0.1-1-0.5-1.4
		C50.8,48.7,50.9,48.5,51.1,48.4L51.1,48.4z"/>
	<path class="st1" d="M22.7,48.6c0.5,0,0.9-0.1,1.4,0.1c0,0.1,0,0.3,0.1,0.3c6.5,0,12.9,0,19.4,0c-0.1,0.5,0,1,0,1.5
		c-0.7,0-1.3,0-2,0c-1.5,2.6-3,5.1-4.5,7.7c2.1,3.6,4.3,7.1,6.4,10.7c4.3,0,8.5,0,12.8,0c2.1-3.6,4.2-7.3,6.3-10.9
		c-1.4-2.3-2.9-4.7-4.3-7c-0.1-0.1-0.2-0.3-0.3-0.3c-0.7,0-1.4,0-2,0c0-0.5,0-1,0-1.5c6.5,0,13,0,19.4,0c0-0.2,0-0.5,0.3-0.5
		c0.4,0,0.8,0,1.2,0c0,0.8,0,1.7,0,2.5c-0.4,0-0.9,0-1.3,0c0-0.2-0.1-0.3-0.1-0.5c-0.8,0-1.5,0-2.3,0c-0.2,1.3-0.4,2.6-0.5,3.9
		c1.2,0.6,2.3,1.2,3.5,1.9c-0.2,0.8-0.4,1.6-0.7,2.3c-1.3-0.7-2.6-1.4-3.8-2.1c-2.2,0.7-4.5,1.4-6.7,2.1c-0.9,1.5-1.7,3-2.6,4.5
		c-1.3,2.3-2.6,4.6-3.9,6.9c1.3,1.3,2.5,2.5,3.8,3.8c-0.8,0.4-1.6,0.8-2.4,1.1c-1.2-1.2-2.3-2.4-3.5-3.6c-2.5,0-5.1-0.1-7.6,0
		c-1.7-0.1-3.3,0-5-0.1c-1.2,1.3-2.4,2.5-3.6,3.7c-0.8-0.3-1.6-0.7-2.4-1.1c1.3-1.3,2.5-2.5,3.8-3.8c-2.2-3.8-4.3-7.6-6.5-11.4
		c-2.2-0.7-4.5-1.4-6.7-2.1c-1.3,0.7-2.6,1.4-3.9,2.1c-0.3-0.8-0.6-1.7-0.8-2.6c1.2-0.7,2.4-1.3,3.6-1.9c-0.2-1.3-0.3-2.6-0.5-3.9
		c-0.8,0-1.6,0-2.3,0c0,0.2,0,0.5-0.2,0.6c-0.4,0-0.8,0-1.2,0C22.7,50.3,22.7,49.5,22.7,48.6L22.7,48.6z"/>
	<path class="st1" d="M45.1,49.9c0-0.4,0.2-0.9,0.7-1c0.4,0,0.8,0.2,1.2,0.3c0,0.5,0,1.1,0.4,1.4c-0.1,0.5,0.1,1,0.5,1.4
		c-0.3,0.4-0.5,0.8-0.9,1.1c-0.5,0.2-0.9-0.2-1.1-0.5C45.4,51.8,45.1,50.8,45.1,49.9L45.1,49.9z"/>
	<path class="st1" d="M49.2,48.9c0.7-0.4,1.8,0.2,1.7,1c0,0.8-1,1.4-1.7,1C48.4,50.5,48.4,49.3,49.2,48.9L49.2,48.9z"/>
	<path class="st1" d="M52.4,49.2c0.4-0.1,0.8-0.3,1.2-0.4c0.5,0,0.7,0.5,0.7,1c0,1-0.3,2-0.9,2.9c-0.2,0.3-0.7,0.7-1.1,0.4
		c-0.3-0.3-0.5-0.7-0.8-1c0.3-0.4,0.6-0.9,0.5-1.4C52.4,50.3,52.4,49.8,52.4,49.2L52.4,49.2z"/>
	<path class="st2" d="M45.6,49.8c0-0.2,0.3-0.3,0.4-0.5c-0.1,0.2-0.2,0.4-0.3,0.6c0.1,0.5,0.4,0.8,0.5,1.3c0.1,0.3,0.1,0.7,0.2,1.1
		c0.1,0.3,0.4,0.3,0.6,0.5c-0.3,0-0.6,0-0.8-0.3c-0.3-0.5-0.2-1-0.5-1.5C45.8,50.5,45.5,50.2,45.6,49.8L45.6,49.8z"/>
	<path class="st2" d="M53.4,49.3c0.6,0.3,0.4,1,0.2,1.4c-0.3,0.5-0.2,1.2-0.6,1.7c-0.2,0.2-0.4,0.2-0.7,0.2c0.2-0.1,0.5-0.2,0.6-0.4
		c0.1-0.4,0.1-0.8,0.2-1.1c0.1-0.4,0.4-0.8,0.5-1.2C53.6,49.7,53.5,49.5,53.4,49.3L53.4,49.3z"/>
	<path class="st2" d="M88.2,49.4c1.4-0.3,1.6,2.2,0.2,2.3C87.2,51.7,87,49.7,88.2,49.4L88.2,49.4z"/>
	<path class="st2" d="M28.7,50.6c3.3,0,6.6,0,9.9,0c-1.2,2.1-2.4,4.1-3.6,6.2c-2-0.8-4-1.6-6-2.3C28.9,53.1,28.8,51.9,28.7,50.6
		L28.7,50.6z"/>
	<path class="st1" d="M47.7,51c0-0.3,0.4-0.3,0.6-0.4c0.3,0.5,0.7,0.8,1.2,0.9c0,0.2,0.1,0.6-0.2,0.7C48.6,52.3,47.7,51.7,47.7,51
		L47.7,51z"/>
	<path class="st1" d="M51.1,50.5c0.2,0.1,0.4,0.1,0.6,0.2c0.2,0.9-0.8,1.7-1.6,1.4c-0.3-0.1-0.2-0.5-0.2-0.7
		C50.3,51.3,50.8,51,51.1,50.5L51.1,50.5z"/>
	<path class="st2" d="M60.9,50.8c3.3,0,6.6,0,9.9,0c-0.1,1.3-0.2,2.6-0.3,3.9c-2,0.8-4,1.5-6,2.3C63.3,54.9,62.1,52.8,60.9,50.8
		L60.9,50.8z"/>
	<path class="st1" d="M47.5,53.3c0.2-0.4,0.5-0.7,0.7-1.1c0.5,0.2,1,0.3,1.5,0c0.5,0.2,1,0.2,1.5,0c0.3,0.5,0.9,0.9,0.7,1.5
		c-0.2,0.4-0.6,0.5-0.9,0.6c-1,0.2-2,0.2-2.9-0.2C47.7,54.1,47.4,53.7,47.5,53.3L47.5,53.3z"/>
	<path class="st2" d="M48.3,53.8C48,53.7,48,53.4,48,53.2c0.2,0.2,0.3,0.5,0.6,0.5c0.4,0,0.8-0.2,1.3-0.1c0.3,0,0.6,0.1,1,0.1
		c0.3,0,0.5-0.3,0.7-0.5c-0.1,0.2-0.1,0.5-0.4,0.6c-0.4,0.2-0.8,0.1-1.2,0.1C49.4,53.8,48.8,54,48.3,53.8L48.3,53.8z"/>
	<path class="st0" d="M77.3,70.7c0.5-0.4,1.3-0.4,1.8,0c-0.3,0.3-0.5,0.7-0.8,1c-0.6-0.3-1.2,0.3-1.2,0.9c0.1,0.2,0.4,0.2,0.5,0.1
		c0.6-0.4,1-1,1.7-1.2c0.6-0.2,1.3,0.3,1.5,0.9c0.2,0.5,0.1,1-0.2,1.4c-0.3,0.6-0.8,1.1-1.4,1.4c-0.5,0.2-1,0.1-1.4-0.2
		c0.3-0.3,0.5-0.7,0.8-1c0.7,0.4,1.6-0.7,1-1.2c-0.7,0.3-1.1,1-1.8,1.3c-0.7,0.3-1.6-0.3-1.7-1.1C76,71.9,76.6,71.1,77.3,70.7
		L77.3,70.7z"/>
	<path class="st0" d="M20.7,76.2c1.5-1.6,3.1-3.2,4.6-4.8c0.3,0.3,0.7,0.6,1,1c-0.3,1.7-0.7,3.3-1.1,4.9c1-1,2-2.1,3-3.1
		c0.3,0.3,0.6,0.6,0.9,0.9c-1.5,1.6-3,3.2-4.6,4.8c-0.3-0.3-0.6-0.6-1-0.9c0.4-1.7,0.8-3.4,1.1-5.1c-1.1,1-2,2.1-3.1,3.2
		C21.3,76.8,21,76.5,20.7,76.2L20.7,76.2z"/>
	<path class="st0" d="M74,74.4c0.3-0.3,0.6-0.6,0.9-0.9c1.1,1.1,2.1,2.2,3.1,3.3c-0.3,0.3-0.6,0.6-0.9,0.9c-0.1-0.1-0.3-0.2-0.4-0.4
		c0.1,0.9-0.6,1.8-1.5,1.9c-0.5,0-1-0.3-1.3-0.6c-0.7-0.7-1.4-1.4-2-2.1c0.3-0.3,0.6-0.6,0.9-0.9c0.7,0.7,1.3,1.5,2.1,2.2
		c0.6,0.5,1.5-0.4,1.1-1C75.4,75.8,74.7,75.2,74,74.4L74,74.4z"/>
	<path class="st0" d="M68.8,76.2c0.4-0.3,0.7-0.5,1.1-0.7c1.2,1.8,2.5,3.6,3.7,5.5c-0.3,0.2-0.7,0.5-1,0.7c-0.1-0.2-0.2-0.3-0.3-0.5
		c0,1.2-1.4,2-2.5,1.6c-1.2-0.4-2-1.7-1.8-3c0.2-1,1.3-1.8,2.4-1.4C69.8,77.6,69.3,76.9,68.8,76.2L68.8,76.2z"/>
	<path class="st0" d="M28.7,77.4c0.4,0.2,0.7,0.5,1.1,0.7c-0.5,0.8-1.1,1.6-1.6,2.5c-0.3,0.5,0.2,1,0.7,1c0.4,0,0.6-0.2,0.8-0.5
		c0.5-0.7,0.9-1.4,1.4-2.1c0.4,0.2,0.7,0.5,1.1,0.7c-0.8,1.3-1.7,2.5-2.5,3.8c-0.4-0.2-0.7-0.5-1-0.7c0.1-0.1,0.2-0.3,0.3-0.4
		c-0.7,0.2-1.5-0.1-2-0.7c-0.3-0.5-0.3-1.2,0.1-1.6C27.5,79.1,28.1,78.3,28.7,77.4L28.7,77.4z"/>
	<path class="st0" d="M34.1,78.4c0.4,0.2,0.8,0.4,1.2,0.6c-1,2-2,3.9-3,5.9c-0.4-0.2-0.8-0.4-1.2-0.6C32,82.3,33.1,80.3,34.1,78.4
		L34.1,78.4z"/>
	<path class="st2" d="M70,79.1c0.7-0.2,1.4,0.5,1.5,1.2c0.3,0.8-0.6,1.6-1.3,1.3c-0.6-0.2-1.1-0.9-1-1.6
		C69.2,79.6,69.6,79.2,70,79.1L70,79.1z"/>
	<path class="st0" d="M36.1,79.4c0.4,0.2,0.8,0.3,1.2,0.5c-0.9,2-1.8,4-2.6,6c-0.4-0.2-0.8-0.3-1.2-0.5
		C34.3,83.4,35.2,81.4,36.1,79.4L36.1,79.4z"/>
	<path class="st0" d="M38.2,80.5c0.5-0.3,1.1,0.1,1.1,0.7s-0.8,1-1.2,0.6C37.6,81.4,37.7,80.7,38.2,80.5L38.2,80.5z"/>
	<path class="st0" d="M63.9,82c0.2-1,1.4-1.7,2.3-1.2c0.4,0.2,0.6,0.7,0.8,1.1c0.4,0.8,0.8,1.6,1.2,2.4c-0.4,0.2-0.8,0.4-1.2,0.6
		c-0.4-0.9-0.8-1.8-1.3-2.7c-0.3-0.5-1.1-0.4-1.3,0.1c-0.1,0.3,0,0.6,0.1,0.9c0.4,0.8,0.7,1.5,1.1,2.3c-0.4,0.2-0.8,0.4-1.2,0.6
		c-0.6-1.4-1.3-2.7-1.9-4.1c0.4-0.2,0.7-0.4,1.1-0.5C63.8,81.6,63.8,81.8,63.9,82L63.9,82z"/>
	<path class="st0" d="M43.2,81.9c0.9-0.3,1.9-0.1,2.7,0.4c0.5,0.4,0.7,1.1,0.7,1.7c-0.4-0.1-0.9-0.1-1.3-0.2c0-0.8-1.1-1.1-1.7-0.8
		c-0.4,0.2-0.3,0.8,0,1c0.8,0.6,1.9,0.8,2.5,1.7c0.6,1,0,2.4-1.1,2.7c-1,0.3-2.1,0.1-2.9-0.5c-0.6-0.4-0.7-1.2-0.7-1.9
		c0.4,0.1,0.9,0.1,1.3,0.2c-0.1,1,1.3,1.5,2,1c0.3-0.2,0.3-0.6,0.1-0.8c-0.8-0.7-1.9-0.9-2.5-1.7C41.5,83.8,42.1,82.3,43.2,81.9
		L43.2,81.9z"/>
	<path class="st0" d="M37.4,82.2c0.4,0.1,0.8,0.3,1.2,0.4c-0.5,1.4-1,2.8-1.5,4.3c-0.4-0.1-0.8-0.3-1.2-0.4
		C36.4,85,36.9,83.6,37.4,82.2L37.4,82.2z"/>
	<path class="st0" d="M60.3,82.8c0.4-0.1,0.8-0.3,1.2-0.4c0.4,1.4,0.9,2.9,1.3,4.3c-0.4,0.1-0.8,0.2-1.2,0.4
		c-0.1-0.2-0.1-0.3-0.2-0.5c-0.3,0.9-1.3,1.3-2.2,1c-0.5-0.2-0.8-0.6-0.9-1.1c-0.3-1-0.6-2-0.9-2.9c0.4-0.1,0.8-0.3,1.2-0.4
		c0.3,0.9,0.5,1.8,0.8,2.8c0.1,0.4,0.6,0.6,1,0.5c0.4-0.2,0.6-0.7,0.4-1.1C60.8,84.5,60.5,83.6,60.3,82.8L60.3,82.8z"/>
	<path class="st0" d="M53.1,85.2c0.4-1.1,1.8-1.5,2.8-1.1c0.6,0.2,1,0.8,1.2,1.4c-0.4,0.1-0.9,0.2-1.3,0.2c-0.1-0.2-0.2-0.5-0.4-0.6
		c-0.4-0.3-1,0-1.1,0.5s0,1,0.2,1.5c0.2,0.4,0.6,0.6,1,0.4c0.3-0.1,0.4-0.5,0.5-0.8c0.4,0,0.8-0.1,1.2-0.1c0,0.7-0.3,1.5-1,1.8
		c-0.8,0.4-1.9,0.4-2.6-0.2C52.9,87.4,52.7,86.2,53.1,85.2L53.1,85.2z"/>
	<path class="st0" d="M47.8,85.4c0.8-1.4,3.1-1.4,3.9,0c0.3,0.5,0.4,1.1,0.3,1.7c-1.1,0-2.2,0-3.3,0c0.1,0.5,0.4,1,0.9,1
		c0.4,0.1,0.8-0.2,1-0.5c0.4,0,0.8,0.1,1.2,0.1c-0.5,1.5-2.5,1.8-3.7,1C47.3,87.9,47.2,86.4,47.8,85.4L47.8,85.4z"/>
	<path class="st2" d="M48.7,86.2c0.2-0.5,0.5-0.9,1.1-0.9c0.5,0,0.8,0.5,1,0.9C50.1,86.2,49.4,86.3,48.7,86.2L48.7,86.2z"/>
</g>
</svg>
