<?xml version="1.0" encoding="utf-8"?>
<!-- Generator: Adobe Illustrator 24.0.1, SVG Export Plug-In . SVG Version: 6.00 Build 0)  -->
<svg version="1.1" id="Layer_1" xmlns="http://www.w3.org/2000/svg" xmlns:xlink="http://www.w3.org/1999/xlink" x="0px" y="0px"
	 viewBox="0 0 882 147.9" style="enable-background:new 0 0 882 147.9;" xml:space="preserve">
<style type="text/css">
	.st0{fill:#FFFFFF;}
</style>
<g>
	<polygon class="st0" points="40,22.3 59.6,22.3 62.5,1 20.4,1 0,146.9 42.1,146.9 45,125.6 25.4,125.6 31.5,81.7 47.1,81.7 
		50,60.4 34.6,60.4 	"/>
	<polygon class="st0" points="73.1,1 52.7,146.9 91.9,146.9 94.8,125.6 78.1,125.6 95.6,1 	"/>
	<polygon class="st0" points="100.6,146.9 123.1,146.9 143.5,1 121,1 	"/>
	<polygon class="st0" points="198.7,1 152.3,1 149.4,22.1 161.2,22.1 143.7,146.9 166.4,146.9 183.7,22.1 195.8,22.1 	"/>
	<polygon class="st0" points="187.1,146.9 229.2,146.9 232.1,125.6 212.5,125.6 218.5,81.7 234.2,81.7 237.1,60.4 221.7,60.4 
		227.1,22.3 246.7,22.3 249.6,1 207.5,1 	"/>
	<path class="st0" d="M531.6,39.4l1.7-12.1c0.6-4.4,1.5-6,5.2-6h1.2c3.8,0,4,1.7,3.3,6.5l-3.3,24H561l3.7-26.7
		c2.7-19.3-1-25-18.7-25h-9.2c-17.6,0-23,5.7-25.7,25l-1.7,12.3c-2.5,19.2,1,26.7,12.1,40.4c9,11,11,15,9.6,25.2l-2.5,17.3
		c-0.6,4.8-1.5,6.5-5.2,6.5h-1.2c-3.8,0-4-1.7-3.3-6.5l4.2-29.8h-21l-4.6,32.5c-2.7,19.4,1,25,18.7,25h9c17.7,0,23.1-5.6,25.8-25
		l2.5-17.9c2.7-19.2-1.2-26.5-12.3-40.2C532.5,53.8,530.2,49.6,531.6,39.4z"/>
	<polygon class="st0" points="821.8,1 775.4,1 772.5,22.1 784.3,22.1 766.8,146.9 789.5,146.9 806.8,22.1 818.9,22.1 	"/>
	<path class="st0" d="M862.6,0h-9.2c-17.6,0-23,5.7-25.7,25L826,37.3c-2.5,19.2,1,26.7,12.1,40.4c9,11,11,15,9.6,25.2l-2.5,17.3
		c-0.6,4.8-1.5,6.5-5.2,6.5h-1.2c-3.8,0-4-1.7-3.3-6.5l4.2-29.8h-21l-4.6,32.5c-2.7,19.4,1,25,18.7,25h9c17.7,0,23.1-5.6,25.8-25
		L870,105c2.7-19.2-1.2-26.5-12.3-40.2c-8.8-11-11-15.2-9.6-25.4l1.7-12.1c0.6-4.4,1.5-6,5.2-6h1.2c3.8,0,4,1.7,3.3,6.5l-3.3,24
		h21.2l3.7-26.7c0.5-3.6,0.8-6.8,0.8-9.5v-0.1C882,3.7,876.8,0,862.6,0z"/>
	<path class="st0" d="M452.2,0h-10.9c-17.6,0-23,5.7-25.7,25l-5.7,40.7h22.4l5.4-38c0.6-4.8,1.5-6.5,5.2-6.5h1.5
		c3.8,0,4.2,1.7,3.5,6.5l-5.4,38h22.6l5.7-40.7C473.5,5.7,469.8,0,452.2,0z"/>
	<path class="st0" d="M434.8,120.2c-0.6,4.8-1.5,6.5-5.2,6.5h-1.5c-4,0-4.2-1.7-3.5-6.5l5.8-40.5H408l-6.1,43.2
		c-2.7,19.4,1,25,18.7,25h10.8c17.6,0,23-5.6,25.8-25l6.1-43.2h-22.6L434.8,120.2z"/>
	<path class="st0" d="M401,50.4l3.3-24.4c2.7-19.4-1-25-18.8-25h-32.9l-20.4,145.8h22.5l8.8-62.7h4.6c4.4,0,5,2.9,4.4,8.1l-5,37.1
		c-1,7.1-1.9,14-0.2,17.5h23.1c-1.7-5.6-1.2-12.5-0.2-19.8l4.2-29.8c2.1-14.2,0.6-21-7.3-23.5C395.6,71.2,399.1,64.6,401,50.4z
		 M381.4,28.8l-4,27.7c-0.6,5-1.2,6.5-5,6.5h-6l5.6-40.6h6C381.9,22.3,382.1,24,381.4,28.8z"/>
	<path class="st0" d="M319.4,1h-32.5l-20.4,145.8H289l7.3-52.9h10c17.7,0,22.9-5.6,25.8-25l6.2-42.9C341.2,6.7,337.1,1,319.4,1z
		 M315.2,28.8L310,66.2c-0.6,4.8-1.5,6.5-5.2,6.5h-5.4l7.1-50.4h5.4C315.6,22.3,315.8,24,315.2,28.8z"/>
	<path class="st0" d="M612,1h-32.5l-20.4,145.8h22.5l7.3-52.9h10c17.7,0,22.9-5.6,25.8-25L631,26C633.9,6.7,629.8,1,612,1z
		 M607.9,28.8l-5.2,37.5c-0.6,4.8-1.5,6.5-5.2,6.5h-5.4l7.1-50.4h5.4C608.3,22.3,608.5,24,607.9,28.8z"/>
	<path class="st0" d="M696.6,25c2.7-19.4-1-25-18.7-25h-10.7c-17.7,0-23.1,5.6-25.8,25l-6.3,48.8l0,0l-0.8,5.8l0,0l-6.1,43.2
		c-2.7,19.4,1,25,18.7,25h10.3c17.7,0,23-5.6,25.8-25l5-36.2h0.1l1-7l0,0L696.6,25z M673.6,27.7l-6.1,44.8l0,0l-0.1,1l-0.8,6.2l0,0
		l-5.4,40.5c-0.6,4.8-1.5,6.5-5.2,6.5h-1.1c-4,0-4.2-1.7-3.5-6.5l5.4-40.5l0,0l6.8-52c0.6-4.8,1.5-6.5,5.2-6.5h1.3
		C673.8,21.2,674.2,22.9,673.6,27.7z"/>
	<path class="st0" d="M744.3,1h-32.9L691,146.9h22.5l8.8-62.7h4.6c4.4,0,5,2.9,4.4,8.1l-5,37.1c-1,7.1-1.9,14-0.2,17.5h23.1
		c-1.7-5.6-1.2-12.5-0.2-19.8l4.2-29.8c2.1-14.2,0.6-21-7.3-23.5c8.5-2.5,12.1-9.2,14-23.3l3.3-24.4C765.8,6.7,762,1,744.3,1z
		 M740.2,28.8l-4,27.7c-0.6,5-1.2,6.5-5,6.5h-6l5.6-40.6h6C740.6,22.3,740.8,24,740.2,28.8z"/>
</g>
</svg>
