<?xml version="1.0" encoding="utf-8"?>
<!-- Generator: Adobe Illustrator 24.0.1, SVG Export Plug-In . SVG Version: 6.00 Build 0)  -->
<svg version="1.1" id="Layer_1" xmlns="http://www.w3.org/2000/svg" xmlns:xlink="http://www.w3.org/1999/xlink" x="0px" y="0px"
	 viewBox="0 0 750 400" style="enable-background:new 0 0 750 400;" xml:space="preserve">
<style type="text/css">
	.st0{fill:#FFBB00;}
	.st1{fill:#0060B5;}
</style>
<g>
	<g>
		<path class="st0" d="M270.4,107.9c0.1,0.1,0.1,0.1,0.2,0.1c0.9,0.4,1,1.1,1,2c-0.3,4.5-1.3,8.8-3.5,12.8c-1.4,2.4-3.1,4.5-5.2,6.4
			c-0.2,0.2-0.4,0.4-0.6,0.5c0.1,0.2,0.1,0.4,0.2,0.5c0.5,1.5,0.4,2.8-0.7,4c-1.3,1.4-2.9,2.1-4.7,2.5c-2.9,0.6-5.8,0.3-8.4-1.1
			c-0.6-0.3-1.1-0.8-1.6-1.2c-1.2-1.2-1.5-2.7-0.8-4.3c0.1-0.3,0.1-0.5-0.1-0.7c-5-4.3-7.8-9.7-8.7-16.1c-0.1-1-0.1-2.1-0.4-3.1
			c-0.3-1.5-0.1-3.1-0.1-4.6c0-0.2,0.1-0.5,0.2-0.5c0.4-0.1,0.4-0.5,0.4-0.8c0-1.2,0-2.4,0-3.7c0-0.2,0-0.4,0-0.5
			c-0.2,0-0.4,0-0.6,0c0-1.4,0-2.8,0-4.2c0.2,0,0.4,0,0.5,0c7,0,13.9,0,20.9,0c0.4,0,0.7,0.2,1.2,0.4c0.4-0.5,1-0.4,1.6-0.4
			c0.8,0,1.5,0,2.3,0c0.6,0,1.1,0,1.5,0.6c0.5-0.7,1.1-0.6,1.7-0.6c1,0,2,0,3.1,0c0.2,0,0.5,0.1,0.6,0.3c1.3,1.4,1.2,1.4,1.2,3.3
			c0,0.5,0,1,0,1.6c0,0.1-0.1,0.3-0.2,0.4c0,0.3,0.1,0.7,0.1,1c0,1.3,0,2.7,0,4c0,0.4-0.1,0.7-0.5,0.9
			C271,107.5,270.7,107.7,270.4,107.9z M249.6,108.7c0,0,0,0.1-0.1,0.1c0.2,0.1,0.4,0.3,0.6,0.5c0.2,0.2,0.4,0.5,0.5,0.7
			c-0.2,0-0.3-0.1-0.4-0.1c-1-0.7-1.9-0.4-2.3,0.8c-0.1,0.2-0.1,0.5-0.2,0.7c0,0.3,0,0.7-0.1,1.1c-0.1-0.2-0.1-0.4-0.2-0.5
			c0,0-0.1,0-0.1,0c-0.6,1.4-1.2,2.8-1.7,4.1c-0.1,0.4-0.1,1-0.1,1.4c0,0.6,0.5,1,1,1.1c-0.9-1-0.7-2.6,0.3-3.5
			c-0.2,1-0.6,1.9,0.2,3c0-0.5-0.1-0.8-0.1-1.1c0.3,0.4,0.5,0.7,0.7,1c0.1,0.1,0.3,0.2,0.3,0.1c0.4-0.3,0.8-0.5,1-0.9
			c0.3-0.4,0.5-0.8,1-1c0.3-0.1,0.6-0.2,1.1-0.4c-0.3-0.6-0.6-1.1-0.9-1.7c0.2,0.1,0.4,0.3,0.7,0.5c-0.5-1-1.2-1.5-2.2-1.9
			c0.1,0,0.2-0.1,0.3-0.1c-0.6-0.6-0.8-1.2-0.2-1.9c-0.1-0.1-0.2-0.1-0.4-0.2c0.5-0.3,0.9-0.2,1.2,0.2c0.3,0.4,0.5,0.8,0.6,1.2
			c0.3,0.7,0.6,1.4,1.5,1.5c-0.2,0-0.5,0.1-0.6,0.2c0.3,0.7,0.6,1.3,1,2c0.1-0.2,0.3-0.4,0.5-0.7c0,0.4,0,0.7-0.1,1
			c0.5,0.3,1.1,0.5,1.1,1.3c0,0.4-0.2,0.5-0.6,0.7c0.3-0.6,0.1-1-0.5-1.3s-1.3-0.2-1.9,0c-0.5,0.2-0.8,0.5-0.9,1
			c-0.1,0.5,0.4,0.7,0.7,0.9c0,0,0,0,0,0.2c-0.5-0.2-0.9-0.5-1.4-0.7c-0.8,0.6-1.4,1.5-1.8,2.6c0-0.2,0-0.5,0-0.7c0,0-0.1,0-0.1,0
			c-0.1,0.4-0.4,0.9-0.5,1.3c-0.3,1.4,0.4,2.6,1.7,2.9c0.5,0.1,1.2,0.1,1.8,0c1.9-0.4,3.6-1.4,3.9-3.8c0,0,0-0.1,0.1-0.1
			c0.5,2.6,2.5,4.3,5.2,4c1-0.1,1.8-0.5,2.2-1.5c0.4-1,0.1-2-0.5-2.9c0,0.2,0,0.5,0,0.7c-0.3-1.1-0.9-1.9-1.7-2.6
			c-0.5,0.2-0.9,0.4-1.2,0.6c0.2-0.4,0.5-0.7,0.5-1c0-0.5-0.4-0.8-0.8-1c-0.5-0.1-1-0.2-1.5-0.2c-0.3,0-0.7,0.2-1,0.4
			c-0.2,0.2-0.1,0.6-0.2,1c-0.3-0.1-0.5-0.4-0.4-0.8c0-0.7,0.5-1,1.1-1.2c0-0.3,0-0.6,0-0.9c0.2,0.2,0.3,0.4,0.5,0.5
			c0.4-0.7,0.7-1.4,1-2c-0.2,0-0.4-0.1-0.7-0.2c0.7,0,1.1-0.5,1.4-1c0.1-0.3,0.2-0.6,0.3-0.8c0.2-0.4,0.4-0.7,0.7-1s0.9-0.2,1,0
			c-0.1,0-0.2,0.1-0.3,0.2c0.5,0.8,0.4,1.1-0.2,1.9c0,0,0.1,0.1,0.2,0.1c-1,0.3-1.7,0.9-2.2,1.8c0.3-0.2,0.5-0.3,0.7-0.5
			c-0.4,0.5-0.8,1-0.8,1.8c0.1,0,0.2,0,0.3,0.1c0.7,0.2,1.3,0.5,1.7,1.3c0.1,0.4,0.6,0.7,1,0.7c0.2,0,0.5-0.5,0.8-0.7
			c0.1-0.1,0.1-0.2,0.1-0.4c0,0,0,0,0.1,0c0,0.4-0.1,0.7-0.1,1c0.8-1,0.4-1.9,0.1-3c0.9,1,1.4,2.6,0.3,3.7c0.1,0,0.2,0,0.2,0
			c0.6-0.3,0.9-0.8,0.9-1.7c-0.1-1.9-1.1-3.4-1.9-5c-0.1,0.2-0.1,0.3-0.2,0.5c0-0.5,0-0.8,0-1.1c0-0.3-0.1-0.7-0.3-1
			c-0.4-0.8-1.1-1-1.9-0.6c-0.2,0.1-0.3,0.2-0.5,0.3c0,0,0,0-0.1-0.1c0.2-0.2,0.3-0.5,0.5-0.6s0.4-0.3,0.5-0.4c0,0,0-0.1-0.1-0.1
			c0.1,0,0.3,0,0.5-0.1c-0.9-0.7-1.8-1.2-2.8-1.6c-0.8-0.3-1.7-0.4-2.3,0.1c-0.5,0-1-0.2-1.5-0.2c-1.5,0.1-2.6,0.9-3.8,1.7
			c0,0,0.1,0.1,0.1,0.1C249.4,108.7,249.5,108.7,249.6,108.7z M261.8,128.3c0.1-0.1,0.3-0.2,0.4-0.3c5.4-4.9,7.7-11.2,8-18.3
			c0-0.1-0.1-0.4-0.2-0.5c-2.3-1.6-4.6-3.2-7.4-3.9c-8.5-2.3-16.5-1.4-23.8,3.9c-0.3,0.2-0.4,0.4-0.4,0.7c0.2,3.2,0.7,6.3,1.9,9.2
			c1,2.7,2.5,5.2,4.5,7.3c0.6,0.7,1.3,1.3,1.9,1.9c0.2-0.5,0.3-1,0.5-1.5c0.1-0.2,0-0.4-0.1-0.5c-0.8-0.8-1.5-1.6-2.2-2.5
			c-3-3.9-4.3-8.4-4.7-13.2c0-0.1,0.1-0.4,0.2-0.5c2.2-1.5,4.6-2.9,7.2-3.8c0.3-0.1,0.6-0.3,0.9-0.5c1.7-1.1,3.4-1.6,5.4-0.8
			c0.2,0.1,0.6,0.1,0.8,0c2-0.8,3.9-0.3,5.6,0.9c0.2,0.1,0.4,0.2,0.6,0.3c2.6,1,5.1,2.3,7.3,3.9c0.1,0.1,0.3,0.4,0.2,0.5
			c-0.2,2.8-0.8,5.6-1.8,8.2c-1.1,2.8-2.8,5.3-5,7.4c-0.1,0.1-0.3,0.4-0.2,0.5C261.5,127.3,261.7,127.8,261.8,128.3z M241.8,98.7
			c0,0.6,0,1.1,0,1.6c0,0.1-0.1,0.3-0.2,0.3c-0.4,0.1-0.8,0.2-1.3,0.2c0-0.7,0-1.4,0-1.9c0.2-0.1,0.5-0.3,0.5-0.4c0-0.5,0-1,0-1.4
			c-1,0-1.9,0-2.9,0c0,0.6,0,1.2,0,1.9c0.2,0,0.4,0,0.6,0c0,0.2,0,0.3,0,0.5c0,1.9,0,3.8,0,5.7c0,0.3,0,0.6-0.4,0.7
			c-0.1,0-0.2,0.2-0.2,0.3c0,0.5,0,1,0,1.6c1-0.5,1.9-1,2.7-1.5c0.1,0,0.1-0.1,0.1-0.2c0-0.5,0-0.9,0-1.4c-0.2,0.1-0.4,0.1-0.6,0.2
			c0-0.7,0-1.4,0-2c0-0.1,0.1-0.2,0.1-0.2c0.4-0.1,0.9-0.2,1.4-0.4c0,0.6,0,1,0,1.5c0,0.4,0,0.7-0.5,0.7c-0.1,0-0.2,0.1-0.2,0.2
			c0,0.5,0,0.9,0,1.4c1-0.4,1.8-0.8,2.7-1.1c0.1,0,0.2-0.2,0.2-0.3c0-0.4,0-0.7,0-1.1c-0.2,0-0.4,0-0.5,0.1c0-1.7,0-3.4,0-5.1
			c0.2,0,0.4,0,0.5-0.1c0-0.5,0-0.9,0-1.3c-1,0-1.9,0-2.9,0c0,0.3,0,0.5,0,0.8c0,0.3,0,0.5,0,0.8C241.4,98.7,241.6,98.7,241.8,98.7z
			 M265.3,102.7c0,0.3,0,0.5,0,0.8c0,0.9,0.6,1.8,1.4,2.1c0.9,0.4,1.8,0.8,2.7,1.2c0.5,0.2,1.1-0.2,1.2-0.7c0-1.2,0-2.4,0-3.7
			c0-0.5-0.7-1.4-1.2-1.5c-0.7-0.1-1.3-0.2-2-0.4c-0.1,0-0.4-0.2-0.4-0.3c0-0.5,0-1.1,0-1.7c0.7,0,1.3,0.1,1.9,0.1
			c0,0.4,0,0.7,0,1.1c0.6,0.1,1.1,0.2,1.7,0.3c0-0.4,0-0.7,0-1c0.1-0.8-0.2-1.4-0.7-1.8c-0.1-0.1-0.3-0.2-0.5-0.2c-1,0-2,0-3.1,0
			c-0.5,0-1.1,0.6-1.1,1.1c0,0.8,0,1.5,0,2.3c0,0.7,0.5,1.4,1.2,1.5c0.8,0.2,1.6,0.4,2.4,0.6c0,0.8,0,1.5,0,2.3
			c-0.5-0.2-0.9-0.4-1.3-0.5c-0.5-0.1-0.7-0.4-0.6-0.9c0-0.1-0.1-0.4-0.2-0.5C266.3,103,265.8,102.8,265.3,102.7z M264.7,101
			c0-1,0-1.9,0-2.8c0-0.5-0.6-1.1-1-1.1c-1,0-2,0-3,0c-0.5,0-1,0.5-1,1.1c0,1.5,0,2.9,0,4.3c0,0.5,0.4,1,0.9,1.2
			c1.1,0.3,2.2,0.6,3.3,0.9c0.5,0.1,1-0.3,1-0.8C264.7,102.8,264.7,101.9,264.7,101z M250.6,100.7c0.5,0,1-0.1,1.5-0.1
			c1,0,1.4-0.5,1.4-1.4c0-0.3,0-0.5,0-0.8c0.1-0.5-0.1-0.9-0.6-1.1c-0.2-0.1-0.4-0.2-0.6-0.2c-1.2,0-2.4,0-3.5,0c-0.1,0-0.3,0-0.5,0
			c0,0.4,0,0.8,0,1.1c0.2,0,0.4,0,0.5,0c0,1.4,0,2.7,0,4.1c-0.6,0.2-0.7,0.3-0.5,1.3c1-0.1,1.9-0.3,2.9-0.5c0-0.4,0-0.7,0-1
			c-0.2,0-0.4,0-0.5,0C250.6,101.6,250.6,101.2,250.6,100.7z M254.6,98.2c0,1.3,0,2.5,0,3.8c-0.2,0-0.4,0-0.5,0.1c0,0.4,0,0.6,0,1
			c1,0,1.9,0,2.9,0c0.2-0.9,0.1-0.9-0.5-1c0-0.5,0-1,0-1.5c0.5,0,1,0,1.5,0.1c1,0,1.4-0.4,1.4-1.4c0-0.4,0-0.7,0-1
			c0-0.8-0.5-1.2-1.3-1.2c-1.1,0-2.3,0-3.4,0c-0.2,0-0.4,0-0.5,0c0,0.4,0,0.7,0,1C254.3,98.2,254.5,98.2,254.6,98.2z M245.6,108.7
			c0,0-0.1-0.1-0.2-0.1c-1.1,0.7-2.3,1.4-3.4,2c-0.5,0.3-0.6,0.6-0.5,1.1c0.4,1.6,0.6,3.3,1,5c0.4,1.5,1,2.8,1.8,4.1
			c-0.2-0.9-0.5-1.7-0.6-2.5c-0.5-3.1,0.1-6.1,1.6-8.9C245.5,109.1,245.6,108.9,245.6,108.7z M263.1,108.6c-0.1,0-0.1,0-0.2,0.1
			c2.1,3.9,2.8,7.9,1.4,12.1c0.6-1.1,1.2-2.3,1.5-3.4c0.5-1.9,0.8-3.8,1.3-5.6c0.1-0.5,0-1-0.5-1.2c-0.4-0.2-0.8-0.5-1.1-0.7
			C264.6,109.5,263.8,109.1,263.1,108.6z M245.2,98.4c0,1.5,0,3,0,4.6c0,0.1-0.2,0.2-0.3,0.3c-0.1,0.1-0.3,0.2-0.3,0.3
			c0,0.3,0,0.7,0,1.1c0.7-0.2,1.4-0.4,2-0.6c1-0.3,1-0.3,0.9-1.3c0,0,0,0,0,0c-0.2,0-0.3,0-0.5,0c0-1.5,0-2.9,0-4.4
			c0.2,0,0.4,0,0.5,0c0-0.4,0-0.8,0-1.1c-1,0-1.9,0-2.8,0c0,0.5,0,0.9,0,1.3C244.8,98.4,244.9,98.4,245.2,98.4z M248.6,108.4
			c0.4-0.3,0.7-0.6,1.1-0.8c0.9-0.6,1.8-1.1,2.8-1.3c0.6-0.1,1.2,0.2,1.7,0.2s1.1-0.3,1.7-0.2c1,0.2,1.9,0.7,2.7,1.3
			c0.4,0.3,0.8,0.6,1.2,0.9c0.2-0.4,0.5-0.7,0.7-1.1c-0.2-0.2-0.3-0.3-0.5-0.5c-1.7-1.4-3.5-2-5.7-1c-0.1,0-0.3,0-0.5,0
			c-2-1-4.5-0.2-6,1.5c0.1,0.2,0.3,0.5,0.4,0.7C248.5,108.2,248.6,108.3,248.6,108.4z M254.3,124.9c-0.1-0.5-0.5-0.6-0.8-0.5
			c-0.5,0.1-0.9,0.6-1,1.2c0,1,0.2,1.9,0.9,2.8c0.6,0.8,1.3,0.8,1.9,0c0.5-0.8,0.8-1.6,0.9-2.6c0-0.6-0.3-1-0.7-1.2
			C254.9,124.2,254.6,124.3,254.3,124.9z M248.2,108.7c-0.1,0.3-0.2,0.5-0.3,0.5c-0.1-0.5-0.2-1-0.5-1.5s-0.6-0.4-0.9,0
			c-0.5,0.8-0.3,1.5,0.5,1.9c0,0.5,0.5,1.2-0.1,1.7c0.2-0.8-0.4-1.1-0.8-1.6c-1.1,2.3-1.8,4.6-1.5,7.3c0.1-0.2,0.1-0.2,0.2-0.3
			c0.5-1.9,1.4-3.8,2.5-5.4c0.1-0.1,0.1-0.2,0.1-0.4c0-0.9,0.3-1.6,1.1-2C248.4,108.9,248.3,108.8,248.2,108.7z M260,109
			c0.8,0.5,1.1,1.1,1.1,2c0,0.2,0.1,0.4,0.2,0.5c0.9,1.5,1.7,2.9,2.2,4.5c0.1,0.3,0.2,0.6,0.3,1c0.3-2.5-0.4-5.7-1.5-7.3
			c-0.3,0.5-0.6,1-0.9,1.4c-0.5-0.4,0.1-1,0-1.3c0.3-0.4,0.6-0.6,0.8-1c0.2-0.4-0.2-1.3-0.5-1.4c-0.3-0.1-0.7,0.3-0.9,0.9
			c-0.1,0.3-0.1,0.6-0.1,1c-0.1-0.3-0.2-0.5-0.3-0.7C260.3,108.8,260.2,108.9,260,109z M257.2,135.6c-0.6-0.2-1.2-0.4-1.8-0.7
			c-0.7-0.3-1.5-0.3-2.2,0c-0.6,0.3-1.3,0.5-1.9,0.7C252.5,136.7,256.1,136.7,257.2,135.6z M259.5,131.3c0.2,0.1,0.4,0.2,0.7,0.3
			s0.4,0,0.5-0.3c0.4-1.7,0.4-3.4-0.3-5c0-0.1-0.1-0.2-0.2-0.4c0,0.2,0,0.2,0,0.3c0,1.5-0.3,2.9-1.2,4.3c-0.1,0.1,0,0.3,0,0.5
			c0,0,0.1,0,0.2,0c0.3-0.5,0.6-1,0.9-1.4c0,0,0,0,0.1,0C259.9,130.1,259.7,130.7,259.5,131.3z M248.5,129.6
			C248.5,129.6,248.6,129.6,248.5,129.6c0.4,0.5,0.7,1,1,1.5c0.1-0.2,0.2-0.3,0.3-0.4c0,0-0.1,0-0.1,0c-0.3-0.8-0.7-1.5-0.9-2.3
			c-0.2-0.8-0.3-1.6-0.4-2.4c0,0,0,0-0.1,0.1c0,0.1-0.1,0.3-0.2,0.4c-0.5,1.5-0.5,3.1-0.2,4.7c0.1,0.5,0.3,0.5,0.7,0.4
			c0.2-0.1,0.4-0.2,0.5-0.2C248.9,130.7,248.7,130.1,248.5,129.6z M256.8,133.4c-0.2-0.5-0.4-0.9-0.5-1.3c-0.1-0.6-0.2-1.3-0.3-2
			c0-0.4-0.4-0.7-0.7-0.6c-0.4,0-0.3,0.3-0.3,0.5c0,0.2,0,0.4,0,0.6c0,0,0,0-0.1,0c0-0.2-0.1-0.5-0.2-0.8
			C254.5,131.1,255.4,132.8,256.8,133.4z M253.7,130.6c0,0-0.1,0-0.1,0c0-0.3,0-0.5,0-0.8c0-0.1-0.2-0.3-0.3-0.3
			c-0.4,0-0.7,0.3-0.7,0.7c0,1-0.2,2-0.7,2.9c0,0.1,0,0.2-0.1,0.3c1.3-0.6,2.4-2.4,2-3.6C253.8,130.1,253.7,130.4,253.7,130.6z
			 M251.2,130.8c0.5-0.1,1-0.7,1-1.2c0-0.4-0.3-0.4-0.5-0.4c-0.2,0-0.4,0-0.4,0.4C251.3,130,251.2,130.4,251.2,130.8z M257.4,130.8
			c0-0.2-0.1-0.4-0.1-0.5c0-0.2,0-0.4,0-0.6c0-0.1,0-0.3-0.1-0.4c-0.2,0-0.4,0-0.6,0c-0.1,0-0.2,0.2-0.2,0.4
			C256.4,130.1,256.9,130.7,257.4,130.8z M251.1,126.4C251.2,126.3,251.2,126.3,251.1,126.4c0-0.5,0-1,0-1.5c-0.3,0-0.5,0.1-0.9,0.2
			C250.6,125.6,250.9,126,251.1,126.4z M257.4,124.9c0,0.5,0,1-0.1,1.5c0,0,0,0,0.1,0c0.3-0.4,0.5-0.9,0.8-1.3
			C257.9,125,257.6,124.9,257.4,124.9z M258.6,112.6c0.8-0.5,1-1,0.7-1.6C259,111.6,258.8,112,258.6,112.6z M250,112.6
			c-0.2-0.6-0.5-1.1-0.7-1.7C249,111.7,249.1,112,250,112.6z"/>
		<path class="st1" d="M249.6,108.7c-0.1,0-0.2,0-0.4,0c0,0,0,0-0.1-0.1c1.1-0.9,2.3-1.6,3.8-1.7c0.5,0,0.9,0.2,1.5,0.3
			c0.6-0.5,1.5-0.4,2.3-0.1c1,0.3,1.9,0.9,2.8,1.6c-0.2,0-0.4,0-0.5,0.1c0,0,0,0.1,0.1,0.1c-0.2,0.1-0.4,0.3-0.5,0.4
			c-0.2,0.2-0.4,0.4-0.5,0.6c0,0,0,0,0.1,0.1c0.1-0.1,0.3-0.2,0.5-0.3c0.8-0.5,1.5-0.2,1.9,0.6c0.1,0.3,0.2,0.6,0.3,1
			c0,0.3,0,0.7,0,1.1c0.1-0.2,0.1-0.3,0.2-0.5c0.8,1.6,1.8,3.2,1.9,5c0,0.9-0.2,1.4-0.9,1.7c0,0-0.1,0-0.2,0c1-1,0.5-2.6-0.3-3.7
			c0.3,1,0.6,2-0.1,3c0-0.4,0.1-0.7,0.1-1c0,0,0,0-0.1,0c0,0.1,0,0.3-0.1,0.4c-0.2,0.3-0.5,0.8-0.8,0.7c-0.4-0.1-0.9-0.4-1-0.7
			c-0.3-0.8-1-1.1-1.7-1.3c-0.1,0-0.2,0-0.3-0.1c0-0.7,0.4-1.2,0.8-1.8c-0.2,0.1-0.5,0.3-0.7,0.5c0.5-1,1.2-1.5,2.2-1.8
			c0-0.2,0-0.2-0.1-0.2c0.6-0.8,0.7-1.1,0.2-1.9c0.1,0,0.2-0.1,0.3-0.2c-0.1-0.2-0.7-0.3-1,0s-0.5,0.6-0.7,1
			c-0.1,0.3-0.2,0.5-0.3,0.8c-0.3,0.5-0.6,1-1.4,1c0.2,0.1,0.5,0.1,0.7,0.2c-0.3,0.6-0.6,1.3-1,2c-0.1-0.1-0.3-0.3-0.5-0.5
			c0,0.3,0,0.6,0,0.9c-0.5,0.2-1,0.5-1.1,1.2c0,0.4,0.2,0.7,0.4,0.8c0-0.3,0-0.7,0.2-1c0.2-0.2,0.6-0.4,1-0.4c0.5,0,1,0.1,1.5,0.2
			c0.5,0.1,0.9,0.5,0.8,1c0,0.4-0.4,0.7-0.5,1c0.4-0.2,0.8-0.4,1.2-0.6c0.8,0.6,1.4,1.5,1.7,2.6c0-0.2,0-0.5,0-0.7
			c0.6,0.9,0.9,1.8,0.5,2.9c-0.4,1-1.2,1.4-2.2,1.5c-2.6,0.2-4.7-1.4-5.2-4c0,0-0.1,0.1-0.1,0.1c-0.4,2.4-2,3.4-3.9,3.8
			c-0.6,0.1-1.2,0.1-1.8,0c-1.3-0.3-2-1.5-1.7-2.9c0.1-0.5,0.3-0.9,0.5-1.3c0,0,0.1,0,0.1,0c0,0.2,0,0.5,0,0.7c0.4-1.1,1-2,1.8-2.6
			c0.5,0.2,0.9,0.5,1.4,0.7c0-0.1,0-0.2,0-0.2c-0.3-0.2-0.8-0.4-0.7-0.9c0.1-0.5,0.5-0.9,0.9-1c0.6-0.2,1.3-0.3,1.9,0
			c0.7,0.2,0.9,0.6,0.5,1.3c0.4-0.1,0.6-0.3,0.6-0.7c0-0.8-0.6-1-1.1-1.3c0-0.3,0-0.5,0.1-1c-0.2,0.3-0.4,0.5-0.5,0.7
			c-0.3-0.7-0.7-1.4-1-2c0.1,0,0.4-0.1,0.6-0.2c-1-0.1-1.3-0.8-1.5-1.5c-0.2-0.4-0.4-0.8-0.6-1.2c-0.3-0.4-0.7-0.5-1.2-0.2
			c0.1,0.1,0.2,0.1,0.4,0.2c-0.6,0.7-0.4,1.3,0.2,1.9c-0.1,0-0.2,0.1-0.3,0.1c1,0.3,1.8,0.8,2.2,1.9c-0.3-0.2-0.5-0.3-0.7-0.5
			c0.3,0.5,0.6,1.1,0.9,1.7c-0.5,0.2-0.8,0.3-1.1,0.4c-0.5,0.2-0.7,0.5-1,1c-0.2,0.4-0.7,0.6-1,0.9c0,0-0.3,0-0.3-0.1
			c-0.3-0.4-0.5-0.7-0.7-1.1c0,0.4,0.1,0.7,0.1,1.1c-0.8-1-0.4-2-0.2-3c-1,1-1.2,2.5-0.3,3.5c-0.5-0.1-1-0.5-1-1.1
			c0-0.5,0-1,0.1-1.4c0.5-1.4,1.1-2.8,1.7-4.1c0,0,0.1,0,0.1,0c0,0.1,0.1,0.3,0.2,0.5c0-0.4,0-0.8,0.1-1.1c0-0.2,0.1-0.5,0.2-0.7
			c0.4-1.2,1.3-1.5,2.3-0.8c0.1,0,0.2,0.1,0.4,0.1c-0.2-0.2-0.3-0.5-0.5-0.7S249.8,109,249.6,108.7
			C249.6,108.8,249.6,108.7,249.6,108.7z M251.7,109.4c0.9-0.4,1.7-0.7,2.5,0c0.7-0.5,1-0.5,2.5,0c-0.6-0.7-1.5-1-2.3-0.7
			c-0.1,0-0.3,0-0.4,0C253.1,108.3,252.4,108.7,251.7,109.4z M255.9,112c-0.1-0.8-0.8-1.3-1.6-1.3c-0.9,0-1.5,0.5-1.6,1.3
			C253.5,111,254.8,110.8,255.9,112z M251.4,117.8c0.4-0.2,0.7-0.4,1.1-0.7c-0.6-0.3-1.4-0.2-1.7,0c-0.1,0.1-0.3,0.3-0.2,0.4
			c0,0.1,0.2,0.3,0.4,0.3c0.2,0,0.5,0,0.8,0C251.6,117.9,251.5,117.9,251.4,117.8z M256.9,117.9c0.2,0,0.3,0,0.5,0s0.3,0,0.4,0
			c0.3-0.1,0.5-0.4,0.2-0.6c-0.4-0.4-1.3-0.5-1.9-0.1c0.4,0.2,0.8,0.4,1.1,0.6C257.1,117.9,257,117.9,256.9,117.9z"/>
		<path class="st1" d="M261.8,128.3c-0.2-0.5-0.3-1-0.5-1.5c0-0.1,0.1-0.4,0.2-0.5c2.2-2.1,3.9-4.6,5-7.4c1.1-2.6,1.6-5.4,1.8-8.2
			c0-0.2-0.1-0.4-0.2-0.5c-2.3-1.6-4.7-2.9-7.3-3.9c-0.2-0.1-0.4-0.2-0.6-0.3c-1.7-1.2-3.5-1.7-5.6-0.9c-0.2,0.1-0.6,0.1-0.8,0
			c-1.9-0.8-3.8-0.3-5.4,0.8c-0.3,0.2-0.6,0.4-0.9,0.5c-2.6,1-4.9,2.3-7.2,3.8c-0.1,0.1-0.3,0.3-0.2,0.5c0.4,4.9,1.7,9.3,4.7,13.2
			c0.7,0.9,1.5,1.7,2.2,2.5c0.2,0.2,0.2,0.3,0.1,0.5c-0.2,0.5-0.3,1-0.5,1.5c-0.7-0.7-1.4-1.3-1.9-1.9c-2-2.2-3.5-4.6-4.5-7.3
			c-1.1-2.9-1.7-6-1.9-9.2c0-0.3,0.1-0.5,0.4-0.7c7.3-5.3,15.3-6.2,23.8-3.9c2.8,0.8,5.1,2.3,7.4,3.9c0.1,0.1,0.2,0.3,0.2,0.5
			c-0.3,7.1-2.6,13.4-8,18.3C262.1,128.1,262,128.2,261.8,128.3z"/>
		<path class="st1" d="M241.8,98.7c-0.2,0-0.4,0-0.6,0c0-0.3,0-0.5,0-0.8s0-0.5,0-0.8c1,0,1.9,0,2.9,0c0,0.5,0,0.9,0,1.3
			c-0.2,0-0.3,0-0.5,0.1c0,1.7,0,3.4,0,5.1c0.2,0,0.3,0,0.5-0.1c0,0.4,0,0.8,0,1.1c0,0.1-0.1,0.2-0.2,0.3c-0.9,0.4-1.7,0.7-2.7,1.1
			c0-0.5,0-1,0-1.4c0-0.1,0.1-0.2,0.2-0.2c0.5-0.1,0.5-0.4,0.5-0.7c0-0.5,0-1,0-1.5c-0.5,0.1-0.9,0.2-1.4,0.4
			c-0.1,0-0.1,0.1-0.1,0.2c0,0.7,0,1.3,0,2c0.2,0,0.4-0.1,0.6-0.2c0,0.5,0,1,0,1.4c0,0.1-0.1,0.2-0.1,0.2c-0.9,0.5-1.8,1-2.7,1.5
			c0-0.6,0-1.1,0-1.6c0-0.1,0.1-0.3,0.2-0.3c0.4-0.1,0.4-0.4,0.4-0.7c0-1.9,0-3.8,0-5.7c0-0.1,0-0.3,0-0.5c-0.2,0-0.4,0-0.6,0
			c0-0.6,0-1.2,0-1.9c1,0,1.9,0,2.9,0c0,0.5,0,1,0,1.4c0,0.1-0.3,0.2-0.5,0.4c0,0.6,0,1.2,0,1.9c0.5-0.1,0.9-0.1,1.3-0.2
			c0.1,0,0.2-0.2,0.2-0.3C241.8,99.8,241.8,99.3,241.8,98.7z"/>
		<path class="st1" d="M265.3,102.7c0.5,0.1,1,0.3,1.5,0.4c0.1,0,0.2,0.3,0.2,0.5c0,0.5,0.1,0.7,0.6,0.9c0.5,0.1,0.9,0.3,1.3,0.5
			c0-0.8,0-1.5,0-2.3c-0.8-0.2-1.6-0.4-2.4-0.6c-0.6-0.2-1.2-0.9-1.2-1.5c0-0.8,0-1.5,0-2.3c0-0.5,0.6-1.1,1.1-1.1c1,0,2,0,3.1,0
			c0.1,0,0.3,0.1,0.5,0.2c0.5,0.5,0.8,1,0.7,1.8c0,0.3,0,0.6,0,1c-0.6-0.1-1.1-0.2-1.7-0.3c0-0.4,0-0.7,0-1.1
			c-0.6,0-1.3-0.1-1.9-0.1c0,0.6,0,1.2,0,1.7c0,0.1,0.2,0.3,0.4,0.3c0.7,0.1,1.3,0.3,2,0.4c0.5,0.1,1.2,0.9,1.2,1.5
			c0,1.2,0,2.4,0,3.7c0,0.5-0.7,0.9-1.2,0.7c-0.9-0.4-1.8-0.8-2.7-1.2c-0.8-0.4-1.4-1.2-1.4-2.1C265.3,103.3,265.3,103,265.3,102.7z
			"/>
		<path class="st1" d="M264.7,101c0,0.9,0,1.9,0,2.8c0,0.5-0.5,0.9-1,0.8c-1.1-0.3-2.2-0.5-3.3-0.9c-0.5-0.1-0.9-0.6-0.9-1.2
			c0-1.5,0-2.9,0-4.3c0-0.5,0.6-1.1,1.1-1.1c1,0,2,0,3,0c0.5,0,1,0.6,1,1.1C264.7,99.1,264.7,100.1,264.7,101z M261.3,98.3
			c0,1.5,0,2.8,0,4.1c0,0.1,0.1,0.3,0.2,0.3c0.5,0.1,1,0.2,1.5,0.3c0-1.6,0-3.1,0-4.7C262.5,98.4,261.9,98.3,261.3,98.3z"/>
		<path class="st1" d="M250.6,100.7c0,0.5,0,1,0,1.5c0.2,0,0.4,0,0.5,0c0,0.3,0,0.6,0,1c-1,0.1-1.9,0.3-2.9,0.5
			c-0.2-1-0.1-1.1,0.5-1.3c0-1.4,0-2.7,0-4.1c-0.2,0-0.4,0-0.5,0c0-0.4,0-0.7,0-1.1c0.2,0,0.3,0,0.5,0c1.2,0,2.4,0,3.5,0
			c0.2,0,0.4,0,0.5,0.1c0.5,0.2,0.7,0.6,0.6,1.1c0,0.3,0,0.5,0,0.8c0,0.9-0.5,1.4-1.4,1.4C251.6,100.6,251.1,100.6,250.6,100.7z
			 M250.6,98.2c0,0.5,0,0.9,0,1.4c0.4,0,0.7,0,1,0c0-0.5,0-0.9,0-1.3C251.2,98.2,250.9,98.2,250.6,98.2z"/>
		<path class="st1" d="M254.6,98.2c-0.2,0-0.3,0-0.5,0c0-0.3,0-0.6,0-1c0.2,0,0.3,0,0.5,0c1.1,0,2.3,0,3.4,0c0.8,0,1.3,0.4,1.3,1.2
			c0,0.4,0,0.7,0,1c0,0.9-0.5,1.3-1.4,1.3c-0.5,0-1,0-1.5-0.1c0,0.5,0,1,0,1.5c0.7,0.1,0.7,0.2,0.5,1c-1,0-1.9,0-2.9,0
			c0-0.4,0-0.7,0-1c0.1,0,0.3,0,0.5-0.1C254.6,100.7,254.6,99.5,254.6,98.2z M257.4,99.5c0-0.5,0-0.9,0-1.3c-0.4,0-0.7,0-1,0
			c0,0.4,0,0.8,0,1.3C256.7,99.5,257.1,99.5,257.4,99.5z"/>
		<path class="st1" d="M245.6,108.7c-0.1,0.2-0.1,0.4-0.2,0.6c-1.5,2.8-2.1,5.8-1.6,8.9c0.1,0.8,0.4,1.6,0.6,2.5
			c-0.8-1.4-1.5-2.7-1.8-4.1c-0.4-1.6-0.6-3.3-1-5c-0.1-0.5,0-0.9,0.5-1.1c1.1-0.6,2.3-1.3,3.4-2
			C245.5,108.6,245.6,108.7,245.6,108.7z"/>
		<path class="st1" d="M263.1,108.6c0.8,0.4,1.5,0.8,2.3,1.3c0.4,0.2,0.7,0.5,1.1,0.7c0.5,0.3,0.7,0.6,0.5,1.2
			c-0.4,1.9-0.7,3.8-1.3,5.6c-0.4,1.2-1,2.3-1.5,3.4c1.4-4.2,0.8-8.3-1.4-12.1C262.9,108.7,263,108.6,263.1,108.6z"/>
		<path class="st1" d="M245.2,98.4c-0.2,0-0.4,0-0.6,0c0-0.4,0-0.8,0-1.3c1,0,1.9,0,2.8,0c0,0.4,0,0.8,0,1.1c-0.2,0-0.3,0-0.5,0
			c0,1.5,0,2.9,0,4.4c0.2,0,0.3,0,0.5,0l0,0c0.1,1,0.1,1-0.9,1.3c-0.6,0.2-1.3,0.4-2,0.6c0-0.4,0-0.7,0-1.1c0-0.1,0.2-0.2,0.3-0.3
			s0.3-0.2,0.3-0.3C245.2,101.5,245.2,100,245.2,98.4z"/>
		<path class="st1" d="M248.6,108.4c-0.1-0.1-0.2-0.2-0.3-0.4c-0.1-0.2-0.3-0.5-0.4-0.7c1.5-1.7,4-2.5,6-1.5c0.1,0,0.3,0.1,0.5,0
			c2.1-1,4-0.3,5.7,1c0.1,0.1,0.3,0.3,0.5,0.5c-0.2,0.4-0.5,0.7-0.7,1.1c-0.5-0.3-0.8-0.6-1.2-0.9c-0.8-0.5-1.7-1-2.7-1.3
			c-0.6-0.1-1.2,0.2-1.7,0.2s-1.1-0.3-1.7-0.2c-1,0.2-1.9,0.7-2.8,1.3C249.4,107.8,249.1,108.1,248.6,108.4z"/>
		<path class="st1" d="M254.3,124.9c0.3-0.5,0.6-0.6,1-0.4c0.5,0.3,0.8,0.7,0.7,1.2c0,1-0.3,1.8-0.9,2.6c-0.6,0.8-1.3,0.8-1.9,0
			c-0.6-0.8-0.9-1.8-0.9-2.8c0-0.5,0.5-1,1-1.2C253.8,124.3,254.1,124.4,254.3,124.9z"/>
		<path class="st1" d="M248.2,108.7c0.1,0.1,0.3,0.1,0.4,0.3c-0.8,0.5-1.1,1.2-1.1,2c0,0.1,0,0.3-0.1,0.4c-1.1,1.7-1.9,3.5-2.5,5.4
			c0,0-0.1,0.1-0.2,0.3c-0.3-2.7,0.4-5,1.5-7.3c0.5,0.5,1,0.8,0.8,1.6c0.7-0.5,0.1-1.1,0.1-1.7c-0.8-0.4-1.1-1.1-0.5-1.9
			c0.3-0.5,0.6-0.5,0.9,0c0.3,0.5,0.4,1,0.5,1.5C247.9,109.1,248,109,248.2,108.7z"/>
		<path class="st1" d="M260,109c0.2-0.1,0.3-0.2,0.5-0.3c0.1,0.2,0.2,0.4,0.3,0.7c0-0.5,0-0.8,0.1-1c0.1-0.5,0.5-1,0.9-0.9
			c0.4,0.1,0.8,1,0.5,1.4c-0.2,0.3-0.5,0.6-0.8,1c0.1,0.4-0.5,0.9,0,1.3c0.3-0.5,0.5-0.9,0.9-1.4c1.1,1.6,1.8,4.8,1.5,7.3
			c-0.1-0.3-0.2-0.6-0.3-1c-0.4-1.1-0.9-2.2-1.4-3.2c-0.3-0.5-0.5-0.9-0.8-1.4c-0.1-0.2-0.2-0.4-0.2-0.5
			C261.1,110.1,260.8,109.4,260,109z"/>
		<path class="st1" d="M257.2,135.6c-1.1,1.1-4.7,1.1-5.9,0c0.6-0.2,1.2-0.5,1.9-0.7c0.7-0.3,1.5-0.3,2.2,0
			C256,135.1,256.6,135.4,257.2,135.6z"/>
		<path class="st1" d="M259.5,131.3c0.2-0.6,0.4-1.2,0.6-1.7c0,0,0,0-0.1,0c-0.3,0.5-0.6,1-0.9,1.4c0,0-0.1,0-0.2,0
			c0-0.2-0.1-0.4,0-0.5c0.9-1.3,1.2-2.7,1.2-4.3c0,0,0-0.1,0-0.3c0.1,0.2,0.2,0.3,0.2,0.4c0.7,1.6,0.7,3.3,0.3,5
			c-0.1,0.3-0.2,0.4-0.5,0.3C259.9,131.5,259.7,131.4,259.5,131.3z"/>
		<path class="st1" d="M248.5,129.6c0.2,0.5,0.4,1.1,0.6,1.7c-0.1,0-0.3,0.1-0.5,0.2c-0.4,0.1-0.6,0.1-0.7-0.4
			c-0.3-1.6-0.3-3.1,0.2-4.7c0-0.1,0.1-0.3,0.2-0.4c0,0,0,0,0.1-0.1c0.1,0.8,0.2,1.6,0.4,2.4c0.2,0.8,0.6,1.5,0.9,2.3
			c0,0,0.1,0,0.1,0c-0.1,0.1-0.2,0.2-0.3,0.4C249.1,130.5,248.8,130,248.5,129.6C248.6,129.5,248.5,129.6,248.5,129.6z"/>
		<path class="st1" d="M256.8,133.4c-1.3-0.6-2.3-2.3-2.1-3.5c0,0.3,0.1,0.5,0.2,0.8c0,0,0,0,0.1,0c0-0.2,0-0.4,0-0.6
			c0-0.2-0.1-0.5,0.3-0.5c0.4,0,0.7,0.3,0.7,0.6c0.1,0.7,0.1,1.4,0.3,2C256.4,132.5,256.6,132.9,256.8,133.4z"/>
		<path class="st1" d="M253.7,130.6c0-0.2,0.1-0.5,0.1-0.8c0.3,1.1-0.8,3-2,3.6c0-0.1,0-0.2,0.1-0.3c0.5-0.9,0.7-1.9,0.7-2.9
			c0-0.4,0.3-0.7,0.7-0.7c0.1,0,0.3,0.2,0.3,0.3c0,0.3,0,0.5,0,0.8C253.6,130.6,253.6,130.6,253.7,130.6z"/>
		<path class="st1" d="M251.2,130.8c0-0.4,0.1-0.8,0.1-1.2c0-0.4,0.2-0.4,0.4-0.4c0.3,0,0.5,0,0.5,0.4
			C252.2,130.1,251.7,130.7,251.2,130.8z"/>
		<path class="st1" d="M257.4,130.8c-0.5-0.1-1-0.6-1-1.2c0-0.1,0.1-0.3,0.2-0.4c0.2,0,0.4,0,0.6,0c0,0,0.1,0.2,0.1,0.4
			c0,0.2,0,0.4,0,0.6C257.3,130.5,257.4,130.6,257.4,130.8z"/>
		<path class="st1" d="M251.1,126.4c-0.3-0.4-0.5-0.8-0.8-1.3c0.4-0.1,0.6-0.1,0.9-0.2c0,0.5,0,1,0.1,1.5
			C251.2,126.3,251.2,126.4,251.1,126.4z"/>
		<path class="st1" d="M257.4,124.9c0.3,0,0.5,0.1,0.9,0.2c-0.3,0.5-0.6,0.9-0.8,1.3c0,0,0,0-0.1,0
			C257.3,125.9,257.4,125.4,257.4,124.9z"/>
		<path class="st1" d="M258.6,112.6c0.2-0.6,0.5-1.1,0.7-1.6C259.6,111.6,259.4,112.1,258.6,112.6z"/>
		<path class="st1" d="M250,112.6c-0.8-0.5-1-1-0.7-1.7C249.5,111.6,249.7,112,250,112.6z"/>
		<path class="st0" d="M251.7,109.4c0.6-0.6,1.4-1,2.4-0.7c0.1,0,0.3,0,0.4,0c0.8-0.3,1.8,0,2.3,0.7c-1.5-0.5-1.9-0.5-2.5,0
			C253.4,108.6,252.6,109,251.7,109.4z"/>
		<path class="st0" d="M255.9,112c-1.1-1.2-2.4-1-3.3,0c0.1-0.8,0.8-1.3,1.6-1.3C255.1,110.7,255.8,111.2,255.9,112z"/>
		<path class="st0" d="M251.4,117.8c0.1,0,0.1,0.1,0.3,0.2c-0.3,0-0.6,0-0.8,0c-0.1,0-0.3-0.2-0.4-0.3c0-0.1,0.1-0.3,0.2-0.4
			c0.4-0.3,1.1-0.3,1.7,0C252.1,117.4,251.7,117.6,251.4,117.8z"/>
		<path class="st0" d="M256.9,117.9c0.2,0,0.2-0.1,0.3-0.1c-0.4-0.2-0.7-0.4-1.1-0.6c0.5-0.3,1.5-0.2,1.9,0.1
			c0.2,0.2,0.1,0.5-0.2,0.6c-0.1,0-0.3,0-0.4,0C257.2,118,257.1,117.9,256.9,117.9z"/>
		<path class="st0" d="M261.3,98.3c0.6,0,1.2,0,1.8,0.1c0,1.6,0,3.1,0,4.7c-0.5-0.1-1-0.2-1.5-0.3c-0.1,0-0.2-0.2-0.2-0.3
			C261.3,101.1,261.3,99.7,261.3,98.3z"/>
		<path class="st0" d="M250.6,98.2c0.4,0,0.7,0,1,0c0,0.4,0,0.8,0,1.3c-0.3,0-0.7,0-1,0C250.6,99.1,250.6,98.7,250.6,98.2z"/>
		<path class="st0" d="M257.4,99.5c-0.4,0-0.7,0-1,0c0-0.5,0-0.8,0-1.3c0.4,0,0.7,0,1,0C257.4,98.6,257.4,99,257.4,99.5z"/>
	</g>
</g>
</svg>
