<?xml version="1.0" encoding="utf-8"?>
<!-- Generator: Adobe Illustrator 24.0.1, SVG Export Plug-In . SVG Version: 6.00 Build 0)  -->
<svg version="1.1" id="Layer_1" xmlns="http://www.w3.org/2000/svg" xmlns:xlink="http://www.w3.org/1999/xlink" x="0px" y="0px"
	 viewBox="0 0 100 100" style="enable-background:new 0 0 100 100;" xml:space="preserve">
<style type="text/css">
	.st0{fill:#0060B5;}
	.st1{fill:#D6D8ED;}
	.st2{fill:#FFFFFF;}
	.st3{fill:#FFBB00;}
</style>
<g>
	<g>
		<path class="st0" d="M85.6,30.9c0.2,0.2,0.3,0.3,0.4,0.3c1.9,0.9,2.3,2.4,2.1,4.4c-0.7,10-2.8,19.5-7.8,28.3
			c-3,5.4-6.9,10-11.5,14.1c-0.4,0.4-0.9,0.8-1.4,1.2c0.2,0.4,0.3,0.8,0.5,1.2c1.2,3.2,0.8,6.2-1.5,8.8c-2.8,3.1-6.4,4.7-10.4,5.6
			c-6.4,1.4-12.7,0.7-18.5-2.5c-1.3-0.7-2.5-1.7-3.5-2.7c-2.7-2.7-3.3-6-1.8-9.5c0.3-0.6,0.3-1-0.3-1.5c-11-9.4-17.1-21.4-19.2-35.6
			c-0.3-2.3-0.3-4.6-0.8-6.9c-0.6-3.4-0.2-6.8-0.3-10.2c0-0.4,0.2-1,0.4-1.1c0.9-0.3,0.9-1,0.9-1.7c0-2.7,0-5.4,0-8.1
			c0-0.4,0-0.8,0-1.2c-0.5,0-0.8,0-1.3,0c0-3.1,0-6.1,0-9.3c0.4,0,0.8,0,1.2,0c15.4,0,30.7,0,46.1,0.1c0.8,0,1.6,0.5,2.6,0.8
			c0.8-1.1,2.2-0.9,3.6-0.9c1.7,0,3.4,0,5.1,0c1.3,0,2.5,0,3.3,1.4c1-1.6,2.4-1.3,3.8-1.3c2.3,0,4.5,0,6.8,0c0.5,0,1.1,0.3,1.4,0.6
			c2.8,3,2.7,3.1,2.7,7.2c0,1.2,0,2.3,0,3.5c0,0.3-0.3,0.6-0.4,0.8c0.1,0.7,0.3,1.5,0.3,2.2c0,2.9,0,5.9,0,8.8c0,0.9-0.2,1.5-1,1.9
			C86.8,30,86.3,30.4,85.6,30.9z M39.7,32.6c-0.1,0.1-0.1,0.2-0.2,0.3c0.4,0.3,0.9,0.6,1.3,1c0.4,0.5,0.8,1,1.1,1.5
			c-0.4,0-0.6-0.2-0.8-0.3c-2.2-1.5-4.1-0.9-5,1.7c-0.2,0.5-0.3,1-0.4,1.6c-0.1,0.7-0.1,1.5-0.2,2.4c-0.2-0.5-0.3-0.8-0.5-1
			c-0.1,0-0.2-0.1-0.3-0.1c-1.3,3-2.6,6.1-3.7,9.1c-0.3,0.9-0.3,2.1-0.2,3.1c0.1,1.3,1.1,2.2,2.3,2.4c-1.9-2.2-1.6-5.7,0.7-7.8
			c-0.5,2.2-1.4,4.3,0.4,6.6c-0.1-1-0.2-1.7-0.3-2.5c0.6,0.8,1,1.5,1.5,2.2c0.2,0.2,0.6,0.4,0.7,0.3c0.8-0.6,1.8-1.1,2.3-2
			c0.6-0.9,1.1-1.7,2.1-2.1c0.7-0.3,1.4-0.5,2.4-0.9c-0.7-1.3-1.3-2.5-1.9-3.7c0.4,0.3,0.9,0.6,1.5,1c-1-2.2-2.7-3.4-4.9-4.1
			c0.3-0.1,0.4-0.2,0.6-0.3c-1.3-1.3-1.7-2.6-0.4-4.2c-0.3-0.2-0.5-0.3-0.8-0.4c1.2-0.6,2-0.5,2.7,0.4c0.6,0.8,1,1.7,1.4,2.6
			c0.6,1.6,1.3,3.1,3.4,3.4c-0.5,0.1-1.1,0.3-1.4,0.4c0.7,1.5,1.4,2.9,2.2,4.4c0.3-0.4,0.6-0.8,1.1-1.5c-0.1,0.9-0.1,1.5-0.2,2.1
			c1.2,0.7,2.5,1.2,2.5,2.9c0,0.8-0.5,1.2-1.4,1.5c0.7-1.4,0.3-2.3-1.2-2.8c-1.5-0.5-2.9-0.4-4.2,0.1c-1,0.4-1.8,1.1-2,2.2
			c-0.2,1.1,0.8,1.5,1.5,2c0,0,0,0.1,0.1,0.4c-1.1-0.5-2-1-3-1.5c-1.8,1.4-3,3.4-3.9,5.8c0-0.5,0-1,0-1.5c-0.1,0-0.2,0-0.3-0.1
			c-0.3,0.9-0.8,1.9-1,2.8c-0.6,3.1,0.9,5.7,3.8,6.4c1.2,0.3,2.6,0.3,3.9,0.1c4.3-0.8,8-3,8.7-8.4c0-0.1,0.1-0.2,0.2-0.3
			c1,5.8,5.6,9.4,11.4,8.9c2.2-0.2,4-1.1,4.8-3.2c0.9-2.3,0.3-4.4-1-6.3c0,0.5,0,1,0,1.6c-0.7-2.4-2-4.3-3.8-5.7
			c-1,0.5-1.9,0.9-2.7,1.3c0.4-0.8,1.1-1.5,1.2-2.2c0.1-1.1-0.8-1.8-1.8-2.1c-1.1-0.3-2.3-0.5-3.4-0.5c-0.7,0-1.6,0.4-2.1,0.9
			c-0.4,0.5-0.3,1.4-0.5,2.1c-0.6-0.2-1-0.9-0.9-1.7c0.1-1.5,1.2-2.1,2.4-2.6c0-0.7,0-1.3,0-2c0.4,0.5,0.7,0.9,1,1.2
			c0.8-1.5,1.5-3,2.2-4.4c-0.4-0.1-0.9-0.3-1.5-0.5c1.6-0.1,2.4-1,3-2.3c0.3-0.6,0.4-1.3,0.7-1.8c0.4-0.8,0.9-1.6,1.5-2.2
			c0.6-0.6,1.9-0.5,2.2,0c-0.2,0.1-0.5,0.3-0.7,0.4c1,1.8,0.9,2.4-0.4,4.2c0.1,0.1,0.3,0.2,0.5,0.3c-2.2,0.7-3.8,1.9-4.8,4
			c0.6-0.4,1.1-0.7,1.6-1c-0.9,1.2-1.7,2.3-1.8,3.9c0.3,0.1,0.5,0.1,0.7,0.2c1.6,0.5,2.9,1.2,3.7,2.9c0.3,0.8,1.4,1.5,2.3,1.6
			c0.4,0.1,1.1-1,1.7-1.6c0.2-0.2,0.2-0.5,0.3-0.8c0.1,0,0.1,0,0.2,0c-0.1,0.8-0.2,1.6-0.3,2.3c1.7-2.1,0.9-4.3,0.3-6.6
			c1.9,2.3,3.1,5.8,0.7,8.1c0.2,0,0.4,0,0.5-0.1c1.4-0.6,2-1.8,1.9-3.7c-0.3-4.1-2.4-7.5-4.2-11c-0.2,0.4-0.3,0.7-0.5,1.2
			c0-1,0-1.7-0.1-2.5c-0.1-0.7-0.3-1.5-0.7-2.2c-0.9-1.8-2.5-2.3-4.3-1.3c-0.4,0.2-0.7,0.4-1,0.6c-0.1-0.1-0.1-0.1-0.2-0.2
			c0.4-0.5,0.7-1,1.1-1.4c0.4-0.4,0.8-0.6,1.2-0.9c-0.1-0.1-0.1-0.2-0.2-0.3c0.3,0,0.6-0.1,1.2-0.2c-2-1.5-3.9-2.7-6.1-3.5
			c-1.8-0.6-3.7-0.9-5,0.2C49,28.9,48,28.5,47,28.5c-3.2,0.3-5.8,2-8.3,3.8c0.1,0.1,0.2,0.2,0.3,0.2C39.2,32.6,39.5,32.6,39.7,32.6z
			 M66.7,75.9c0.3-0.3,0.6-0.5,0.8-0.7c11.9-10.8,16.9-24.7,17.6-40.4c0-0.3-0.2-0.8-0.5-1c-5.1-3.6-10.2-7-16.4-8.7
			C49.4,20,31.8,22,15.6,33.6c-0.6,0.4-0.8,0.8-0.8,1.5c0.4,7,1.6,13.8,4.1,20.3c2.3,6,5.6,11.5,10,16.2c1.4,1.5,2.8,2.9,4.3,4.3
			c0.4-1.2,0.6-2.3,1-3.3c0.2-0.5,0.1-0.8-0.3-1.2c-1.7-1.8-3.4-3.6-4.9-5.5c-6.7-8.6-9.5-18.6-10.3-29.2c0-0.3,0.3-0.8,0.5-1
			c4.9-3.4,10.2-6.3,15.8-8.4c0.7-0.3,1.4-0.6,2-1c3.7-2.5,7.6-3.5,12-1.8c0.5,0.2,1.3,0.2,1.8,0c4.5-1.8,8.5-0.7,12.3,2
			c0.4,0.3,0.9,0.5,1.3,0.7c5.8,2.1,11.2,5,16.2,8.5c0.3,0.2,0.6,0.8,0.5,1.1c-0.5,6.2-1.7,12.3-4,18.1c-2.5,6.2-6.2,11.7-11,16.4
			c-0.3,0.3-0.6,0.8-0.5,1.1C66,73.6,66.3,74.7,66.7,75.9z M22.5,10.5c0,1.3,0,2.4,0,3.6c0,0.2-0.3,0.6-0.5,0.7
			c-0.9,0.2-1.8,0.4-2.8,0.5c0-1.6,0-3.1,0-4.3c0.5-0.3,1.2-0.6,1.2-0.9c0.1-1,0.1-2.1,0.1-3.1c-2.2,0-4.2,0-6.3,0
			c0,1.4,0,2.7,0,4.1c0.4,0,0.8,0,1.3,0c0,0.4,0,0.7,0,1c0,4.2,0,8.4,0,12.6c0,0.7-0.1,1.3-0.9,1.5c-0.2,0.1-0.5,0.5-0.5,0.7
			c-0.1,1.1,0,2.3,0,3.6c2.1-1.1,4.1-2.2,6-3.3c0.2-0.1,0.3-0.3,0.3-0.5c0-1,0-2,0-3.1c-0.5,0.2-0.8,0.2-1.3,0.4c0-1.6,0-3.1,0-4.5
			c0-0.2,0.2-0.4,0.3-0.5c0.9-0.3,1.9-0.5,3-0.8c0,1.3,0,2.3,0,3.4c0,0.8,0,1.5-1,1.6c-0.2,0-0.4,0.3-0.4,0.5c0,1,0,2,0,3.1
			c2.1-0.9,4-1.7,5.9-2.5c0.2-0.1,0.5-0.4,0.5-0.6c0.1-0.8,0-1.6,0-2.5c-0.5,0.1-0.9,0.1-1.2,0.2c0-3.8,0-7.5,0-11.2
			c0.4-0.1,0.8-0.1,1.1-0.2c0-1,0-2,0-2.9c-2.1,0-4.2,0-6.3,0c0,0.6,0,1.2,0,1.7c0,0.6,0,1.1,0,1.7C21.6,10.5,22,10.5,22.5,10.5z
			 M74.3,19.4c0,0.7,0,1.2,0,1.7c0,2,1.3,3.9,3.1,4.7c2,0.9,4,1.8,5.9,2.7c1,0.5,2.5-0.4,2.6-1.5c0-2.7,0-5.4,0-8.1
			c0-1.2-1.6-3-2.7-3.2c-1.5-0.3-2.9-0.5-4.4-0.9c-0.3-0.1-0.8-0.4-0.8-0.6c-0.1-1.2,0-2.4,0-3.8c1.5,0.1,2.8,0.2,4.2,0.3
			c0,0.8,0,1.6,0,2.4c1.3,0.2,2.5,0.4,3.8,0.6c0-0.8-0.1-1.5,0-2.2c0.3-1.7-0.4-3-1.6-4c-0.3-0.2-0.7-0.4-1-0.4c-2.3,0-4.5,0-6.8,0
			c-1.1,0-2.4,1.3-2.4,2.4c0,1.7,0,3.4,0,5.1c0,1.5,1.2,3,2.7,3.4c1.8,0.4,3.5,0.9,5.3,1.3c0,1.7,0,3.3,0,5.1c-1-0.4-2-0.8-2.9-1.1
			c-1.1-0.3-1.5-0.8-1.4-1.9c0-0.3-0.2-0.9-0.5-1C76.5,20,75.4,19.7,74.3,19.4z M73.1,15.6c0-2.1,0-4.1,0-6.2c0-1.1-1.3-2.4-2.3-2.4
			c-2.2,0-4.4,0-6.6,0c-1.2,0-2.3,1.2-2.3,2.4c0,3.2,0,6.3,0,9.5c0,1.2,0.8,2.3,2,2.6c2.4,0.6,4.8,1.3,7.2,1.9
			c1,0.3,2.2-0.7,2.2-1.7C73.1,19.7,73.1,17.7,73.1,15.6z M41.8,14.9c1.2-0.1,2.2-0.2,3.3-0.2c2.1-0.1,3.1-1.1,3.1-3.1
			c0-0.6-0.1-1.2,0-1.7c0.2-1.2-0.3-2-1.4-2.5C46.4,7.2,45.9,7,45.5,7c-2.6,0-5.2,0-7.8,0c-0.3,0-0.7,0-1.1,0.1c0,0.9,0,1.7,0,2.5
			c0.4,0,0.8,0.1,1.2,0.1c0,3,0,6,0,9c-1.4,0.4-1.5,0.6-1.1,2.8c2.1-0.3,4.2-0.7,6.3-1c0-0.8,0-1.5,0-2.2c-0.4,0-0.8-0.1-1.2-0.1
			C41.8,17,41.8,16,41.8,14.9z M50.7,9.5c0,2.8,0,5.5,0,8.3c-0.5,0.1-0.8,0.1-1.1,0.2c0,0.8,0,1.4,0,2.3c2.1,0,4.2,0,6.3,0
			c0.4-1.9,0.3-2-1.2-2.3c0-1,0-2.1,0-3.2c1.1,0.1,2.2,0.1,3.2,0.2C60,15,61,14.1,61,12c0-0.8,0-1.5,0-2.3C61,8,60,7,58.2,7
			c-2.5,0-5,0-7.5,0c-0.4,0-0.8,0-1.1,0c0,0.9,0,1.6,0,2.3C50,9.4,50.4,9.4,50.7,9.5z M30.9,32.7c-0.1-0.1-0.3-0.2-0.4-0.3
			c-2.5,1.5-5,3-7.5,4.4c-1.1,0.6-1.4,1.3-1.1,2.4c0.8,3.6,1.3,7.3,2.2,11c0.8,3.2,2.2,6.1,4,9.1c-0.5-2-1-3.8-1.3-5.6
			c-1-6.9,0.3-13.5,3.6-19.7C30.7,33.6,30.8,33.1,30.9,32.7z M69.4,32.4c-0.2,0.1-0.3,0.1-0.5,0.2c4.7,8.5,6.1,17.4,3,26.7
			c1.3-2.5,2.7-5,3.4-7.6c1.2-4.1,1.8-8.3,2.8-12.4c0.3-1.2,0-2.1-1.2-2.6c-0.9-0.4-1.7-1-2.5-1.5C72.7,34.3,71,33.4,69.4,32.4z
			 M29.9,9.9c0,3.4,0,6.7,0,10.1c0,0.2-0.4,0.4-0.7,0.6c-0.2,0.2-0.6,0.4-0.6,0.7c-0.1,0.7,0,1.5,0,2.4c1.5-0.5,3-0.9,4.4-1.3
			c2.2-0.6,2.2-0.6,1.9-2.9c0,0,0-0.1-0.1-0.1c-0.4,0-0.7,0-1.1,0.1c0-3.3,0-6.5,0-9.7c0.4-0.1,0.8-0.1,1.2-0.1c0-0.9,0-1.7,0-2.5
			c-2.1,0-4.2,0-6.2,0c0,1,0,1.9,0,2.8C29.1,9.9,29.4,9.9,29.9,9.9z M37.6,32c0.9-0.7,1.6-1.3,2.4-1.8c1.9-1.3,3.9-2.4,6.2-2.9
			c1.3-0.3,2.6,0.4,3.8,0.4c1.2,0,2.4-0.7,3.8-0.4c2.2,0.5,4.1,1.5,6,2.8c0.9,0.6,1.7,1.3,2.7,2c0.5-0.8,1-1.6,1.5-2.4
			c-0.4-0.4-0.7-0.7-1.1-1c-3.7-3.1-7.8-4.5-12.5-2.3c-0.3,0.1-0.7,0.1-1-0.1c-4.5-2.2-9.9-0.4-13.3,3.4c0.3,0.5,0.6,1.1,0.9,1.6
			C37.2,31.5,37.4,31.7,37.6,32z M50,68.3c-0.3-1-1-1.3-1.8-1c-1.1,0.3-2,1.4-2.1,2.6c0,2.2,0.5,4.3,1.9,6.1c1.3,1.7,2.9,1.7,4.1,0
			c1.2-1.7,1.8-3.6,1.9-5.7c0.1-1.3-0.6-2.1-1.6-2.7C51.3,66.9,50.7,67.1,50,68.3z M36.5,32.6c-0.3,0.6-0.5,1-0.6,1.1
			c-0.3-1-0.5-2.2-1.1-3.2c-0.6-1-1.4-0.9-2,0.1c-1.1,1.7-0.6,3.3,1.2,4.1c0,1.2,1.1,2.6-0.3,3.7c0.4-1.7-0.8-2.4-1.8-3.5
			c-2.5,5.1-3.9,10.2-3.3,16.1c0.2-0.4,0.3-0.5,0.4-0.7c1.2-4.3,3-8.3,5.5-12c0.2-0.2,0.3-0.5,0.3-0.8c0-1.9,0.7-3.5,2.5-4.5
			C37.1,33,36.8,32.8,36.5,32.6z M62.6,33.2c1.8,1,2.5,2.5,2.5,4.4c0,0.4,0.3,0.8,0.5,1.2c2,3.2,3.8,6.5,4.9,10
			c0.2,0.7,0.4,1.4,0.7,2.1c0.6-5.5-0.9-12.5-3.4-16c-0.7,1.1-1.3,2.1-1.9,3.1c-1.1-0.9,0.3-2.1,0.1-2.9c0.6-0.8,1.3-1.3,1.7-2.1
			c0.5-0.9-0.4-2.8-1.2-3.1c-0.7-0.2-1.6,0.6-1.9,1.9c-0.2,0.7-0.2,1.4-0.3,2.3c-0.3-0.7-0.5-1.1-0.7-1.6C63.2,32.8,63,33,62.6,33.2
			z M56.5,91.9c-1.3-0.5-2.7-0.9-4-1.5c-1.6-0.7-3.2-0.7-4.9,0c-1.4,0.6-2.8,1-4.1,1.5C46.2,94.4,54,94.3,56.5,91.9z M61.5,82.5
			c0.4,0.2,0.9,0.4,1.5,0.6c0.6,0.2,0.9,0,1.1-0.7c0.8-3.8,0.8-7.5-0.6-11.1c-0.1-0.2-0.3-0.4-0.5-0.8c0,0.4,0,0.5,0,0.7
			c-0.1,3.4-0.7,6.5-2.7,9.4c-0.2,0.2,0,0.7,0,1.1c0.1,0,0.3,0,0.4,0.1c0.6-1,1.3-2.1,1.9-3.1c0.1,0,0.1,0,0.2,0.1
			C62.4,79.9,61.9,81.1,61.5,82.5z M37.2,78.7c0.1,0,0.2,0,0.2,0c0.6,1,1.3,2.1,2,3.2c0.3-0.4,0.5-0.7,0.7-0.9c-0.1,0-0.2,0-0.3,0.1
			c-0.7-1.7-1.6-3.3-2-5c-0.5-1.7-0.6-3.5-0.9-5.3c-0.1,0.1-0.1,0.1-0.2,0.2c-0.1,0.3-0.3,0.6-0.4,0.9c-1.2,3.4-1.2,6.8-0.5,10.3
			c0.2,1,0.7,1.2,1.6,0.9c0.4-0.2,0.8-0.4,1.1-0.5C38.1,81.2,37.7,79.9,37.2,78.7z M55.5,87.2c-0.4-1-0.9-1.9-1.1-2.9
			c-0.3-1.4-0.5-2.9-0.6-4.4c-0.1-0.8-0.8-1.5-1.6-1.4c-0.9,0-0.6,0.7-0.7,1.2c-0.1,0.4,0,0.9,0,1.3c-0.1,0-0.1,0-0.2,0
			c-0.1-0.5-0.2-1.1-0.4-1.7C50.4,82.1,52.6,85.8,55.5,87.2z M48.7,81c-0.1,0-0.2,0-0.3,0c0-0.6,0.1-1.2,0-1.8
			c0-0.2-0.4-0.6-0.6-0.6c-0.9-0.1-1.5,0.6-1.5,1.5c0,2.3-0.5,4.5-1.5,6.5c-0.1,0.2-0.1,0.4-0.2,0.6c2.9-1.3,5.2-5.3,4.5-7.9
			C48.9,79.9,48.8,80.5,48.7,81z M43.2,81.3c1.1-0.2,2.2-1.5,2.2-2.6c0-0.8-0.6-0.9-1.2-0.9c-0.5,0-0.9,0.1-0.9,0.9
			C43.5,79.6,43.3,80.5,43.2,81.3z M56.9,81.4c-0.1-0.4-0.3-0.8-0.3-1.2c-0.1-0.5,0-0.9,0-1.4c0-0.3-0.1-0.7-0.3-0.8
			c-0.4-0.1-0.9-0.1-1.3,0.1c-0.2,0.1-0.4,0.5-0.4,0.8C54.7,79.9,55.7,81.1,56.9,81.4z M43.1,71.6c0.1-0.1,0.2-0.1,0.2-0.2
			c-0.1-1-0.1-2.1-0.2-3.2c-0.6,0.1-1.1,0.2-1.9,0.4C42,69.8,42.6,70.7,43.1,71.6z M56.8,68.3c-0.1,1.2-0.1,2.2-0.2,3.2
			c0.1,0,0.1,0.1,0.2,0.1c0.6-0.9,1.2-1.9,1.8-2.9C57.9,68.5,57.4,68.4,56.8,68.3z M59.5,41.3c1.8-1.2,2.3-2.2,1.5-3.6
			C60.5,38.9,60.1,40,59.5,41.3z M40.5,41.3c-0.5-1.3-1-2.4-1.5-3.7C38.3,39.2,38.7,40,40.5,41.3z"/>
		<path class="st1" d="M39.7,32.6c-0.3,0-0.5,0-0.8,0c-0.1,0-0.1-0.1-0.3-0.2c2.5-1.9,5.1-3.6,8.3-3.8c1-0.1,2,0.4,3.3,0.6
			c1.3-1.1,3.2-0.8,5-0.2c2.2,0.7,4.1,2,6.1,3.5c-0.5,0.1-0.8,0.1-1.2,0.2c0.1,0.1,0.1,0.2,0.2,0.3c-0.4,0.3-0.9,0.6-1.2,0.9
			c-0.4,0.4-0.8,0.9-1.1,1.4c0.1,0.1,0.1,0.1,0.2,0.2c0.3-0.2,0.7-0.4,1-0.6c1.8-1,3.4-0.5,4.3,1.3c0.3,0.7,0.5,1.4,0.7,2.2
			c0.1,0.7,0.1,1.5,0.1,2.5c0.2-0.5,0.3-0.7,0.5-1.2c1.8,3.6,4,7,4.2,11c0.1,1.9-0.5,3.1-1.9,3.7c-0.1,0.1-0.3,0-0.5,0.1
			c2.3-2.3,1.2-5.8-0.7-8.1c0.6,2.3,1.3,4.5-0.3,6.6c0.1-0.8,0.2-1.6,0.3-2.3c-0.1,0-0.1,0-0.2,0c-0.1,0.3-0.1,0.6-0.3,0.8
			c-0.5,0.6-1.2,1.7-1.7,1.6c-0.9-0.2-1.9-0.9-2.3-1.6c-0.7-1.7-2.1-2.4-3.7-2.9c-0.2-0.1-0.4-0.1-0.7-0.2c0.1-1.5,0.9-2.7,1.8-3.9
			c-0.5,0.3-1,0.6-1.6,1c1-2.2,2.6-3.4,4.8-4C62,41.1,61.9,41,61.7,41c1.4-1.8,1.5-2.4,0.4-4.2c0.2-0.1,0.5-0.3,0.7-0.4
			c-0.3-0.5-1.6-0.6-2.2,0c-0.6,0.6-1.1,1.4-1.5,2.2c-0.3,0.6-0.4,1.2-0.7,1.8c-0.6,1.2-1.4,2.2-3,2.3c0.5,0.2,1,0.3,1.5,0.5
			c-0.7,1.4-1.4,2.8-2.2,4.4c-0.2-0.3-0.6-0.7-1-1.2c0,0.7,0,1.3,0,2c-1.2,0.5-2.3,1.1-2.4,2.6c-0.1,0.8,0.4,1.5,0.9,1.7
			c0.1-0.7,0.1-1.6,0.5-2.1c0.5-0.5,1.4-0.9,2.1-0.9c1.1,0,2.3,0.2,3.4,0.5c1,0.3,1.9,1,1.8,2.1c-0.1,0.8-0.8,1.5-1.2,2.2
			c0.8-0.4,1.7-0.8,2.7-1.3c1.7,1.4,3,3.4,3.8,5.7c0-0.5,0-1,0-1.6c1.3,2,2,4,1,6.3c-0.9,2.1-2.6,3-4.8,3.2
			c-5.8,0.5-10.4-3.1-11.4-8.9c-0.1,0.1-0.2,0.2-0.2,0.3c-0.8,5.3-4.4,7.6-8.7,8.4c-1.3,0.2-2.6,0.2-3.9-0.1
			c-2.9-0.6-4.4-3.3-3.8-6.4c0.2-1,0.6-1.9,1-2.8c0.1,0,0.2,0,0.3,0.1c0,0.5,0,1,0,1.5c0.8-2.4,2.1-4.4,3.9-5.8c1.1,0.5,2,1,3,1.5
			c-0.1-0.3-0.1-0.4-0.1-0.4c-0.7-0.5-1.7-0.9-1.5-2c0.2-1.2,1-1.9,2-2.2c1.4-0.5,2.8-0.6,4.2-0.1c1.5,0.5,1.9,1.4,1.2,2.8
			c0.9-0.2,1.4-0.7,1.4-1.5c0-1.7-1.3-2.2-2.5-2.9c0-0.6,0.1-1.2,0.2-2.1c-0.5,0.7-0.8,1.1-1.1,1.5c-0.7-1.5-1.5-3-2.2-4.4
			c0.3-0.1,0.9-0.2,1.4-0.4c-2.1-0.2-2.8-1.7-3.4-3.4c-0.4-0.9-0.8-1.8-1.4-2.6c-0.7-0.9-1.5-1-2.7-0.4c0.3,0.2,0.5,0.3,0.8,0.4
			c-1.3,1.5-0.8,2.9,0.4,4.2c-0.2,0.1-0.4,0.2-0.6,0.3c2.2,0.7,3.9,1.8,4.9,4.1c-0.6-0.4-1.1-0.7-1.5-1c0.6,1.2,1.3,2.4,1.9,3.7
			c-1,0.4-1.7,0.6-2.4,0.9c-1,0.4-1.5,1.2-2.1,2.1c-0.5,0.8-1.5,1.4-2.3,2c-0.1,0.1-0.6-0.1-0.7-0.3C35,52,34.5,51.3,34,50.5
			c0.1,0.8,0.2,1.6,0.3,2.5c-1.7-2.2-0.9-4.4-0.4-6.6c-2.3,2.2-2.7,5.6-0.7,7.8c-1.2-0.2-2.3-1.2-2.3-2.4c-0.1-1-0.1-2.2,0.2-3.1
			c1.1-3.1,2.5-6.1,3.7-9.1c0.1,0,0.2,0.1,0.3,0.1c0.1,0.3,0.2,0.6,0.5,1c0.1-0.9,0.1-1.7,0.2-2.4c0.1-0.5,0.2-1.1,0.4-1.6
			c0.9-2.6,2.8-3.2,5-1.7c0.2,0.1,0.4,0.3,0.8,0.3c-0.4-0.5-0.7-1.1-1.1-1.5c-0.4-0.4-0.8-0.6-1.3-1C39.6,32.8,39.7,32.7,39.7,32.6z
			 M44.4,34.1c1.9-0.8,3.7-1.6,5.6-0.1c1.5-1.1,2.1-1.1,5.5,0c-1.3-1.5-3.3-2.1-5.1-1.6c-0.2,0.1-0.6,0.1-0.8,0
			C47.5,31.7,45.8,32.7,44.4,34.1z M53.6,39.9C53.3,38.2,51.8,37,50,37c-1.9,0-3.3,1.2-3.6,2.9C48.4,37.6,51.2,37.2,53.6,39.9z
			 M43.7,52.7c0.8-0.5,1.5-0.9,2.4-1.5c-1.3-0.6-3-0.5-3.8,0.1c-0.3,0.2-0.6,0.6-0.5,0.9c0,0.3,0.5,0.6,0.8,0.7c0.5,0.1,1,0,1.8,0
			C44,52.9,43.8,52.8,43.7,52.7z M55.8,53c0.5,0,0.7,0,1,0c0.3,0,0.6,0,0.9,0c0.7-0.2,1-0.9,0.5-1.4c-0.8-0.8-2.9-1-4.1-0.3
			c0.9,0.5,1.7,0.9,2.5,1.4C56.3,52.8,56.1,52.9,55.8,53z"/>
		<path class="st2" d="M66.7,75.9c-0.4-1.2-0.7-2.3-1-3.4c-0.1-0.3,0.2-0.8,0.5-1.1c4.8-4.7,8.5-10.2,11-16.4
			c2.4-5.8,3.6-11.9,4-18.1c0-0.4-0.2-0.9-0.5-1.1c-5.1-3.5-10.4-6.5-16.2-8.5c-0.5-0.2-0.9-0.4-1.3-0.7c-3.8-2.7-7.8-3.7-12.3-2
			c-0.5,0.2-1.3,0.2-1.8,0c-4.3-1.7-8.3-0.7-12,1.8c-0.6,0.4-1.3,0.8-2,1c-5.7,2.1-10.9,5-15.8,8.4c-0.3,0.2-0.6,0.7-0.5,1
			c0.9,10.7,3.7,20.6,10.3,29.2c1.5,1.9,3.3,3.7,4.9,5.5c0.4,0.4,0.5,0.7,0.3,1.2c-0.4,1-0.6,2.1-1,3.3c-1.5-1.5-3-2.9-4.3-4.3
			c-4.4-4.8-7.7-10.2-10-16.2c-2.5-6.5-3.7-13.3-4.1-20.3c0-0.7,0.2-1.1,0.8-1.5C31.8,22,49.4,20,68.3,25.2
			c6.1,1.7,11.3,5.1,16.4,8.7c0.3,0.2,0.5,0.6,0.5,1c-0.7,15.7-5.8,29.5-17.6,40.4C67.3,75.4,67,75.6,66.7,75.9z"/>
		<path class="st3" d="M22.5,10.5c-0.5,0-0.9,0-1.4,0c0-0.6,0-1.2,0-1.7c0-0.5,0-1.1,0-1.7c2.1,0,4.2,0,6.3,0c0,1,0,1.9,0,2.9
			c-0.4,0.1-0.7,0.1-1.1,0.2c0,3.7,0,7.5,0,11.2c0.4-0.1,0.7-0.1,1.2-0.2c0,0.8,0,1.7,0,2.5c0,0.2-0.3,0.5-0.5,0.6
			c-1.9,0.8-3.8,1.6-5.9,2.5c0-1.1,0-2.1,0-3.1c0-0.2,0.3-0.5,0.4-0.5c1-0.2,1-0.9,1-1.6c0-1,0-2.1,0-3.4c-1.1,0.3-2,0.5-3,0.8
			c-0.2,0-0.3,0.3-0.3,0.5c0,1.5,0,2.9,0,4.5c0.5-0.1,0.8-0.2,1.3-0.4c0,1.1,0,2.1,0,3.1c0,0.2-0.2,0.4-0.3,0.5
			c-2,1.1-3.9,2.2-6,3.3c0-1.3,0-2.4,0-3.6c0-0.3,0.3-0.7,0.5-0.7c0.8-0.3,0.9-0.8,0.9-1.5c0-4.2,0-8.4,0-12.6c0-0.3,0-0.6,0-1
			c-0.4,0-0.8,0-1.3,0c0-1.4,0-2.7,0-4.1c2.1,0,4.1,0,6.3,0c0,1,0.1,2.1-0.1,3.1c0,0.3-0.7,0.5-1.2,0.9c0,1.3,0,2.7,0,4.3
			c1-0.2,1.9-0.3,2.8-0.5c0.2-0.1,0.5-0.4,0.5-0.7C22.5,13,22.5,11.8,22.5,10.5z"/>
		<path class="st3" d="M74.3,19.4c1.2,0.3,2.2,0.6,3.2,0.9c0.3,0.1,0.5,0.7,0.5,1c-0.1,1.1,0.3,1.6,1.4,1.9c1,0.2,1.9,0.7,2.9,1.1
			c0-1.7,0-3.3,0-5.1c-1.7-0.4-3.5-0.9-5.3-1.3c-1.4-0.4-2.7-1.9-2.7-3.4c0-1.7,0-3.4,0-5.1c0-1.1,1.3-2.4,2.4-2.4
			c2.3,0,4.5,0,6.8,0c0.3,0,0.7,0.2,1,0.4c1.2,1.1,1.8,2.3,1.6,4c-0.1,0.7,0,1.4,0,2.2c-1.3-0.2-2.5-0.4-3.8-0.6c0-0.8,0-1.6,0-2.4
			c-1.4-0.1-2.8-0.2-4.2-0.3c0,1.3,0,2.6,0,3.8c0,0.2,0.5,0.6,0.8,0.6c1.5,0.3,2.9,0.6,4.4,0.9c1.2,0.2,2.7,2,2.7,3.2
			c0,2.7,0,5.4,0,8.1c0,1.1-1.5,2-2.6,1.5c-2-0.9-3.9-1.8-5.9-2.7c-1.8-0.8-3.1-2.7-3.1-4.7C74.3,20.6,74.3,20.1,74.3,19.4z"/>
		<path class="st3" d="M73.1,15.6c0,2,0,4.1,0,6.1c0,1-1.2,2-2.2,1.7c-2.4-0.6-4.8-1.2-7.2-1.9c-1.1-0.3-2-1.4-2-2.6
			c0-3.2,0-6.3,0-9.5C61.8,8.3,63,7,64.2,7c2.2,0,4.4,0,6.6,0c1.1,0,2.3,1.3,2.3,2.4C73.1,11.5,73.1,13.6,73.1,15.6z M65.5,9.7
			c0,3.2,0,6.2,0,9.1c0,0.2,0.3,0.6,0.5,0.6c1.1,0.3,2.2,0.5,3.4,0.7c0-3.5,0-6.8,0-10.3C68.1,9.8,66.9,9.7,65.5,9.7z"/>
		<path class="st3" d="M41.8,14.9c0,1.1,0,2.1,0,3.2c0.4,0,0.8,0.1,1.2,0.1c0,0.7,0,1.4,0,2.2c-2.1,0.3-4.2,0.7-6.3,1
			c-0.4-2.2-0.3-2.4,1.1-2.8c0-3,0-6,0-9c-0.4,0-0.8-0.1-1.2-0.1c0-0.8,0-1.6,0-2.5C37,7.1,37.3,7,37.7,7c2.6,0,5.2,0,7.8,0
			c0.4,0,0.8,0.1,1.2,0.3c1.1,0.5,1.6,1.3,1.4,2.5c-0.1,0.6,0,1.2,0,1.7c0,2-1,3-3.1,3.1C44,14.8,42.9,14.8,41.8,14.9z M41.8,9.5
			c0,1,0,2,0,3c0.8-0.1,1.6-0.1,2.3-0.1c0-1,0-1.9,0-2.8C43.3,9.5,42.5,9.5,41.8,9.5z"/>
		<path class="st3" d="M50.7,9.5c-0.4,0-0.7-0.1-1.1-0.1c0-0.7,0-1.4,0-2.3c0.4,0,0.7,0,1.1,0c2.5,0,5,0,7.5,0C60,7,61,8,61,9.8
			c0,0.8,0,1.5,0,2.3c0,2-1,2.9-3.1,2.8c-1-0.1-2.1-0.1-3.2-0.2c0,1.1,0,2.1,0,3.2c1.5,0.3,1.5,0.5,1.2,2.3c-2.1,0-4.2,0-6.3,0
			c0-0.8,0-1.5,0-2.3c0.3-0.1,0.7-0.1,1.1-0.2C50.7,15,50.7,12.3,50.7,9.5z M57,12.3c0-1,0-1.9,0-2.8c-0.8,0-1.6,0-2.3,0
			c0,0.9,0,1.8,0,2.8C55.4,12.3,56.2,12.3,57,12.3z"/>
		<path class="st2" d="M30.9,32.7c-0.2,0.4-0.3,0.9-0.5,1.3c-3.3,6.2-4.6,12.7-3.6,19.7c0.3,1.8,0.8,3.6,1.3,5.6
			c-1.8-3-3.2-5.9-4-9.1c-0.9-3.6-1.4-7.3-2.2-11c-0.2-1.2,0.1-1.9,1.1-2.4c2.5-1.4,5-2.9,7.5-4.4C30.7,32.5,30.8,32.6,30.9,32.7z"
			/>
		<path class="st2" d="M69.4,32.4c1.7,0.9,3.4,1.8,5,2.8c0.9,0.5,1.6,1.1,2.5,1.5c1.2,0.6,1.5,1.4,1.2,2.6
			c-0.9,4.1-1.6,8.3-2.8,12.4c-0.8,2.6-2.2,5.1-3.4,7.6c3.1-9.3,1.7-18.2-3-26.7C69,32.6,69.2,32.5,69.4,32.4z"/>
		<path class="st3" d="M29.9,9.9c-0.5,0-0.9,0-1.3-0.1c0-0.9,0-1.8,0-2.8c2.1,0,4.1,0,6.2,0c0,0.9,0,1.7,0,2.5
			c-0.4,0-0.7,0.1-1.2,0.1c0,3.2,0,6.4,0,9.7c0.4,0,0.7,0,1.1-0.1c0,0,0.1,0.1,0.1,0.1c0.3,2.3,0.3,2.3-1.9,2.9
			c-1.4,0.4-2.8,0.8-4.4,1.3c0-0.9-0.1-1.6,0-2.4c0-0.3,0.4-0.5,0.6-0.7c0.2-0.2,0.7-0.4,0.7-0.6C29.9,16.7,29.9,13.4,29.9,9.9z"/>
		<path class="st1" d="M37.6,32c-0.2-0.3-0.4-0.5-0.6-0.8c-0.3-0.5-0.6-1.1-0.9-1.6c3.4-3.8,8.8-5.6,13.3-3.4c0.3,0.1,0.7,0.2,1,0.1
			c4.7-2.1,8.8-0.7,12.5,2.3c0.3,0.3,0.6,0.6,1.1,1c-0.5,0.8-1,1.6-1.5,2.4c-1-0.7-1.8-1.4-2.7-2c-1.8-1.2-3.8-2.3-6-2.8
			c-1.3-0.3-2.6,0.4-3.8,0.4c-1.2,0-2.4-0.7-3.8-0.4c-2.3,0.5-4.3,1.6-6.2,2.9C39.2,30.7,38.5,31.3,37.6,32z"/>
		<path class="st1" d="M50,68.3c0.7-1.2,1.3-1.4,2.3-0.8c1,0.6,1.7,1.5,1.6,2.7c-0.1,2.1-0.6,4-1.9,5.7c-1.3,1.7-2.9,1.7-4.1,0
			c-1.3-1.8-1.9-3.9-1.9-6.1c0-1.1,1-2.2,2.1-2.6C49,67,49.6,67.3,50,68.3z"/>
		<path class="st1" d="M36.5,32.6c0.3,0.2,0.6,0.3,0.9,0.6c-1.8,1-2.5,2.6-2.5,4.5c0,0.3-0.1,0.6-0.3,0.8c-2.5,3.7-4.3,7.7-5.5,12
			c0,0.1-0.2,0.3-0.4,0.7C28,45.2,29.5,40.1,32,35c1,1.1,2.2,1.8,1.8,3.5c1.5-1.1,0.3-2.4,0.3-3.7c-1.8-0.8-2.4-2.4-1.2-4.1
			c0.7-1,1.4-1.1,2-0.1c0.6,1,0.8,2.2,1.1,3.2C36,33.6,36.2,33.2,36.5,32.6z"/>
		<path class="st1" d="M62.6,33.2c0.4-0.2,0.7-0.4,1-0.6c0.2,0.5,0.4,0.9,0.7,1.6c0.1-1,0.1-1.7,0.3-2.3c0.3-1.2,1.2-2.1,1.9-1.9
			c0.8,0.3,1.7,2.2,1.2,3.1c-0.4,0.7-1,1.3-1.7,2.1c0.2,0.8-1.2,2-0.1,2.9c0.6-1,1.2-2,1.9-3.1c2.5,3.5,4,10.5,3.4,16
			c-0.2-0.7-0.4-1.4-0.7-2.1c-0.8-2.4-1.9-4.8-3.1-7c-0.6-1-1.2-2-1.8-3c-0.2-0.4-0.5-0.8-0.5-1.2C65,35.7,64.4,34.2,62.6,33.2z"/>
		<path class="st1" d="M56.5,91.9c-2.5,2.5-10.3,2.5-13,0c1.3-0.5,2.7-1,4.1-1.5c1.6-0.7,3.2-0.6,4.9,0
			C53.8,90.9,55.2,91.4,56.5,91.9z"/>
		<path class="st2" d="M61.5,82.5c0.5-1.4,0.9-2.6,1.3-3.8c-0.1,0-0.1,0-0.2-0.1c-0.6,1-1.3,2.1-1.9,3.1c-0.1,0-0.3,0-0.4-0.1
			c0-0.4-0.2-0.9,0-1.1c2-2.8,2.6-6,2.7-9.4c0-0.1,0-0.3,0-0.7c0.2,0.4,0.4,0.6,0.5,0.8c1.5,3.6,1.5,7.3,0.6,11.1
			c-0.2,0.7-0.5,0.8-1.1,0.7C62.4,83,61.9,82.7,61.5,82.5z"/>
		<path class="st2" d="M37.2,78.7c0.4,1.2,0.9,2.5,1.3,3.8c-0.3,0.1-0.7,0.3-1.1,0.5c-0.9,0.3-1.4,0.2-1.6-0.9
			c-0.7-3.5-0.7-6.9,0.5-10.3c0.1-0.3,0.2-0.6,0.4-0.9c0-0.1,0.1-0.1,0.2-0.2c0.3,1.8,0.4,3.6,0.9,5.3c0.5,1.7,1.3,3.3,2,5
			c0.1,0,0.2,0,0.3-0.1c-0.2,0.2-0.4,0.5-0.7,0.9c-0.7-1.2-1.4-2.2-2-3.2C37.4,78.6,37.3,78.7,37.2,78.7z"/>
		<path class="st2" d="M55.5,87.2c-2.9-1.3-5.1-5.1-4.6-7.8c0.1,0.6,0.3,1.2,0.4,1.7c0.1,0,0.1,0,0.2,0c0-0.4,0-0.9,0-1.3
			c0.1-0.5-0.2-1.2,0.7-1.2c0.8,0,1.5,0.7,1.6,1.4c0.2,1.5,0.3,3,0.6,4.4C54.6,85.2,55.1,86.1,55.5,87.2z"/>
		<path class="st2" d="M48.7,81c0.1-0.5,0.2-1.1,0.3-1.8c0.7,2.5-1.7,6.6-4.5,7.9c0.1-0.3,0.1-0.4,0.2-0.6c1-2,1.5-4.2,1.5-6.5
			c0-0.9,0.7-1.6,1.5-1.5c0.2,0,0.6,0.4,0.6,0.6c0.1,0.6,0,1.2,0,1.8C48.6,81,48.6,81,48.7,81z"/>
		<path class="st2" d="M43.2,81.3c0.1-0.8,0.2-1.7,0.2-2.6c-0.1-0.8,0.4-0.9,0.9-0.9c0.6,0,1.2,0.1,1.2,0.9
			C45.4,79.8,44.3,81.1,43.2,81.3z"/>
		<path class="st2" d="M56.9,81.4c-1.2-0.3-2.3-1.4-2.3-2.6c0-0.3,0.2-0.7,0.4-0.8c0.4-0.1,0.9-0.1,1.3-0.1c0.1,0,0.3,0.5,0.3,0.8
			c0,0.5,0,0.9,0,1.4C56.7,80.6,56.8,81,56.9,81.4z"/>
		<path class="st2" d="M43.1,71.6c-0.6-0.9-1.1-1.8-1.8-2.9c0.8-0.2,1.3-0.3,1.9-0.4c0.1,1.1,0.1,2.1,0.2,3.2
			C43.3,71.5,43.2,71.6,43.1,71.6z"/>
		<path class="st2" d="M56.8,68.3c0.6,0.1,1.1,0.2,1.9,0.4c-0.7,1.1-1.3,2-1.8,2.9c-0.1,0-0.1-0.1-0.2-0.1
			C56.7,70.5,56.8,69.5,56.8,68.3z"/>
		<path class="st1" d="M59.5,41.3c0.5-1.3,1-2.4,1.5-3.6C61.8,39,61.4,40.1,59.5,41.3z"/>
		<path class="st1" d="M40.5,41.3c-1.8-1.2-2.2-2.1-1.5-3.7C39.5,38.9,39.9,40,40.5,41.3z"/>
		<path class="st0" d="M44.4,34.1c1.4-1.4,3.1-2.3,5.2-1.6c0.2,0.1,0.6,0.1,0.8,0c1.8-0.6,3.9,0.1,5.1,1.6c-3.4-1.2-4.1-1.2-5.5,0
			C48.1,32.5,46.3,33.2,44.4,34.1z"/>
		<path class="st0" d="M53.6,39.9c-2.5-2.6-5.3-2.3-7.3,0.1c0.3-1.7,1.7-2.9,3.6-2.9C51.8,37,53.3,38.2,53.6,39.9z"/>
		<path class="st0" d="M43.7,52.7c0.2,0.1,0.3,0.2,0.6,0.4c-0.7,0-1.3,0.1-1.8,0c-0.3-0.1-0.7-0.4-0.8-0.7c0-0.3,0.3-0.7,0.5-0.9
			c0.8-0.6,2.5-0.7,3.8-0.1C45.2,51.8,44.4,52.2,43.7,52.7z"/>
		<path class="st0" d="M55.8,53c0.4-0.1,0.5-0.2,0.7-0.3c-0.8-0.5-1.6-0.9-2.5-1.4c1.2-0.7,3.3-0.5,4.1,0.3c0.5,0.5,0.3,1.2-0.5,1.4
			c-0.3,0.1-0.6,0-0.9,0C56.5,53.1,56.3,53,55.8,53z"/>
		<path class="st0" d="M65.5,9.7c1.4,0.1,2.6,0.1,3.9,0.2c0,3.5,0,6.8,0,10.3c-1.2-0.3-2.3-0.5-3.4-0.7c-0.2-0.1-0.5-0.4-0.5-0.6
			C65.5,15.8,65.5,12.8,65.5,9.7z"/>
		<path class="st0" d="M41.8,9.5c0.8,0,1.5,0,2.3,0c0,0.9,0,1.8,0,2.8c-0.7,0-1.5,0.1-2.3,0.1C41.8,11.4,41.8,10.5,41.8,9.5z"/>
		<path class="st0" d="M57,12.3c-0.8,0-1.5,0-2.3,0c0-1,0-1.8,0-2.8c0.8,0,1.5,0,2.3,0C57,10.4,57,11.3,57,12.3z"/>
	</g>
</g>
<path class="st1" d="M-548-95"/>
</svg>
