<?xml version="1.0" encoding="utf-8"?>
<!-- Generator: Adobe Illustrator 24.0.1, SVG Export Plug-In . SVG Version: 6.00 Build 0)  -->
<svg version="1.1" id="Layer_1" xmlns="http://www.w3.org/2000/svg" xmlns:xlink="http://www.w3.org/1999/xlink" x="0px" y="0px"
	 viewBox="0 0 100 100" style="enable-background:new 0 0 100 100;" xml:space="preserve">
<style type="text/css">
	.st0{fill:#D6D8ED;}
	.st1{fill:#004A98;}
	.st2{fill:#FFFFFF;}
	.st3{fill:none;stroke:#FFFFFF;stroke-width:0.2304;}
	.st4{fill:#FFC629;}
	.st5{fill:#FFFFFF;stroke:#004A98;stroke-width:2.073335e-02;}
	.st6{fill:#DEDFF0;}
	.st7{fill:#004A98;stroke:#FFFFFF;stroke-width:1.1519;}
	.st8{fill:#004A98;stroke:#004A98;stroke-width:0.6911;}
</style>
<path class="st0" d="M-548-95"/>
<g>
	<path class="st1" d="M89.5,29.9l0-0.8h2.9c0,0,0.4,2.9,2.8,5.2h-6.7c0,0,0.4-1.6-0.9-1.6c-1.3,0-0.9,1.1-0.9,1.1s-0.2,0.6,1.3,0.8
		c1.5,0.2,8.8,0.6,8.8,6.9c0,6.3-7.2,6.3-7.6,6.3c-0.3,0-4.2,0.2-5.9-2.5l-1.1,1l-5,0c0,0,3-4.8,3.6-7.4h4.1c0,0-0.8,3.8,2.8,3.8
		c0,0,2.5,0.1,2.5-2.3c0-1.7-2.9-2.2-2.9-2.2S82,37.8,82,33.4c0-4.4,4.6-4.1,4.6-4.1S87.6,29.3,89.5,29.9z"/>
	<ellipse class="st1" cx="54.5" cy="48.3" rx="40.5" ry="28.1"/>
	<ellipse class="st2" cx="54.4" cy="48.3" rx="39.2" ry="26.6"/>
	<ellipse class="st1" cx="54.4" cy="48.3" rx="38.3" ry="25.7"/>
	<path class="st1" d="M77.9,21.1c-6.9-2.6-14.8-4.1-23.3-4.1c-8.9,0-17.2,1.6-24.3,4.5l2.6,7.7c6.1-2.8,13.6-4.4,21.7-4.4
		c7.7,0,14.9,1.5,20.8,4L77.9,21.1z"/>
	<path class="st3" d="M77.1,21.3c-8.1-2.5-14-3.9-22.5-3.9c-8.9,0-16.5,1.7-23.5,4.3l2.1,6.8c6.1-2.8,13.3-4.2,21.4-4.2
		c7.7,0,14.6,1.3,20.5,3.9L77.1,21.3z"/>
	<path class="st1" d="M44.7,75.5c0,0-0.6,1.1,0.4,1.5c1,0.5,1.5,1,1.9,1.1c0.3,0.1,2.3,0.6,3.6-0.1c1.2-0.8,2.1-1.8,2.1-1.8
		L44.7,75.5z"/>
	<path class="st2" d="M71.3,46.2L71.4,34c0-1,1.4-1,1.4-1v-3.3c-2.1,0.1-6.5,0.4-6.5,0.4v3.1l1,0c1,0,0.9,0.7,0.9,0.7v4L64.8,30
		h-7.6v3.2h1c0,0,0.7,0,0.7,0.8v8.6l0,0.3c0,0,0,0.6-0.9,0.7c-0.9,0.1-1.4,0.3-1.4-0.6l0,0l0-13l-13.6,0v3.2c0,0,0.3,0,0.7,0
		c0.4,0,0.4,0.4,0.4,0.4v3.7l-2.8,0.3v-3.2c0-1.2,1.1-1.3,1.1-1.3v-3.2h-8.1v3.2c0,0,0.5,0,1.1,0c0.7,0,0.6,0.5,0.6,0.5v10.9l0,3.2
		c0,0,0.2,0.9-1.2,1.1l0,3.3l0,0l7.7-2V47c-1.2,0.5-1.2-0.5-1.2-0.5v-4.7l2.8-0.6v4.5c0,0,0.3,0.8-1.2,1.1v3.3l8.1-2l0,0
		c6.4-1.4,6.4-1.5,12.7-1.9l0,0l0-3.1c-1.5,0.4-1.5-0.7-1.5-0.7l0,0l0-5.5l3.9,9.3L71.3,46.2L71.3,46.2z"/>
	<path class="st2" d="M77.3,29.2c0,0,5.8-0.5,5.8,6.6c0,6.8-5.4,6.6-5.8,6.6c-0.4,0-5.3,0-5.3-6.3C72,30,75.8,29.2,77.3,29.2z"/>
	<path class="st2" d="M90,29l0-0.8h2.9c0,0,0.4,2.9,2.8,5.2H89c0,0,0.4-1.6-0.9-1.6c-1.3,0-0.9,1.1-0.9,1.1s-0.2,0.6,1.3,0.8
		c1.5,0.2,8.8,0.6,8.8,6.9c0,6.3-7.2,6.3-7.6,6.3c-0.3,0-4.2,0.2-5.9-2.5l-1.1,1l-5,0c0,0,3-4.8,3.6-7.4h4.1c0,0-0.8,3.8,2.8,3.8
		c0,0,2.5,0.1,2.5-2.3c0-1.7-2.9-2.2-2.9-2.2s-5.3-0.3-5.3-4.7c0-4.4,4.6-4.1,4.6-4.1S88.1,28.4,90,29z"/>
	<path class="st2" d="M53.5,24.2c0,0,3.2-0.2,3.2,3.1c0,2.4-2.4,2.8-3.2,2.8c-1.7,0-3.2-0.8-3.2-2.9C50.3,24.1,53.5,24.2,53.5,24.2z
		"/>
	<path class="st1" d="M72,45.5L72,33.4c0-1,1.4-1,1.4-1V29c-2.1,0.1-6.5,0.4-6.5,0.4v3.1l1,0c1,0,0.9,0.7,0.9,0.7v4l-3.3-7.8h-7.6
		v3.2h1c0,0,0.7,0,0.7,0.8V42l0,0.3c0,0,0,0.6-0.9,0.7c-0.9,0.1-1.4,0.3-1.4-0.6l0,0l0-13l-13.6,0v3.2c0,0,0.3,0,0.7,0
		c0.4,0,0.4,0.4,0.4,0.4v3.7l-2.8,0.3v-3.2c0-1.2,1.1-1.3,1.1-1.3v-3.2h-8.1v3.2c0,0,0.5,0,1.1,0c0.7,0,0.6,0.5,0.6,0.5V44l0,3.2
		c0,0,0.2,0.9-1.2,1.1l0,3.3l0,0l7.7-2v-3.3c-1.2,0.5-1.2-0.5-1.2-0.5v-4.7l2.8-0.6v4.5c0,0,0.3,0.8-1.2,1.1v3.3l8.1-2l0,0
		c6.4-1.4,6.4-1.5,12.7-1.9l0,0l0-3.1c-1.5,0.4-1.5-0.7-1.5-0.7l0,0l0-5.5l3.9,9.3L72,45.5L72,45.5z"/>
	<path class="st1" d="M77.9,28.6c0,0,5.8-0.5,5.8,6.6c0,6.8-5.4,6.6-5.8,6.6c-0.4,0-5.3,0-5.3-6.3C72.6,29.4,76.4,28.6,77.9,28.6z"
		/>
	<path class="st2" d="M51.6,32.4c0,0,0.8-0.2,0.8,0.7c0,0.9,0,10.5,0,10.5s0,0.6-1,0.7c-1,0.1-1.5,0.3-1.5-0.6v-10c0,0,0-0.9,1-1.1
		C50.9,32.6,50.1,32.7,51.6,32.4z"/>
	<path class="st1" d="M50.9,33.2c0,0,0.8-0.2,0.8,0.7c0,0.9,0,10.5,0,10.5s0,0.2-1,0.3c-1,0.1-1.1,0.2-1.1-0.8v-9.3
		c0,0-0.4-1.1,0.6-1.2C50.2,33.3,49.3,33.5,50.9,33.2z"/>
	<path class="st1" d="M90.7,28.4l0-0.8h2.9c0,0,0.4,2.9,2.8,5.2h-6.7c0,0,0.4-1.6-0.9-1.6c-1.3,0-0.9,1.1-0.9,1.1s-0.2,0.6,1.3,0.8
		c1.5,0.2,8.8,0.6,8.8,6.9s-7.2,6.3-7.6,6.3c-0.3,0-4.2,0.2-5.9-2.5l-1.1,1l-5,0c0,0,3-4.8,3.6-7.4H86c0,0-0.8,3.8,2.8,3.8
		c0,0,2.5,0.1,2.5-2.3c0-1.7-2.9-2.2-2.9-2.2s-5.3-0.3-5.3-4.7c0-4.4,4.6-4.1,4.6-4.1S88.8,27.8,90.7,28.4z"/>
	<path class="st2" d="M37.4,73.8c0,0,0.3-2-1.6-2c0,0-0.9,0.1-1.3,0.3c0,0-1.6-0.9-3.2,0c-1.6,0.9-1.6,2.3-1.1,3.1
		c0,0-1.9,1-0.9,2.5c0,0-1.1,1.9-0.4,2.9c0.7,0.9,2.6,2.7,3.9,2c0,0,1.3-0.6,1.5-1.3c0,0,1.1,1,2.4,0.1c0,0,0.7,0.6,2.1-0.2
		c0,0,4.2-1.9,0.4-4.6l0.5-0.9l-0.7-1C39,74.6,38.2,73.4,37.4,73.8z"/>
	<path class="st1" d="M37.8,73.5c0,0,0.1-1.8-1.7-1.9c0,0-0.6,0-1.5,0.2c0,0-0.6-0.5-1.9-0.5c-1.4,0-3.8,1.6-2.9,3.7
		c0,0-1.8,1.2-0.6,2.9c0,0-1.3,1.9-0.1,3.4c1.2,1.5,4.1,2.9,5.6,0.3c0,0,1.4,1.4,2.5-0.4c0,0-1.4,1.1-2.6-0.4c0,0-0.6,1.6-2.2,1.6
		c-1.5,0-2.3-1.2-2.8-1.9c-0.5-0.7-0.1-2.4,0.4-2.7c0,0-1.6-0.6,1-2.4c0,0-1.2-1.8,0.5-2.6c1.7-0.8,2.5-0.8,3-0.2
		c0,0,1.1-0.5,1.5-0.5c0.4,0,1.2,0.2,1.2,1.2c0,0,0.4,0.9-1,1.3l-1.3,0.6c0,0-0.5,0.8,0.2,0.5c0.6-0.3,1.6-0.8,1.9-1
		c0.4-0.2,1.2-0.7,1.6-0.5c0.4,0.3,0.6,0.3-0.3,0.8c-0.9,0.5-3.7,2-3.7,2v0.9c0,0,3.1-2.2,4.4-2.8c0,0,0.7-0.3,0.1-1
		C38.2,73.3,37.8,73.5,37.8,73.5z"/>
	<polygon class="st1" points="37.2,77.1 36.8,76.8 39.4,75.3 	"/>
	<path class="st1" d="M39.7,75.7l-1.2,1l0.3,0.2c0,0,0.3-0.3,0.6,0.1c0.3,0.4,1.1,0.6,1.1,1.9c0,1.4-1.3,2.3-1.9,2.4
		c0,0,2.8-0.2,2.8-2.4c0-2.2-2-2.5-2-2.5L39.7,75.7z"/>
	<path class="st1" d="M10.7,40L2.1,26.5l0.5-0.4c0,0,4,3.7,9.6,3.7H26c0,0,8.2-0.2,8.2,7.9c0,0,0.5,5.5-4.2,7.7c0,0,0.9,0.5,1.1,1.5
		c0.1,1,0.4,2.2,1.1,2.2c0.7,0,1.6-1.8,1.4-3.2l2.6-0.8c0,0,0.2,0.9,0.2,2.1c0,1.2-0.4,6.4-6.3,7.6c0,0-2.3,0.4-3.6-1.7
		c-1.3-2.1-2.1-3.7-2.1-3.7s-0.4-1-1.9-1c-1.5,0-1.9,1.1-1.9,1.1v7c0,0,0.2,1.2,1.4,0.9v2.8c0,0-4.9,3.9-9.4,9.5l-0.2-6
		c0,0,2.7-1.9,2.7-4.2c0-2.3-0.1-23.7-0.1-23.7S12.6,36.4,10.7,40z"/>
	<path class="st2" d="M11.5,39.2L2.9,25.7l0.5-0.4c0,0,4,3.7,9.6,3.7h13.8c0,0,8.2-0.2,8.2,7.9c0,0,0.5,5.5-4.2,7.7
		c0,0,0.9,0.5,1.1,1.5c0.1,1,0.4,2.2,1.1,2.2c0.7,0,1.6-1.8,1.4-3.2l2.6-0.8c0,0,0.2,0.9,0.2,2.1c0,1.2-0.4,6.4-6.3,7.6
		c0,0-2.3,0.4-3.6-1.7c-1.3-2.1-2.1-3.7-2.1-3.7s-0.4-1-1.9-1c-1.5,0-1.9,1.1-1.9,1.1v7c0,0,0.2,1.2,1.4,0.9v2.8
		c0,0-4.9,3.9-9.4,9.5l-0.2-6c0,0,2.7-1.9,2.7-4.2c0-2.3-0.1-23.7-0.1-23.7S13.4,35.6,11.5,39.2z"/>
	<path class="st1" d="M12.1,38.6L3.5,25.1l0.5-0.4c0,0,4,3.7,9.6,3.7h13.8c0,0,8.2-0.2,8.2,7.9c0,0,0.5,5.5-4.2,7.7
		c0,0,0.9,0.5,1.1,1.5c0.1,1,0.4,2.2,1.1,2.2c0.7,0,1.6-1.8,1.4-3.2l2.6-0.8c0,0,0.2,0.9,0.2,2.1c0,1.2-0.4,6.4-6.3,7.6
		c0,0-2.3,0.4-3.6-1.7c-1.3-2.1-2.1-3.7-2.1-3.7s-0.4-1-1.9-1c-1.5,0-1.9,1.1-1.9,1.1v7c0,0,0.2,1.2,1.4,0.9v2.8
		c0,0-4.9,3.9-9.4,9.5l-0.2-6c0,0,2.7-1.9,2.7-4.2c0-2.3-0.1-23.7-0.1-23.7S14,35,12.1,38.6z"/>
	<path class="st1" d="M54.5,23.7c0,0,3.2-0.2,3.2,3.1c0,2.4-2.4,2.8-3.2,2.8c-1.7,0-3.2-0.8-3.2-2.9C51.3,23.6,54.5,23.7,54.5,23.7z
		"/>
	<path class="st4" d="M36,50.6v-2c1.5-0.1,1.2-1.5,1.2-1.5l0.1-14c0-1.5-1.6-1.3-1.6-1.3v-1.7h6.7V32c0,0-1.1,0.2-1.1,1.6
		c0,1.4,0,4.2,0,4.2s2.3-0.1,4.2-0.5v-4.6c0,0,0.2-1-0.7-1h-0.5v-1.7h6.8v1.7c0,0-1.7,0.1-1.7,1.7c0,1.5,0,10.3,0,10.3
		s-0.2,1.4,1.1,1.2l0.6-0.1v1.9l-6.6,1.7v-1.8c0,0,1-0.2,1-1.4c0-1.2,0-5.7,0-5.7l-4.2,0.9v5.7c0,0,0,1.2,1.2,1V49L36,50.6z
		 M71.3,44.8l0.2-11.7c0-1.3,1.4-1.3,1.4-1.3v-2l-5.2,0.2v1.8h0.7c1.2,0,1.2,1.2,1.2,1.2v6.1l-0.5,0l-4-9.1h-6.3v1.9h0.6
		c0,0,1.1,0.2,1.1,1.3c0,1.2,0,1.1,0,8.8c0,1.5-0.9,1.4-2.4,1.7c-1.5,0.3-1.4-1.6-1.4-1.6V30.2h-4.8v1.7c0,0,1.4-0.2,1.4,1.2
		c0,1.3,0,10.5,0,10.5s0.2,1.3-1.4,1.4v1.7c0,0,6.6-1.4,11.9-1.7v-1.7c0,0-1.5,0.2-1.5-1.5v-7.2l0.6-0.2l4.6,10.4L71.3,44.8z
		 M73.3,35.1c0,6.2,4.4,6,4.4,6c1.1,0,5.3-0.1,5.3-6.1c0-6-4.6-5.7-4.6-5.7S73.3,28.9,73.3,35.1z M87.8,28.5c-1.3,0-3.9,0.4-3.9,3.3
		c0,2.8,1.4,3.3,5,4.2c3.6,1,3.2,2.7,3.2,2.7s0.1,3.2-3.1,3.2c-4.3,0-3.8-3.8-3.8-3.8l-2.8,0c-1,3.3-2.8,5.9-2.8,5.9l3.7,0l1.3-1.3
		c1.1,1.7,2.5,2.8,6.1,2.8c3.6,0,6.6-2,6.6-5.7c0-3.7-2.7-4.8-3.9-5.3c-1.2-0.5-4.9-1.1-4.9-1.1s-1.3,0-1.3-1.2
		c0-1.9,1.7-1.8,1.7-1.8c1.5,0,1.6,1.7,1.6,1.7l4.6,0c-1.7-2.2-1.9-4-1.9-4h-1.7l-0.1,1.2C89.9,28.8,89.1,28.5,87.8,28.5z
		 M17.5,57.6c0,3.5-2.6,5-2.6,5l0,3.6c2.6-3.2,7.8-7.8,7.8-7.8v-1.7c-1.3,0-1.3-1.5-1.3-1.5v-7.5c0,0,0.9-1.3,2.6-1.3
		c2,0,2.6,1.1,2.6,1.1s1.7,3.2,2.6,4.3c0.9,1.1,2.6,2,5.6-0.3c3.1-2.3,2.6-6.7,2.6-6.7l-1.6,0.5c0,1-0.7,3.3-2.1,3.3
		c-1.4,0-1.5-1.8-1.8-2.9c-0.3-1.1-1.7-1-1.7-1l0-0.6c0,0,5.1-1.3,5.1-7.6c0-7.1-7.2-7.2-7.2-7.2H14.1c-5.5,0.3-8.8-2.6-8.8-2.6
		l6.8,10.7c2.3-3.4,5.1-3.6,5.1-3.6S17.5,54.1,17.5,57.6z M52,26.5c0,2.1,1.8,2.4,2.5,2.4c0.7,0,2.5-0.4,2.5-2.5
		c0-2.1-2.5-2.1-2.5-2.1S52,24.4,52,26.5z"/>
	<path class="st1" d="M39,70.9c0,0-0.3,0.7,0.3,1.3c0.5,0.6,1.2,0.9,1.7,1.9c0.6,1,1,1.2,1.6,1.3c0.6,0.1,1.4,0.4,2,0.1L39,70.9z"/>
	<path class="st1" d="M21.6,33.1v9.9c0,0,7.5-0.4,7.5-6C29.1,31.5,21.6,33.1,21.6,33.1z"/>
	<path class="st2" d="M22.3,33.6v8.5c0,0,6.1-0.6,6.1-5.3C28.4,32.7,22.3,33.6,22.3,33.6z"/>
	<path class="st1" d="M22.2,34.3v8.5c0,0,6.1-0.6,6.1-5.3C28.3,33.4,22.2,34.3,22.2,34.3z"/>
	<path class="st1" d="M78.3,30.6c0,0,1.9-0.2,1.9,4.5c0,4.6-1.1,4.9-2.2,4.9c-1.5,0-1.9-2.7-1.9-4.8C76.1,33.1,76.4,30.7,78.3,30.6z
		"/>
	<path class="st5" d="M78.3,31.1c0,0,1.3-0.3,1.3,4c0,3.8-0.7,4.1-1.6,4.1c-0.9,0-1.2-1.9-1.2-4C76.8,33.1,76.8,31.1,78.3,31.1z"/>
	<path class="st1" d="M77.8,31.8c0,0,1.3-0.3,1.3,4c0,3.8-0.7,4.1-1.6,4.1c-0.9,0-1.2-1.9-1.2-4C76.3,33.8,76.3,31.8,77.8,31.8z"/>
	<path class="st1" d="M58.8,46.7c0,0-0.1-0.5-1.4-0.6c-1.3-0.1-3.2-0.6-3.2-3.2c0-2.6,1-5.7,3-6.3c0,0,0.8-0.1,1.7,0.3
		c0.9,0.5,3,1.7,3.7,4.5c0,0,0.5,1.4,0.3,1.7c-0.2,0.3-0.2,0.5,0,0.7c0.2,0.3,1.6,1.6,1.6,1.6l-4.7,2.4"/>
	<path class="st1" d="M65.7,46.1l-0.2-1.3c0,0,1.3,0.7,2.6-0.9c1.4-1.6,4.8-7,7.7-7c0,0,1.7,0.2,2.1,1c0.3,0.8,0.9,2.1,0.6,3.9
		c-0.3,1.8-1.2,6.1-7.8,7.2L65.7,46.1z"/>
	<path class="st1" d="M34.6,52.8c0,0-0.8-4.7,0.4-5.5c0,0,0.6-0.4,1.4,0.6c0.8,1,2.9,3.5,2.9,3.5L34.6,52.8z"/>
	<path class="st1" d="M45.6,75.3c0,0,0.3,1,2.3,1c2,0,3.1-0.7,3.1-1.8c0-1.1-1.2-1.6-1.7-1.6c-0.6,0-3.2,0.8-4.2,1.5"/>
	<path class="st6" d="M49.9,74c0,0-1.1-0.4-3.5,0.5c0,0-0.8,0.5,0.1,0.8c0.9,0.3,3.9,0.2,4.1-0.9c0,0-0.1-0.1-0.3-0.1
		c-0.2,0-1.2,0.3-1.8,0.4L49.9,74z"/>
	<path class="st6" d="M41.6,66.1c0,0-1.3,0.1-2.6-2.5c-1.4-2.5-3.2-8.4-3.9-11.7c0,0-0.3-2.3-0.1-3.9c0,0,0.5-1.1,1-0.4
		c0.5,0.7,4.5,6.8,8.1,10.1c0,0,2.8,2.2,2.9,5.8l0.3,0.1c0,0,0.1-1.1,0.2-1.6c0.1-0.5,0.7-1.6-0.4-2.5l-1.2-1c0,0,0.4-0.9,2.1-0.9
		c0,0-0.8-5.6,1.1-8.5c0,0,0.9-0.7,1,0.1c0.1,0.8,1,2.5,1.2,2.9c0.3,0.4,2.2,2,1.9,3.2c0,0,0.6-0.6,0.6-1.3c0,0,0.1-0.2,0.5-0.2
		c0.3,0,1.3,0.1,2-0.6l-0.6-0.2c0,0,1.5-1.6,1.9-2.2c0.5-0.6,1.9-3.6,5.7-5.1c0,0-1.7-0.3-3,0.8c0,0-0.4,0.2-0.6-0.2
		c-0.3-0.4-0.7-0.9-1.4-1c-0.6-0.1-3,0.1-3-2.5c0.1-2.6,0.8-5.9,2.4-5.9c0,0,1.4,0.3,2.1,0.9c0.7,0.6,2.5,2.6,2.6,5.2l-0.4,0.2
		l1.1,1.7l-0.3,0.3c0,0,1.7-0.1,3,0.6c0,0-0.5,0.4,0.3,0.5c0.8,0.1,1.3,0.1,2-0.7c0.7-0.8,1.9-2.3,2.5-3.4s2.8-4.6,5.9-4.6
		c2.3,0,1.7,3,1.7,3s0.5,6.6-7.8,8.1c0,0,1.5,1,2.1,3.3c0,0,0.3-0.5,0.1-1c0,0-0.4-0.4-0.1-0.6c0.3-0.2,0.3-0.3,0.7-0.4
		c0.4-0.1,1.1,0.3,1.4-0.3c0.3-0.5,0.3-0.5,0.8-0.5c0.6,0.1,1.9,0.2,2.6-0.5c0,0,0.5-0.3,1.2-0.3c0.8,0,3.2,0,3.2,0s4.5,0.4,4.5,4.1
		s-0.1,4.4-0.7,6.1c-0.6,1.7-1.1,3.3-3,4.4c0,0-0.7,0.5-1.4,1c-0.7,0.5-1.7,1.2-2.2,1.6c-0.5,0.3-1.4,1-2.1,1.1
		c-0.6,0.1-1.3,0.3-1.9,1c-0.6,0.6-2.8,2.8-3.9,2.8c-1.1,0-2.1-0.5-2.8-1.1c0,0,1.5-0.2,2.1-0.8c0,0,0.4-0.2,0.4,0.5
		c0,0,0.6-0.6,0.1-0.9c0,0-0.3,0-0.8,0.2c-0.5,0.2-1.2,0.4-1.5,0.4c-0.3,0-1-0.1-0.6-1c0.3-1,2.1-3.1,1.6-9.1c0,0-0.6,6.7-2.8,9
		c-2.2,2.3-3,2.9-5.4,3.6c-2.5,0.7-4.1,1.8-4.7,2.1c-0.6,0.3-2.1,0.8-2.9,1c-0.8,0.3-1.4,0.8-1.7,1c-0.4,0.2-2.4,2.2-4.3,2.2
		c-1.9,0-1.7-0.6-2.4-0.9c-0.6-0.3-1.6-0.6-0.3-1.5c0,0,0.3,1,2.3,1c2,0,3.1-0.7,3.1-1.8c0-1.1-1.2-1.6-1.7-1.6
		c-0.6,0-3.2,0.8-4.2,1.5c0,0-0.5,0.5-1.6,0.5c-1.2,0-1.1-0.1-1.5-0.7c-0.4-0.6-1-1.8-1.9-2.5c0,0-0.4-0.2-0.3-0.6
		c0.1-0.4,0.5-1.4,0.4-3.3c0,0-0.1-1.2,1-1.1c1.1,0.1,4.3,0.2,5.2-2.1l-0.7,0.6c0,0-0.5,0.2-0.8-0.1c-0.3-0.3-1-0.5-1-0.5
		s-0.6-1.7-2.1-2.3c0,0-0.1-1.4-1.2-2.2c0,0,0.3-1-1.6-2.3c0,0-0.2-1.5-1.4-2.5c0,0,0.3-1.5-0.8-2.6c0,0,0.1-0.8-0.5-1.6
		c-0.5-0.8-0.6-2.2-0.6-2.2s-0.2,1,0.1,2.9c0.3,1.9,1.7,6.1,2.1,7.2c0.4,1,1.5,3.7,2.3,4.9C41,65.1,41.6,66.1,41.6,66.1z"/>
	<g>
		<path class="st1" d="M51,73.3c0,0,0.6,0.4,0.6,1.5c0,0,0.3,0.3,0.4,0c0-0.2-0.1-1.1-0.7-1.6C51.2,73.2,50.8,73.1,51,73.3z"/>
		<path class="st1" d="M51.8,72.9c0,0,0.9,0.6,0.8,1.5l-0.2,0c0,0-0.1-0.8-0.7-1.3L51.8,72.9z"/>
		<path class="st1" d="M44.7,71.1c0,0-0.3-0.7-0.3-1.5c0-0.8,0.4-1.6,1.1-2.1c0,0-1.8,0.5-1.8,1.9C43.7,70.9,44.7,71.1,44.7,71.1z"
			/>
		<path class="st1" d="M43.1,70c0,0,0.6,1.4,1.3,1.6C44.4,71.6,42.3,72.2,43.1,70z"/>
		<path class="st1" d="M48.1,67.9c0,0,1.6,0.2,1.6,1.4c0,1.2-0.9,1.2-1.1,1.2c-0.1,0-0.3-0.2-0.4-0.5c-0.1-0.3-0.1-0.3-0.3-0.3
			c-0.2,0-1,0.3-1.7,0.9c0,0-0.6,0.2-0.4-0.4C45.8,69.5,46.7,67.9,48.1,67.9z"/>
		<path class="st1" d="M54.4,62.3c0,0,1-0.6,1.5-2c0.5-1.4,1.4-1.7,2.7-1.5c0,0-1.5,0.3-1.5,1c0,0,0.8-0.1,0.9,0.2
			c0,0.3,0,0.2-0.4,0.4c-0.3,0.2-1.6,1-2,1.4C55,62.1,54.4,62.3,54.4,62.3z"/>
		<path class="st1" d="M57,64c0,0-0.4-0.2,0-0.3c0.4-0.1,2.4-0.3,3.3-1.7c0,0,0,1-0.6,1.5C59.1,64.1,58.6,64.2,57,64z"/>
		<path class="st1" d="M55.4,62.6c0,0,1-0.6,1.6-1.3c0.6-0.7,0.9-0.7,1.4-0.7c0.5,0,0.8,0.4,0.8,0.7c0,0.3-0.4,0.9-0.9,1.2
			c0,0,0.7-1.3-0.3-1.3c-1,0-1.3,1-0.6,0.9c0,0,0.1-0.2,0.3-0.2c0.2,0,0,1.1-0.9,1.1S55.4,62.6,55.4,62.6z"/>
		<path class="st1" d="M71,59.4c0,0,0.6,5-1.4,7.3c0,0,2.2-0.3,2.2-4.4C71.8,59.5,71,59.4,71,59.4z"/>
		<path class="st1" d="M67.6,48.1c0,0,1.9-3.4,2.8-4.9c0.9-1.5,2.8-5,5.9-4.8c0,0-0.3,0.3-0.7,0.4c-0.3,0.1-2.7,1.6-3.7,3.3
			c-1,1.6-0.2,1.9,0,2.2c0.2,0.3,0.6,0.7,0.4,1.1c-0.2,0.4-0.5,0.4-0.7,0.6c-0.2,0.2-0.1,0.3-0.1,0.5C71.6,46.7,71.7,48.8,67.6,48.1
			z"/>
	</g>
	<path class="st1" d="M48.5,57.6c0,0-1-3.8,0.2-7.5c0,0,0.8-0.9,0.8,0c0,0.9-0.5,6.1,1.5,6.5c0,0,0.5,0.2,0.2,0.5
		c-0.3,0.3-0.8,0.7-1.5,0.7C49.1,57.8,48.5,57.6,48.5,57.6z"/>
	<g>
		<polygon class="st7" points="33.4,22.6 34.6,26.5 40,24.8 39.7,24 36.6,25 35.6,21.8 		"/>
		<polygon class="st7" points="50,22.9 50,18.8 56.1,18.8 56.1,19.6 52.3,19.6 52.3,20.4 55.5,20.4 55.5,21.2 52.3,21.2 52.3,22.1 
			56.3,22.1 56.3,22.9 		"/>
		<polygon class="st7" points="41.7,24.3 41,20.3 47,19.3 47.1,20 43.4,20.7 43.5,21.5 46.7,20.9 46.8,21.7 43.7,22.2 43.8,23.1 
			47.7,22.4 47.9,23.2 		"/>
		<path class="st7" d="M58.7,22.9l0.4-4.1l3.5,0.3c0,0,3.9,0.5,3.6,2.5c0,0-0.1,2.2-4,1.6L58.7,22.9z M61.3,19.9l-0.2,2.4
			c0,0,2.5,0.6,2.5-1C63.6,21.3,64,20,61.3,19.9z"/>
		<path class="st7" d="M73.3,22.5l1.9,0.1c0,0-1.9-2.1-4.8-2.1c0,0-1.6,0.1-1.6,0.9s1.2,1.2,1.7,1.4c0.5,0.3,1.8,1,1.8,1
			s0.9,0.6-0.1,0.6c-1,0-1.9-0.6-2.2-1.2l-2.2-0.2c0,0,1.8,2.5,5.6,2.5c1.7,0,1.6-1,1.6-1s0.5-0.8-1.7-1.7l-1.7-0.8
			c0,0-0.5-0.3-0.1-0.5C71.6,21.4,72.8,21.9,73.3,22.5z"/>
	</g>
	<g>
		<polygon class="st8" points="33.4,22.6 34.6,26.5 40,24.8 39.7,24 36.6,25 35.6,21.8 		"/>
		<polygon class="st8" points="50,22.9 50,18.8 56.1,18.8 56.1,19.6 52.3,19.6 52.3,20.4 55.5,20.4 55.5,21.2 52.3,21.2 52.3,22.1 
			56.3,22.1 56.3,22.9 		"/>
		<polygon class="st8" points="41.7,24.3 41,20.3 47,19.3 47.1,20 43.4,20.7 43.5,21.5 46.7,20.9 46.8,21.7 43.7,22.2 43.8,23.1 
			47.7,22.4 47.9,23.2 		"/>
		<path class="st8" d="M58.7,22.9l0.4-4.1l3.5,0.3c0,0,3.9,0.5,3.6,2.5c0,0-0.1,2.2-4,1.6L58.7,22.9z M61.3,19.9l-0.2,2.4
			c0,0,2.5,0.6,2.5-1C63.6,21.3,64,20,61.3,19.9z"/>
		<path class="st8" d="M73.3,22.5l1.9,0.1c0,0-1.9-2.1-4.8-2.1c0,0-1.6,0.1-1.6,0.9s1.2,1.2,1.7,1.4c0.5,0.3,1.8,1,1.8,1
			s0.9,0.6-0.1,0.6c-1,0-1.9-0.6-2.2-1.2l-2.2-0.2c0,0,1.8,2.5,5.6,2.5c1.7,0,1.6-1,1.6-1s0.5-0.8-1.7-1.7l-1.7-0.8
			c0,0-0.5-0.3-0.1-0.5C71.6,21.4,72.8,21.9,73.3,22.5z"/>
	</g>
	<g>
		<polygon class="st4" points="33.4,22.6 34.6,26.5 40,24.8 39.7,24 36.6,25 35.6,21.8 		"/>
		<polygon class="st4" points="50,22.9 50,18.8 56.1,18.8 56.1,19.6 52.3,19.6 52.3,20.4 55.5,20.4 55.5,21.2 52.3,21.2 52.3,22.1 
			56.3,22.1 56.3,22.9 		"/>
		<polygon class="st4" points="41.7,24.3 41,20.3 47,19.3 47.1,20 43.4,20.7 43.5,21.5 46.7,20.9 46.8,21.7 43.7,22.2 43.8,23.1 
			47.7,22.4 47.9,23.2 		"/>
		<path class="st4" d="M58.7,22.9l0.4-4.1l3.5,0.3c0,0,3.9,0.5,3.6,2.5c0,0-0.1,2.2-4,1.6L58.7,22.9z M61.3,19.9l-0.2,2.4
			c0,0,2.5,0.6,2.5-1C63.6,21.3,64,20,61.3,19.9z"/>
		<path class="st4" d="M73.3,22.5l1.9,0.1c0,0-1.9-2.1-4.8-2.1c0,0-1.6,0.1-1.6,0.9s1.2,1.2,1.7,1.4c0.5,0.3,1.8,1,1.8,1
			s0.9,0.6-0.1,0.6c-1,0-1.9-0.6-2.2-1.2l-2.2-0.2c0,0,1.8,2.5,5.6,2.5c1.7,0,1.6-1,1.6-1s0.5-0.8-1.7-1.7l-1.7-0.8
			c0,0-0.5-0.3-0.1-0.5C71.6,21.4,72.8,21.9,73.3,22.5z"/>
	</g>
	<path class="st1" d="M37.1,43.9l0.5-0.2c0,0,0.2,0.9,0.2,2.1c0,0.5-0.1,1.8-0.7,3.2l-0.5-0.7C36.8,48.4,37.5,46.7,37.1,43.9"/>
	<path class="st1" d="M81.9,39.2c0,0-0.4,0.8-1.3,1.3l0,0c0.6-1.2,1-2.2,1.2-3.1h0.9c0,0-0.1,0.3-0.2,0.7l-0.2,0
		C82.3,38.1,82.2,38.7,81.9,39.2z"/>
</g>
</svg>
