<?xml version="1.0" encoding="utf-8"?>
<!-- Generator: Adobe Illustrator 24.0.1, SVG Export Plug-In . SVG Version: 6.00 Build 0)  -->
<svg version="1.1" id="Layer_1" xmlns="http://www.w3.org/2000/svg" xmlns:xlink="http://www.w3.org/1999/xlink" x="0px" y="0px"
	 viewBox="0 0 750 400" style="enable-background:new 0 0 750 400;" xml:space="preserve">
<style type="text/css">
	.st0{fill:#1D1D1B;}
	.st1{fill:#004A98;}
	.st2{fill:#FFFFFF;}
	.st3{fill:none;stroke:#FFFFFF;stroke-width:9.836064e-02;}
	.st4{fill:#FFC629;}
	.st5{fill:#FFFFFF;stroke:#004A98;stroke-width:8.852457e-03;}
	.st6{fill:#DEDFF0;}
	.st7{fill:#004A98;stroke:#FFFFFF;stroke-width:0.4918;}
	.st8{fill:#004A98;stroke:#004A98;stroke-width:0.2951;}
</style>
<g>
	<path class="st0" d="M146.5,122.8h3.9l3.7,6.7c0.1,0.2,0.3,0.4,0.6,0.4c0.2,0,0.5-0.1,0.6-0.4l3.7-6.7h3.9c0.4,0,0.7-0.3,0.7-0.7
		c0-0.4-0.3-0.7-0.7-0.7h-3.1l2-3.7c0.2-0.3,0.1-0.7-0.3-0.9c-0.3-0.2-0.7-0.1-0.9,0.3l-2.4,4.3h-7l-2.4-4.3
		c-0.2-0.3-0.6-0.4-0.9-0.3c-0.3,0.2-0.4,0.6-0.3,0.9l2,3.7h-3.1c-0.4,0-0.7,0.3-0.7,0.7S146.1,122.8,146.5,122.8z M151.9,122.8h5.5
		l-2.8,5L151.9,122.8z"/>
	<path class="st0" d="M148.3,133.4c-1.4,0-2.5,1-2.5,2.4s1.1,2.4,2.5,2.4s2.5-1.1,2.5-2.4C150.8,134.4,149.8,133.4,148.3,133.4z
		 M148.3,137.2c-0.7,0-1.3-0.6-1.3-1.4c0-0.8,0.6-1.4,1.3-1.4s1.3,0.6,1.3,1.4C149.6,136.6,149,137.2,148.3,137.2z"/>
	<polygon class="st0" points="155.1,133.4 153.7,133.4 152.8,134.8 151.9,133.4 150.5,133.4 152,135.8 150.4,138.2 151.8,138.2 
		152.8,136.7 153.8,138.2 155.2,138.2 153.6,135.7 	"/>
	<polygon class="st0" points="162.4,133.4 162.4,136.3 160.3,133.4 159.3,133.4 159.3,138.2 160.4,138.2 160.4,135.3 162.5,138.2 
		163.6,138.2 163.6,133.4 	"/>
	<polygon class="st0" points="155.3,134.4 158.5,134.4 158.5,133.4 155.9,133.4 	"/>
	<polygon class="st0" points="156.1,138.2 158.5,138.2 158.5,137.2 155.4,137.2 	"/>
	<polygon class="st0" points="154.7,135.3 154.4,135.7 154.8,136.3 158.5,136.3 158.5,135.3 	"/>
</g>
<g>
	<path class="st1" d="M266.2,118.7v-0.4h1.2c0,0,0.2,1.2,1.2,2.2h-2.9c0,0,0.2-0.7-0.4-0.7s-0.4,0.5-0.4,0.5s-0.1,0.2,0.6,0.3
		c0.6,0.1,3.7,0.2,3.7,2.9c0,2.7-3.1,2.7-3.2,2.7s-1.8,0.1-2.5-1.1l-0.5,0.4h-2.1c0,0,1.3-2.1,1.5-3.2h1.8c0,0-0.3,1.6,1.2,1.6
		c0,0,1.1,0,1.1-1c0-0.7-1.2-1-1.2-1s-2.3-0.1-2.3-2s1.9-1.7,1.9-1.7S265.4,118.4,266.2,118.7z"/>
	<ellipse class="st1" cx="251.3" cy="126.6" rx="17.3" ry="12"/>
	<ellipse class="st2" cx="251.2" cy="126.6" rx="16.7" ry="11.3"/>
	<ellipse class="st1" cx="251.2" cy="126.6" rx="16.3" ry="11"/>
	<path class="st1" d="M261.3,114.9c-2.9-1.1-6.3-1.8-10-1.8c-3.8,0-7.3,0.7-10.4,1.9l1.1,3.3c2.6-1.2,5.8-1.9,9.3-1.9
		c3.3,0,6.4,0.6,8.9,1.7L261.3,114.9z"/>
	<path class="st3" d="M260.9,115c-3.5-1.1-6-1.7-9.6-1.7c-3.8,0-7,0.7-10.1,1.8l0.9,2.9c2.6-1.2,5.7-1.8,9.1-1.8
		c3.3,0,6.2,0.6,8.8,1.6L260.9,115z"/>
	<path class="st1" d="M247.1,138.2c0,0-0.2,0.5,0.2,0.7s0.7,0.4,0.8,0.5s1,0.3,1.5-0.1c0.5-0.3,0.9-0.8,0.9-0.8L247.1,138.2z"/>
	<path class="st2" d="M258.5,125.6v-5.2c0-0.4,0.6-0.4,0.6-0.4v-1.4c-0.9,0-2.8,0.2-2.8,0.2v1.3h0.4c0.4,0,0.4,0.3,0.4,0.3v1.7
		l-1.4-3.3h-3.2v1.3h0.4c0,0,0.3,0,0.3,0.4v3.7v0.1c0,0,0,0.3-0.4,0.3s-0.6,0.1-0.6-0.3l0,0v-5.5h-5.8v1.4c0,0,0.1,0,0.3,0
		s0.2,0.2,0.2,0.2v1.6l-1.2,0.1v-1.3c0-0.5,0.5-0.6,0.5-0.6v-1.3h-3.5v1.4c0,0,0.2,0,0.5,0s0.2,0.2,0.2,0.2v4.6v1.3
		c0,0,0.1,0.4-0.5,0.5v1.4l0,0l3.3-0.9V126c-0.5,0.2-0.5-0.2-0.5-0.2v-2l1.2-0.3v1.9c0,0,0.1,0.4-0.5,0.5v1.4l3.5-0.9l0,0
		c2.7-0.6,2.7-0.6,5.4-0.8l0,0v-1.3c-0.6,0.2-0.6-0.3-0.6-0.3l0,0v-2.3l1.7,4L258.5,125.6L258.5,125.6z"/>
	<path class="st2" d="M261,118.4c0,0,2.5-0.2,2.5,2.8c0,2.9-2.3,2.8-2.5,2.8s-2.3,0-2.3-2.7C258.7,118.7,260.4,118.4,261,118.4z"/>
	<path class="st2" d="M266.4,118.3v-0.4h1.2c0,0,0.2,1.2,1.2,2.2H266c0,0,0.2-0.7-0.4-0.7s-0.4,0.5-0.4,0.5s-0.1,0.2,0.6,0.3
		c0.6,0.1,3.7,0.2,3.7,2.9c0,2.7-3.1,2.7-3.2,2.7s-1.8,0.1-2.5-1.1l-0.5,0.4h-2.1c0,0,1.3-2.1,1.5-3.2h1.8c0,0-0.3,1.6,1.2,1.6
		c0,0,1.1,0,1.1-1c0-0.7-1.2-1-1.2-1s-2.3-0.1-2.3-2s1.9-1.7,1.9-1.7S265.6,118.1,266.4,118.3z"/>
	<path class="st2" d="M250.8,116.3c0,0,1.3-0.1,1.3,1.3c0,1-1,1.2-1.3,1.2c-0.7,0-1.4-0.3-1.4-1.2
		C249.5,116.2,250.8,116.3,250.8,116.3z"/>
	<path class="st1" d="M258.7,125.4v-5.2c0-0.4,0.6-0.4,0.6-0.4v-1.4c-0.9,0-2.8,0.2-2.8,0.2v1.3h0.4c0.4,0,0.4,0.3,0.4,0.3v1.7
		l-1.4-3.3h-3.2v1.3h0.4c0,0,0.3,0,0.3,0.4v3.7v0.1c0,0,0,0.3-0.4,0.3s-0.6,0.1-0.6-0.3l0,0v-5.5h-5.8v1.4c0,0,0.1,0,0.3,0
		s0.2,0.2,0.2,0.2v1.6l-1.2,0.1v-1.3c0-0.5,0.5-0.6,0.5-0.6v-1.3h-3.5v1.4c0,0,0.2,0,0.5,0s0.2,0.2,0.2,0.2v4.6v1.3
		c0,0,0.1,0.4-0.5,0.5v1.4l0,0l3.3-0.9v-1.4c-0.5,0.2-0.5-0.2-0.5-0.2v-2l1.2-0.3v1.9c0,0,0.1,0.4-0.5,0.5v1.4l3.5-0.9l0,0
		c2.7-0.6,2.7-0.6,5.4-0.8l0,0v-1.3c-0.6,0.2-0.6-0.3-0.6-0.3l0,0v-2.3l1.7,4L258.7,125.4L258.7,125.4z"/>
	<path class="st1" d="M261.3,118.1c0,0,2.5-0.2,2.5,2.8c0,2.9-2.3,2.8-2.5,2.8s-2.3,0-2.3-2.7C259,118.5,260.6,118.1,261.3,118.1z"
		/>
	<path class="st2" d="M250,119.8c0,0,0.4-0.1,0.4,0.3s0,4.5,0,4.5s0,0.3-0.4,0.3s-0.6,0.1-0.6-0.3v-4.3c0,0,0-0.4,0.4-0.5
		C249.8,119.8,249.4,119.9,250,119.8z"/>
	<path class="st1" d="M249.7,120.1c0,0,0.4-0.1,0.4,0.3s0,4.5,0,4.5s0,0.1-0.4,0.1s-0.5,0.1-0.5-0.3v-4c0,0-0.2-0.4,0.3-0.5
		C249.4,120.2,249.1,120.2,249.7,120.1z"/>
	<path class="st1" d="M266.7,118v-0.4h1.2c0,0,0.2,1.2,1.2,2.2h-2.9c0,0,0.2-0.7-0.4-0.7s-0.4,0.5-0.4,0.5s-0.1,0.2,0.6,0.3
		c0.6,0.1,3.7,0.2,3.7,2.9c0,2.7-3.1,2.7-3.2,2.7s-1.8,0.1-2.5-1.1l-0.5,0.4h-2.1c0,0,1.3-2.1,1.5-3.2h1.8c0,0-0.3,1.6,1.2,1.6
		c0,0,1.1,0,1.1-1c0-0.7-1.2-1-1.2-1s-2.3-0.1-2.3-2s1.9-1.7,1.9-1.7S265.9,117.8,266.7,118z"/>
	<path class="st2" d="M244,137.4c0,0,0.1-0.9-0.7-0.9c0,0-0.4,0.1-0.6,0.1c0,0-0.7-0.4-1.4,0s-0.7,1-0.5,1.3c0,0-0.8,0.4-0.4,1.1
		c0,0-0.5,0.8-0.2,1.2s1.1,1.1,1.7,0.8c0,0,0.5-0.2,0.6-0.5c0,0,0.5,0.4,1,0c0,0,0.3,0.2,0.9-0.1c0,0,1.8-0.8,0.2-2l0.2-0.4
		l-0.3-0.4C244.7,137.8,244.3,137.3,244,137.4z"/>
	<path class="st1" d="M244.1,137.3c0,0,0-0.8-0.7-0.8c0,0-0.3,0-0.6,0.1c0,0-0.2-0.2-0.8-0.2s-1.6,0.7-1.2,1.6c0,0-0.8,0.5-0.3,1.2
		c0,0-0.6,0.8-0.1,1.5c0.5,0.6,1.8,1.2,2.4,0.1c0,0,0.6,0.6,1.1-0.2c0,0-0.6,0.5-1.1-0.2c0,0-0.3,0.7-0.9,0.7c-0.7,0-1-0.5-1.2-0.8
		s0-1,0.2-1.2c0,0-0.7-0.3,0.4-1c0,0-0.5-0.8,0.2-1.1s1.1-0.3,1.3-0.1c0,0,0.5-0.2,0.6-0.2c0.2,0,0.5,0.1,0.5,0.5
		c0,0,0.2,0.4-0.4,0.6l-0.6,0.3c0,0-0.2,0.4,0.1,0.2c0.3-0.1,0.7-0.3,0.8-0.4c0.2-0.1,0.5-0.3,0.7-0.2s0.2,0.1-0.1,0.3
		c-0.4,0.2-1.6,0.9-1.6,0.9v0.4c0,0,1.3-0.9,1.9-1.2c0,0,0.3-0.1,0-0.4C244.3,137.2,244.1,137.3,244.1,137.3z"/>
	<polygon class="st1" points="243.9,138.9 243.7,138.7 244.8,138.1 	"/>
	<path class="st1" d="M245,138.2l-0.5,0.4l0.1,0.1c0,0,0.1-0.1,0.2,0c0.1,0.2,0.5,0.2,0.5,0.8s-0.6,1-0.8,1c0,0,1.2-0.1,1.2-1
		s-0.9-1.1-0.9-1.1L245,138.2z"/>
	<path class="st1" d="M232.6,123l-3.7-5.8l0.2-0.2c0,0,1.7,1.6,4.1,1.6h5.9c0,0,3.5-0.1,3.5,3.4c0,0,0.2,2.4-1.8,3.3
		c0,0,0.4,0.2,0.5,0.6s0.2,0.9,0.5,0.9s0.7-0.8,0.6-1.3l1.1-0.3c0,0,0.1,0.4,0.1,0.9s-0.2,2.7-2.7,3.2c0,0-1,0.2-1.5-0.7
		c-0.5-0.9-0.9-1.6-0.9-1.6s-0.2-0.4-0.8-0.4c-0.7,0-0.8,0.5-0.8,0.5v3c0,0,0.1,0.5,0.6,0.4v1.2c0,0-2.1,1.6-4,4l-0.1-2.6
		c0,0,1.2-0.8,1.2-1.8s-0.1-10.1-0.1-10.1S233.4,121.5,232.6,123z"/>
	<path class="st2" d="M232.9,122.7l-3.7-5.8l0.2-0.2c0,0,1.7,1.6,4.1,1.6h5.9c0,0,3.5-0.1,3.5,3.4c0,0,0.2,2.4-1.8,3.3
		c0,0,0.4,0.2,0.5,0.6s0.2,0.9,0.5,0.9s0.7-0.8,0.6-1.3l1.1-0.3c0,0,0.1,0.4,0.1,0.9s-0.2,2.7-2.7,3.2c0,0-1,0.2-1.5-0.7
		c-0.5-0.9-0.9-1.6-0.9-1.6s-0.2-0.4-0.8-0.4c-0.7,0-0.8,0.5-0.8,0.5v3c0,0,0.1,0.5,0.6,0.4v1.2c0,0-2.1,1.6-4,4l-0.1-2.6
		c0,0,1.2-0.8,1.2-1.8s-0.1-10.1-0.1-10.1S233.7,121.1,232.9,122.7z"/>
	<path class="st1" d="M233.2,122.4l-3.7-5.8l0.2-0.2c0,0,1.7,1.6,4.1,1.6h5.9c0,0,3.5-0.1,3.5,3.4c0,0,0.2,2.4-1.8,3.3
		c0,0,0.4,0.2,0.5,0.6s0.2,0.9,0.5,0.9s0.7-0.8,0.6-1.3l1.1-0.3c0,0,0.1,0.4,0.1,0.9s-0.2,2.7-2.7,3.2c0,0-1,0.2-1.5-0.7
		c-0.5-0.9-0.9-1.6-0.9-1.6s-0.2-0.4-0.8-0.4c-0.7,0-0.8,0.5-0.8,0.5v3c0,0,0.1,0.5,0.6,0.4v1.2c0,0-2.1,1.6-4,4l-0.1-2.6
		c0,0,1.2-0.8,1.2-1.8s-0.1-10.1-0.1-10.1S234,120.9,233.2,122.4z"/>
	<path class="st1" d="M251.3,116c0,0,1.3-0.1,1.3,1.3c0,1-1,1.2-1.3,1.2c-0.7,0-1.4-0.3-1.4-1.2C249.9,116,251.3,116,251.3,116z"/>
	<path class="st4" d="M243.4,127.5v-0.9c0.6,0,0.5-0.6,0.5-0.6v-6c0-0.6-0.7-0.5-0.7-0.5v-0.7h2.9v0.8c0,0-0.5,0.1-0.5,0.7
		s0,1.8,0,1.8s1,0,1.8-0.2V120c0,0,0.1-0.4-0.3-0.4h-0.2v-0.7h2.9v0.7c0,0-0.7,0.1-0.7,0.7s0,4.4,0,4.4s-0.1,0.6,0.5,0.5h0.2v0.8
		l-2.8,0.7v-0.8c0,0,0.4-0.1,0.4-0.6s0-2.4,0-2.4l-1.8,0.4v2.4c0,0,0,0.5,0.5,0.4v0.8L243.4,127.5z M258.4,125.1l0.1-5
		c0-0.6,0.6-0.6,0.6-0.6v-0.8l-2.2,0.1v0.8h0.3c0.5,0,0.5,0.5,0.5,0.5v2.6h-0.2l-1.7-3.9h-2.7v0.8h0.2c0,0,0.5,0.1,0.5,0.6
		s0,0.5,0,3.7c0,0.6-0.4,0.6-1,0.7c-0.7,0.1-0.6-0.7-0.6-0.7v-5.1h-2v0.7c0,0,0.6-0.1,0.6,0.5s0,4.5,0,4.5s0.1,0.6-0.6,0.6v0.7
		c0,0,2.8-0.6,5.1-0.7v-0.7c0,0-0.6,0.1-0.6-0.6v-3.1l0.3-0.1l2,4.5H258.4z M259.3,120.9c0,2.7,1.9,2.6,1.9,2.6c0.5,0,2.2,0,2.2-2.6
		s-2-2.4-2-2.4S259.3,118.3,259.3,120.9z M265.5,118.1c-0.6,0-1.7,0.2-1.7,1.4c0,1.2,0.6,1.4,2.1,1.8s1.3,1.2,1.3,1.2s0,1.3-1.3,1.3
		c-1.8,0-1.6-1.6-1.6-1.6h-1.2c-0.4,1.4-1.2,2.5-1.2,2.5h1.6l0.6-0.5c0.5,0.7,1.1,1.2,2.6,1.2s2.8-0.8,2.8-2.4s-1.2-2.1-1.7-2.3
		c-0.5-0.2-2.1-0.5-2.1-0.5s-0.6,0-0.6-0.5c0-0.8,0.7-0.8,0.7-0.8c0.7,0,0.7,0.7,0.7,0.7h1.9c-0.7-1-0.8-1.7-0.8-1.7H267v0.5
		C266.4,118.2,266,118.1,265.5,118.1z M235.5,130.5c0,1.5-1.1,2.1-1.1,2.1v1.5c1.1-1.4,3.3-3.3,3.3-3.3v-0.7c-0.6,0-0.6-0.6-0.6-0.6
		v-3.2c0,0,0.4-0.6,1.1-0.6c0.9,0,1.1,0.5,1.1,0.5s0.7,1.4,1.1,1.8c0.4,0.5,1.1,0.8,2.4-0.1c1.3-1,1.1-2.9,1.1-2.9l-0.7,0.2
		c0,0.4-0.3,1.4-0.9,1.4c-0.6,0-0.6-0.8-0.8-1.2c-0.1-0.5-0.7-0.4-0.7-0.4v-0.2c0,0,2.2-0.6,2.2-3.3c0-3-3.1-3.1-3.1-3.1H234
		c-2.4,0.1-3.7-1.1-3.7-1.1l2.9,4.6c1-1.4,2.2-1.5,2.2-1.5S235.5,129,235.5,130.5z M250.2,117.3c0,0.9,0.8,1,1.1,1s1.1-0.2,1.1-1.1
		s-1.1-0.9-1.1-0.9S250.2,116.4,250.2,117.3z"/>
	<path class="st1" d="M244.7,136.2c0,0-0.1,0.3,0.1,0.6c0.2,0.2,0.5,0.4,0.7,0.8c0.2,0.4,0.4,0.5,0.7,0.6s0.6,0.2,0.9,0L244.7,136.2
		z"/>
	<path class="st1" d="M237.2,120.1v4.2c0,0,3.2-0.2,3.2-2.6C240.4,119.4,237.2,120.1,237.2,120.1z"/>
	<path class="st2" d="M237.5,120.3v3.6c0,0,2.6-0.3,2.6-2.2C240.1,119.9,237.5,120.3,237.5,120.3z"/>
	<path class="st1" d="M237.5,120.6v3.6c0,0,2.6-0.3,2.6-2.2C240.1,120.2,237.5,120.6,237.5,120.6z"/>
	<path class="st1" d="M261.4,119c0,0,0.8-0.1,0.8,1.9c0,1.9-0.5,2.1-0.9,2.1c-0.7,0-0.8-1.2-0.8-2C260.5,120.1,260.6,119,261.4,119z
		"/>
	<path class="st5" d="M261.4,119.2c0,0,0.5-0.1,0.5,1.7c0,1.6-0.3,1.8-0.7,1.8c-0.4,0-0.5-0.8-0.5-1.7
		C260.8,120.1,260.8,119.2,261.4,119.2z"/>
	<path class="st1" d="M261.2,119.5c0,0,0.5-0.1,0.5,1.7c0,1.6-0.3,1.8-0.7,1.8c-0.4,0-0.5-0.8-0.5-1.7S260.6,119.5,261.2,119.5z"/>
	<path class="st1" d="M253.1,125.9c0,0-0.1-0.2-0.6-0.2c-0.6-0.1-1.4-0.2-1.4-1.4c0-1.1,0.4-2.4,1.3-2.7c0,0,0.3-0.1,0.7,0.1
		s1.3,0.7,1.6,1.9c0,0,0.2,0.6,0.1,0.7c-0.1,0.1-0.1,0.2,0,0.3c0.1,0.1,0.7,0.7,0.7,0.7l-2,1"/>
	<path class="st1" d="M256.1,125.6l-0.1-0.5c0,0,0.6,0.3,1.1-0.4c0.6-0.7,2-3,3.3-3c0,0,0.7,0.1,0.9,0.4c0.1,0.4,0.4,0.9,0.3,1.7
		c-0.1,0.8-0.5,2.6-3.3,3.1L256.1,125.6z"/>
	<path class="st1" d="M242.8,128.5c0,0-0.4-2,0.2-2.4c0,0,0.2-0.2,0.6,0.2c0.4,0.4,1.3,1.5,1.3,1.5L242.8,128.5z"/>
	<path class="st1" d="M247.5,138.1c0,0,0.1,0.4,1,0.4s1.3-0.3,1.3-0.8s-0.5-0.7-0.7-0.7s-1.4,0.4-1.8,0.6"/>
	<path class="st6" d="M249.3,137.5c0,0-0.5-0.2-1.5,0.2c0,0-0.3,0.2,0,0.3c0.4,0.1,1.7,0.1,1.8-0.4c0,0,0-0.1-0.1,0
		c-0.1,0-0.5,0.1-0.8,0.2L249.3,137.5z"/>
	<path class="st6" d="M245.7,134.1c0,0-0.6,0-1.1-1c-0.6-1.1-1.4-3.6-1.7-5c0,0-0.1-1,0-1.7c0,0,0.2-0.5,0.4-0.2s1.9,2.9,3.4,4.3
		c0,0,1.2,0.9,1.2,2.5h0.1c0,0,0-0.5,0.1-0.7s0.3-0.7-0.2-1.1l-0.5-0.4c0,0,0.2-0.4,0.9-0.4c0,0-0.3-2.4,0.5-3.6c0,0,0.4-0.3,0.4,0
		s0.4,1.1,0.5,1.2c0.1,0.2,0.9,0.9,0.8,1.4c0,0,0.3-0.3,0.2-0.6c0,0,0.1-0.1,0.2-0.1c0.1,0,0.6,0,0.9-0.2l-0.3-0.1
		c0,0,0.6-0.7,0.8-0.9c0.2-0.3,0.8-1.5,2.4-2.2c0,0-0.7-0.1-1.3,0.3c0,0-0.2,0.1-0.3-0.1s-0.3-0.4-0.6-0.4s-1.3,0.1-1.3-1
		s0.4-2.5,1-2.5c0,0,0.6,0.1,0.9,0.4c0.3,0.3,1.1,1.1,1.1,2.2l-0.2,0.1l0.5,0.7l-0.1,0.1c0,0,0.7-0.1,1.3,0.2c0,0-0.2,0.2,0.1,0.2
		c0.3,0.1,0.6,0,0.9-0.3s0.8-1,1.1-1.4c0.3-0.5,1.2-2,2.5-2c1,0,0.7,1.3,0.7,1.3s0.2,2.8-3.3,3.5c0,0,0.6,0.4,0.9,1.4
		c0,0,0.1-0.2,0.1-0.4c0,0-0.2-0.2-0.1-0.2c0.1-0.1,0.1-0.1,0.3-0.2c0.2,0,0.5,0.1,0.6-0.1s0.1-0.2,0.4-0.2c0.2,0,0.8,0.1,1.1-0.2
		c0,0,0.2-0.1,0.5-0.1s1.4,0,1.4,0s1.9,0.2,1.9,1.8s0,1.9-0.3,2.6s-0.5,1.4-1.3,1.9c0,0-0.3,0.2-0.6,0.4c-0.3,0.2-0.7,0.5-0.9,0.7
		s-0.6,0.4-0.9,0.5s-0.6,0.1-0.8,0.4c-0.2,0.3-1.2,1.2-1.7,1.2s-0.9-0.2-1.2-0.5c0,0,0.6-0.1,0.9-0.3c0,0,0.2-0.1,0.2,0.2
		c0,0,0.3-0.2,0.1-0.4c0,0-0.1,0-0.3,0.1c-0.2,0.1-0.5,0.2-0.6,0.2s-0.4,0-0.3-0.4s0.9-1.3,0.7-3.9c0,0-0.2,2.9-1.2,3.8
		c-0.9,1-1.3,1.2-2.3,1.5s-1.7,0.8-2,0.9c-0.3,0.1-0.9,0.3-1.2,0.4c-0.3,0.1-0.6,0.3-0.7,0.4c-0.2,0.1-1,0.9-1.8,0.9s-0.7-0.2-1-0.4
		c-0.3-0.1-0.7-0.2-0.1-0.6c0,0,0.1,0.4,1,0.4s1.3-0.3,1.3-0.8s-0.5-0.7-0.7-0.7s-1.4,0.4-1.8,0.6c0,0-0.2,0.2-0.7,0.2
		s-0.5-0.1-0.6-0.3c-0.2-0.2-0.4-0.8-0.8-1.1c0,0-0.2-0.1-0.1-0.2c0-0.2,0.2-0.6,0.2-1.4C245.3,134.7,245.3,134.2,245.7,134.1
		c0.5,0.2,1.8,0.2,2.2-0.8l-0.3,0.3c0,0-0.2,0.1-0.3-0.1c-0.1-0.1-0.4-0.2-0.4-0.2s-0.3-0.7-0.9-1c0,0-0.1-0.6-0.5-0.9
		c0,0,0.1-0.4-0.7-1c0,0-0.1-0.6-0.6-1.1c0,0,0.1-0.7-0.4-1.1c0,0,0-0.3-0.2-0.7c-0.2-0.4-0.3-0.9-0.3-0.9s-0.1,0.4,0.1,1.2
		c0.1,0.8,0.7,2.6,0.9,3.1c0.2,0.4,0.6,1.6,1,2.1C245.5,133.7,245.7,134.1,245.7,134.1z"/>
	<g>
		<path class="st1" d="M249.8,137.2c0,0,0.2,0.2,0.2,0.6c0,0,0.1,0.1,0.2,0C250.2,137.7,250.1,137.3,249.8,137.2
			C249.9,137.2,249.7,137.2,249.8,137.2z"/>
		<path class="st1" d="M250.1,137.1c0,0,0.4,0.3,0.3,0.6h-0.1C250.3,137.7,250.3,137.4,250.1,137.1L250.1,137.1z"/>
		<path class="st1" d="M247.1,136.3c0,0-0.1-0.3-0.1-0.6s0.2-0.7,0.5-0.9c0,0-0.8,0.2-0.8,0.8C246.7,136.2,247.1,136.3,247.1,136.3z
			"/>
		<path class="st1" d="M246.4,135.8c0,0,0.3,0.6,0.6,0.7C247,136.5,246.1,136.7,246.4,135.8z"/>
		<path class="st1" d="M248.5,134.9c0,0,0.7,0.1,0.7,0.6s-0.4,0.5-0.5,0.5s-0.1-0.1-0.2-0.2c0-0.1,0-0.1-0.1-0.1s-0.4,0.1-0.7,0.4
			c0,0-0.2,0.1-0.2-0.2C247.6,135.6,247.9,134.9,248.5,134.9z"/>
		<path class="st1" d="M251.2,132.5c0,0,0.4-0.3,0.6-0.9c0.2-0.6,0.6-0.7,1.1-0.6c0,0-0.6,0.1-0.7,0.4c0,0,0.4,0,0.4,0.1
			s0,0.1-0.2,0.2c-0.1,0.1-0.7,0.4-0.9,0.6C251.5,132.5,251.2,132.5,251.2,132.5z"/>
		<path class="st1" d="M252.3,133.3c0,0-0.2-0.1,0-0.1s1-0.1,1.4-0.7c0,0,0,0.4-0.3,0.6C253.2,133.3,253,133.3,252.3,133.3z"/>
		<path class="st1" d="M251.7,132.7c0,0,0.4-0.2,0.7-0.6c0.3-0.3,0.4-0.3,0.6-0.3c0.2,0,0.4,0.2,0.4,0.3s-0.2,0.4-0.4,0.5
			c0,0,0.3-0.6-0.1-0.6s-0.6,0.4-0.3,0.4l0.1-0.1c0,0,0,0.5-0.4,0.5S251.7,132.7,251.7,132.7z"/>
		<path class="st1" d="M258.3,131.3c0,0,0.3,2.1-0.6,3.1c0,0,1-0.1,1-1.9C258.7,131.3,258.3,131.3,258.3,131.3z"/>
		<path class="st1" d="M256.9,126.5c0,0,0.8-1.5,1.2-2.1c0.4-0.6,1.2-2.1,2.5-2c0,0-0.1,0.1-0.3,0.2c-0.1,0.1-1.1,0.7-1.6,1.4
			c-0.4,0.7-0.1,0.8,0,1c0.1,0.1,0.3,0.3,0.2,0.5c-0.1,0.2-0.2,0.2-0.3,0.3s-0.1,0.1-0.1,0.2C258.6,125.9,258.6,126.8,256.9,126.5z"
			/>
	</g>
	<path class="st1" d="M248.7,130.5c0,0-0.4-1.6,0.1-3.2c0,0,0.4-0.4,0.3,0c0,0.4-0.2,2.6,0.6,2.8c0,0,0.2,0.1,0.1,0.2
		c-0.1,0.1-0.3,0.3-0.6,0.3C249,130.6,248.7,130.5,248.7,130.5z"/>
	<g>
		<polygon class="st7" points="242.2,115.6 242.8,117.3 245.1,116.5 244.9,116.2 243.7,116.6 243.2,115.2 		"/>
		<polygon class="st7" points="249.4,115.7 249.4,114 252,114 252,114.3 250.4,114.3 250.4,114.6 251.7,114.6 251.7,115 250.4,115 
			250.4,115.4 252,115.4 252,115.7 		"/>
		<polygon class="st7" points="245.8,116.3 245.5,114.6 248.1,114.2 248.1,114.5 246.5,114.8 246.6,115.1 247.9,114.9 248,115.2 
			246.7,115.4 246.7,115.8 248.4,115.5 248.4,115.8 		"/>
		<path class="st7" d="M253.1,115.7l0.2-1.7l1.5,0.1c0,0,1.7,0.2,1.5,1.1c0,0-0.1,0.9-1.7,0.7L253.1,115.7z M254.2,114.4l-0.1,1
			c0,0,1,0.2,1.1-0.4C255.1,115,255.3,114.5,254.2,114.4z"/>
		<path class="st7" d="M259.3,115.5l0.8,0.1c0,0-0.8-0.9-2.1-0.9c0,0-0.7,0.1-0.7,0.4s0.5,0.5,0.7,0.6s0.8,0.4,0.8,0.4
			s0.4,0.2,0,0.2s-0.8-0.3-0.9-0.5l-0.9-0.1c0,0,0.8,1.1,2.4,1.1c0.7,0,0.7-0.4,0.7-0.4s0.2-0.4-0.7-0.7l-0.7-0.3
			c0,0-0.2-0.1-0.1-0.2C258.6,115.1,259.1,115.3,259.3,115.5z"/>
	</g>
	<g>
		<polygon class="st8" points="242.2,115.6 242.8,117.3 245.1,116.5 244.9,116.2 243.7,116.6 243.2,115.2 		"/>
		<polygon class="st8" points="249.4,115.7 249.4,114 252,114 252,114.3 250.4,114.3 250.4,114.6 251.7,114.6 251.7,115 250.4,115 
			250.4,115.4 252,115.4 252,115.7 		"/>
		<polygon class="st8" points="245.8,116.3 245.5,114.6 248.1,114.2 248.1,114.5 246.5,114.8 246.6,115.1 247.9,114.9 248,115.2 
			246.7,115.4 246.7,115.8 248.4,115.5 248.4,115.8 		"/>
		<path class="st8" d="M253.1,115.7l0.2-1.7l1.5,0.1c0,0,1.7,0.2,1.5,1.1c0,0-0.1,0.9-1.7,0.7L253.1,115.7z M254.2,114.4l-0.1,1
			c0,0,1,0.2,1.1-0.4C255.1,115,255.3,114.5,254.2,114.4z"/>
		<path class="st8" d="M259.3,115.5l0.8,0.1c0,0-0.8-0.9-2.1-0.9c0,0-0.7,0.1-0.7,0.4s0.5,0.5,0.7,0.6s0.8,0.4,0.8,0.4
			s0.4,0.2,0,0.2s-0.8-0.3-0.9-0.5l-0.9-0.1c0,0,0.8,1.1,2.4,1.1c0.7,0,0.7-0.4,0.7-0.4s0.2-0.4-0.7-0.7l-0.7-0.3
			c0,0-0.2-0.1-0.1-0.2C258.6,115.1,259.1,115.3,259.3,115.5z"/>
	</g>
	<g>
		<polygon class="st4" points="242.2,115.6 242.8,117.3 245.1,116.5 244.9,116.2 243.7,116.6 243.2,115.2 		"/>
		<polygon class="st4" points="249.4,115.7 249.4,114 252,114 252,114.3 250.4,114.3 250.4,114.6 251.7,114.6 251.7,115 250.4,115 
			250.4,115.4 252,115.4 252,115.7 		"/>
		<polygon class="st4" points="245.8,116.3 245.5,114.6 248.1,114.2 248.1,114.5 246.5,114.8 246.6,115.1 247.9,114.9 248,115.2 
			246.7,115.4 246.7,115.8 248.4,115.5 248.4,115.8 		"/>
		<path class="st4" d="M253.1,115.7l0.2-1.7l1.5,0.1c0,0,1.7,0.2,1.5,1.1c0,0-0.1,0.9-1.7,0.7L253.1,115.7z M254.2,114.4l-0.1,1
			c0,0,1,0.2,1.1-0.4C255.1,115,255.3,114.5,254.2,114.4z"/>
		<path class="st4" d="M259.3,115.5l0.8,0.1c0,0-0.8-0.9-2.1-0.9c0,0-0.7,0.1-0.7,0.4s0.5,0.5,0.7,0.6s0.8,0.4,0.8,0.4
			s0.4,0.2,0,0.2s-0.8-0.3-0.9-0.5l-0.9-0.1c0,0,0.8,1.1,2.4,1.1c0.7,0,0.7-0.4,0.7-0.4s0.2-0.4-0.7-0.7l-0.7-0.3
			c0,0-0.2-0.1-0.1-0.2C258.6,115.1,259.1,115.3,259.3,115.5z"/>
	</g>
	<path class="st1" d="M243.9,124.7l0.2-0.1c0,0,0.1,0.4,0.1,0.9c0,0.2,0,0.8-0.3,1.4l-0.2-0.3C243.7,126.6,244,125.9,243.9,124.7"/>
	<path class="st1" d="M263,122.7c0,0-0.2,0.3-0.5,0.5l0,0c0.3-0.5,0.4-0.9,0.5-1.3h0.4c0,0,0,0.1-0.1,0.3h-0.1
		C263.1,122.2,263.1,122.4,263,122.7z"/>
</g>
</svg>
